<svg width="18" height="18" viewBox="0 0 18 18" fill="none" xmlns="http://www.w3.org/2000/svg">
<g clip-path="url(#clip0_77_9907)">
<path d="M9 17.1125H9.00006C11.1509 17.1101 13.2129 16.2546 14.7338 14.7338C16.2546 13.2129 17.1101 11.1509 17.1125 9.00006V9C17.1125 7.3955 16.6367 5.82703 15.7453 4.49294C14.8539 3.15885 13.5869 2.11905 12.1045 1.50503C10.6222 0.891015 8.991 0.73036 7.41733 1.04338C5.84366 1.35641 4.39815 2.12905 3.2636 3.2636C2.12905 4.39815 1.35641 5.84366 1.04338 7.41733C0.73036 8.991 0.891015 10.6222 1.50503 12.1045C2.11905 13.5869 3.15885 14.8539 4.49294 15.7453C5.82703 16.6367 7.3955 17.1125 9 17.1125ZM5.17351 3.27326C6.30614 2.51646 7.63775 2.11251 8.99995 2.1125C10.826 2.11447 12.5768 2.84076 13.868 4.132C15.1593 5.42324 15.8855 7.17397 15.8875 9.00006C15.8875 10.3623 15.4836 11.6939 14.7268 12.8265C13.9699 13.9591 12.8943 14.8419 11.6357 15.3632C10.3772 15.8845 8.99236 16.0209 7.65632 15.7552C6.32028 15.4894 5.09304 14.8334 4.12981 13.8702C3.16657 12.907 2.5106 11.6797 2.24485 10.3437C1.97909 9.00764 2.11548 7.6228 2.63678 6.36427C3.15808 5.10575 4.04087 4.03007 5.17351 3.27326Z" fill="#FC8019" stroke="#FC8019" stroke-width="0.1"/>
<path d="M8.5669 12.4331C8.68176 12.548 8.83755 12.6125 9 12.6125C9.16245 12.6125 9.31824 12.548 9.4331 12.4331C9.54797 12.3182 9.6125 12.1624 9.6125 12V8.25C9.6125 8.08755 9.54797 7.93176 9.4331 7.8169C9.31824 7.70203 9.16245 7.6375 9 7.6375C8.83755 7.6375 8.68176 7.70203 8.5669 7.8169C8.45203 7.93176 8.3875 8.08755 8.3875 8.25V12C8.3875 12.1624 8.45203 12.3182 8.5669 12.4331Z" fill="#FC8019" stroke="#FC8019" stroke-width="0.1"/>
<path d="M9 6.8C9.44183 6.8 9.8 6.44183 9.8 6C9.8 5.55817 9.44183 5.2 9 5.2C8.55817 5.2 8.2 5.55817 8.2 6C8.2 6.44183 8.55817 6.8 9 6.8Z" fill="#FC8019" stroke="#FC8019" stroke-width="0.1"/>
</g>
<defs>
<clipPath id="clip0_77_9907">
<rect width="18" height="18" fill="white"/>
</clipPath>
</defs>
</svg>
