<svg width="512" height="512" viewBox="0 0 512 512" fill="none" xmlns="http://www.w3.org/2000/svg">
<path fill-rule="evenodd" clip-rule="evenodd" d="M298.666 32C236.842 32 186.666 82.176 186.666 144C186.666 205.824 236.842 256 298.666 256C360.49 256 410.666 205.824 410.666 144C410.666 82.176 360.49 32 298.666 32ZM314.666 128V106.667C314.666 102.423 312.98 98.3535 309.98 95.353C306.979 92.3524 302.909 90.6667 298.666 90.6667C294.423 90.6667 290.353 92.3524 287.352 95.353C284.352 98.3535 282.666 102.423 282.666 106.667V128H261.333C257.089 128 253.02 129.686 250.019 132.686C247.018 135.687 245.333 139.757 245.333 144C245.333 148.243 247.018 152.313 250.019 155.314C253.02 158.314 257.089 160 261.333 160H282.666V181.333C282.666 185.577 284.352 189.646 287.352 192.647C290.353 195.648 294.423 197.333 298.666 197.333C302.909 197.333 306.979 195.648 309.98 192.647C312.98 189.646 314.666 185.577 314.666 181.333V160H335.999C340.243 160 344.312 158.314 347.313 155.314C350.314 152.313 351.999 148.243 351.999 144C351.999 139.757 350.314 135.687 347.313 132.686C344.312 129.686 340.243 128 335.999 128H314.666ZM42.666 74.6667H77.3754C79.9354 74.6667 82.1327 76.48 82.602 78.9973L105.663 200.32C106.455 204.49 108.872 208.174 112.38 210.563C115.889 212.951 120.203 213.848 124.373 213.056C128.543 212.264 132.227 209.848 134.616 206.339C137.004 202.83 137.901 198.517 137.109 194.347L114.047 73.024C112.423 64.4867 107.872 56.7833 101.178 51.2417C94.4836 45.7001 86.0657 42.6675 77.3754 42.6667H42.666C38.4226 42.6667 34.3529 44.3524 31.3523 47.353C28.3517 50.3535 26.666 54.4232 26.666 58.6667C26.666 62.9101 28.3517 66.9798 31.3523 69.9804C34.3529 72.981 38.4226 74.6667 42.666 74.6667Z" fill="#FC8019"/>
<path d="M388.053 464C405.726 464 420.053 449.673 420.053 432C420.053 414.327 405.726 400 388.053 400C370.38 400 356.053 414.327 356.053 432C356.053 449.673 370.38 464 388.053 464Z" fill="#FC8019"/>
<path d="M206.719 464C224.392 464 238.719 449.673 238.719 432C238.719 414.327 224.392 400 206.719 400C189.046 400 174.719 414.327 174.719 432C174.719 449.673 189.046 464 206.719 464Z" fill="#FC8019"/>
<path fill-rule="evenodd" clip-rule="evenodd" d="M166.292 128H110.719C108.353 128.001 106.016 128.528 103.878 129.541C101.739 130.554 99.8523 132.029 98.3526 133.859C96.8528 135.689 95.7777 137.83 95.2047 140.125C94.6317 142.421 94.5751 144.816 95.0389 147.136L130.836 326.165C133.495 339.467 140.681 351.436 151.171 360.036C161.661 368.636 174.807 373.335 188.372 373.333H395.732C409.297 373.335 422.443 368.636 432.933 360.036C443.424 351.436 450.61 339.467 453.268 326.165L483.967 172.651C485.053 167.234 484.924 161.644 483.587 156.284C482.25 150.924 479.74 145.927 476.238 141.655C472.735 137.383 468.328 133.942 463.334 131.581C458.339 129.219 452.883 127.996 447.359 128H431.039C433.288 146.722 431.543 165.707 425.92 183.706C420.296 201.704 410.921 218.305 398.413 232.416C385.905 246.527 370.548 257.826 353.355 265.568C336.161 273.31 317.522 277.32 298.666 277.333C279.809 277.32 261.17 273.31 243.977 265.568C226.783 257.826 211.426 246.527 198.918 232.416C186.41 218.305 177.035 201.704 171.411 183.706C165.788 165.707 164.043 146.722 166.292 128Z" fill="#FC8019"/>
</svg>
