<svg width="512" height="512" viewBox="0 0 512 512" fill="none" xmlns="http://www.w3.org/2000/svg">
<g clip-path="url(#clip0_1129_452)">
<path d="M222.609 222.608C284.08 222.608 333.913 172.775 333.913 111.304C333.913 49.8325 284.08 0 222.609 0C161.137 0 111.305 49.8325 111.305 111.304C111.305 172.775 161.137 222.608 222.609 222.608Z" fill="#FC8019"/>
<path d="M351.758 295.081C328.201 305.312 311.652 329.012 311.652 356.174C274.924 356.174 244.869 386.228 244.869 422.957C244.869 430.75 246.206 438.316 248.874 445.218H111.304C76.3411 445.218 46.1301 418.27 44.6271 383.34C41.8891 319.676 92.7591 267.13 155.826 267.13H289.391C312.949 267.13 334.926 274.524 352.965 287.277C355.856 289.321 355.005 293.671 351.758 295.081ZM467.478 422.957C467.478 435.196 457.462 445.218 445.217 445.218H400.695V489.74C400.695 501.979 390.679 512.001 378.434 512.001C366.189 512.001 356.173 501.979 356.173 489.74V445.218H311.651C299.406 445.218 289.39 435.196 289.39 422.957C289.39 410.718 299.406 400.696 311.651 400.696H356.173V356.174C356.173 343.935 366.189 333.913 378.434 333.913C390.679 333.913 400.695 343.935 400.695 356.174V400.696H445.217C457.462 400.696 467.478 410.717 467.478 422.957Z" fill="#FC8019"/>
</g>
<defs>
<clipPath id="clip0_1129_452">
<rect width="512" height="512" fill="white"/>
</clipPath>
</defs>
</svg>
