<svg width="25" height="25" viewBox="0 0 25 25" fill="none" xmlns="http://www.w3.org/2000/svg">
<g clip-path="url(#clip0_77_7020)">
<path fill-rule="evenodd" clip-rule="evenodd" d="M0 12.5C0 5.6075 5.6075 0 12.5 0C19.3925 0 25 5.6075 25 12.5C25 19.3925 19.3925 25 12.5 25C5.6075 25 0 19.3925 0 12.5ZM10.5175 11.25L12.1337 9.63375C12.3614 9.398 12.4874 9.08224 12.4846 8.7545C12.4817 8.42675 12.3503 8.11324 12.1185 7.88148C11.8868 7.64972 11.5732 7.51826 11.2455 7.51541C10.9178 7.51256 10.602 7.63855 10.3663 7.86625L6.61625 11.6163C6.49977 11.7321 6.40733 11.8698 6.34426 12.0214C6.28118 12.1731 6.24871 12.3357 6.24871 12.5C6.24871 12.6643 6.28118 12.8269 6.34426 12.9786C6.40733 13.1302 6.49977 13.2679 6.61625 13.3837L10.3663 17.1337C10.602 17.3614 10.9178 17.4874 11.2455 17.4846C11.5732 17.4817 11.8868 17.3503 12.1185 17.1185C12.3503 16.8868 12.4817 16.5732 12.4846 16.2455C12.4874 15.9178 12.3614 15.602 12.1337 15.3663L10.5175 13.75H17.5C17.8315 13.75 18.1495 13.6183 18.3839 13.3839C18.6183 13.1495 18.75 12.8315 18.75 12.5C18.75 12.1685 18.6183 11.8505 18.3839 11.6161C18.1495 11.3817 17.8315 11.25 17.5 11.25H10.5175Z" fill="#FC8019"/>
</g>
<defs>
<clipPath id="clip0_77_7020">
<rect width="25" height="25" fill="white"/>
</clipPath>
</defs>
</svg>
