<svg width="16" height="16" viewBox="0 0 16 16" fill="none" xmlns="http://www.w3.org/2000/svg">
<g clip-path="url(#clip0_114_2243)">
<path d="M12.8438 8.21444V6.71875C12.8438 4.53681 11.3935 2.68747 9.40631 2.08344V1.40625C9.40631 0.630844 8.77546 0 8.00006 0C7.22465 0 6.59381 0.630844 6.59381 1.40625V2.08344C4.60662 2.68747 3.15631 4.53678 3.15631 6.71875V8.21444C3.15631 10.1311 2.42574 11.9484 1.09921 13.3318C1.03561 13.3981 0.992895 13.4817 0.976382 13.572C0.959869 13.6624 0.970285 13.7557 1.00634 13.8402C1.04239 13.9247 1.10248 13.9968 1.17915 14.0474C1.25582 14.098 1.34568 14.125 1.43756 14.125H5.70346C5.92121 15.1935 6.86821 16 8.00006 16C9.13193 16 10.0789 15.1935 10.2967 14.125H14.5626C14.6544 14.125 14.7443 14.098 14.8209 14.0474C14.8976 13.9967 14.9577 13.9247 14.9937 13.8402C15.0298 13.7557 15.0402 13.6624 15.0237 13.572C15.0072 13.4817 14.9645 13.3981 14.9009 13.3318C13.5744 11.9484 12.8438 10.131 12.8438 8.21444ZM7.53131 1.40625C7.53131 1.14778 7.74159 0.9375 8.00006 0.9375C8.25853 0.9375 8.46881 1.14778 8.46881 1.40625V1.89775C8.31453 1.88287 8.15818 1.875 8.00006 1.875C7.84193 1.875 7.68559 1.88287 7.53131 1.89775V1.40625ZM8.00006 15.0625C7.38896 15.0625 6.86793 14.6706 6.67443 14.125H9.32568C9.13218 14.6706 8.61115 15.0625 8.00006 15.0625ZM2.44787 13.1875C3.5154 11.7565 4.09381 10.0247 4.09381 8.21444V6.71875C4.09381 4.56484 5.84615 2.8125 8.00006 2.8125C10.154 2.8125 11.9063 4.56484 11.9063 6.71875V8.21444C11.9063 10.0247 12.4847 11.7565 13.5523 13.1875H2.44787ZM14.0938 6.71875C14.0938 6.97762 14.3037 7.1875 14.5626 7.1875C14.8214 7.1875 15.0313 6.97762 15.0313 6.71875C15.0313 4.84062 14.2999 3.07491 12.9719 1.74688C12.7889 1.56384 12.4921 1.56381 12.309 1.74688C12.1259 1.92994 12.1259 2.22672 12.309 2.40978C13.46 3.56075 14.0938 5.09103 14.0938 6.71875ZM1.43756 7.1875C1.69643 7.1875 1.90631 6.97762 1.90631 6.71875C1.90631 5.09106 2.54018 3.56078 3.69112 2.40981C3.87418 2.22675 3.87418 1.92997 3.69112 1.74691C3.50809 1.56384 3.21128 1.56384 3.02821 1.74691C1.70018 3.07494 0.968806 4.84062 0.968806 6.71875C0.968806 6.97762 1.17868 7.1875 1.43756 7.1875Z" fill="#FFFFFF"/>
</g>
<defs>
<clipPath id="clip0_114_2243">
<rect width="16" height="16" fill="white"/>
</clipPath>
</defs>
</svg>
