<svg width="16" height="16" viewBox="0 0 16 16" fill="none" xmlns="http://www.w3.org/2000/svg">
<path d="M8.25977 4.2749H4.25977C4.12716 4.2749 3.99998 4.32758 3.90621 4.42135C3.81244 4.51512 3.75977 4.64229 3.75977 4.7749C3.75977 4.90751 3.81244 5.03469 3.90621 5.12846C3.99998 5.22222 4.12716 5.2749 4.25977 5.2749H8.25977C8.39237 5.2749 8.51955 5.22222 8.61332 5.12846C8.70709 5.03469 8.75977 4.90751 8.75977 4.7749C8.75977 4.64229 8.70709 4.51512 8.61332 4.42135C8.51955 4.32758 8.39237 4.2749 8.25977 4.2749ZM8.25977 6.9499H4.25977C4.12716 6.9499 3.99998 7.00258 3.90621 7.09635C3.81244 7.19012 3.75977 7.31729 3.75977 7.4499C3.75977 7.58251 3.81244 7.70969 3.90621 7.80346C3.99998 7.89722 4.12716 7.9499 4.25977 7.9499H8.25977C8.39237 7.9499 8.51955 7.89722 8.61332 7.80346C8.70709 7.70969 8.75977 7.58251 8.75977 7.4499C8.75977 7.31729 8.70709 7.19012 8.61332 7.09635C8.51955 7.00258 8.39237 6.9499 8.25977 6.9499ZM8.25977 9.6849H4.25977C4.12716 9.6849 3.99998 9.73758 3.90621 9.83135C3.81244 9.92512 3.75977 10.0523 3.75977 10.1849C3.75977 10.3175 3.81244 10.4447 3.90621 10.5385C3.99998 10.6322 4.12716 10.6849 4.25977 10.6849H8.25977C8.39237 10.6849 8.51955 10.6322 8.61332 10.5385C8.70709 10.4447 8.75977 10.3175 8.75977 10.1849C8.75977 10.0523 8.70709 9.92512 8.61332 9.83135C8.51955 9.73758 8.39237 9.6849 8.25977 9.6849Z" fill="#FC8019"/>
<path d="M12.9342 0.5H3.06417C2.80767 0.500654 2.55382 0.551907 2.31715 0.650823C2.08049 0.749738 1.86567 0.894373 1.685 1.07644C1.50432 1.25851 1.36134 1.47444 1.26425 1.71185C1.16715 1.94926 1.11785 2.2035 1.11917 2.46V14.655C1.11884 14.7801 1.15183 14.9031 1.21474 15.0113C1.27766 15.1195 1.36824 15.2089 1.47717 15.2705C1.5861 15.3321 1.70947 15.3636 1.8346 15.3618C1.95972 15.3599 2.0821 15.3248 2.18917 15.26L4.02917 14.155C4.05692 14.1377 4.08897 14.1286 4.12167 14.1286C4.15436 14.1286 4.18641 14.1377 4.21417 14.155L6.25917 15.38C6.36673 15.4486 6.49162 15.485 6.61917 15.485C6.74751 15.4843 6.87341 15.4498 6.98417 15.385L9.03917 14.155C9.06692 14.1377 9.09897 14.1286 9.13167 14.1286C9.16437 14.1286 9.19641 14.1377 9.22417 14.155L11.0542 15.26C11.1616 15.3238 11.2842 15.3575 11.4092 15.3575C11.5341 15.3575 11.6568 15.3238 11.7642 15.26C11.8717 15.1985 11.9612 15.1097 12.0235 15.0026C12.0858 14.8955 12.1188 14.7739 12.1192 14.65V6.22H13.6892C14.0044 6.21868 14.3063 6.09289 14.5292 5.87C14.7521 5.64712 14.8779 5.3452 14.8792 5.03V2.46C14.8805 2.2035 14.8312 1.94926 14.7341 1.71185C14.637 1.47444 14.494 1.25851 14.3133 1.07644C14.1327 0.894373 13.9178 0.749738 13.6812 0.650823C13.4445 0.551907 13.1907 0.500654 12.9342 0.5ZM11.1192 14.13L9.73917 13.3C9.55532 13.1909 9.34547 13.1333 9.13167 13.1333C8.91786 13.1333 8.70801 13.1909 8.52417 13.3L6.62417 14.44L4.72917 13.295C4.54313 13.1837 4.33024 13.1254 4.11347 13.1263C3.8967 13.1271 3.68429 13.1872 3.49917 13.3L2.11917 14.135V2.46C2.11718 2.33464 2.14015 2.21015 2.18675 2.09376C2.23335 1.97737 2.30264 1.87141 2.39059 1.78207C2.47854 1.69272 2.58339 1.62177 2.69903 1.57334C2.81467 1.52492 2.9388 1.49998 3.06417 1.5H11.3242C11.1921 1.75155 11.1219 2.03091 11.1192 2.315V14.115V14.13ZM13.8792 5.03C13.8792 5.08039 13.8591 5.12872 13.8235 5.16435C13.7879 5.19998 13.7396 5.22 13.6892 5.22H12.1192V2.33C12.1172 2.22172 12.1368 2.11412 12.1768 2.0135C12.2169 1.91289 12.2766 1.82126 12.3525 1.74399C12.4284 1.66671 12.5189 1.60533 12.6188 1.56344C12.7186 1.52155 12.8259 1.49998 12.9342 1.5C13.1848 1.5 13.4252 1.59956 13.6024 1.77678C13.7796 1.95401 13.8792 2.19437 13.8792 2.445V5.03Z" fill="#FC8019"/>
</svg>
