<svg width="28" height="28" viewBox="0 0 28 28" xmlns="http://www.w3.org/2000/svg">
<path fill-rule="evenodd" clip-rule="evenodd" d="M7.38235 9.73873L8.08585 18.1061C8.13719 18.7501 8.66335 19.2331 9.30619 19.2331H9.31085H22.0404H22.0427C22.6505 19.2331 23.1697 18.7804 23.256 18.1796L24.3644 10.5274C24.39 10.3454 24.3445 10.1634 24.2337 10.0164C24.124 9.86823 23.963 9.77257 23.781 9.7469C23.5372 9.75623 13.4187 9.74223 7.38235 9.73873ZM9.30385 20.9831C7.76735 20.9831 6.46652 19.7837 6.34169 18.2496L5.27302 5.5399L3.51486 5.23657C3.03769 5.15257 2.71919 4.70107 2.80086 4.2239C2.88486 3.74673 3.34569 3.4364 3.81236 3.51107L6.23902 3.93107C6.62986 3.9999 6.92735 4.32424 6.96119 4.7209L7.23535 7.98874C23.8907 7.99574 23.9444 8.0039 24.0249 8.01324C24.6747 8.10774 25.2464 8.44724 25.636 8.9699C26.0257 9.4914 26.189 10.1342 26.0957 10.7782L24.9885 18.4292C24.7797 19.8852 23.515 20.9831 22.045 20.9831H22.0392H9.31319H9.30385Z"/>
<path fill-rule="evenodd" clip-rule="evenodd" d="M20.1686 14.051H16.9346C16.4504 14.051 16.0596 13.659 16.0596 13.176C16.0596 12.693 16.4504 12.301 16.9346 12.301H20.1686C20.6516 12.301 21.0436 12.693 21.0436 13.176C21.0436 13.659 20.6516 14.051 20.1686 14.051Z"/>
<path fill-rule="evenodd" clip-rule="evenodd" d="M8.80185 24.1523C9.15302 24.1523 9.43652 24.4358 9.43652 24.787C9.43652 25.1382 9.15302 25.4228 8.80185 25.4228C8.44952 25.4228 8.16602 25.1382 8.16602 24.787C8.16602 24.4358 8.44952 24.1523 8.80185 24.1523Z"/>
<mask id="mask0_776_181" style="mask-type:luminance" maskUnits="userSpaceOnUse" x="8" y="24" width="2" height="2">
<path fill-rule="evenodd" clip-rule="evenodd" d="M8.16602 24.7865C8.16602 25.1389 8.44952 25.4235 8.80302 25.4235C9.15418 25.4235 9.43768 25.1389 9.43768 24.7865C9.43768 24.4354 9.15418 24.1519 8.80302 24.1519C8.44952 24.1519 8.16602 24.4354 8.16602 24.7865Z"/>
</mask>
<g mask="url(#mask0_776_181)">
<path fill-rule="evenodd" clip-rule="evenodd" d="M2.33398 31.2558H15.2712V18.3186H2.33398V31.2558Z"/>
</g>
<path fill-rule="evenodd" clip-rule="evenodd" d="M8.80068 24.5476C8.66885 24.5476 8.56152 24.6549 8.56152 24.7868C8.56152 25.0516 9.04102 25.0516 9.04102 24.7868C9.04102 24.6549 8.93252 24.5476 8.80068 24.5476ZM8.80068 26.2976C7.96768 26.2976 7.29102 25.6198 7.29102 24.7868C7.29102 23.9538 7.96768 23.2771 8.80068 23.2771C9.63368 23.2771 10.3115 23.9538 10.3115 24.7868C10.3115 25.6198 9.63368 26.2976 8.80068 26.2976Z"/>
<path fill-rule="evenodd" clip-rule="evenodd" d="M21.962 24.1521C22.3132 24.1521 22.5978 24.4356 22.5978 24.7868C22.5978 25.1379 22.3132 25.4226 21.962 25.4226C21.6097 25.4226 21.3262 25.1379 21.3262 24.7868C21.3262 24.4356 21.6097 24.1521 21.962 24.1521Z"/>
<mask id="mask1_776_181" style="mask-type:luminance" maskUnits="userSpaceOnUse" x="21" y="24" width="2" height="2">
<path fill-rule="evenodd" clip-rule="evenodd" d="M21.3271 24.7865C21.3271 25.1389 21.6106 25.4235 21.963 25.4235C22.313 25.4235 22.5988 25.1389 22.5988 24.7865C22.5988 24.4354 22.313 24.1519 21.963 24.1519C21.6106 24.1519 21.3271 24.4354 21.3271 24.7865Z"/>
</mask>
<g mask="url(#mask1_776_181)">
<path fill-rule="evenodd" clip-rule="evenodd" d="M15.4941 31.2558H28.4325V18.3186H15.4941V31.2558Z"/>
</g>
<path fill-rule="evenodd" clip-rule="evenodd" d="M21.9608 24.5476C21.8302 24.5476 21.7228 24.6549 21.7228 24.7868C21.724 25.0539 22.2023 25.0516 22.2012 24.7868C22.2012 24.6549 22.0927 24.5476 21.9608 24.5476ZM21.9608 26.2976C21.1278 26.2976 20.4512 25.6198 20.4512 24.7868C20.4512 23.9538 21.1278 23.2771 21.9608 23.2771C22.795 23.2771 23.4728 23.9538 23.4728 24.7868C23.4728 25.6198 22.795 26.2976 21.9608 26.2976Z"/>
</svg>
