<svg width="24" height="24" viewBox="0 0 24 24" fill="none" xmlns="http://www.w3.org/2000/svg">
<path fill-rule="evenodd" clip-rule="evenodd" d="M5 10.2V14.533C5.00423 15.4569 5.3754 16.3413 6.0318 16.9915C6.68821 17.6418 7.57608 18.0045 8.5 18H15.5C16.4239 18.0045 17.3118 17.6418 17.9682 16.9915C18.6246 16.3413 18.9958 15.4569 19 14.533V10.2C18.9958 9.27608 18.6246 8.39169 17.9682 7.74148C17.3118 7.09126 16.4239 6.72849 15.5 6.73301C15.0147 6.66864 14.6001 6.3515 14.411 5.90001C14.1009 5.34285 13.5126 4.99815 12.875 5.00001H11.125C10.4874 4.99815 9.89908 5.34285 9.589 5.90001C9.39986 6.3515 8.98526 6.66864 8.5 6.73301C7.57608 6.72849 6.68821 7.09126 6.0318 7.74148C5.3754 8.39169 5.00423 9.27608 5 10.2Z" stroke="#FC8019" stroke-width="1.5" stroke-linecap="round" stroke-linejoin="round"/>
<path fill-rule="evenodd" clip-rule="evenodd" d="M11.9995 14.5331C10.8054 14.5215 9.84568 13.5461 9.85356 12.3519C9.86144 11.1578 10.8339 10.195 12.0281 10.1992C13.2223 10.2034 14.188 11.1729 14.1875 12.3671C14.1846 12.9445 13.9524 13.4971 13.5421 13.9033C13.1318 14.3095 12.5769 14.536 11.9995 14.5331Z" stroke="#FC8019" stroke-width="1.5" stroke-linecap="round" stroke-linejoin="round"/>
</svg>
