<svg width="20" height="18" viewBox="0 0 20 18" fill="none" xmlns="http://www.w3.org/2000/svg">
<path d="M15.3924 9.87896C15.4733 9.35676 15.5533 8.83456 15.6336 8.3103C15.6915 7.93274 15.7495 7.55411 15.8081 7.17365C14.1263 6.73885 13.2089 5.68925 13.0428 3.9205M15.3924 9.87896L7.55648 10.9242C7.04837 10.9335 6.54026 10.9304 6.02857 10.9273C5.77137 10.9258 5.51326 10.9242 5.25379 10.9242C5.11856 10.0722 4.98254 9.22904 4.84705 8.38912L4.84692 8.38833L4.84685 8.38788L4.84677 8.38735L4.84675 8.38722L4.84672 8.38708C4.77933 7.96929 4.71206 7.55229 4.64508 7.13539M15.3924 9.87896C15.2907 10.5355 15.0515 10.7407 14.3793 10.7573L15.3924 9.87896ZM13.0428 3.9205H6.20861H6.07817M13.0428 3.9205V3.9705H12.9974M13.0428 3.9205L12.993 3.92517C12.9944 3.94033 12.9959 3.95544 12.9974 3.9705M6.07817 3.9205C5.79816 3.93267 5.56337 3.8431 5.55641 3.53266C5.54946 3.22221 5.76685 3.09786 6.07817 3.09786C6.92802 3.1025 7.77826 3.10095 8.62863 3.0994L8.62892 3.0994C9.05406 3.09863 9.47922 3.09786 9.90439 3.09786C10.1663 3.09786 10.4281 3.09652 10.6899 3.09517C11.3703 3.09168 12.0505 3.0882 12.7306 3.10829M6.07817 3.9205L6.08034 3.97045C6.07998 3.97046 6.07961 3.97048 6.07924 3.9705M6.07817 3.9205V3.9705H6.07842H6.07868H6.07893H6.07919H6.07924M12.7306 3.10829C13.0584 3.11786 13.2062 3.02133 13.3271 2.71437M12.7306 3.10829L12.732 3.05831C12.732 3.05831 12.732 3.05832 12.7321 3.05832M12.7306 3.10829L12.7321 3.05832M13.3271 2.71437C13.5763 2.07601 14.0227 1.53388 14.6015 1.16693C15.1802 0.799985 15.861 0.627393 16.5446 0.674296C17.2215 0.722198 17.8669 0.979202 18.3914 1.40978C18.9159 1.84036 19.2937 2.42324 19.4725 3.07786M13.3271 2.71437L13.2805 2.69619C13.2806 2.69614 13.2806 2.69609 13.2806 2.69605M13.3271 2.71437L13.2806 2.69605M19.4725 3.07786C19.5908 3.50818 19.6187 3.95831 19.5545 4.39994C19.4903 4.84157 19.3355 5.26515 19.0997 5.64404C18.8639 6.02293 18.5523 6.34893 18.1844 6.60154C17.8165 6.85416 17.4003 7.02792 16.962 7.11191M19.4725 3.07786L19.5208 3.06461C19.5208 3.06463 19.5208 3.06466 19.5208 3.06468M19.4725 3.07786L19.5208 3.06468M16.962 7.11191C16.7325 7.15626 16.6507 7.24496 16.6185 7.45975C16.5653 7.81506 16.5061 8.16909 16.4469 8.52328C16.3679 8.99608 16.2889 9.46915 16.2237 9.94592M16.962 7.11191L16.9715 7.161M16.962 7.11191L16.9714 7.16102C16.9715 7.16101 16.9715 7.16101 16.9715 7.161M16.2237 9.94592C16.0733 11.0529 15.5368 11.5451 14.4115 11.5729C11.5587 11.6425 8.70522 11.7138 5.8512 11.7869M16.2237 9.94592L16.2733 9.95266M16.2237 9.94592L16.2733 9.95269C16.2733 9.95268 16.2733 9.95267 16.2733 9.95266M5.8512 11.7869C5.78651 11.7904 5.72181 11.7947 5.64905 11.7997L5.64878 11.7997L5.64858 11.7997C5.5897 11.8037 5.52553 11.808 5.45181 11.8125L5.46009 11.8621M5.8512 11.7869L5.85248 11.8368C5.85271 11.8368 5.85294 11.8368 5.85317 11.8368M5.8512 11.7869L5.8539 11.8368C5.85366 11.8368 5.85342 11.8368 5.85317 11.8368M5.46009 11.8621C5.44388 11.8631 5.42717 11.8641 5.40991 11.8652L5.53815 12.633M5.46009 11.8621L5.58049 12.583M5.46009 11.8621C5.53252 11.8577 5.59506 11.8534 5.65241 11.8495C5.72443 11.8447 5.78825 11.8403 5.85317 11.8368M5.53815 12.633H14.5376C14.668 12.633 14.7985 12.633 14.9289 12.6399M5.53815 12.633L5.58747 12.6247L5.58049 12.583M5.53815 12.633V12.583H5.58049M14.9289 12.6399C15.1985 12.653 15.3785 12.7747 15.3637 13.0652C15.3489 13.3556 15.1689 13.466 14.8993 13.4669H11.6818C11.0738 13.4669 10.4657 13.4661 9.8576 13.4653H9.85751H9.85742H9.85733C8.36424 13.4633 6.87097 13.4614 5.37814 13.4713C4.95726 13.4713 4.78334 13.3026 4.72073 12.9034M14.9289 12.6399L14.9313 12.59C14.9314 12.59 14.9315 12.59 14.9316 12.59L14.9289 12.6399ZM4.72073 12.9034C4.25115 9.91723 3.77519 6.93161 3.29285 3.94658C3.25894 3.73266 3.22329 3.51787 3.17981 3.30569C2.9885 2.35435 2.54065 1.98652 1.56062 1.97347M4.72073 12.9034L4.67133 12.9112C4.67134 12.9112 4.67134 12.9112 4.67134 12.9112L4.72073 12.9034ZM1.56062 1.97347H1.34409M1.56062 1.97347L1.55995 2.02347C1.56006 2.02347 1.56018 2.02347 1.56029 2.02347H1.56062V1.97347ZM1.34409 1.97347C1.05452 1.98304 0.843204 1.85608 0.833638 1.56302C0.824073 1.26997 1.04843 1.13866 1.32496 1.12822M1.34409 1.97347V2.02347H1.34451H1.3449C1.34518 2.02346 1.34546 2.02345 1.34574 2.02344L1.34409 1.97347ZM1.32496 1.12822C2.58587 1.06822 3.79026 1.57781 4.04071 3.32047C4.16982 4.22121 4.31676 5.11977 4.4637 6.01831L4.46371 6.01837C4.52459 6.39066 4.58546 6.76295 4.64508 7.13539M1.32496 1.12822L1.32307 1.07826C1.32299 1.07826 1.32291 1.07827 1.32283 1.07827C1.32275 1.07827 1.32266 1.07828 1.32258 1.07828L1.32496 1.12822ZM4.64508 7.13539L4.69444 7.12746C4.69444 7.12747 4.69445 7.12748 4.69445 7.12749C4.76142 7.54433 4.82868 7.96131 4.89608 8.37909C5.02945 9.20585 5.16334 10.0358 5.29648 10.8742C5.5422 10.8744 5.78643 10.8759 6.02969 10.8773C6.541 10.8804 7.04802 10.8835 7.55555 10.8742M4.64508 7.13539L7.55555 10.8742M7.55555 10.8742C9.19928 10.8384 10.8425 10.7967 12.4857 10.755C13.1165 10.739 13.7473 10.7229 14.3781 10.7073C14.7113 10.6991 14.9242 10.644 15.0671 10.5203C15.2098 10.3968 15.2926 10.1964 15.343 9.87131C15.4239 9.34916 15.5039 8.8271 15.5842 8.30295C15.6397 7.94007 15.6955 7.57618 15.7518 7.21056C14.9246 6.98974 14.2795 6.61778 13.819 6.07982C13.3585 5.54169 13.0861 4.84152 12.9974 3.9705M7.55555 10.8742L6.07924 3.9705M12.9974 3.9705H6.20861H6.20835H6.2081H6.20784H6.20759H6.20733H6.20708H6.20683H6.20657H6.20632H6.20606H6.20581H6.20555H6.2053H6.20504H6.20479H6.20453H6.20428H6.20402H6.20377H6.20351H6.20326H6.203H6.20275H6.20249H6.20224H6.20198H6.20173H6.20148H6.20122H6.20097H6.20071H6.20046H6.2002H6.19995H6.19969H6.19944H6.19918H6.19893H6.19867H6.19842H6.19816H6.19791H6.19765H6.1974H6.19714H6.19689H6.19663H6.19638H6.19613H6.19587H6.19562H6.19536H6.19511H6.19485H6.1946H6.19434H6.19409H6.19383H6.19358H6.19332H6.19307H6.19281H6.19256H6.1923H6.19205H6.19179H6.19154H6.19128H6.19103H6.19077H6.19052H6.19027H6.19001H6.18976H6.1895H6.18925H6.18899H6.18874H6.18848H6.18823H6.18797H6.18772H6.18746H6.18721H6.18695H6.1867H6.18644H6.18619H6.18593H6.18568H6.18543H6.18517H6.18492H6.18466H6.18441H6.18415H6.1839H6.18364H6.18339H6.18313H6.18288H6.18262H6.18237H6.18211H6.18186H6.1816H6.18135H6.18109H6.18084H6.18058H6.18033H6.18008H6.17982H6.17957H6.17931H6.17906H6.1788H6.17855H6.17829H6.17804H6.17778H6.17753H6.17727H6.17702H6.17676H6.17651H6.17625H6.176H6.17574H6.17549H6.17523H6.17498H6.17473H6.17447H6.17422H6.17396H6.17371H6.17345H6.1732H6.17294H6.17269H6.17243H6.17218H6.17192H6.17167H6.17141H6.17116H6.1709H6.17065H6.17039H6.17014H6.16988H6.16963H6.16937H6.16912H6.16887H6.16861H6.16836H6.1681H6.16785H6.16759H6.16734H6.16708H6.16683H6.16657H6.16632H6.16606H6.16581H6.16555H6.1653H6.16504H6.16479H6.16453H6.16428H6.16402H6.16377H6.16352H6.16326H6.16301H6.16275H6.1625H6.16224H6.16199H6.16173H6.16148H6.16122H6.16097H6.16071H6.16046H6.1602H6.15995H6.15969H6.15944H6.15918H6.15893H6.15867H6.15842H6.15817H6.15791H6.15766H6.1574H6.15715H6.15689H6.15664H6.15638H6.15613H6.15587H6.15562H6.15536H6.15511H6.15485H6.1546H6.15434H6.15409H6.15383H6.15358H6.15332H6.15307H6.15282H6.15256H6.15231H6.15205H6.1518H6.15154H6.15129H6.15103H6.15078H6.15052H6.15027H6.15001H6.14976H6.1495H6.14925H6.14899H6.14874H6.14848H6.14823H6.14797H6.14772H6.14747H6.14721H6.14696H6.1467H6.14645H6.14619H6.14594H6.14568H6.14543H6.14517H6.14492H6.14466H6.14441H6.14415H6.1439H6.14364H6.14339H6.14313H6.14288H6.14262H6.14237H6.14212H6.14186H6.14161H6.14135H6.1411H6.14084H6.14059H6.14033H6.14008H6.13982H6.13957H6.13931H6.13906H6.1388H6.13855H6.13829H6.13804H6.13778H6.13753H6.13727H6.13702H6.13677H6.13651H6.13626H6.136H6.13575H6.13549H6.13524H6.13498H6.13473H6.13447H6.13422H6.13396H6.13371H6.13345H6.1332H6.13294H6.13269H6.13243H6.13218H6.13192H6.13167H6.13142H6.13116H6.13091H6.13065H6.1304H6.13014H6.12989H6.12963H6.12938H6.12912H6.12887H6.12861H6.12836H6.1281H6.12785H6.12759H6.12734H6.12708H6.12683H6.12657H6.12632H6.12607H6.12581H6.12556H6.1253H6.12505H6.12479H6.12454H6.12428H6.12403H6.12377H6.12352H6.12326H6.12301H6.12275H6.1225H6.12224H6.12199H6.12173H6.12148H6.12122H6.12097H6.12072H6.12046H6.12021H6.11995H6.1197H6.11944H6.11919H6.11893H6.11868H6.11842H6.11817H6.11791H6.11766H6.1174H6.11715H6.11689H6.11664H6.11638H6.11613H6.11587H6.11562H6.11537H6.11511H6.11486H6.1146H6.11435H6.11409H6.11384H6.11358H6.11333H6.11307H6.11282H6.11256H6.11231H6.11205H6.1118H6.11154H6.11129H6.11103H6.11078H6.11052H6.11027H6.11001H6.10976H6.10951H6.10925H6.109H6.10874H6.10849H6.10823H6.10798H6.10772H6.10747H6.10721H6.10696H6.1067H6.10645H6.10619H6.10594H6.10568H6.10543H6.10517H6.10492H6.10466H6.10441H6.10416H6.1039H6.10365H6.10339H6.10314H6.10288H6.10263H6.10237H6.10212H6.10186H6.10161H6.10135H6.1011H6.10084H6.10059H6.10033H6.10008H6.09982H6.09957H6.09931H6.09906H6.09881H6.09855H6.0983H6.09804H6.09779H6.09753H6.09728H6.09702H6.09677H6.09651H6.09626H6.096H6.09575H6.09549H6.09524H6.09498H6.09473H6.09447H6.09422H6.09397H6.09371H6.09346H6.0932H6.09295H6.09269H6.09244H6.09218H6.09193H6.09167H6.09142H6.09116H6.09091H6.09065H6.0904H6.09014H6.08989H6.08963H6.08938H6.08912H6.08887H6.08861H6.08836H6.08811H6.08785H6.0876H6.08734H6.08709H6.08683H6.08658H6.08632H6.08607H6.08581H6.08556H6.0853H6.08505H6.08479H6.08454H6.08428H6.08403H6.08377H6.08352H6.08326H6.08301H6.08276H6.0825H6.08225H6.08199H6.08174H6.08148H6.08123H6.08097H6.08072H6.08046H6.08021H6.07995H6.0797H6.07944H6.07924M12.7321 3.05832C12.8917 3.06297 12.9984 3.04132 13.0789 2.98828C13.1595 2.93524 13.2217 2.84556 13.2806 2.69605M12.7321 3.05832L19.5208 3.06468M13.2806 2.69605C13.5336 2.04783 13.987 1.49733 14.5747 1.1247C15.1624 0.752055 15.8538 0.576782 16.548 0.624413L16.5481 0.62442C17.2354 0.673054 17.8906 0.933981 18.4231 1.37113C18.9556 1.80829 19.3392 2.40007 19.5208 3.06468M19.5208 3.06468C19.6408 3.50163 19.6691 3.9587 19.604 4.40713C19.5388 4.85559 19.3816 5.28571 19.1422 5.67046C18.9027 6.0552 18.5863 6.38624 18.2127 6.64276C17.8391 6.89927 17.4166 7.07571 16.9715 7.161M19.5208 3.06468L16.2733 9.95266M16.9715 7.161C16.8607 7.1824 16.7948 7.21296 16.7521 7.2568C16.7096 7.30043 16.6834 7.36407 16.668 7.46716C16.6144 7.82461 16.5552 8.17905 16.496 8.53316C16.4172 9.00478 16.3384 9.47583 16.2733 9.95266M5.58049 12.583L5.85317 11.8368M13.6971 15.2796L13.7156 15.2795C13.8616 15.2937 13.9974 15.3612 14.0969 15.4696C14.2014 15.5833 14.2576 15.7331 14.2538 15.8875L14.2538 15.8885C14.2534 15.9652 14.2375 16.0411 14.2073 16.1117C14.1771 16.1823 14.1331 16.2461 14.0779 16.2995C14.0226 16.3528 13.9573 16.3946 13.8857 16.4223C13.8141 16.45 13.7377 16.4631 13.6609 16.4609C13.5842 16.4586 13.5086 16.4411 13.4388 16.4092C13.3689 16.3774 13.3061 16.3319 13.2541 16.2754C13.202 16.219 13.1618 16.1527 13.1358 16.0805C13.1097 16.0082 13.0984 15.9315 13.1024 15.8549L13.1024 15.8542C13.1086 15.7004 13.1739 15.5548 13.2846 15.4478C13.3954 15.3407 13.5431 15.2805 13.6971 15.2796ZM5.9571 14.3586L5.95649 14.3586C5.55695 14.3563 5.17227 14.51 4.88435 14.787C4.59642 15.064 4.42798 15.4425 4.41486 15.8418L4.41485 15.8424C4.40867 16.1422 4.49158 16.4371 4.65308 16.6898C4.81458 16.9424 5.04741 17.1415 5.3221 17.2617C5.59679 17.382 5.90098 17.4181 6.19617 17.3653C6.49136 17.3126 6.76427 17.1735 6.98036 16.9656C7.19645 16.7577 7.346 16.4904 7.41007 16.1974C7.47414 15.9045 7.44986 15.5992 7.3403 15.32C7.23074 15.0409 7.04083 14.8006 6.7946 14.6294C6.54837 14.4583 6.25691 14.364 5.9571 14.3586ZM5.92719 15.2821L5.96109 15.2805C6.10186 15.2888 6.23545 15.3474 6.33697 15.4465C6.44711 15.5539 6.5107 15.7003 6.51406 15.8541L6.51403 15.8541L6.51411 15.8557C6.51815 15.9322 6.50683 16.0087 6.48083 16.0808C6.45483 16.1529 6.41467 16.2191 6.36271 16.2754C6.31075 16.3317 6.24805 16.3771 6.17829 16.4088C6.10854 16.4405 6.03314 16.4579 5.95654 16.4601C5.87995 16.4622 5.8037 16.449 5.73228 16.4212C5.66087 16.3934 5.59574 16.3516 5.54072 16.2983C5.48571 16.2449 5.44193 16.1811 5.41195 16.1106C5.38197 16.0401 5.36641 15.9643 5.36619 15.8877L5.36615 15.8864C5.36179 15.7322 5.41814 15.5825 5.52307 15.4695C5.628 15.3565 5.77312 15.2892 5.92719 15.2821ZM14.5251 14.6229C14.2777 14.4537 13.9857 14.3618 13.686 14.3587L12.2072 15.8496L12.1572 15.8489C12.1572 15.8489 12.1572 15.8489 12.1572 15.8489C12.1526 16.1485 12.2371 16.4428 12.3999 16.6944C12.5627 16.946 12.7965 17.1436 13.0717 17.2622C13.3469 17.3807 13.6512 17.4149 13.9458 17.3604C14.2405 17.3059 14.5124 17.1652 14.727 16.956C14.9416 16.7468 15.0893 16.4787 15.1513 16.1855C15.2134 15.8923 15.187 15.5873 15.0755 15.3091C14.964 15.0309 14.7724 14.7921 14.5251 14.6229Z" fill="#FE8820" stroke="#FE8820" stroke-width="0.1"/>
</svg>
