<svg width="20" height="20" viewBox="0 0 20 20" fill="none" xmlns="http://www.w3.org/2000/svg">
<g clip-path="url(#clip0_116_2696)">
<path d="M17.6471 10.5882H18.8235V11.7647H20V9.41173H17.6471V10.5882ZM14.1176 9.41173H16.4706V10.5882H14.1176V9.41173ZM10.5882 9.41173H12.9412V10.5882H10.5882V9.41173ZM7.05882 9.41173H9.41177V10.5882H7.05882V9.41173ZM3.52941 9.41173H5.88235V10.5882H3.52941V9.41173ZM0 11.7647H1.17647V10.5882H2.35294V9.41173H0V11.7647ZM18.8235 15.2941V16.4706H17.6471V17.647H20V15.2941H18.8235ZM1.17647 15.2941H0V17.647H2.35294V16.4706H1.17647V15.2941ZM14.1176 16.4706H16.4706V17.647H14.1176V16.4706ZM10.5882 16.4706H12.9412V17.647H10.5882V16.4706ZM7.05882 16.4706H9.41177V17.647H7.05882V16.4706ZM3.52941 16.4706H5.88235V17.647H3.52941V16.4706ZM0 12.9411H1.17647V14.1176H0V12.9411ZM18.8235 12.9411H20V14.1176H18.8235V12.9411ZM5.60914 11.937L4.77726 12.7689L3.94533 11.937L3.11349 12.7688L3.94537 13.6007L3.11349 14.4326L3.94533 15.2645L4.77726 14.4326L5.60914 15.2645L6.44102 14.4326L5.60914 13.6007L6.44102 12.7688L5.60914 11.937ZM10.8586 11.937L10.0267 12.7689L9.19478 11.937L8.3629 12.7688L9.19478 13.6007L8.3629 14.4326L9.19478 15.2645L10.0267 14.4326L10.8586 15.2645L11.6904 14.4326L10.8586 13.6007L11.6904 12.7688L10.8586 11.937ZM16.0547 11.937L15.2227 12.7689L14.3909 11.937L13.559 12.7688L14.3909 13.6007L13.559 14.4326L14.3909 15.2645L15.2227 14.4326L16.0547 15.2645L16.8865 14.4326L16.0546 13.6007L16.8865 12.7688L16.0547 11.937ZM1.98514 8.23526H2.13251C3.2271 8.23526 4.11765 7.34475 4.11765 6.25012V5.88232H2.94118V6.25012C2.94118 6.69604 2.57839 7.05879 2.13251 7.05879H1.98514C1.53925 7.05879 1.17647 6.69604 1.17647 6.25012V4.33804C1.17647 3.89212 1.53925 3.52938 1.98514 3.52938H2.13251C2.57839 3.52938 2.94118 3.89212 2.94118 4.33804V4.70585H4.11765V4.33804C4.11765 3.24342 3.2271 2.35291 2.13251 2.35291H1.98514C0.890549 2.35291 0 3.24342 0 4.33804V6.25012C0 7.34475 0.890549 8.23526 1.98514 8.23526ZM7.27926 8.23526H7.42663C8.52122 8.23526 9.41177 7.34475 9.41177 6.25012V4.33804C9.41177 3.24342 8.52122 2.35291 7.42663 2.35291H7.27926C6.18467 2.35291 5.29412 3.24342 5.29412 4.33804V6.25012C5.29412 7.34475 6.18467 8.23526 7.27926 8.23526ZM6.47059 4.33804C6.47059 3.89212 6.83337 3.52938 7.27926 3.52938H7.42663C7.87251 3.52938 8.23529 3.89212 8.23529 4.33804V6.25012C8.23529 6.69604 7.87251 7.05879 7.42663 7.05879H7.27926C6.83337 7.05879 6.47059 6.69604 6.47059 6.25012V4.33804ZM14.7059 6.25012V4.33804C14.7059 3.24342 13.8153 2.35291 12.7207 2.35291H10.5882V8.23526H12.7207C13.8153 8.23526 14.7059 7.34475 14.7059 6.25012ZM11.7647 3.52938H12.7207C13.1666 3.52938 13.5294 3.89212 13.5294 4.33804V6.25012C13.5294 6.69604 13.1666 7.05879 12.7207 7.05879H11.7647V3.52938ZM20 3.52938V2.35291H15.8824V8.23526H20V7.05879H17.0588V5.88232H19.2157V4.70585H17.0588V3.52938H20Z" fill="#FC8019"/>
</g>
<defs>
<clipPath id="clip0_116_2696">
<rect width="20" height="20" fill="white"/>
</clipPath>
</defs>
</svg>
