<svg width="16" height="16" viewBox="0 0 16 16" fill="none" xmlns="http://www.w3.org/2000/svg">
<g clip-path="url(#clip0_77_6912)">
<path d="M8.68667 1.24665L1.36 0.13332C1.02 0.079987 0.673333 0.17332 0.413333 0.39332C0.153333 0.619987 0 0.946654 0 1.28665V15.3333C0 15.7 0.3 16 0.666667 16H2.83333V12.5C2.83333 11.8533 3.35333 11.3333 4 11.3333H5.66667C6.31333 11.3333 6.83333 11.8533 6.83333 12.5V16H9.66667V2.39999C9.66667 1.82665 9.25333 1.33999 8.68667 1.24665ZM3.66667 9.83332H2.66667C2.53406 9.83332 2.40688 9.78064 2.31311 9.68687C2.21935 9.59311 2.16667 9.46593 2.16667 9.33332C2.16667 9.20071 2.21935 9.07354 2.31311 8.97977C2.40688 8.886 2.53406 8.83332 2.66667 8.83332H3.66667C3.79927 8.83332 3.92645 8.886 4.02022 8.97977C4.11399 9.07354 4.16667 9.20071 4.16667 9.33332C4.16667 9.46593 4.11399 9.59311 4.02022 9.68687C3.92645 9.78064 3.79927 9.83332 3.66667 9.83332ZM3.66667 7.83332H2.66667C2.53406 7.83332 2.40688 7.78064 2.31311 7.68687C2.21935 7.59311 2.16667 7.46593 2.16667 7.33332C2.16667 7.20071 2.21935 7.07354 2.31311 6.97977C2.40688 6.886 2.53406 6.83332 2.66667 6.83332H3.66667C3.79927 6.83332 3.92645 6.886 4.02022 6.97977C4.11399 7.07354 4.16667 7.20071 4.16667 7.33332C4.16667 7.46593 4.11399 7.59311 4.02022 7.68687C3.92645 7.78064 3.79927 7.83332 3.66667 7.83332ZM3.66667 5.83332H2.66667C2.53406 5.83332 2.40688 5.78064 2.31311 5.68687C2.21935 5.59311 2.16667 5.46593 2.16667 5.33332C2.16667 5.20071 2.21935 5.07353 2.31311 4.97977C2.40688 4.886 2.53406 4.83332 2.66667 4.83332H3.66667C3.79927 4.83332 3.92645 4.886 4.02022 4.97977C4.11399 5.07353 4.16667 5.20071 4.16667 5.33332C4.16667 5.46593 4.11399 5.59311 4.02022 5.68687C3.92645 5.78064 3.79927 5.83332 3.66667 5.83332ZM3.66667 3.83332H2.66667C2.53406 3.83332 2.40688 3.78064 2.31311 3.68687C2.21935 3.59311 2.16667 3.46593 2.16667 3.33332C2.16667 3.20071 2.21935 3.07354 2.31311 2.97977C2.40688 2.886 2.53406 2.83332 2.66667 2.83332H3.66667C3.79927 2.83332 3.92645 2.886 4.02022 2.97977C4.11399 3.07354 4.16667 3.20071 4.16667 3.33332C4.16667 3.46593 4.11399 3.59311 4.02022 3.68687C3.92645 3.78064 3.79927 3.83332 3.66667 3.83332ZM7 9.83332H6C5.86739 9.83332 5.74022 9.78064 5.64645 9.68687C5.55268 9.59311 5.5 9.46593 5.5 9.33332C5.5 9.20071 5.55268 9.07354 5.64645 8.97977C5.74022 8.886 5.86739 8.83332 6 8.83332H7C7.13261 8.83332 7.25979 8.886 7.35355 8.97977C7.44732 9.07354 7.5 9.20071 7.5 9.33332C7.5 9.46593 7.44732 9.59311 7.35355 9.68687C7.25979 9.78064 7.13261 9.83332 7 9.83332ZM7 7.83332H6C5.86739 7.83332 5.74022 7.78064 5.64645 7.68687C5.55268 7.59311 5.5 7.46593 5.5 7.33332C5.5 7.20071 5.55268 7.07354 5.64645 6.97977C5.74022 6.886 5.86739 6.83332 6 6.83332H7C7.13261 6.83332 7.25979 6.886 7.35355 6.97977C7.44732 7.07354 7.5 7.20071 7.5 7.33332C7.5 7.46593 7.44732 7.59311 7.35355 7.68687C7.25979 7.78064 7.13261 7.83332 7 7.83332ZM7 5.83332H6C5.86739 5.83332 5.74022 5.78064 5.64645 5.68687C5.55268 5.59311 5.5 5.46593 5.5 5.33332C5.5 5.20071 5.55268 5.07353 5.64645 4.97977C5.74022 4.886 5.86739 4.83332 6 4.83332H7C7.13261 4.83332 7.25979 4.886 7.35355 4.97977C7.44732 5.07353 7.5 5.20071 7.5 5.33332C7.5 5.46593 7.44732 5.59311 7.35355 5.68687C7.25979 5.78064 7.13261 5.83332 7 5.83332ZM7 3.83332H6C5.86739 3.83332 5.74022 3.78064 5.64645 3.68687C5.55268 3.59311 5.5 3.46593 5.5 3.33332C5.5 3.20071 5.55268 3.07354 5.64645 2.97977C5.74022 2.886 5.86739 2.83332 6 2.83332H7C7.13261 2.83332 7.25979 2.886 7.35355 2.97977C7.44732 3.07354 7.5 3.20071 7.5 3.33332C7.5 3.46593 7.44732 3.59311 7.35355 3.68687C7.25979 3.78064 7.13261 3.83332 7 3.83332ZM15.08 7.22799L10.3333 6.23399V16H14.8333C15.4767 16 16 15.4767 16 14.8333V8.36799C16 7.81732 15.6247 7.34865 15.08 7.22799ZM13.5 14H12.5C12.3674 14 12.2402 13.9473 12.1464 13.8535C12.0527 13.7598 12 13.6326 12 13.5C12 13.3674 12.0527 13.2402 12.1464 13.1464C12.2402 13.0527 12.3674 13 12.5 13H13.5C13.6326 13 13.7598 13.0527 13.8536 13.1464C13.9473 13.2402 14 13.3674 14 13.5C14 13.6326 13.9473 13.7598 13.8536 13.8535C13.7598 13.9473 13.6326 14 13.5 14ZM13.5 12H12.5C12.3674 12 12.2402 11.9473 12.1464 11.8535C12.0527 11.7598 12 11.6326 12 11.5C12 11.3674 12.0527 11.2402 12.1464 11.1464C12.2402 11.0527 12.3674 11 12.5 11H13.5C13.6326 11 13.7598 11.0527 13.8536 11.1464C13.9473 11.2402 14 11.3674 14 11.5C14 11.6326 13.9473 11.7598 13.8536 11.8535C13.7598 11.9473 13.6326 12 13.5 12ZM13.5 9.99999H12.5C12.3674 9.99999 12.2402 9.94731 12.1464 9.85354C12.0527 9.75977 12 9.6326 12 9.49999C12 9.36738 12.0527 9.2402 12.1464 9.14643C12.2402 9.05267 12.3674 8.99999 12.5 8.99999H13.5C13.6326 8.99999 13.7598 9.05267 13.8536 9.14643C13.9473 9.2402 14 9.36738 14 9.49999C14 9.6326 13.9473 9.75977 13.8536 9.85354C13.7598 9.94731 13.6326 9.99999 13.5 9.99999Z" fill="#FC8019"/>
</g>
<defs>
<clipPath id="clip0_77_6912">
<rect width="16" height="16" fill="white"/>
</clipPath>
</defs>
</svg>
