<svg width="18" height="18" viewBox="0 0 18 18" fill="none" xmlns="http://www.w3.org/2000/svg">
<g clip-path="url(#clip0_77_9878)">
<path d="M11.8125 2.25V16.5C11.8125 16.6492 11.7532 16.7923 11.6477 16.8977C11.5423 17.0032 11.3992 17.0625 11.25 17.0625H2.25C1.902 17.0625 1.56825 16.9245 1.32225 16.6778C1.20022 16.556 1.10342 16.4114 1.03739 16.2522C0.971369 16.093 0.937423 15.9224 0.9375 15.75V2.25C0.9375 1.902 1.0755 1.56825 1.32225 1.32225C1.44396 1.20022 1.58857 1.10342 1.74777 1.03739C1.90698 0.971369 2.07765 0.937423 2.25 0.9375H10.5C10.848 0.9375 11.1818 1.0755 11.4278 1.32225C11.6745 1.56825 11.8125 1.902 11.8125 2.25ZM10.6875 2.25C10.6875 2.20027 10.6677 2.15258 10.6326 2.11742C10.5974 2.08225 10.5497 2.0625 10.5 2.0625H2.25C2.20027 2.0625 2.15258 2.08225 2.11742 2.11742C2.08225 2.15258 2.0625 2.20027 2.0625 2.25V15.75C2.0625 15.7997 2.08225 15.8474 2.11742 15.8826C2.15258 15.9177 2.20027 15.9375 2.25 15.9375H10.6875V2.25Z" fill="#FC8019"/>
<path d="M8.8125 11.625V16.5C8.8125 16.6492 8.75324 16.7923 8.64775 16.8977C8.54226 17.0032 8.39918 17.0625 8.25 17.0625H4.5C4.35082 17.0625 4.20774 17.0032 4.10225 16.8977C3.99676 16.7923 3.9375 16.6492 3.9375 16.5V11.625C3.9379 11.3765 4.0368 11.1383 4.21253 10.9625C4.38825 10.7868 4.62648 10.6879 4.875 10.6875H7.875C8.1234 10.6883 8.36139 10.7873 8.53704 10.963C8.71268 11.1386 8.81171 11.3766 8.8125 11.625ZM5.0625 11.8125V15.9375H7.6875V11.8125H5.0625ZM17.0625 6.75V15.75C17.0625 16.0981 16.9242 16.4319 16.6781 16.6781C16.4319 16.9242 16.0981 17.0625 15.75 17.0625H11.25C11.1008 17.0625 10.9577 17.0032 10.8523 16.8977C10.7468 16.7923 10.6875 16.6492 10.6875 16.5V6C10.6875 5.85082 10.7468 5.70774 10.8523 5.60225C10.9577 5.49676 11.1008 5.4375 11.25 5.4375H15.75C16.4745 5.4375 17.0625 6.02475 17.0625 6.75ZM15.9375 6.75C15.9375 6.70027 15.9177 6.65258 15.8826 6.61742C15.8474 6.58225 15.7997 6.5625 15.75 6.5625H11.8125V15.9375H15.75C15.7997 15.9375 15.8474 15.9177 15.8826 15.8826C15.9177 15.8474 15.9375 15.7997 15.9375 15.75V6.75ZM3.5625 3.375H4.6875V4.5H3.5625V3.375ZM3.5625 6H4.6875V7.125H3.5625V6ZM3.5625 8.625H4.6875V9.75H3.5625V8.625ZM5.8125 3.375H6.9375V4.5H5.8125V3.375ZM5.8125 6H6.9375V7.125H5.8125V6ZM5.8125 8.625H6.9375V9.75H5.8125V8.625ZM8.0625 3.375H9.1875V4.5H8.0625V3.375Z" fill="#FC8019"/>
<path d="M13.3125 8.0625H14.4375V9.1875H13.3125V8.0625ZM13.3125 10.6875H14.4375V11.8125H13.3125V10.6875ZM13.3125 13.3125H14.4375V14.4375H13.3125V13.3125ZM8.0625 6H9.1875V7.125H8.0625V6ZM8.0625 8.625H9.1875V9.75H8.0625V8.625Z" fill="#FC8019"/>
</g>
<defs>
<clipPath id="clip0_77_9878">
<rect width="18" height="18" fill="white"/>
</clipPath>
</defs>
</svg>
