<svg width="18" height="18" viewBox="0 0 18 18" fill="none" xmlns="http://www.w3.org/2000/svg">
<g clip-path="url(#clip0_77_9917)">
<path d="M2.78471 12.0973C2.84952 14.2691 4.56956 16.015 6.68906 16.015H7.1539C7.3194 16.6384 7.87136 17.1 8.53125 17.1H9.46875C10.2608 17.1 10.8969 16.4355 10.8969 15.6235C10.8969 14.8114 10.2608 14.147 9.46875 14.147H8.53125C8.20405 14.147 7.88718 14.2631 7.63333 14.4753C7.40018 14.6702 7.23316 14.9352 7.15424 15.232H6.68906C4.99727 15.232 3.61242 13.8433 3.54769 12.0976H3.69869C3.75395 12.0976 3.80858 12.0863 3.85943 12.0645C3.91027 12.0427 3.95623 12.0108 3.99477 11.9708C4.03331 11.9309 4.0637 11.8837 4.08437 11.8319C4.10504 11.7802 4.11563 11.7249 4.11562 11.6691V6.74899C4.11562 3.94773 6.30579 1.683 9 1.683C11.6942 1.683 13.8844 3.94773 13.8844 6.74899V11.6691C13.8844 11.7816 13.9275 11.8902 14.0052 11.9708C14.0831 12.0516 14.1896 12.0976 14.3013 12.0976H15.182C15.6919 12.0976 16.1801 11.8877 16.5395 11.5152C16.8988 11.1428 17.1 10.6385 17.1 10.1134V8.64939C17.1 8.12428 16.8988 7.61998 16.5395 7.24762C16.1801 6.87513 15.6919 6.66518 15.182 6.66518H14.6463C14.603 3.47679 12.095 0.9 9 0.9C5.90506 0.9 3.39696 3.47679 3.35369 6.66518H2.81797C2.30811 6.66518 1.8199 6.87513 1.46051 7.24762C1.10123 7.61998 0.9 8.12428 0.9 8.64939V10.1134C0.9 10.6385 1.10123 11.1428 1.46051 11.5152C1.81208 11.8796 2.28692 12.0884 2.78471 12.0973ZM9.46875 14.93C9.83302 14.93 10.1344 15.2371 10.1344 15.6235C10.1344 16.0099 9.83302 16.317 9.46875 16.317H8.53125C8.16698 16.317 7.86562 16.0099 7.86562 15.6235C7.86562 15.5319 7.88302 15.4413 7.91676 15.3569C7.95049 15.2725 7.99984 15.196 8.06183 15.1318C8.12381 15.0676 8.19719 15.0168 8.2777 14.9822C8.3582 14.9477 8.44434 14.93 8.53125 14.93H9.46875ZM2.81797 7.44818H3.35313V11.3146H2.81797C2.5127 11.3146 2.21918 11.189 2.00219 10.9641C1.78508 10.7391 1.66251 10.4331 1.6625 10.1134V8.6494C1.66251 8.32968 1.78508 8.02376 2.00219 7.79874C2.21918 7.57384 2.5127 7.44819 2.81797 7.44818ZM15.182 11.3146H14.6469V7.44818H15.182C15.3333 7.44817 15.4831 7.47903 15.623 7.53909C15.763 7.59916 15.8904 7.68732 15.9978 7.7987C16.1053 7.91009 16.1908 8.04253 16.2491 8.18853C16.3074 8.33454 16.3375 8.49115 16.3375 8.64939V10.1134C16.3375 10.4331 16.2149 10.7391 15.9978 10.9641C15.7808 11.189 15.4873 11.3146 15.182 11.3146Z" fill="#FC8019" stroke="#FC8019" stroke-width="0.2"/>
</g>
<defs>
<clipPath id="clip0_77_9917">
<rect width="18" height="18" fill="white"/>
</clipPath>
</defs>
</svg>
