<svg width="16" height="16" viewBox="0 0 16 16" fill="none" xmlns="http://www.w3.org/2000/svg">
<g clip-path="url(#clip0_77_7010)">
<path fill-rule="evenodd" clip-rule="evenodd" d="M8.91693 2.00296C9.38738 2.10222 9.84616 2.25043 10.2858 2.44514V2.99621C9.79207 2.75663 9.26959 2.58156 8.73121 2.4753C8.86174 2.35664 8.93206 2.17924 8.91693 2.00296ZM10.7858 1.51192C10.7869 1.44671 10.8135 1.38452 10.8599 1.33873C10.9064 1.29294 10.969 1.26719 11.0342 1.26703C11.0994 1.26687 11.1621 1.2923 11.2088 1.33785C11.2554 1.38341 11.2824 1.44546 11.2838 1.51067L13.0105 1.50214C13.066 1.50189 13.0943 1.56867 13.0554 1.60836L12.4056 2.27202C12.3941 2.28373 12.3877 2.29946 12.3877 2.31584C12.3878 2.33222 12.3942 2.34793 12.4057 2.35961L13.0553 3.01877C13.0942 3.0583 13.0663 3.12514 13.0108 3.12514H11.2838V4.96699C11.2828 5.03235 11.2561 5.09469 11.2095 5.14054C11.1629 5.1864 11.1001 5.2121 11.0348 5.2121C10.9694 5.2121 10.9067 5.1864 10.8601 5.14054C10.8135 5.09469 10.7868 5.03235 10.7857 4.96699L10.7858 1.51192ZM6.29009 9.60789H8.01709C8.07259 9.60789 8.10055 9.54105 8.06159 9.50155L7.41196 8.84239C7.40047 8.83072 7.39402 8.81501 7.394 8.79863C7.39397 8.78225 7.40036 8.76652 7.4118 8.7548L8.06168 8.09114C8.10055 8.05146 8.07227 7.98464 8.01671 7.98492L6.29005 7.99346C6.28989 7.92741 6.26349 7.86414 6.21668 7.81756C6.16986 7.77098 6.10646 7.7449 6.04041 7.74507C5.97437 7.74523 5.9111 7.77163 5.86452 7.81844C5.81793 7.86526 5.79186 7.92866 5.79202 7.99471V11.4498C5.79306 11.5151 5.81975 11.5775 5.86634 11.6233C5.91293 11.6692 5.97568 11.6949 6.04105 11.6949C6.10643 11.6949 6.16918 11.6692 6.21577 11.6233C6.26236 11.5775 6.28905 11.5151 6.29009 11.4498V9.60789ZM2.66434 4.04864H4.39134C4.44684 4.04864 4.4748 3.9818 4.43584 3.94227L3.78618 3.28311C3.77469 3.27144 3.76823 3.25573 3.7682 3.23935C3.76817 3.22297 3.77457 3.20723 3.78602 3.19552L4.4359 2.53186C4.47477 2.49217 4.44649 2.42536 4.39093 2.42564L2.66427 2.43421C2.66411 2.36816 2.63771 2.30489 2.5909 2.25831C2.54408 2.21173 2.48068 2.18565 2.41463 2.18582C2.34859 2.18598 2.28532 2.21238 2.23874 2.25919C2.19215 2.30601 2.16608 2.36941 2.16624 2.43546V5.89052C2.16728 5.95588 2.19397 6.01822 2.24056 6.06408C2.28715 6.10993 2.3499 6.13564 2.41527 6.13564C2.48065 6.13564 2.5434 6.10993 2.58999 6.06408C2.63658 6.01822 2.66327 5.95588 2.6643 5.89052L2.66434 4.04864ZM6.62915 2.11796H8.35615C8.41165 2.11796 8.43962 2.05111 8.40065 2.01158L7.75102 1.35242C7.73953 1.34075 7.73307 1.32504 7.73305 1.30866C7.73302 1.29228 7.73942 1.27654 7.75087 1.26483L8.40074 0.601175C8.43962 0.561487 8.41134 0.494675 8.35577 0.494956L6.62912 0.503518C6.62895 0.437475 6.60256 0.374203 6.55574 0.327621C6.50892 0.281039 6.44552 0.254962 6.37948 0.255128C6.31343 0.255293 6.25016 0.281688 6.20358 0.328505C6.157 0.375321 6.13092 0.438725 6.13109 0.504768V3.95983C6.13212 4.02519 6.15881 4.08753 6.2054 4.13339C6.25199 4.17925 6.31474 4.20495 6.38012 4.20495C6.44549 4.20495 6.50824 4.17925 6.55483 4.13339C6.60142 4.08753 6.62811 4.02519 6.62915 3.95983V2.11796ZM13.6795 6.49642H15.4065C15.462 6.49642 15.4899 6.42958 15.451 6.39005L14.8013 5.73089C14.7898 5.71922 14.7834 5.70351 14.7833 5.68713C14.7833 5.67075 14.7897 5.65501 14.8011 5.6433L15.451 4.97964C15.4899 4.93996 15.4616 4.87314 15.4061 4.87342L13.6794 4.88196C13.6785 4.81639 13.6518 4.75381 13.6051 4.70781C13.5583 4.66181 13.4953 4.6361 13.4298 4.63627C13.3642 4.63643 13.3013 4.66246 13.2548 4.70869C13.2083 4.75492 13.1819 4.81763 13.1814 4.88321V8.33824C13.1824 8.4036 13.2091 8.46594 13.2557 8.5118C13.3023 8.55765 13.365 8.58335 13.4304 8.58335C13.4958 8.58335 13.5585 8.55765 13.6051 8.5118C13.6517 8.46594 13.6784 8.4036 13.6794 8.33824L13.6795 6.49642ZM12.1099 3.62514H11.7838V4.96699C11.7838 5.38049 11.4483 5.71602 11.0348 5.71602C10.6826 5.71602 10.3871 5.47267 10.3071 5.14508C10.3113 5.39721 10.3711 5.63261 10.4153 5.73102C10.488 5.89324 11.9014 5.69249 12.0745 5.69927C12.8847 5.73105 12.5109 6.62939 12.275 6.69408C12.0863 6.74577 10.8026 6.72449 10.3 6.56133C10.0808 6.49017 9.74549 6.94017 9.79077 7.03764C10.0788 7.65777 8.42356 8.37186 9.91949 9.35271C10.9142 9.71764 11.8071 8.89149 11.7642 10.9257C11.7529 11.4613 11.8929 11.7006 11.6796 12.5593C11.5921 12.911 11.9942 13.0444 12.4077 12.9488C12.2889 13.0899 12.1641 13.2259 12.0336 13.3564C10.8672 14.5228 9.25584 15.2442 7.47593 15.2442C5.69602 15.2442 4.08465 14.5228 2.91824 13.3564C1.75184 12.19 1.0304 10.5786 1.0304 8.79871C1.0304 7.93002 1.2023 7.10152 1.51387 6.34527C2.23499 8.1088 3.50343 8.47174 3.73109 8.70652C3.94012 8.92205 4.23802 9.08717 4.24562 9.76783C4.27012 11.9551 5.26402 10.4453 5.70993 12.9453C6.13196 15.3114 6.9904 14.5963 7.16284 13.2021C7.31087 12.0052 8.48805 11.7677 8.59615 10.3435C8.60715 10.1986 8.54449 10.0583 8.4319 9.92536C8.33318 10.0352 8.18996 10.108 8.01705 10.108H6.79005V11.4498C6.79005 11.8633 6.45452 12.1988 6.04102 12.1988C5.62752 12.1988 5.29199 11.8633 5.29199 11.4498V8.90752C4.90568 8.93608 4.86343 8.82939 4.42477 8.12605C3.6523 6.88742 5.61646 7.62458 5.7724 6.82596C5.90105 6.16702 6.40893 6.06161 6.76446 5.83952C7.04896 5.6618 7.56774 5.60792 7.95849 5.50277C8.27809 5.41677 8.2733 5.05136 8.31452 4.76346C8.40487 4.13255 8.26874 4.03771 7.71455 3.95877C7.42874 3.91805 7.26115 3.82849 7.12905 3.73202V3.95986C7.12905 4.37333 6.79352 4.70889 6.38002 4.70889C5.96652 4.70889 5.63099 4.37336 5.63099 3.95986V3.49574C5.16424 3.59158 4.97768 3.61627 4.7769 3.57617L4.79187 3.59136C5.14124 3.94583 4.88896 4.54871 4.39124 4.54871H3.16424V5.89055C3.16424 6.30405 2.82871 6.63958 2.41521 6.63958C2.00174 6.63958 1.66618 6.30405 1.66618 5.89055V4.99102C0.948055 6.08446 0.530273 7.39283 0.530273 8.79874C0.530273 10.7166 1.30768 12.453 2.56459 13.71C3.82149 14.9669 5.55787 15.7443 7.4758 15.7443C9.39374 15.7443 11.1301 14.9669 12.387 13.71C13.6439 12.453 14.4213 10.7167 14.4213 8.79874C14.4213 8.17539 14.3391 7.57124 14.1851 6.99649H14.1793V8.33833C14.1793 8.75183 13.8438 9.08736 13.4303 9.08736C13.0168 9.08736 12.6813 8.75183 12.6813 8.33833V4.8833C12.681 4.70827 12.7424 4.53874 12.8545 4.40436C12.6268 4.12581 12.3778 3.86529 12.1099 3.62514ZM4.9313 2.33408C5.16024 2.24393 5.39383 2.1661 5.63109 2.10092V2.62111C5.30981 2.71695 4.99655 2.83787 4.69421 2.98277L4.79318 2.88171C4.94859 2.72299 4.98393 2.51533 4.9313 2.33408Z" fill="#FC8019"/>
</g>
<defs>
<clipPath id="clip0_77_7010">
<rect width="16" height="16" fill="white"/>
</clipPath>
</defs>
</svg>
