<svg width="15" height="15" viewBox="0 0 15 15" fill="none" xmlns="http://www.w3.org/2000/svg">
<rect width="15" height="15" rx="7.5" fill="#FF5A54"/>
<g clip-path="url(#clip0_1067_275)">
<path d="M7.5 13.5938C10.8655 13.5938 13.5938 10.8655 13.5938 7.5C13.5938 4.13452 10.8655 1.40625 7.5 1.40625C4.13452 1.40625 1.40625 4.13452 1.40625 7.5C1.40625 10.8655 4.13452 13.5938 7.5 13.5938Z" fill="#FF5A54"/>
<path fill-rule="evenodd" clip-rule="evenodd" d="M6.22904 6.9525C6.28291 6.9525 6.33458 6.97391 6.37267 7.01199C6.41078 7.05008 6.43216 7.10175 6.43216 7.15563V9.73493C6.43216 9.78881 6.41078 9.84048 6.37267 9.87857C6.33458 9.91665 6.28291 9.93806 6.22904 9.93806C6.17518 9.93806 6.12351 9.91665 6.08543 9.87857C6.04731 9.84048 6.02591 9.78881 6.02591 9.73493V7.15563C6.02591 7.10175 6.04731 7.05008 6.08543 7.01199C6.12351 6.97391 6.17518 6.9525 6.22904 6.9525ZM7.2974 7.15563C7.2974 7.10175 7.3188 7.05008 7.35691 7.01199C7.395 6.97391 7.44667 6.9525 7.50052 6.9525C7.5544 6.9525 7.60607 6.97391 7.64416 7.01199C7.68227 7.05008 7.70365 7.10175 7.70365 7.15563V9.73493C7.70365 9.78881 7.68227 9.84048 7.64416 9.87857C7.60607 9.91665 7.5544 9.93806 7.50052 9.93806C7.44667 9.93806 7.395 9.91665 7.35691 9.87857C7.3188 9.84048 7.2974 9.78881 7.2974 9.73493V7.15563ZM8.56888 7.15563C8.56888 7.10175 8.59029 7.05008 8.6284 7.01199C8.66648 6.97391 8.71815 6.9525 8.77201 6.9525C8.82589 6.9525 8.87756 6.97391 8.91564 7.01199C8.95375 7.05008 8.97513 7.10175 8.97513 7.15563V9.73493C8.97513 9.78881 8.95375 9.84048 8.91564 9.87857C8.87756 9.91665 8.82589 9.93806 8.77201 9.93806C8.71815 9.93806 8.66648 9.91665 8.6284 9.87857C8.59029 9.84048 8.56888 9.78881 8.56888 9.73493V7.15563ZM4.70303 5.90532L5.0178 11.0677C5.02379 11.1673 5.06759 11.2608 5.14026 11.3292C5.21293 11.3976 5.30898 11.4356 5.40874 11.4355H9.59228C9.69206 11.4356 9.78812 11.3976 9.86078 11.3292C9.93348 11.2609 9.97728 11.1673 9.98322 11.0677L10.298 5.90532H4.70303ZM4.65342 4.3264H6.30379V4.00615C6.30379 3.76286 6.50221 3.56445 6.74548 3.56445H8.25556C8.49883 3.56445 8.69726 3.76286 8.69726 4.00615V4.3264H10.3476C10.5633 4.3264 10.7393 4.50236 10.7393 4.71808V5.37214C10.7393 5.44206 10.6822 5.49909 10.6123 5.49909H4.38867C4.35503 5.49902 4.32278 5.48563 4.29899 5.46184C4.2752 5.43805 4.26179 5.40578 4.26172 5.37214V4.71808C4.26172 4.50233 4.4377 4.3264 4.65342 4.3264Z" fill="white"/>
</g>
<defs>
<clipPath id="clip0_1067_275">
<rect width="13" height="13" fill="white" transform="translate(1 1)"/>
</clipPath>
</defs>
</svg>
