<svg width="15" height="15" viewBox="0 0 15 15" fill="none" xmlns="http://www.w3.org/2000/svg">
<g clip-path="url(#clip0_77_9114)">
<path d="M7.49975 0C3.3578 0 0 3.35805 0 7.49985C0 11.6417 3.3578 15 7.49975 15C11.6417 15 14.9999 11.6418 14.9999 7.49985C14.9999 3.35785 11.6417 0 7.49975 0ZM11.0651 5.39725L10.3527 6.1096L8.90265 4.65965L8.35255 5.20975L9.8026 6.6598L6.246 10.2161L4.79605 8.7663L4.24595 9.3164L5.6959 10.7663L5.3415 11.1207L5.33475 11.114C5.31514 11.1464 5.28916 11.1746 5.25838 11.1967C5.2276 11.2188 5.19265 11.2345 5.15565 11.2428L3.8035 11.5442C3.75733 11.5546 3.70929 11.5531 3.66386 11.5399C3.61842 11.5266 3.57707 11.5021 3.54365 11.4686C3.51012 11.4352 3.4856 11.3938 3.47238 11.3483C3.45916 11.3028 3.45767 11.2547 3.46805 11.2085L3.7694 9.85675C3.77772 9.81976 3.79342 9.78482 3.81557 9.75405C3.83772 9.72327 3.86586 9.69728 3.8983 9.67765L3.89145 9.6708L9.61495 3.94705C9.65533 3.9068 9.71004 3.88422 9.76705 3.88426C9.82407 3.88431 9.87873 3.90698 9.91905 3.9473L11.0652 5.09315C11.1054 5.1335 11.1281 5.1882 11.1281 5.24522C11.128 5.30224 11.1054 5.35693 11.0651 5.39725Z" fill="#FC8019"/>
</g>
<defs>
<clipPath id="clip0_77_9114">
<rect width="15" height="15" fill="white"/>
</clipPath>
</defs>
</svg>
