<svg width="16" height="16" viewBox="0 0 16 16" xmlns="http://www.w3.org/2000/svg">
<g clip-path="url(#clip0_77_9122)">
<path d="M10 4.33337C9.82319 4.33337 9.65362 4.26314 9.5286 4.13811C9.40357 4.01309 9.33333 3.84352 9.33333 3.66671V2.66671H6.66667V3.66671C6.66667 3.84352 6.59643 4.01309 6.4714 4.13811C6.34638 4.26314 6.17681 4.33337 6 4.33337C5.82319 4.33337 5.65362 4.26314 5.5286 4.13811C5.40357 4.01309 5.33333 3.84352 5.33333 3.66671V2.66671C5.33333 1.93137 5.93133 1.33337 6.66667 1.33337H9.33333C10.0687 1.33337 10.6667 1.93137 10.6667 2.66671V3.66671C10.6667 3.84352 10.5964 4.01309 10.4714 4.13811C10.3464 4.26314 10.1768 4.33337 10 4.33337ZM8.47333 10.2534C8.15286 10.3635 7.80405 10.3588 7.48667 10.24L0 7.74671V12.8334C0 13.8467 0.82 14.6667 1.83333 14.6667H14.1667C15.18 14.6667 16 13.8467 16 12.8334V7.74671L8.47333 10.2534Z"/>
<path d="M16 5.16671V6.69337L8.16 9.30671C8.10667 9.32671 8.05333 9.33337 8 9.33337C7.94667 9.33337 7.89333 9.32671 7.84 9.30671L0 6.69337V5.16671C0 4.15337 0.82 3.33337 1.83333 3.33337H14.1667C15.18 3.33337 16 4.15337 16 5.16671Z"/>
</g>
<defs>
<clipPath id="clip0_77_9122">
<rect width="16" height="16" fill="white"/>
</clipPath>
</defs>
</svg>
