<svg width="157" height="150" viewBox="0 0 157 150" fill="none" xmlns="http://www.w3.org/2000/svg">
<circle cx="125" cy="43" r="32" fill="#FC8019" fill-opacity="0.1"/>
<circle cx="44.5" cy="99.5" r="6.5" fill="#FC8019" fill-opacity="0.1"/>
<circle cx="118.5" cy="121.5" r="6.5" fill="#FC8019" fill-opacity="0.1"/>
<circle cx="68.5" cy="10.5" r="6.5" fill="#FC8019" fill-opacity="0.1"/>
<path fill-rule="evenodd" clip-rule="evenodd" d="M63.7 112.187C63.6964 114.092 62.8801 115.806 61.5797 117C60.4116 118.073 58.8528 118.727 57.1417 118.725C55.4366 118.723 53.8844 118.069 52.7203 117C51.4159 115.802 50.5988 114.082 50.6 112.171C50.6012 110.373 51.3265 108.745 52.4999 107.562C53.6867 106.366 55.3319 105.625 57.15 105.625C58.8888 105.627 60.5558 106.319 61.7842 107.55C63.0125 108.78 63.7017 110.449 63.7 112.187Z" stroke="#FC8019" stroke-width="7.5" stroke-linecap="round" stroke-linejoin="round"/>
<path fill-rule="evenodd" clip-rule="evenodd" d="M98.6312 112.187C98.6276 114.092 97.8113 115.806 96.5109 117C95.3428 118.073 93.784 118.727 92.0729 118.725C90.3678 118.723 88.8156 118.069 87.6515 117C86.3471 115.802 85.53 114.082 85.5313 112.171C85.5322 110.605 86.0826 109.168 87 108.041C88.2011 106.567 90.0312 105.625 92.0812 105.625C93.8201 105.627 95.487 106.319 96.7154 107.55C97.9437 108.78 98.6329 110.449 98.6312 112.187Z" stroke="#FC8019" stroke-width="7.5" stroke-linecap="round" stroke-linejoin="round"/>
<path fill-rule="evenodd" clip-rule="evenodd" d="M122.5 48.75H90.9158H59.3315L57.144 66.25L54.9565 83.75C54.9565 88.5825 58.874 92.5 63.7065 92.5L88.1033 90L112.5 87.5C115.573 87.4985 118.42 85.8853 120 83.25L125 72.625L130 62C131.621 59.2974 131.663 55.9322 130.111 53.1898C128.558 50.4474 125.651 48.7515 122.5 48.75Z" stroke="#FC8019" stroke-width="7.5" stroke-linecap="round" stroke-linejoin="round"/>
<path d="M42.9 59.3063C44.9711 59.3063 46.65 57.6273 46.65 55.5563C46.65 53.4852 44.9711 51.8063 42.9 51.8063V59.3063ZM25 51.8063C22.9289 51.8063 21.25 53.4852 21.25 55.5563C21.25 57.6273 22.9289 59.3063 25 59.3063V51.8063ZM42.9 73.8875C44.9711 73.8875 46.65 72.2086 46.65 70.1375C46.65 68.0664 44.9711 66.3875 42.9 66.3875V73.8875ZM37.075 66.3875C35.0039 66.3875 33.325 68.0664 33.325 70.1375C33.325 72.2086 35.0039 73.8875 37.075 73.8875V66.3875ZM55.6927 49.6576C56.194 51.6671 58.2293 52.8898 60.2388 52.3885C62.2483 51.8873 63.471 49.8519 62.9698 47.8424L55.6927 49.6576ZM55.15 31.9875L58.7885 31.0799C58.7865 31.072 58.7845 31.064 58.7825 31.0561L55.15 31.9875ZM54.1937 31.25V35C54.2011 35 54.2084 35 54.2157 35L54.1937 31.25ZM37.5 27.5C35.4289 27.5 33.75 29.1789 33.75 31.25C33.75 33.3211 35.4289 35 37.5 35V27.5ZM42.9 51.8063H25V59.3063H42.9V51.8063ZM42.9 66.3875H37.075V73.8875H42.9V66.3875ZM62.9698 47.8424L58.7885 31.0799L51.5115 32.8951L55.6927 49.6576L62.9698 47.8424ZM58.7825 31.0561C58.2433 28.9534 56.3424 27.4874 54.1718 27.5001L54.2157 35C52.9454 35.0074 51.8331 34.1495 51.5175 32.919L58.7825 31.0561ZM54.1937 27.5H37.5V35H54.1937V27.5Z" fill="#FC8019"/>
</svg>
