<svg width="15" height="15" viewBox="0 0 15 15" fill="none" xmlns="http://www.w3.org/2000/svg">
<g clip-path="url(#clip0_77_4975)">
<path d="M13.2692 0H1.73077C1.27174 0 0.831513 0.182348 0.506931 0.506931C0.182348 0.831513 0 1.27174 0 1.73077V13.2692C0 13.7283 0.182348 14.1685 0.506931 14.4931C0.831513 14.8177 1.27174 15 1.73077 15H13.2692C13.7283 15 14.1685 14.8177 14.4931 14.4931C14.8177 14.1685 15 13.7283 15 13.2692V1.73077C15 1.27174 14.8177 0.831513 14.4931 0.506931C14.1685 0.182348 13.7283 0 13.2692 0ZM11.9475 5.02212L6.21288 10.7913C6.10528 10.8997 5.95911 10.961 5.80641 10.9617C5.65371 10.9625 5.50694 10.9027 5.39827 10.7954L3.05654 8.48769C2.95724 8.37864 2.90349 8.23569 2.90631 8.08823C2.90914 7.94077 2.96833 7.79999 3.07173 7.69482C3.17513 7.58965 3.31488 7.52807 3.46227 7.52274C3.60967 7.51741 3.7535 7.56873 3.86423 7.66615L5.79692 9.57L11.1294 4.21154C11.1825 4.15631 11.246 4.11219 11.3163 4.08178C11.3866 4.05136 11.4623 4.03524 11.5389 4.03437C11.6154 4.0335 11.6914 4.04788 11.7624 4.07669C11.8334 4.1055 11.8979 4.14815 11.9522 4.20216C12.0065 4.25616 12.0496 4.32045 12.0788 4.39125C12.108 4.46206 12.1228 4.53797 12.1223 4.61457C12.1219 4.69116 12.1062 4.7669 12.0762 4.83737C12.0462 4.90784 12.0024 4.97162 11.9475 5.025V5.02212Z" fill="#FC8019"/>
</g>
<defs>
<clipPath id="clip0_77_4975">
<rect width="15" height="15" fill="white"/>
</clipPath>
</defs>
</svg>
