<svg width="20" height="20" viewBox="0 0 20 20" fill="none" xmlns="http://www.w3.org/2000/svg">
<path d="M14.1663 4.16663C14.1663 3.67217 14.313 3.18882 14.5877 2.7777C14.8624 2.36658 15.2528 2.04615 15.7096 1.85693C16.1664 1.66771 16.6691 1.6182 17.1541 1.71466C17.639 1.81113 18.0845 2.04923 18.4341 2.39886C18.7837 2.74849 19.0218 3.19395 19.1183 3.6789C19.2148 4.16385 19.1653 4.66652 18.976 5.12334C18.7868 5.58015 18.4664 5.9706 18.0553 6.2453C17.6441 6.52 17.1608 6.66663 16.6663 6.66663C16.0033 6.66663 15.3674 6.40324 14.8986 5.93439C14.4297 5.46555 14.1663 4.82967 14.1663 4.16663ZM1.66634 4.99996H11.6663C11.8874 4.99996 12.0993 4.91216 12.2556 4.75588C12.4119 4.5996 12.4997 4.38764 12.4997 4.16663C12.4997 3.94561 12.4119 3.73365 12.2556 3.57737C12.0993 3.42109 11.8874 3.33329 11.6663 3.33329H1.66634C1.44533 3.33329 1.23337 3.42109 1.07709 3.57737C0.920805 3.73365 0.833008 3.94561 0.833008 4.16663C0.833008 4.38764 0.920805 4.5996 1.07709 4.75588C1.23337 4.91216 1.44533 4.99996 1.66634 4.99996ZM6.66634 7.49996C6.15055 7.50141 5.64784 7.66236 5.22712 7.96074C4.8064 8.25913 4.48827 8.68034 4.31634 9.16663H1.66634C1.44533 9.16663 1.23337 9.25442 1.07709 9.41071C0.920805 9.56699 0.833008 9.77895 0.833008 9.99996C0.833008 10.221 0.920805 10.4329 1.07709 10.5892C1.23337 10.7455 1.44533 10.8333 1.66634 10.8333H4.31634C4.46922 11.2657 4.7381 11.6477 5.09354 11.9375C5.44899 12.2273 5.87732 12.4138 6.33164 12.4765C6.78597 12.5392 7.24878 12.4757 7.66943 12.2929C8.09009 12.1102 8.45237 11.8153 8.71663 11.4405C8.98089 11.0656 9.13695 10.6253 9.16773 10.1677C9.1985 9.71012 9.10281 9.25287 8.89112 8.84602C8.67943 8.43917 8.3599 8.09839 7.96751 7.86098C7.57511 7.62357 7.12497 7.49867 6.66634 7.49996ZM18.333 9.16663H11.6663C11.4453 9.16663 11.2334 9.25442 11.0771 9.41071C10.9208 9.56699 10.833 9.77895 10.833 9.99996C10.833 10.221 10.9208 10.4329 11.0771 10.5892C11.2334 10.7455 11.4453 10.8333 11.6663 10.8333H18.333C18.554 10.8333 18.766 10.7455 18.9223 10.5892C19.0785 10.4329 19.1663 10.221 19.1663 9.99996C19.1663 9.77895 19.0785 9.56699 18.9223 9.41071C18.766 9.25442 18.554 9.16663 18.333 9.16663ZM8.33301 15H1.66634C1.44533 15 1.23337 15.0878 1.07709 15.244C0.920805 15.4003 0.833008 15.6123 0.833008 15.8333C0.833008 16.0543 0.920805 16.2663 1.07709 16.4226C1.23337 16.5788 1.44533 16.6666 1.66634 16.6666H8.33301C8.55402 16.6666 8.76598 16.5788 8.92226 16.4226C9.07854 16.2663 9.16634 16.0543 9.16634 15.8333C9.16634 15.6123 9.07854 15.4003 8.92226 15.244C8.76598 15.0878 8.55402 15 8.33301 15ZM18.333 15H15.683C15.4864 14.4439 15.0996 13.9753 14.5909 13.6769C14.0823 13.3785 13.4845 13.2696 12.9032 13.3693C12.322 13.469 11.7947 13.771 11.4146 14.2219C11.0345 14.6728 10.826 15.2436 10.826 15.8333C10.826 16.423 11.0345 16.9938 11.4146 17.4447C11.7947 17.8956 12.322 18.1976 12.9032 18.2973C13.4845 18.397 14.0823 18.2881 14.5909 17.9897C15.0996 17.6913 15.4864 17.2226 15.683 16.6666H18.333C18.554 16.6666 18.766 16.5788 18.9223 16.4226C19.0785 16.2663 19.1663 16.0543 19.1663 15.8333C19.1663 15.6123 19.0785 15.4003 18.9223 15.244C18.766 15.0878 18.554 15 18.333 15Z" fill="#FC8019"/>
</svg>
