<svg width="24" height="24" viewBox="0 0 24 24" fill="none" xmlns="http://www.w3.org/2000/svg">
<path fill-rule="evenodd" clip-rule="evenodd" d="M14.6921 5H9.30807C8.15914 5.00635 7.0598 5.46885 6.25189 6.28576C5.44398 7.10268 4.99368 8.20708 5.00007 9.356V14.644C5.00007 14.8134 5.00976 14.9827 5.02907 15.151C5.27126 17.3343 7.11136 18.9895 9.30807 19H14.6921C15.841 18.9937 16.9403 18.5311 17.7482 17.7142C18.5562 16.8973 19.0064 15.7929 19.0001 14.644V9.356C19.0064 8.20708 18.5562 7.10268 17.7482 6.28576C16.9403 5.46885 15.841 5.00635 14.6921 5Z" stroke="#FC8019" stroke-width="1.5" stroke-linecap="round" stroke-linejoin="round"/>
<path fill-rule="evenodd" clip-rule="evenodd" d="M9.05306 8.54606C9.05306 8.82607 8.82607 9.05306 8.54606 9.05306C8.26605 9.05306 8.03906 8.82607 8.03906 8.54606C8.03906 8.26605 8.26605 8.03906 8.54606 8.03906C8.82607 8.03906 9.05306 8.26605 9.05306 8.54606Z" stroke="#FC8019" stroke-width="1.5" stroke-linecap="round" stroke-linejoin="round"/>
<path d="M5.0293 15.1515C5.56589 14.6705 6.06439 14.1486 6.5203 13.5905C7.19496 12.6778 8.39057 12.319 9.4563 12.7095C11.9803 13.5095 14.2333 16.4485 16.3943 14.9205C17.1879 14.3149 17.8022 13.5051 18.1713 12.5775C18.3885 12.068 18.6669 11.5868 19.0003 11.1445" stroke="#FC8019" stroke-width="1.5" stroke-linecap="round" stroke-linejoin="round"/>
</svg>
