<svg width="20" height="20" viewBox="0 0 20 20" fill="none" xmlns="http://www.w3.org/2000/svg">
<g clip-path="url(#clip0_116_2351)">
<path d="M16.6406 19.2743H3.35938C2.42382 19.2743 1.6625 18.513 1.6625 17.5774V8.12354C1.6625 7.8336 1.89754 7.59854 2.1875 7.59854C2.47746 7.59854 2.7125 7.8336 2.7125 8.12354V17.5774C2.7125 17.9342 3.00258 18.2243 3.35938 18.2243H16.6406C16.9974 18.2243 17.2875 17.9342 17.2875 17.5774V8.12354C17.2875 7.8336 17.5225 7.59854 17.8125 7.59854C18.1025 7.59854 18.3375 7.8336 18.3375 8.12354V17.5774C18.3375 18.513 17.5762 19.2743 16.6406 19.2743Z" fill="#FC8019" stroke="white" stroke-width="0.2"/>
<path d="M19.3751 10.2109H19.3749C19.3059 10.211 19.2377 10.1975 19.174 10.1711C19.1104 10.1447 19.0525 10.106 19.0039 10.0572L19.0038 10.0571L11.2308 2.2842C10.5521 1.60546 9.44794 1.60546 8.7692 2.2842L0.996233 10.0572L0.996227 10.0572C0.791218 10.2622 0.458801 10.2622 0.253792 10.0572L0.253781 10.0572C0.0487396 9.85216 0.0487396 9.51974 0.253781 9.31473L0.253787 9.31472L8.02676 1.54172C9.11474 0.453737 10.8853 0.453739 11.9732 1.54172L19.7462 9.31469C19.9512 9.51974 19.9512 9.85212 19.7462 10.0571L19.7461 10.0572C19.6974 10.106 19.6396 10.1447 19.576 10.1711C19.5123 10.1975 19.444 10.211 19.3751 10.2109ZM8.02499 18.1244V18.2244H8.12499H11.875H11.975V18.1244V13.2025C11.975 12.7596 11.6148 12.3994 11.1719 12.3994H8.82812C8.38519 12.3994 8.02499 12.7596 8.02499 13.2025V18.1244ZM12.5 19.2744H7.49999C7.21003 19.2744 6.97499 19.0393 6.97499 18.7494V13.2025C6.97499 12.1808 7.80639 11.3494 8.82812 11.3494H11.1719C12.1936 11.3494 13.025 12.1808 13.025 13.2025V18.7494C13.025 19.0393 12.79 19.2744 12.5 19.2744Z" fill="#FC8019" stroke="white" stroke-width="0.2"/>
</g>
<defs>
<clipPath id="clip0_116_2351">
<rect width="20" height="20" fill="white"/>
</clipPath>
</defs>
</svg>
