<svg width="16" height="16" viewBox="0 0 16 16" xmlns="http://www.w3.org/2000/svg">
<g clip-path="url(#clip0_77_9143)">
<path d="M7.99954 4.20386L2.29321 8.90811C2.29321 8.91475 2.29155 8.92452 2.28821 8.93783C2.28494 8.95104 2.2832 8.96064 2.2832 8.96745V13.731C2.2832 13.903 2.34608 14.0521 2.47181 14.1776C2.5975 14.3032 2.74635 14.3664 2.91837 14.3664H6.72912V10.5554H9.26998V14.3665H13.0807C13.2527 14.3665 13.4017 14.3034 13.5273 14.1776C13.653 14.0522 13.7161 13.903 13.7161 13.731V8.96745C13.7161 8.94103 13.7125 8.92108 13.7061 8.90811L7.99954 4.20386Z"/>
<path d="M15.8896 7.83627L13.7164 6.03007V1.98097C13.7164 1.88841 13.6866 1.81228 13.6269 1.7527C13.5676 1.69319 13.4915 1.66344 13.3987 1.66344H11.4933C11.4007 1.66344 11.3246 1.69319 11.265 1.7527C11.2055 1.81228 11.1758 1.88844 11.1758 1.98097V3.91617L8.75431 1.89157C8.54283 1.71954 8.29138 1.63354 8.00023 1.63354C7.70911 1.63354 7.45769 1.71954 7.246 1.89157L0.110278 7.83627C0.0441299 7.88911 0.00787516 7.96023 0.0011317 8.04956C-0.005577 8.13883 0.0175385 8.21679 0.0705476 8.28291L0.685836 9.01732C0.738845 9.07683 0.808226 9.11322 0.894257 9.12653C0.973684 9.13321 1.05311 9.10999 1.13254 9.05708L8.00002 3.33064L14.8676 9.05705C14.9206 9.10321 14.99 9.12626 15.076 9.12626H15.1058C15.1917 9.11319 15.261 9.07655 15.3142 9.01718L15.9296 8.28287C15.9825 8.21662 16.0057 8.13879 15.9988 8.04942C15.992 7.96033 15.9556 7.88921 15.8896 7.83627Z"/>
</g>
<defs>
<clipPath id="clip0_77_9143">
<rect width="16" height="16" fill="white"/>
</clipPath>
</defs>
</svg>
