<svg width="16" height="16" viewBox="0 0 16 16" fill="none" xmlns="http://www.w3.org/2000/svg">
<g clip-path="url(#clip0_77_6942)">
<path d="M8.0002 0C5.3602 0 3.2002 2.16 3.2002 4.8C3.2002 7.44 8.0002 13.6 8.0002 13.6C8.0002 13.6 12.8002 7.44 12.8002 4.8C12.8002 2.16 10.6402 0 8.0002 0ZM8.0002 6.4C7.1202 6.4 6.4002 5.68 6.4002 4.8C6.4002 3.92 7.1202 3.2 8.0002 3.2C8.8802 3.2 9.6002 3.92 9.6002 4.8C9.6002 5.68 8.8802 6.4 8.0002 6.4Z" fill="#FC8019"/>
<path d="M13.04 8.88005C12.8 9.36005 12.56 9.84005 12.24 10.32C13.6 10.8 14.4 11.44 14.4 12C14.4 12.96 11.84 14.4 8 14.4C4.16 14.4 1.6 12.96 1.6 12C1.6 11.44 2.4 10.8 3.76 10.24C3.44 9.76005 3.2 9.28005 2.96 8.80005C1.12 9.60005 0 10.72 0 12C0 14.24 3.36 16 7.84 16C11.84 16 16 14.64 16 12C16 10.72 14.88 9.60005 13.04 8.88005Z" fill="#FC8019"/>
</g>
<defs>
<clipPath id="clip0_77_6942">
<rect width="16" height="16" fill="white"/>
</clipPath>
</defs>
</svg>
