<svg width="185" height="39" viewBox="0 0 185 39" fill="none" xmlns="http://www.w3.org/2000/svg">
<path fill-rule="evenodd" clip-rule="evenodd" d="M1.31636 0C0.967242 0 0.63242 0.143413 0.385554 0.398693C0.138688 0.653974 0 1.00021 0 1.36123C0 1.72225 0.138688 2.06849 0.385554 2.32377C0.63242 2.57905 0.967242 2.72246 1.31636 2.72246H3.92689C4.12798 2.72341 4.32672 2.76723 4.51069 2.8512C4.69466 2.93516 4.85991 3.05747 4.9961 3.21046C5.1323 3.36346 5.23651 3.54386 5.30223 3.74039C5.36795 3.93691 5.39376 4.14535 5.37806 4.35266L4.13148 19.81C4.06732 20.5968 4.16194 21.3887 4.40933 22.1356C4.65672 22.8825 5.05149 23.5681 5.56861 24.149C6.08573 24.7298 6.71391 25.1932 7.41334 25.5098C8.11276 25.8264 8.86816 25.9893 9.63165 25.9881H25.6136C28.4683 25.9881 30.9266 23.6034 31.1439 20.6809L31.745 12.0412H37.897C38.2461 12.0412 38.5809 11.8977 38.8278 11.6425C39.0747 11.3872 39.2133 11.041 39.2133 10.6799C39.2133 10.3189 39.0747 9.97268 38.8278 9.7174C38.5809 9.46212 38.2461 9.3187 37.897 9.3187H31.9337L31.9543 9.03989C32.0171 8.25299 31.9202 7.46118 31.6698 6.71527C31.4194 5.96935 31.021 5.2858 30.5001 4.70843C29.9793 4.13107 29.3475 3.67264 28.6453 3.36256C27.9431 3.05247 27.1859 2.89757 26.4224 2.90779H7.80619C7.53554 2.06379 7.01493 1.32925 6.31811 0.80825C5.62129 0.287249 4.7836 0.00620006 3.92371 0.00491992L1.31636 0ZM29.2994 9.31378L29.3327 8.83817C29.3682 8.42469 29.3191 8.0081 29.1884 7.61561C29.0577 7.22311 28.8484 6.86353 28.5742 6.56034C28.3 6.25715 27.9671 6.01716 27.5971 5.85605C27.2272 5.69494 26.8285 5.61632 26.4272 5.62533H7.91404L6.75152 20.0396C6.71833 20.4507 6.76812 20.8644 6.89775 21.2546C7.02737 21.6447 7.234 22.0027 7.50451 22.3058C7.77502 22.609 8.10351 22.8507 8.46914 23.0157C8.83478 23.1806 9.22958 23.2652 9.62848 23.264H25.6136C27.0806 23.264 28.4049 21.9896 28.5191 20.4759L29.1075 12.0379H11.8504C11.5013 12.0379 11.1665 11.8945 10.9196 11.6392C10.6728 11.3839 10.5341 11.0377 10.5341 10.6767C10.5341 10.3156 10.6728 9.9694 10.9196 9.71412C11.1665 9.45883 11.5013 9.31542 11.8504 9.31542L29.2994 9.31378Z" fill="#272D2F"/>
<path d="M11.1775 32.7795C11.1775 33.1243 11.0786 33.4614 10.8933 33.7481C10.7081 34.0347 10.4448 34.2582 10.1367 34.3901C9.82867 34.5221 9.48969 34.5566 9.16266 34.4894C8.83563 34.4221 8.53523 34.2561 8.29945 34.0122C8.06368 33.7684 7.90311 33.4578 7.83806 33.1196C7.77301 32.7814 7.80639 32.4309 7.934 32.1123C8.0616 31.7938 8.27768 31.5215 8.55493 31.3299C8.83217 31.1384 9.15812 31.0361 9.49156 31.0361C9.71302 31.0359 9.93234 31.0809 10.137 31.1684C10.3416 31.2559 10.5275 31.3843 10.6841 31.5463C10.8407 31.7082 10.9649 31.9005 11.0496 32.1121C11.1342 32.3237 11.1777 32.5505 11.1775 32.7795Z" fill="#272D2F"/>
<path d="M27.1841 32.7795C27.1837 33.1239 27.0847 33.4605 26.8994 33.7467C26.7142 34.0329 26.451 34.2559 26.1432 34.3875C25.8354 34.519 25.4968 34.5533 25.1702 34.4859C24.8436 34.4185 24.5436 34.2525 24.3082 34.0089C24.0728 33.7652 23.9125 33.4549 23.8477 33.117C23.7828 32.7792 23.8163 32.4291 23.9438 32.1109C24.0713 31.7928 24.2872 31.5209 24.5642 31.3296C24.8411 31.1382 25.1667 31.0361 25.4997 31.0361C25.7211 31.0359 25.9404 31.0809 26.1449 31.1684C26.3495 31.256 26.5353 31.3844 26.6918 31.5464C26.8482 31.7083 26.9722 31.9006 27.0567 32.1122C27.1412 32.3238 27.1845 32.5506 27.1841 32.7795Z" fill="#272D2F"/>
<path fill-rule="evenodd" clip-rule="evenodd" d="M28.6918 32.7402C28.6982 33.4339 28.4387 34.102 27.97 34.5984C27.5013 35.0947 26.8616 35.3789 26.1908 35.3889H9.09548C8.41617 35.3889 7.76467 35.1098 7.28433 34.6131C6.80398 34.1164 6.53412 33.4427 6.53412 32.7402C6.53412 32.0377 6.80398 31.364 7.28433 30.8673C7.76467 30.3706 8.41617 30.0916 9.09548 30.0916H26.1908C26.8616 30.1015 27.5013 30.3857 27.97 30.8821C28.4387 31.3784 28.6982 32.0465 28.6918 32.7402ZM30.6569 35.443C30.2168 36.2702 29.5708 36.9607 28.7858 37.4428C28.0008 37.925 27.1054 38.1813 26.1923 38.1851H9.09548C6.25499 38.1851 3.95215 35.7464 3.95215 32.7402C3.95215 29.734 6.25499 27.2953 9.09548 27.2953H26.1908C29.0297 27.2953 31.3325 29.7324 31.3325 32.7402C31.3352 33.6861 31.1025 34.6169 30.6569 35.443Z" fill="#FC8019"/>
<path d="M58.5977 19.4483C58.609 20.8597 58.367 22.261 57.884 23.5812C57.423 24.8357 56.7351 25.9878 55.8571 26.9761C54.9927 27.9464 53.9428 28.7204 52.774 29.2492C51.5466 29.7952 50.2245 30.0767 48.8883 30.0767C47.5522 30.0767 46.2301 29.7952 45.0027 29.2492C43.8416 28.7096 42.7958 27.937 41.9259 26.9761C41.0632 25.9814 40.3857 24.8305 39.9276 23.5812C38.976 20.9138 38.976 17.9828 39.9276 15.3154C40.3815 14.0729 41.0597 12.9308 41.9259 11.95C43.2857 10.4592 45.0572 9.43869 46.9988 9.02776C48.9403 8.61683 50.9571 8.83552 52.774 9.65399C53.9476 10.1845 54.9985 10.9672 55.8571 11.95C56.7386 12.9244 57.4272 14.0676 57.884 15.3154C58.367 16.6356 58.609 18.0369 58.5977 19.4483ZM54.8833 19.4483C54.9014 18.2116 54.6373 16.9878 54.1126 15.8763C53.6392 14.8429 52.9105 13.957 52 13.308C51.0718 12.6913 49.9917 12.3635 48.8883 12.3635C47.785 12.3635 46.7049 12.6913 45.7766 13.308C44.8735 13.9491 44.1467 14.8216 43.6673 15.8402C43.1581 16.969 42.9043 18.2029 42.9251 19.4483C42.9083 20.6933 43.162 21.9263 43.6673 23.0564C44.1466 24.0778 44.8746 24.9527 45.7798 25.5952C46.7081 26.2118 47.7882 26.5397 48.8915 26.5397C49.9948 26.5397 51.0749 26.2118 52.0032 25.5952C52.9084 24.9527 53.6364 24.0778 54.1157 23.0564C54.6383 21.9314 54.901 20.6962 54.8833 19.4483Z" fill="#272D2F"/>
<path d="M63.3494 30.1637C63.1225 30.1711 62.8966 30.1304 62.6855 30.0441C62.4743 29.9578 62.2826 29.8277 62.1219 29.6619C61.8 29.3125 61.6255 28.8453 61.6366 28.3629V16.1709C61.6294 15.9363 61.6688 15.7026 61.7523 15.4843C61.8357 15.266 61.9615 15.0677 62.1219 14.9015C62.2822 14.7331 62.4732 14.5994 62.684 14.5081C62.8947 14.4168 63.1209 14.3698 63.3494 14.3698C63.5779 14.3698 63.8041 14.4168 64.0149 14.5081C64.2256 14.5994 64.4167 14.7331 64.577 14.9015C64.7373 15.0677 64.8631 15.266 64.9466 15.4843C65.03 15.7026 65.0694 15.9363 65.0623 16.1709V18.9458L64.8624 16.968C65.0592 16.5125 65.3272 16.0936 65.6554 15.7281C65.9871 15.3627 66.3725 15.0539 66.7973 14.8129C67.2149 14.5576 67.6672 14.3685 68.1391 14.252C68.6065 14.135 69.0856 14.0756 69.5665 14.0749C70.0856 14.0564 70.5933 14.2349 70.9938 14.5768C71.1759 14.7116 71.325 14.8886 71.4291 15.0936C71.5332 15.2987 71.5894 15.5261 71.5933 15.7576C71.5933 16.4071 71.4316 16.8794 71.108 17.1746C70.8149 17.4383 70.4403 17.5849 70.0518 17.5879C69.7084 17.5917 69.3681 17.5213 69.0526 17.3812C68.7383 17.2373 68.3971 17.1668 68.0534 17.1746C67.6866 17.1805 67.3257 17.2713 66.9972 17.4403C66.6243 17.6214 66.2933 17.8831 66.0266 18.2078C65.7175 18.6055 65.4761 19.0548 65.3129 19.5363C65.13 20.1275 65.0431 20.7459 65.0559 21.3665V28.3597C65.067 28.842 64.8925 29.3092 64.5706 29.6586C64.411 29.8242 64.2203 29.9544 64.0103 30.0412C63.8004 30.1281 63.5755 30.1698 63.3494 30.1637Z" fill="#272D2F"/>
<path d="M85.9235 8.00643C86.1506 7.99921 86.3768 8.04 86.5881 8.12629C86.7994 8.21258 86.9915 8.34256 87.1526 8.50828C87.3148 8.6792 87.4415 8.88258 87.5249 9.10593C87.6084 9.32929 87.6469 9.56792 87.6379 9.80719V28.0477C87.649 28.5301 87.4745 28.9973 87.1526 29.3466C86.8196 29.6691 86.3805 29.8486 85.9243 29.8486C85.4681 29.8486 85.0289 29.6691 84.6959 29.3466C84.3749 28.9968 84.2004 28.5299 84.2106 28.0477V26.6045L84.845 26.8702C84.845 27.126 84.7102 27.4409 84.4438 27.8148C84.1296 28.2169 83.7653 28.5742 83.3606 28.8776C82.86 29.2562 82.3127 29.564 81.7333 29.7927C81.0928 30.0343 80.4152 30.1543 79.7334 30.147C78.473 30.1618 77.2347 29.8033 76.165 29.1137C75.0904 28.3938 74.2158 27.3967 73.6274 26.2207C73.0173 24.9808 72.7128 23.5638 72.7139 21.9697C72.7139 20.3559 73.0184 18.9389 73.6274 17.7187C74.2 16.5413 75.0654 15.5427 76.1348 14.8257C77.1699 14.1207 78.3846 13.7507 79.624 13.763C80.3911 13.7543 81.1538 13.8842 81.8777 14.1467C82.5133 14.3749 83.1109 14.7035 83.6492 15.1209C84.1034 15.4522 84.4993 15.8615 84.8197 16.3313C85.1051 16.7249 85.2479 17.0594 85.2479 17.335L84.2106 17.7155V9.80719C84.2034 9.57128 84.243 9.33635 84.3271 9.11689C84.4111 8.89743 84.5377 8.69811 84.6991 8.53124C84.8558 8.35933 85.0459 8.22368 85.2569 8.13322C85.468 8.04276 85.6951 7.99955 85.9235 8.00643ZM80.1569 26.8997C80.9369 26.9156 81.7032 26.6869 82.355 26.2437C82.9891 25.8031 83.4935 25.1902 83.8126 24.4724C84.1807 23.6914 84.3665 22.8319 84.355 21.9632C84.3685 21.0847 84.1828 20.2152 83.8126 19.4244C83.4935 18.7066 82.9891 18.0937 82.355 17.6531C81.7005 17.2287 80.9437 17.0037 80.1712 17.0037C79.3986 17.0037 78.6417 17.2287 77.9873 17.6531C77.3497 18.097 76.8379 18.7084 76.5044 19.4244C76.1511 20.2201 75.9755 21.0878 75.9905 21.9632C75.9774 22.8289 76.153 23.6865 76.5044 24.4724C76.8379 25.1884 77.3497 25.7998 77.9873 26.2437C78.6301 26.6833 79.3863 26.9119 80.1569 26.8997Z" fill="#272D2F"/>
<path d="M98.5885 30.1298C96.9708 30.1298 95.5624 29.7854 94.3634 29.0966C93.2128 28.4178 92.2647 27.4249 91.6229 26.2265C90.9821 24.9723 90.6581 23.571 90.6808 22.1527C90.6808 20.3814 91.0234 18.8759 91.7085 17.636C92.3568 16.4375 93.3029 15.4399 94.4491 14.7463C95.5325 14.089 96.7662 13.7436 98.0223 13.7458C98.9689 13.7404 99.9049 13.9521 100.763 14.3658C101.634 14.7758 102.419 15.3573 103.075 16.078C103.746 16.794 104.279 17.6355 104.645 18.5577C105.046 19.5072 105.25 20.5329 105.245 21.5688C105.241 21.7895 105.19 22.0065 105.096 22.2048C105.003 22.4031 104.868 22.5779 104.702 22.7168C104.368 23.0092 103.942 23.1665 103.503 23.1597H92.5935L91.7371 20.2076H102.214L101.58 20.798V20.0009C101.544 19.4361 101.334 18.898 100.98 18.4659C100.616 18.0147 100.163 17.6495 99.6505 17.3949C99.1383 17.1403 98.5793 17.0022 98.0112 16.9898C97.4699 16.9854 96.931 17.065 96.4125 17.226C95.9271 17.3776 95.4857 17.6515 95.1279 18.0231C94.7351 18.4508 94.4422 18.9658 94.2715 19.5286C94.0409 20.3026 93.9338 21.1102 93.9543 21.9198C93.9543 22.9825 94.1657 23.8878 94.5887 24.6357C94.9947 25.3318 95.5643 25.9106 96.2444 26.3184C96.9124 26.6894 97.659 26.8832 98.4172 26.8825C98.9837 26.8981 99.5497 26.8386 100.102 26.7054C100.452 26.6163 100.788 26.4772 101.101 26.2921C101.367 26.115 101.605 25.9674 101.814 25.8493C102.113 25.6838 102.446 25.5928 102.785 25.5836C102.977 25.5772 103.168 25.6134 103.345 25.6898C103.523 25.7661 103.682 25.8809 103.813 26.0264C103.949 26.1593 104.057 26.3195 104.13 26.4972C104.204 26.6749 104.242 26.8663 104.241 27.0597C104.241 27.591 103.977 28.0732 103.448 28.5062C102.953 28.9435 102.258 29.3262 101.364 29.6542C100.471 29.9704 99.5327 30.1311 98.5885 30.1298Z" fill="#272D2F"/>
<path d="M109.993 30.1637C109.766 30.1711 109.54 30.1304 109.329 30.0441C109.118 29.9578 108.926 29.8277 108.765 29.6619C108.444 29.3125 108.269 28.8453 108.28 28.3629V16.1709C108.273 15.9363 108.312 15.7026 108.396 15.4843C108.479 15.266 108.605 15.0677 108.765 14.9015C108.926 14.7333 109.117 14.5997 109.328 14.5086C109.538 14.4174 109.765 14.3705 109.993 14.3705C110.221 14.3705 110.448 14.4174 110.658 14.5086C110.869 14.5997 111.06 14.7333 111.221 14.9015C111.381 15.0677 111.507 15.266 111.59 15.4843C111.674 15.7026 111.713 15.9363 111.706 16.1709V18.9458L111.503 16.968C111.7 16.5125 111.968 16.0936 112.296 15.7281C112.627 15.3627 113.013 15.0539 113.438 14.8129C113.855 14.5576 114.308 14.3685 114.779 14.252C115.247 14.135 115.726 14.0756 116.207 14.0749C116.726 14.0564 117.234 14.2349 117.634 14.5768C117.816 14.7116 117.965 14.8886 118.069 15.0936C118.174 15.2987 118.23 15.5261 118.234 15.7576C118.234 16.4071 118.072 16.8794 117.748 17.1746C117.455 17.4383 117.081 17.5849 116.692 17.5879C116.349 17.5917 116.009 17.5213 115.693 17.3812C115.379 17.2373 115.038 17.1668 114.694 17.1746C114.327 17.1805 113.966 17.2713 113.638 17.4403C113.265 17.6214 112.934 17.8831 112.667 18.2078C112.358 18.6055 112.117 19.0548 111.953 19.5363C111.77 20.1275 111.684 20.7459 111.696 21.3665V28.3597C111.707 28.842 111.533 29.3092 111.211 29.6586C111.052 29.8238 110.862 29.9537 110.652 30.0406C110.443 30.1274 110.219 30.1693 109.993 30.1637Z" fill="#272D2F"/>
<path d="M127.44 30.1471C126.955 30.1658 126.483 29.9854 126.127 29.6452C125.96 29.4757 125.829 29.2727 125.742 29.0487C125.654 28.8247 125.612 28.5846 125.618 28.3431V11.2243H129.329V28.3431C129.333 28.587 129.286 28.8289 129.193 29.0528C129.099 29.2768 128.961 29.4776 128.786 29.642C128.42 29.988 127.936 30.1697 127.44 30.1471ZM121.131 12.8775C120.669 12.8901 120.221 12.7213 119.875 12.4052C119.713 12.246 119.587 12.0531 119.503 11.8393C119.419 11.6255 119.381 11.3957 119.389 11.1653C119.379 10.939 119.417 10.713 119.501 10.5037C119.585 10.2945 119.712 10.107 119.875 9.95494C120.221 9.63881 120.669 9.47002 121.131 9.48261H133.806C134.259 9.46657 134.701 9.63632 135.034 9.95494C135.196 10.1149 135.325 10.3072 135.414 10.5203C135.502 10.7335 135.547 10.9629 135.547 11.1948C135.547 11.4267 135.502 11.6561 135.414 11.8693C135.325 12.0824 135.196 12.2748 135.034 12.4347C134.693 12.7364 134.254 12.8945 133.806 12.8775H121.131Z" fill="#FC8019"/>
<path d="M149.225 13.7466C149.452 13.7392 149.678 13.7799 149.889 13.8662C150.1 13.9525 150.292 14.0826 150.453 14.2484C150.615 14.4194 150.742 14.6227 150.825 14.8461C150.909 15.0694 150.947 15.3081 150.938 15.5473V28.0313C150.949 28.5137 150.775 28.9809 150.453 29.3302C150.12 29.6526 149.681 29.832 149.225 29.832C148.769 29.832 148.33 29.6526 147.998 29.3302C147.676 28.9809 147.501 28.5137 147.512 28.0313V26.5881L148.147 26.8538C148.147 27.1096 148.014 27.4245 147.747 27.7984C147.432 28.2005 147.068 28.5578 146.662 28.8612C146.162 29.2401 145.615 29.5479 145.035 29.7763C144.395 30.0181 143.718 30.1381 143.037 30.1306C141.776 30.1458 140.538 29.7873 139.468 29.0973C138.394 28.3773 137.519 27.3802 136.931 26.2043C136.304 24.8826 135.991 23.4253 136.017 21.9533C136.017 20.3395 136.322 18.9225 136.931 17.7024C137.505 16.5244 138.372 15.5258 139.443 14.8093C140.478 14.1038 141.693 13.7337 142.932 13.7466C143.7 13.7378 144.463 13.8677 145.187 14.1303C145.822 14.3585 146.42 14.6871 146.957 15.1045C147.412 15.4358 147.807 15.8452 148.128 16.3149C148.413 16.7085 148.556 17.0431 148.556 17.3186L147.528 17.7024V15.5473C147.521 15.3127 147.56 15.079 147.644 14.8607C147.727 14.6424 147.853 14.4441 148.014 14.278C148.168 14.1064 148.356 13.9705 148.565 13.8789C148.773 13.7874 148.999 13.7423 149.225 13.7466ZM143.459 26.8833C144.239 26.8987 145.005 26.67 145.657 26.2273C146.291 25.7871 146.795 25.1741 147.113 24.456C147.482 23.6753 147.667 22.8156 147.655 21.9468C147.669 21.0682 147.484 20.1985 147.113 19.408C146.795 18.69 146.291 18.0769 145.657 17.6367C145.005 17.194 144.239 16.9653 143.459 16.9807C142.688 16.9681 141.932 17.1968 141.289 17.6367C140.651 18.081 140.139 18.6922 139.805 19.408C139.452 20.2039 139.276 21.0714 139.291 21.9468C139.278 22.8124 139.454 23.6699 139.805 24.456C140.139 25.1718 140.651 25.783 141.289 26.2273C141.932 26.6672 142.688 26.8959 143.459 26.8833Z" fill="#272D2F"/>
<path d="M162.859 14.0738C164.267 14.0738 165.333 14.3789 166.056 14.989C166.807 15.6121 167.338 16.473 167.569 17.4392C167.867 18.5341 168.011 19.6674 167.997 20.8046V28.3586C168.008 28.841 167.834 29.3081 167.512 29.6575C167.179 29.9799 166.74 30.1593 166.285 30.1593C165.829 30.1593 165.39 29.9799 165.057 29.6575C164.735 29.3081 164.561 28.841 164.572 28.3586V20.8046C164.58 20.2132 164.494 19.6246 164.315 19.0628C164.176 18.5518 163.874 18.1044 163.458 17.7935C163.035 17.4786 162.436 17.3211 161.66 17.3211C160.984 17.2998 160.314 17.4627 159.719 17.7935C159.215 18.097 158.801 18.5356 158.52 19.0628C158.247 19.5995 158.11 20.1985 158.12 20.8046V28.3586C158.131 28.841 157.956 29.3081 157.635 29.6575C157.302 29.9799 156.863 30.1593 156.407 30.1593C155.951 30.1593 155.512 29.9799 155.18 29.6575C154.858 29.3081 154.683 28.841 154.694 28.3586V16.1698C154.687 15.9352 154.726 15.7015 154.81 15.4832C154.893 15.2649 155.019 15.0666 155.18 14.9004C155.34 14.7322 155.531 14.5987 155.742 14.5075C155.952 14.4163 156.179 14.3694 156.407 14.3694C156.635 14.3694 156.862 14.4163 157.072 14.5075C157.283 14.5987 157.474 14.7322 157.635 14.9004C157.795 15.0666 157.921 15.2649 158.004 15.4832C158.088 15.7015 158.127 15.9352 158.12 16.1698V17.4392L157.692 17.3506C157.897 16.9669 158.146 16.6101 158.434 16.2879C158.773 15.8797 159.156 15.5132 159.576 15.1956C160.028 14.8531 160.529 14.5843 161.06 14.3986C161.636 14.1778 162.245 14.0678 162.859 14.0738Z" fill="#272D2F"/>
<path d="M173.746 30.1786C173.519 30.186 173.293 30.1453 173.082 30.0589C172.871 29.9726 172.679 29.8426 172.518 29.6767C172.197 29.3274 172.022 28.8602 172.033 28.3778V10.134C172.026 9.8994 172.065 9.66574 172.149 9.44744C172.232 9.22913 172.358 9.0308 172.518 8.86464C172.679 8.69644 172.87 8.56288 173.081 8.47172C173.291 8.38056 173.517 8.33362 173.746 8.33362C173.974 8.33362 174.2 8.38056 174.411 8.47172C174.622 8.56288 174.813 8.69644 174.973 8.86464C175.134 9.0308 175.26 9.22913 175.343 9.44744C175.427 9.66574 175.466 9.8994 175.459 10.134V28.3745C175.47 28.8569 175.295 29.3241 174.973 29.6735C174.813 29.8399 174.621 29.9706 174.41 30.0574C174.199 30.1443 173.973 30.1855 173.746 30.1786ZM182.824 14.385C183.043 14.3861 183.258 14.4369 183.455 14.5338C183.653 14.6307 183.827 14.7714 183.966 14.9459C184.289 15.3198 184.451 15.6839 184.451 16.0382C184.451 16.5105 184.223 16.9533 183.766 17.3666L175.173 25.5438L175.031 21.47L181.568 14.9459C181.729 14.7687 181.924 14.6275 182.14 14.5311C182.356 14.4346 182.589 14.3849 182.824 14.385ZM183.252 30.1491C183.014 30.1519 182.778 30.1005 182.561 29.9985C182.344 29.8965 182.151 29.7463 181.996 29.5587L176.715 23.7726L179.313 21.2929L184.458 27.0789C184.628 27.2526 184.764 27.4593 184.857 27.6873C184.95 27.9152 184.999 28.1599 185 28.4074C185.003 28.6527 184.951 28.8955 184.847 29.116C184.743 29.3365 184.59 29.5286 184.401 29.6767C184.082 29.9672 183.676 30.1342 183.252 30.1491Z" fill="#272D2F"/>
</svg>
