<svg width="16" height="16" viewBox="0 0 16 16" fill="none" xmlns="http://www.w3.org/2000/svg">
<g clip-path="url(#clip0_77_9036)">
<path d="M11.0137 6.875C11.0137 6.52981 10.7339 6.25 10.3887 6.25H3.95117C3.60598 6.25 3.32617 6.52981 3.32617 6.875C3.32617 7.22019 3.60598 7.5 3.95117 7.5H10.3887C10.7339 7.5 11.0137 7.22019 11.0137 6.875ZM3.95117 8.75C3.60598 8.75 3.32617 9.02981 3.32617 9.375C3.32617 9.72019 3.60598 10 3.95117 10H7.86089C8.20608 10 8.48589 9.72019 8.48589 9.375C8.48589 9.02981 8.20608 8.75 7.86089 8.75H3.95117Z" fill="#FC8019"/>
<path d="M5.42036 14.75H3.33008C2.64083 14.75 2.08008 14.1892 2.08008 13.5V2.5C2.08008 1.81075 2.64083 1.25 3.33008 1.25H11.0141C11.7034 1.25 12.2641 1.81075 12.2641 2.5V6.34375C12.2641 6.68894 12.5439 6.96875 12.8891 6.96875C13.2343 6.96875 13.5141 6.68894 13.5141 6.34375V2.5C13.5141 1.1215 12.3926 0 11.0141 0H3.33008C1.95158 0 0.830078 1.1215 0.830078 2.5V13.5C0.830078 14.8785 1.95158 16 3.33008 16H5.42036C5.76555 16 6.04536 15.7202 6.04536 15.375C6.04536 15.0298 5.76555 14.75 5.42036 14.75Z" fill="#FC8019"/>
<path d="M14.6207 9.04912C13.8896 8.31806 12.7001 8.31803 11.9695 9.04862L8.5382 12.4724C8.46534 12.5451 8.41156 12.6347 8.38164 12.7332L7.63436 15.1933C7.60183 15.3004 7.59865 15.4142 7.62516 15.523C7.65166 15.6317 7.70687 15.7313 7.78502 15.8114C7.86318 15.8915 7.9614 15.9492 8.06945 15.9784C8.17749 16.0075 8.29138 16.0072 8.39923 15.9773L10.9219 15.2785C11.0257 15.2498 11.1203 15.1946 11.1966 15.1185L14.6207 11.7008C15.3518 10.9697 15.3518 9.78025 14.6207 9.04912ZM10.4298 14.1178L9.1607 14.4693L9.53211 13.2465L11.8474 10.9364L12.7315 11.8204L10.4298 14.1178ZM13.7373 10.8166L13.6162 10.9374L12.7323 10.0535L12.853 9.93306C13.0967 9.68937 13.4932 9.68937 13.7369 9.93306C13.9805 10.1768 13.9805 10.5733 13.7373 10.8166ZM10.3887 3.75H3.95117C3.60598 3.75 3.32617 4.02981 3.32617 4.375C3.32617 4.72019 3.60598 5 3.95117 5H10.3887C10.7339 5 11.0137 4.72019 11.0137 4.375C11.0137 4.02981 10.7339 3.75 10.3887 3.75Z" fill="#FC8019"/>
</g>
<defs>
<clipPath id="clip0_77_9036">
<rect width="16" height="16" fill="white"/>
</clipPath>
</defs>
</svg>
