<svg width="26" height="26" viewBox="0 0 26 26" fill="none" xmlns="http://www.w3.org/2000/svg">
<path fill-rule="evenodd" clip-rule="evenodd" d="M10.71 2.78681L13.9161 4.03349L4.34398 7.75555L0.990438 6.45154L10.4155 2.78681C10.5139 2.74847 10.6115 2.74847 10.71 2.78681ZM20.6938 13.4923C23.386 13.4923 25.5684 15.6748 25.5684 18.367C25.5684 21.0592 23.3859 23.2417 20.6938 23.2417C18.0016 23.2417 15.819 21.0592 15.819 18.367C15.819 15.6748 18.0015 13.4923 20.6938 13.4923ZM22.5395 16.144L19.6518 19.0316L18.6665 17.7915C18.4241 17.4866 17.9803 17.4359 17.6754 17.6783C17.3704 17.9207 17.3198 18.3644 17.5622 18.6694L19.0124 20.4942C19.2632 20.8535 19.7795 20.9026 20.092 20.5901L23.5387 17.1433C23.8148 16.8673 23.8148 16.42 23.5387 16.144C23.2628 15.8681 22.8155 15.8681 22.5395 16.144ZM17.3398 5.36472C14.1491 6.60551 10.9584 7.84625 7.76755 9.08673L10.5627 10.1736L20.135 6.45154L17.3398 5.36472ZM20.6938 7.10317L10.969 10.8845V22.1483L15.392 20.4285C15.1433 19.7894 15.0066 19.0942 15.0066 18.367C15.0066 15.2261 17.5528 12.6799 20.6938 12.6799V7.10317ZM10.1565 22.1483V10.8845L7.20896 9.73846V12.117C7.20896 12.2319 7.07464 12.294 6.9872 12.2194L5.42288 10.8871L3.95992 11.3421C3.93978 11.3484 3.91842 11.35 3.89758 11.3465C3.87674 11.3431 3.85701 11.3347 3.84 11.3222C3.82299 11.3097 3.80917 11.2934 3.79967 11.2745C3.79017 11.2556 3.78526 11.2348 3.78534 11.2137V8.40723L0.431641 7.10322V18.089C0.431641 18.26 0.531426 18.4058 0.690828 18.4678L10.1565 22.1483Z" fill="#FC8019"/>
</svg>
