<svg width="20" height="20" viewBox="0 0 20 20" fill="none" xmlns="http://www.w3.org/2000/svg">
<g clip-path="url(#clip0_116_2319)">
<path d="M5.74661 2.44008L5.74665 2.44018L5.74963 2.43869C5.81754 2.40474 5.87877 2.35289 5.91858 2.28212C5.95813 2.21181 5.97482 2.12581 5.9591 2.02634C5.96135 1.27056 6.60209 0.65609 7.42424 0.65609C8.2464 0.65609 8.88714 1.27056 8.88939 2.02634C8.87366 2.12582 8.89036 2.21181 8.92991 2.28212C8.96972 2.35289 9.03094 2.40474 9.09885 2.43869L9.09873 2.43894L9.10366 2.44079C10.0373 2.79091 10.6266 3.62775 10.6752 4.58639H4.20209C4.22353 3.65893 4.83982 2.82035 5.74661 2.44008ZM14.5758 18.7076C14.4735 18.7076 14.3844 18.7419 14.3207 18.8056C14.257 18.8693 14.2227 18.9584 14.2227 19.0606V19.344H0.656061V3.83791H3.59946C3.48679 4.22947 3.49064 4.52451 3.49422 4.79873C3.49484 4.84612 3.49545 4.89289 3.49545 4.93942C3.49545 5.0417 3.52976 5.13081 3.59343 5.19448C3.6571 5.25815 3.74621 5.29245 3.84848 5.29245H11.0606C11.1629 5.29245 11.252 5.25815 11.3157 5.19448C11.3793 5.13081 11.4136 5.0417 11.4136 4.93942C11.4136 4.89289 11.4142 4.84612 11.4149 4.79873C11.4184 4.52451 11.4223 4.22947 11.3096 3.83791H14.253V5.87882C14.253 5.98109 14.2873 6.0702 14.351 6.13387C14.4147 6.19754 14.5038 6.23185 14.6061 6.23185C14.7083 6.23185 14.7974 6.19754 14.8611 6.13387C14.9248 6.0702 14.9591 5.98109 14.9591 5.87882V3.48488C14.9591 3.38261 14.9248 3.2935 14.8611 3.22983C14.7974 3.16616 14.7083 3.13185 14.6061 3.13185H10.9989C10.6937 2.59605 10.2156 2.17827 9.62381 1.87735C9.5464 0.802177 8.59092 -0.0802734 7.45455 -0.0802734C6.3189 -0.0802734 5.363 0.771624 5.28532 1.87607C4.69095 2.15088 4.24252 2.59839 3.91147 3.13185H0.30303C0.200759 3.13185 0.111647 3.16616 0.047978 3.22983C-0.0156913 3.2935 -0.05 3.38261 -0.05 3.48488V19.697C-0.05 19.7993 -0.0156914 19.8884 0.0479779 19.9521C0.111647 20.0157 0.200759 20.05 0.30303 20.05H14.5758C14.678 20.05 14.7671 20.0157 14.8308 19.9521C14.8945 19.8884 14.9288 19.7993 14.9288 19.697V19.0606C14.9288 18.9686 14.8833 18.8808 14.8194 18.8169C14.7556 18.7531 14.6678 18.7076 14.5758 18.7076Z" fill="#FC8019" stroke="#FC8019" stroke-width="0.1"/>
<mask id="path-2-outside-1_116_2319" maskUnits="userSpaceOnUse" x="0.788086" y="0.181885" width="20" height="19" fill="black">
<rect fill="white" x="0.788086" y="0.181885" width="20" height="19"/>
<path d="M7.42445 3.54552C8.06081 3.54552 8.60627 3.03037 8.60627 2.3637C8.60627 1.69704 8.09112 1.18188 7.42445 1.18188C6.78809 1.18188 6.24263 1.69704 6.24263 2.3637C6.24263 3.03037 6.78809 3.54552 7.42445 3.54552ZM7.42445 1.78795C7.72748 1.78795 8.00021 2.03037 8.00021 2.3637C8.00021 2.69704 7.75778 2.93946 7.42445 2.93946C7.12142 2.93946 6.84869 2.69704 6.84869 2.3637C6.84869 2.03037 7.12142 1.78795 7.42445 1.78795ZM4.45475 7.06067C4.45475 6.87886 4.33354 6.75764 4.15172 6.75764H2.09112C1.9093 6.75764 1.78809 6.87886 1.78809 7.06067V9.27279C1.78809 9.45461 1.9093 9.57583 2.09112 9.57583H4.15172C4.33354 9.57583 4.45475 9.45461 4.45475 9.27279V7.06067ZM3.84869 8.93946H2.39415V7.3334H3.84869V8.93946ZM4.45475 11.1213C4.45475 10.9395 4.33354 10.8182 4.15172 10.8182H2.09112C1.9093 10.8182 1.78809 10.9395 1.78809 11.1213V13.3334C1.78809 13.5152 1.9093 13.6364 2.09112 13.6364H4.15172C4.33354 13.6364 4.45475 13.5152 4.45475 13.3334V11.1213ZM3.84869 13.0304H2.39415V11.4243H3.84869V13.0304ZM4.15172 14.9092H2.09112C1.9093 14.9092 1.78809 15.0304 1.78809 15.2122V17.4243C1.78809 17.6061 1.9093 17.7273 2.09112 17.7273H4.15172C4.33354 17.7273 4.45475 17.6061 4.45475 17.4243V15.2122C4.45475 15.0304 4.30324 14.9092 4.15172 14.9092ZM3.84869 17.1213H2.39415V15.5152H3.84869V17.1213ZM19.8184 9.69704L14.3032 6.69704C14.2123 6.63643 14.0911 6.63643 14.0305 6.69704C13.6669 6.87886 9.27293 9.24249 8.54566 9.63643C8.45475 9.69704 8.39415 9.81825 8.39415 9.90916V14.7576C8.39415 14.8486 8.45475 14.9698 8.54566 15.0001L14.0305 18.4546C14.1214 18.5152 14.2426 18.5152 14.3335 18.4546L19.8487 15.5152C19.9396 15.4546 20.0002 15.3637 20.0002 15.2425V9.96977C20.0002 9.87886 19.9396 9.75764 19.8184 9.69704ZM14.182 7.3031L19.0911 9.96977L17.8184 10.6667L12.9093 7.96976L14.182 7.3031ZM16.6063 11.4849L11.5154 8.72734L12.2426 8.3334L17.4851 11.2122V12.697L16.7578 13.091V11.7576C16.7578 11.6364 16.6972 11.5152 16.6063 11.4849ZM10.879 9.06067L15.8184 11.7576L14.182 12.6667L9.30324 9.90916L10.879 9.06067ZM8.9699 14.5455V10.394L13.8487 13.1516V17.6364L8.9699 14.5455ZM14.4851 17.6667V13.1819L16.1517 12.2728V13.6061C16.1517 13.7273 16.2123 13.8182 16.3032 13.8789C16.3941 13.9395 16.5154 13.9395 16.6063 13.8789L17.9396 13.1516C18.0305 13.091 18.0911 13.0001 18.0911 12.8789V11.2122L19.3941 10.5152V15.091L14.4851 17.6667ZM9.9396 8.15158C9.9396 7.96976 9.81839 7.84855 9.63657 7.84855H5.30324C5.12142 7.84855 5.00021 7.96976 5.00021 8.15158C5.00021 8.3334 5.12142 8.45461 5.30324 8.45461H9.63657C9.78809 8.45461 9.9396 8.3334 9.9396 8.15158ZM7.78809 11.9395H5.27293C5.09112 11.9395 4.9699 12.0607 4.9699 12.2425C4.9699 12.4243 5.09112 12.5455 5.27293 12.5455H7.78809C7.9699 12.5455 8.09112 12.4243 8.09112 12.2425C8.09112 12.0607 7.9396 11.9395 7.78809 11.9395ZM4.78809 16.3031C4.78809 16.4849 4.9093 16.6061 5.09112 16.6061H9.06081C9.24263 16.6061 9.36384 16.4849 9.36384 16.3031C9.36384 16.1213 9.24263 16.0001 9.06081 16.0001H5.09112C4.9396 16.0001 4.78809 16.1516 4.78809 16.3031Z"/>
</mask>
<path d="M7.42445 3.54552C8.06081 3.54552 8.60627 3.03037 8.60627 2.3637C8.60627 1.69704 8.09112 1.18188 7.42445 1.18188C6.78809 1.18188 6.24263 1.69704 6.24263 2.3637C6.24263 3.03037 6.78809 3.54552 7.42445 3.54552ZM7.42445 1.78795C7.72748 1.78795 8.00021 2.03037 8.00021 2.3637C8.00021 2.69704 7.75778 2.93946 7.42445 2.93946C7.12142 2.93946 6.84869 2.69704 6.84869 2.3637C6.84869 2.03037 7.12142 1.78795 7.42445 1.78795ZM4.45475 7.06067C4.45475 6.87886 4.33354 6.75764 4.15172 6.75764H2.09112C1.9093 6.75764 1.78809 6.87886 1.78809 7.06067V9.27279C1.78809 9.45461 1.9093 9.57583 2.09112 9.57583H4.15172C4.33354 9.57583 4.45475 9.45461 4.45475 9.27279V7.06067ZM3.84869 8.93946H2.39415V7.3334H3.84869V8.93946ZM4.45475 11.1213C4.45475 10.9395 4.33354 10.8182 4.15172 10.8182H2.09112C1.9093 10.8182 1.78809 10.9395 1.78809 11.1213V13.3334C1.78809 13.5152 1.9093 13.6364 2.09112 13.6364H4.15172C4.33354 13.6364 4.45475 13.5152 4.45475 13.3334V11.1213ZM3.84869 13.0304H2.39415V11.4243H3.84869V13.0304ZM4.15172 14.9092H2.09112C1.9093 14.9092 1.78809 15.0304 1.78809 15.2122V17.4243C1.78809 17.6061 1.9093 17.7273 2.09112 17.7273H4.15172C4.33354 17.7273 4.45475 17.6061 4.45475 17.4243V15.2122C4.45475 15.0304 4.30324 14.9092 4.15172 14.9092ZM3.84869 17.1213H2.39415V15.5152H3.84869V17.1213ZM19.8184 9.69704L14.3032 6.69704C14.2123 6.63643 14.0911 6.63643 14.0305 6.69704C13.6669 6.87886 9.27293 9.24249 8.54566 9.63643C8.45475 9.69704 8.39415 9.81825 8.39415 9.90916V14.7576C8.39415 14.8486 8.45475 14.9698 8.54566 15.0001L14.0305 18.4546C14.1214 18.5152 14.2426 18.5152 14.3335 18.4546L19.8487 15.5152C19.9396 15.4546 20.0002 15.3637 20.0002 15.2425V9.96977C20.0002 9.87886 19.9396 9.75764 19.8184 9.69704ZM14.182 7.3031L19.0911 9.96977L17.8184 10.6667L12.9093 7.96976L14.182 7.3031ZM16.6063 11.4849L11.5154 8.72734L12.2426 8.3334L17.4851 11.2122V12.697L16.7578 13.091V11.7576C16.7578 11.6364 16.6972 11.5152 16.6063 11.4849ZM10.879 9.06067L15.8184 11.7576L14.182 12.6667L9.30324 9.90916L10.879 9.06067ZM8.9699 14.5455V10.394L13.8487 13.1516V17.6364L8.9699 14.5455ZM14.4851 17.6667V13.1819L16.1517 12.2728V13.6061C16.1517 13.7273 16.2123 13.8182 16.3032 13.8789C16.3941 13.9395 16.5154 13.9395 16.6063 13.8789L17.9396 13.1516C18.0305 13.091 18.0911 13.0001 18.0911 12.8789V11.2122L19.3941 10.5152V15.091L14.4851 17.6667ZM9.9396 8.15158C9.9396 7.96976 9.81839 7.84855 9.63657 7.84855H5.30324C5.12142 7.84855 5.00021 7.96976 5.00021 8.15158C5.00021 8.3334 5.12142 8.45461 5.30324 8.45461H9.63657C9.78809 8.45461 9.9396 8.3334 9.9396 8.15158ZM7.78809 11.9395H5.27293C5.09112 11.9395 4.9699 12.0607 4.9699 12.2425C4.9699 12.4243 5.09112 12.5455 5.27293 12.5455H7.78809C7.9699 12.5455 8.09112 12.4243 8.09112 12.2425C8.09112 12.0607 7.9396 11.9395 7.78809 11.9395ZM4.78809 16.3031C4.78809 16.4849 4.9093 16.6061 5.09112 16.6061H9.06081C9.24263 16.6061 9.36384 16.4849 9.36384 16.3031C9.36384 16.1213 9.24263 16.0001 9.06081 16.0001H5.09112C4.9396 16.0001 4.78809 16.1516 4.78809 16.3031Z" fill="#FC8019"/>
<path d="M7.42445 3.54552C8.06081 3.54552 8.60627 3.03037 8.60627 2.3637C8.60627 1.69704 8.09112 1.18188 7.42445 1.18188C6.78809 1.18188 6.24263 1.69704 6.24263 2.3637C6.24263 3.03037 6.78809 3.54552 7.42445 3.54552ZM7.42445 1.78795C7.72748 1.78795 8.00021 2.03037 8.00021 2.3637C8.00021 2.69704 7.75778 2.93946 7.42445 2.93946C7.12142 2.93946 6.84869 2.69704 6.84869 2.3637C6.84869 2.03037 7.12142 1.78795 7.42445 1.78795ZM4.45475 7.06067C4.45475 6.87886 4.33354 6.75764 4.15172 6.75764H2.09112C1.9093 6.75764 1.78809 6.87886 1.78809 7.06067V9.27279C1.78809 9.45461 1.9093 9.57583 2.09112 9.57583H4.15172C4.33354 9.57583 4.45475 9.45461 4.45475 9.27279V7.06067ZM3.84869 8.93946H2.39415V7.3334H3.84869V8.93946ZM4.45475 11.1213C4.45475 10.9395 4.33354 10.8182 4.15172 10.8182H2.09112C1.9093 10.8182 1.78809 10.9395 1.78809 11.1213V13.3334C1.78809 13.5152 1.9093 13.6364 2.09112 13.6364H4.15172C4.33354 13.6364 4.45475 13.5152 4.45475 13.3334V11.1213ZM3.84869 13.0304H2.39415V11.4243H3.84869V13.0304ZM4.15172 14.9092H2.09112C1.9093 14.9092 1.78809 15.0304 1.78809 15.2122V17.4243C1.78809 17.6061 1.9093 17.7273 2.09112 17.7273H4.15172C4.33354 17.7273 4.45475 17.6061 4.45475 17.4243V15.2122C4.45475 15.0304 4.30324 14.9092 4.15172 14.9092ZM3.84869 17.1213H2.39415V15.5152H3.84869V17.1213ZM19.8184 9.69704L14.3032 6.69704C14.2123 6.63643 14.0911 6.63643 14.0305 6.69704C13.6669 6.87886 9.27293 9.24249 8.54566 9.63643C8.45475 9.69704 8.39415 9.81825 8.39415 9.90916V14.7576C8.39415 14.8486 8.45475 14.9698 8.54566 15.0001L14.0305 18.4546C14.1214 18.5152 14.2426 18.5152 14.3335 18.4546L19.8487 15.5152C19.9396 15.4546 20.0002 15.3637 20.0002 15.2425V9.96977C20.0002 9.87886 19.9396 9.75764 19.8184 9.69704ZM14.182 7.3031L19.0911 9.96977L17.8184 10.6667L12.9093 7.96976L14.182 7.3031ZM16.6063 11.4849L11.5154 8.72734L12.2426 8.3334L17.4851 11.2122V12.697L16.7578 13.091V11.7576C16.7578 11.6364 16.6972 11.5152 16.6063 11.4849ZM10.879 9.06067L15.8184 11.7576L14.182 12.6667L9.30324 9.90916L10.879 9.06067ZM8.9699 14.5455V10.394L13.8487 13.1516V17.6364L8.9699 14.5455ZM14.4851 17.6667V13.1819L16.1517 12.2728V13.6061C16.1517 13.7273 16.2123 13.8182 16.3032 13.8789C16.3941 13.9395 16.5154 13.9395 16.6063 13.8789L17.9396 13.1516C18.0305 13.091 18.0911 13.0001 18.0911 12.8789V11.2122L19.3941 10.5152V15.091L14.4851 17.6667ZM9.9396 8.15158C9.9396 7.96976 9.81839 7.84855 9.63657 7.84855H5.30324C5.12142 7.84855 5.00021 7.96976 5.00021 8.15158C5.00021 8.3334 5.12142 8.45461 5.30324 8.45461H9.63657C9.78809 8.45461 9.9396 8.3334 9.9396 8.15158ZM7.78809 11.9395H5.27293C5.09112 11.9395 4.9699 12.0607 4.9699 12.2425C4.9699 12.4243 5.09112 12.5455 5.27293 12.5455H7.78809C7.9699 12.5455 8.09112 12.4243 8.09112 12.2425C8.09112 12.0607 7.9396 11.9395 7.78809 11.9395ZM4.78809 16.3031C4.78809 16.4849 4.9093 16.6061 5.09112 16.6061H9.06081C9.24263 16.6061 9.36384 16.4849 9.36384 16.3031C9.36384 16.1213 9.24263 16.0001 9.06081 16.0001H5.09112C4.9396 16.0001 4.78809 16.1516 4.78809 16.3031Z" stroke="#FC8019" stroke-width="0.2" mask="url(#path-2-outside-1_116_2319)"/>
</g>
<defs>
<clipPath id="clip0_116_2319">
<rect width="20" height="20" fill="white"/>
</clipPath>
</defs>
</svg>
