<svg width="26" height="26" viewBox="0 0 26 26" fill="none" xmlns="http://www.w3.org/2000/svg">
<g clip-path="url(#clip0_114_2269)">
<path d="M22.4004 16.8235H24.0675V18.2881H22.4004V16.8235Z" fill="#FC8019"/>
<path d="M25.9102 13.0021L23.9757 9.22942C23.9258 9.13198 23.8571 9.04533 23.7737 8.97446C23.6902 8.90358 23.5936 8.84986 23.4894 8.81636L23.4895 8.81598L14.2588 5.84159C14.1004 5.79057 13.9303 5.78821 13.7705 5.83481L3.60943 8.79875L3.60954 8.7992C3.46291 8.84177 3.33083 8.92388 3.22776 9.03653L0.213985 12.3331C-0.16396 12.7465 -0.021904 13.4305 0.487874 13.6593L8.93149 17.4491C9.28337 17.6071 9.70843 17.4966 9.93937 17.1878L11.3342 15.3229V23.9499L4.67604 21.3869V17.0335H3.00893V21.9606C3.00893 22.3063 3.22148 22.6162 3.54354 22.7402L11.8688 25.9448C12.0385 26.0097 12.2247 26.0176 12.3993 25.9675L23.4658 22.7629C23.6395 22.7125 23.7921 22.607 23.9007 22.4623C24.0093 22.3176 24.068 22.1416 24.0679 21.9606V19.6243H22.4008V21.3327L13.0014 24.0545V15.1055L14.7833 17.2277C15.0019 17.488 15.3668 17.5903 15.6885 17.4811L25.4362 14.1747C25.9107 14.0137 26.1397 13.4497 25.9102 13.0021ZM13.9914 7.50998L20.3795 9.56836L12.2057 11.9353L6.44582 9.71098L13.9914 7.50998Z" fill="#FC8019"/>
<path d="M5.69941 0.224443L3.69141 2.10089L4.82857 3.32222L5.42818 2.76189V5.54489H7.09529V2.76867L7.75929 3.39789L8.90491 2.18455L6.84079 0.228443C6.52107 -0.0745572 6.02124 -0.0763906 5.69941 0.224443ZM21.0616 2.14772L20.4035 2.77133V0.000665006H18.7364V2.78922L18.1309 2.22333L16.9937 3.44467L19.0017 5.32111C19.3194 5.618 19.8275 5.61628 20.1431 5.31711L22.2072 3.361L21.0616 2.14772Z" fill="#FC8019"/>
</g>
<defs>
<clipPath id="clip0_114_2269">
<rect width="26" height="26" fill="white"/>
</clipPath>
</defs>
</svg>
