<svg width="18" height="18" viewBox="0 0 18 18" fill="none" xmlns="http://www.w3.org/2000/svg">
<path d="M14.383 2.22982C12.9451 0.791894 11.0333 0 8.9998 0C6.9663 0 5.05443 0.791894 3.61654 2.22982C2.17861 3.66778 1.38672 5.57958 1.38672 7.61305C1.38672 11.7268 5.27634 15.1483 7.36599 16.9865C7.65638 17.242 7.90715 17.4626 8.10694 17.6492C8.35725 17.883 8.67855 17.9999 8.99977 17.9999C9.32106 17.9999 9.64229 17.883 9.89263 17.6492C10.0924 17.4625 10.3432 17.242 10.6336 16.9865C12.7232 15.1483 16.6129 11.7268 16.6129 7.61305C16.6128 5.57958 15.821 3.66778 14.383 2.22982ZM9.93714 16.1949C9.64039 16.4559 9.38413 16.6814 9.17284 16.8787C9.07578 16.9693 8.92376 16.9693 8.82666 16.8787C8.61541 16.6813 8.35912 16.4559 8.06236 16.1948C6.09783 14.4667 2.44105 11.25 2.44105 7.61309C2.44105 3.99663 5.38325 1.05444 8.99973 1.05444C12.6162 1.05444 15.5584 3.99663 15.5584 7.61309C15.5584 11.25 11.9017 14.4667 9.93714 16.1949Z" fill="#FC8019"/>
<path d="M8.99953 3.9707C7.14957 3.9707 5.64453 5.47571 5.64453 7.32566C5.64453 9.17562 7.14957 10.6806 8.99953 10.6806C10.8495 10.6806 12.3545 9.17562 12.3545 7.32566C12.3545 5.47571 10.8495 3.9707 8.99953 3.9707ZM8.99953 9.62618C7.73098 9.62618 6.69894 8.59414 6.69894 7.32563C6.69894 6.05712 7.73098 5.02507 8.99953 5.02507C10.2681 5.02507 11.3001 6.05712 11.3001 7.32563C11.3001 8.59414 10.2681 9.62618 8.99953 9.62618Z" fill="#FC8019"/>
</svg>
