<svg width="16" height="16" viewBox="0 0 16 16" fill="none" xmlns="http://www.w3.org/2000/svg">
<g clip-path="url(#clip0_77_6953)">
<path d="M0.797852 0H3.19572V2.39787H0.797852V0ZM4.79998 0H7.19785V2.39787H4.79998V0ZM8.79785 0H11.1957V2.39787H8.79785V0ZM0.797852 4.00213H3.19572V6.4H0.797852V4.00213ZM4.79998 4.00213H7.19785V6.4H4.79998V4.00213ZM8.79785 4.00213H11.1957V6.4H8.79785V4.00213ZM0.797852 8H3.19572V10.3979H0.797852V8ZM4.79998 8H7.19785V10.3979H4.79998V8Z" fill="#FC8019"/>
<path d="M14.4 11.1999C13.9563 11.1999 13.5979 11.5583 13.5979 12.002L13.5936 11.1828C13.5851 10.7476 13.231 10.3978 12.7958 10.3978C12.3563 10.3978 12.0022 10.7519 11.9979 11.1871V10.3978C11.9979 9.95402 11.6395 9.59562 11.1958 9.59562C10.752 9.59562 10.3936 9.95402 10.3936 10.3978V7.99989C10.3936 7.55615 10.0352 7.19775 9.59151 7.19775C9.14778 7.19775 8.78938 7.55615 8.78938 7.99989V12.4671L7.75684 11.4346C7.44538 11.1231 6.93764 11.1231 6.62618 11.4346C6.31471 11.746 6.31471 12.2538 6.62618 12.5652L8.79364 15.1978C8.79364 15.6415 9.15204 15.9999 9.59578 15.9999H14.4C14.8438 15.9999 15.2022 15.6415 15.2022 15.1978V12.002C15.2022 11.5583 14.8438 11.1999 14.4 11.1999Z" fill="#FC8019"/>
</g>
<defs>
<clipPath id="clip0_77_6953">
<rect width="16" height="16" fill="white"/>
</clipPath>
</defs>
</svg>
