<svg width="18" height="18" viewBox="0 0 18 18" fill="none" xmlns="http://www.w3.org/2000/svg">
<g clip-path="url(#clip0_77_9887)">
<mask id="mask0_77_9887" style="mask-type:luminance" maskUnits="userSpaceOnUse" x="0" y="0" width="18" height="18">
<path d="M0 0H18V18H0V0Z" fill="white"/>
</mask>
<g mask="url(#mask0_77_9887)">
<path d="M9 2.3925L14.25 4.725V8.25C14.25 11.64 12.015 14.7675 9 15.6975C5.985 14.7675 3.75 11.64 3.75 8.25V4.725L9 2.3925ZM9 0.75L2.25 3.75V8.25C2.25 12.4125 5.13 16.305 9 17.25C12.87 16.305 15.75 12.4125 15.75 8.25V3.75L9 0.75ZM8.25 5.25H9.75V6.75H8.25V5.25ZM8.25 8.25H9.75V12.75H8.25V8.25Z" fill="#FC8019"/>
</g>
</g>
<defs>
<clipPath id="clip0_77_9887">
<rect width="18" height="18" fill="white"/>
</clipPath>
</defs>
</svg>
