<svg width="23" height="23" viewBox="0 0 23 23" fill="none" xmlns="http://www.w3.org/2000/svg">
<circle cx="11.5" cy="11.5" r="11.5" fill="#FC8019"/>
<path d="M8.69232 6.45844C8.84456 6.30711 9.05049 6.22217 9.26514 6.22217C9.47979 6.22217 9.68572 6.30711 9.83795 6.45844L14.3067 10.9272C14.458 11.0794 14.543 11.2853 14.543 11.5C14.543 11.7147 14.458 11.9206 14.3067 12.0728L9.83795 16.5416C9.68572 16.6929 9.47979 16.7778 9.26514 16.7778C9.05049 16.7778 8.84456 16.6929 8.69232 16.5416C8.54099 16.3893 8.45605 16.1834 8.45605 15.9687C8.45605 15.7541 8.54099 15.5482 8.69232 15.3959L12.5842 11.5L8.69232 7.60406C8.54099 7.45183 8.45605 7.2459 8.45605 7.03125C8.45605 6.8166 8.54099 6.61067 8.69232 6.45844Z" fill="white"/>
</svg>
