<svg width="12" height="12" viewBox="0 0 12 12" fill="none" xmlns="http://www.w3.org/2000/svg">
<g clip-path="url(#clip0_77_11202)">
<path d="M11.6164 10.9301L8.76034 7.95969C9.49493 7.08813 9.89757 5.98484 9.89702 4.845C9.89702 2.17351 7.72352 0 5.05203 0C2.38054 0 0.207031 2.17351 0.207031 4.845C0.207031 7.51648 2.38054 9.68999 5.05203 9.68999C6.05494 9.68999 7.01067 9.38749 7.82779 8.81326L10.7055 11.8062C10.8258 11.9311 10.9876 12 11.1609 12C11.325 12 11.4807 11.9374 11.5989 11.8237C11.7195 11.7074 11.7891 11.548 11.7924 11.3805C11.7956 11.213 11.7323 11.051 11.6164 10.9301ZM5.05203 1.26391C7.02668 1.26391 8.63311 2.87034 8.63311 4.845C8.63311 6.81965 7.02668 8.42608 5.05203 8.42608C3.07738 8.42608 1.47094 6.81965 1.47094 4.845C1.47094 2.87034 3.07738 1.26391 5.05203 1.26391Z" fill="#272D2F" fill-opacity="0.5"/>
</g>
<defs>
<clipPath id="clip0_77_11202">
<rect width="12" height="12" fill="white"/>
</clipPath>
</defs>
</svg>
