<svg width="16" height="16" viewBox="0 0 16 16" fill="none" xmlns="http://www.w3.org/2000/svg">
<g clip-path="url(#clip0_77_6995)">
<path d="M11.6589 3.55872L11.6744 3.6775L11.4964 3.71436L11.4727 3.9674H11.6859L11.9696 3.94009L12.116 3.76602L11.9603 3.70547L11.8751 3.60742L11.7471 3.40012L11.6859 3.10693L11.4454 3.15596L11.3779 3.25928V3.37577L11.4938 3.45507L11.6589 3.55872Z" fill="#FC8019"/>
<path d="M11.4538 3.656L11.4666 3.4974L11.3254 3.43652L11.128 3.48226L10.9816 3.7172V3.86955H11.1524L11.4538 3.656ZM7.39001 4.32956L7.34658 4.44144H7.13632V4.55002H7.18633L7.19357 4.60333L7.32256 4.59247L7.40318 4.54246L7.42423 4.44144L7.52854 4.43255L7.56967 4.34766L7.47392 4.32792L7.39001 4.32956ZM6.84807 4.52666L6.83984 4.63294L6.99219 4.62011L7.00799 4.5135L6.91651 4.44144L6.84807 4.52666Z" fill="#FC8019"/>
<path d="M15.998 7.91725C15.9959 7.68518 15.9839 7.45332 15.9618 7.2223C15.8891 6.47484 15.7109 5.74145 15.4324 5.04399C15.412 4.99299 15.3932 4.94133 15.3715 4.89098C14.9854 3.98159 14.4344 3.15147 13.7463 2.44253C13.6285 2.31954 13.5066 2.20036 13.3811 2.08519C11.9108 0.742254 9.9911 -0.00162292 7.99984 2.65865e-06C5.91202 2.65865e-06 4.00979 0.804527 2.58369 2.11908C2.25141 2.42583 1.94543 2.75988 1.66894 3.11774C0.585774 4.51454 -0.00142599 6.23227 2.60053e-06 7.99984C2.60053e-06 12.4114 3.58894 16 8.00017 16C11.1031 16 13.797 14.2231 15.1231 11.6342C15.4839 10.9306 15.7373 10.1769 15.875 9.3983C15.9556 8.94388 15.9997 8.47663 15.9997 7.99984C16 7.9722 15.9984 7.94489 15.998 7.91725ZM14.4923 4.71988L14.5387 4.66789C14.5996 4.78602 14.6565 4.90612 14.7108 5.02787L14.6351 5.02491L14.4923 5.04465V4.71988ZM13.3364 3.32405L13.3377 2.96671C13.4634 3.09997 13.5845 3.23719 13.7003 3.37933L13.5562 3.59387L13.0524 3.58927L13.0208 3.4843L13.3364 3.32405ZM3.68601 2.43595V2.42246H3.84625L3.86007 2.36751H4.12233V2.48202L4.04697 2.58271H3.68568L3.68601 2.43595ZM3.94201 2.79297C3.94201 2.79297 4.10225 2.76566 4.11607 2.76566C4.12989 2.76566 4.11607 2.92558 4.11607 2.92558L3.75478 2.94828L3.68601 2.86602L3.94201 2.79297ZM15.002 5.96862H14.4166L14.0599 5.70308L13.6845 5.7396V5.96862H13.5657L13.4374 5.87714L12.7872 5.71229V5.29111L11.9632 5.35527L11.7079 5.49249H11.3808L11.2206 5.47636L10.8234 5.69683V6.11176L10.0116 6.69746L10.0791 6.94754H10.2436L10.2005 7.18577L10.0847 7.22822L10.0784 7.85078L10.78 8.64971H11.0853L11.1038 8.60101H11.6526L11.8109 8.45458H12.1222L12.2929 8.62569L12.7569 8.67373L12.6954 9.2907L13.2103 10.1999L12.9392 10.7181L12.9576 10.9623L13.1712 11.1752V11.7622L13.4515 12.1393V12.6269H13.6937C12.3459 14.2817 10.2946 15.3416 7.99951 15.3416C3.95155 15.3419 0.6581 12.0481 0.6581 7.99984C0.6581 6.98077 0.867375 6.00942 1.24414 5.12658V4.89757L1.50672 4.57872C1.59786 4.40662 1.69559 4.23881 1.7999 4.07527L1.81175 4.20854L1.50672 4.57872C1.41161 4.75761 1.32434 4.94039 1.24447 5.12658V5.54448L1.54949 5.69123V6.272L1.84202 6.77117L2.07992 6.80769L2.11052 6.63659L1.82984 6.20356L1.77489 5.78271H1.93942L2.00885 6.21573L2.41456 6.80769L2.30993 6.99887L2.5679 7.3934L3.20856 7.552V7.44835L3.46489 7.48488L3.44054 7.66783L3.64192 7.70468L3.95287 7.78958L4.39215 8.29006L4.95318 8.33251L5.00813 8.79021L4.62413 9.05872L4.60603 9.4674L4.55108 9.71747L5.10651 10.4128L5.14896 10.651C5.14896 10.651 5.35034 10.7056 5.37502 10.7056C5.39936 10.7056 5.82647 11.0291 5.82647 11.0291V12.2857L5.97882 12.3285L5.87517 12.9083L6.1315 13.2501L6.08412 13.8247L6.42271 14.4199L6.85738 14.7996L7.29436 14.8075L7.33713 14.667L7.01598 14.3965L7.03441 14.2623L7.09199 14.0978L7.10417 13.93L6.88699 13.9234L6.77742 13.7858L6.95774 13.6124L6.98209 13.4815L6.78071 13.4239L6.79256 13.3021L7.07949 13.2587L7.51581 13.0491L7.66223 12.7806L8.11994 12.1949L8.01596 11.7368L8.15647 11.493L8.57732 11.5059L8.86063 11.2814L8.95211 10.3976L9.26635 9.99848L9.3213 9.74215L9.0347 9.65035L8.84549 9.34005L8.19891 9.33347L7.68625 9.13802L7.6619 8.77244L7.4908 8.47334L7.02717 8.46643L6.75932 8.04591L6.52142 7.92975L6.50925 8.05808L6.07622 8.08375L5.91762 7.86295L5.46583 7.77115L5.09368 8.20122L4.50797 8.10184L4.46552 7.44177L4.03809 7.36872L4.20952 7.04494L4.1605 6.85903L3.59881 7.23447L3.24541 7.19136L3.11939 6.91529L3.19638 6.63067L3.39118 6.27167L3.83967 6.04463L4.70573 6.0443L4.70343 6.30853L5.01471 6.45331L4.99003 6.00185L5.21444 5.77613L5.66721 5.47867L5.69814 5.26939L6.1496 4.79951L6.62968 4.53364L6.58723 4.49876L6.91233 4.19274L7.03145 4.22433L7.08607 4.29277L7.20946 4.15589L7.23974 4.1424L7.1045 4.12331L6.96728 4.07758V3.94596L7.04 3.8864H7.20025L7.27363 3.91865L7.33713 4.04697L7.41479 4.03513V4.02394L7.43716 4.03151L7.66223 3.99696L7.69415 3.88706L7.82248 3.9193V4.03842L7.70336 4.12035H7.70369L7.72113 4.25098L8.12883 4.37668L8.12981 4.38162L8.22359 4.37372L8.22984 4.19702L7.90672 4.04994L7.88829 3.96504L8.15647 3.87357L8.16831 3.61691L7.88796 3.44613L7.86953 3.01343L7.48521 3.20231H7.34503L7.38188 2.87293L6.8587 2.74953L6.64218 2.91307V3.41191L6.25292 3.5353L6.09695 3.8604L5.92782 3.88771V3.4718L5.56191 3.42112L5.37896 3.30201L5.30526 3.03252L5.95973 2.6495L6.2799 2.55211L6.31215 2.7673L6.49049 2.75809L6.50431 2.64983L6.69088 2.62318L6.69417 2.58534L6.61388 2.55211L6.59546 2.4376L6.8248 2.41818L6.96333 2.27406L6.9709 2.26353L6.97255 2.26419L7.01467 2.22075L7.49672 2.15988L7.70995 2.34086L7.15089 2.63865L7.8623 2.80646L7.95443 2.56856H8.26538L8.37528 2.36126L8.15548 2.30631V2.04405L7.46612 1.7387L6.99032 1.79365L6.72181 1.93415L6.74024 2.2757L6.45956 2.23293L6.41645 2.04405L6.68529 1.7999L6.19731 1.77555L6.05713 1.818L5.99626 1.98252L6.17921 2.01345L6.14269 2.1964L5.83174 2.21483L5.78304 2.33658L5.33191 2.34908C5.33191 2.34908 5.31941 2.09308 5.30131 2.09308L5.65504 2.08683L5.92387 1.82425L5.77711 1.75087L5.58199 1.9404L5.2582 1.92198L5.06308 1.65347H4.64815L4.21512 1.97693H4.61195L4.64815 2.09308L4.54515 2.18884L4.98443 2.20101L5.05156 2.35961L4.557 2.34119L4.53298 2.21911L4.22203 2.15198L4.05717 2.06051L3.68699 2.06347C4.93893 1.14897 6.44947 0.656754 7.99984 0.6581C9.85633 0.6581 11.5526 1.35206 12.8467 2.49222L12.7595 2.64819L12.4209 2.78079L12.2781 2.93578L12.311 3.11642L12.4858 3.14077L12.5911 3.40401L12.8925 3.28259L12.9422 3.63468H12.8513L12.6039 3.59815L12.3295 3.64422L12.0639 4.01933L11.6842 4.07889L11.6292 4.40399L11.7895 4.44183L11.7431 4.65078L11.366 4.5751L11.0202 4.65078L10.9468 4.84327L11.0067 5.24734L11.2097 5.34244L11.5503 5.34047L11.7803 5.31974L11.8504 5.13678L12.2097 4.66986L12.4463 4.71823L12.6792 4.50764L12.7227 4.67217L13.2959 5.0588L13.2258 5.15291L12.9675 5.13909L13.0669 5.27992L13.2258 5.3148L13.412 5.23714L13.4081 5.01273L13.4907 4.97127L13.4242 4.90086L13.0419 4.68763L12.9412 4.40432H13.259L13.3607 4.50501L13.6345 4.74094L13.646 5.02622L13.9296 5.32829L14.0353 4.91435L14.2317 4.80708L14.2685 5.14567L14.4604 5.35626L14.8431 5.34968C14.9171 5.5402 14.9836 5.73401 15.0418 5.93177L15.002 5.96862ZM4.36352 3.63468L4.55568 3.5432L4.72942 3.58466L4.66953 3.81796L4.48198 3.87751L4.36352 3.63468ZM5.38324 4.18386V4.33489H4.94429L4.77977 4.28915L4.8209 4.18386L5.03182 4.09666H5.32006V4.18386H5.38324ZM5.58528 4.39445V4.54088L5.47538 4.61162L5.33849 4.63696V4.39445H5.58528ZM5.46156 4.33489V4.16083L5.61259 4.29837L5.46156 4.33489ZM5.53033 4.68697V4.82945L5.42536 4.93475H5.19206L5.22859 4.77483L5.33882 4.76529L5.36152 4.71034L5.53033 4.68697ZM4.94923 4.39445H5.19174L4.88078 4.82912L4.75245 4.76035L4.7801 4.5774L4.94923 4.39445ZM5.9423 4.63696V4.77911H5.709L5.64516 4.68697V4.5547H5.66359L5.9423 4.63696ZM5.72677 4.4415L5.79324 4.37175L5.90544 4.4415L5.81561 4.51554L5.72677 4.4415ZM15.1211 6.33913L15.1441 6.31215C15.1537 6.35361 15.1639 6.39507 15.1731 6.43718L15.1211 6.33913Z" fill="#FC8019"/>
<path d="M1.24414 4.89746V5.12648C1.3241 4.93958 1.41228 4.75729 1.50672 4.57861L1.24414 4.89746Z" fill="#FC8019"/>
</g>
<defs>
<clipPath id="clip0_77_6995">
<rect width="16" height="16" fill="white"/>
</clipPath>
</defs>
</svg>
