<svg width="16" height="16" viewBox="0 0 16 16" fill="none" xmlns="http://www.w3.org/2000/svg">
<g clip-path="url(#clip0_77_6995)">
<path d="M8.50208 13.4791H7.49795C7.3412 13.4791 7.19483 13.4009 7.10795 13.2704L6.24295 11.9729H5.48964C5.36527 11.9729 5.24611 11.9235 5.15808 11.8356L4.79336 11.4708H2.97927C2.87785 11.4708 2.77916 11.4379 2.69802 11.3771L0.689579 9.87084C0.640339 9.83391 0.598859 9.78763 0.567507 9.73466C0.536156 9.68169 0.515548 9.62306 0.50686 9.56213L0.00476665 6.0475C-0.0056075 5.97547 0.00100609 5.90202 0.0240791 5.833L1.0282 2.82056C1.05932 2.72723 1.119 2.64604 1.19881 2.58851C1.27862 2.53098 1.37451 2.50001 1.47289 2.5H9.50627C9.76517 2.5 9.97502 2.70984 9.97502 2.96875V3.50416H11.0125C11.1171 3.50417 11.2186 3.53912 11.301 3.60346C11.3834 3.66779 11.442 3.75783 11.4673 3.85925L11.8807 5.51244H12.3246L14.6978 3.13941C14.7413 3.09587 14.793 3.06133 14.8499 3.03776C14.9067 3.0142 14.9677 3.00206 15.0292 3.00206H15.5313C15.7902 3.00206 16 3.21191 16 3.47081V5.47913C16 5.55188 15.983 5.62366 15.9506 5.68884L14.9959 7.59816V8.99378C14.9959 9.11803 14.9464 9.23731 14.8585 9.32519L14.2909 9.89281C14.2445 9.93933 14.2157 10.0004 14.2092 10.0658C14.2027 10.1312 14.219 10.1968 14.2554 10.2515L14.9171 11.2441C14.9773 11.3343 15.0043 11.4425 14.9936 11.5503C14.9829 11.6582 14.9352 11.759 14.8585 11.8356L13.8544 12.8398C13.6714 13.0228 13.3745 13.0228 13.1915 12.8398L11.8225 11.4708H10.2981L10.1765 11.7137C10.1376 11.7916 10.0778 11.8571 10.0037 11.9029C9.9297 11.9487 9.84437 11.9729 9.75733 11.9729H9.34205L8.9468 13.1586C8.91569 13.2519 8.856 13.3331 8.77619 13.3906C8.69638 13.4481 8.60046 13.4791 8.50208 13.4791Z" fill="#FC8019"/>
</g>
<defs>
<clipPath id="clip0_77_6995">
<rect width="16" height="16" fill="white"/>
</clipPath>
</defs>
</svg>
