<svg width="26" height="26" viewBox="0 0 26 26" fill="none" xmlns="http://www.w3.org/2000/svg">
<path d="M5.6875 13H8.12581V15.4375H5.6875V13Z" fill="#FC8019"/>
<path d="M10.5625 13H9.75V15.4375C9.75 15.8685 9.57879 16.2818 9.27405 16.5865C8.9693 16.8913 8.55598 17.0625 8.125 17.0625H5.6875C5.25652 17.0625 4.8432 16.8913 4.53845 16.5865C4.2337 16.2818 4.0625 15.8685 4.0625 15.4375V13H3.25C2.81902 13 2.4057 13.1712 2.10095 13.476C1.7962 13.7807 1.625 14.194 1.625 14.625V21.9375C1.625 22.3685 1.7962 22.7818 2.10095 23.0865C2.4057 23.3913 2.81902 23.5625 3.25 23.5625H10.5625C10.9935 23.5625 11.4068 23.3913 11.7115 23.0865C12.0163 22.7818 12.1875 22.3685 12.1875 21.9375V14.625C12.1875 14.194 12.0163 13.7807 11.7115 13.476C11.4068 13.1712 10.9935 13 10.5625 13ZM17.875 13H20.3133V15.4375H17.875V13Z" fill="#FC8019"/>
<path d="M22.75 13H21.9375V15.4375C21.9375 15.8685 21.7663 16.2818 21.4615 16.5865C21.1568 16.8913 20.7435 17.0625 20.3125 17.0625H17.875C17.444 17.0625 17.0307 16.8913 16.726 16.5865C16.4212 16.2818 16.25 15.8685 16.25 15.4375V13H15.4375C15.0065 13 14.5932 13.1712 14.2885 13.476C13.9837 13.7807 13.8125 14.194 13.8125 14.625V21.9375C13.8125 22.3685 13.9837 22.7818 14.2885 23.0865C14.5932 23.3913 15.0065 23.5625 15.4375 23.5625H22.75C23.181 23.5625 23.5943 23.3913 23.899 23.0865C24.2038 22.7818 24.375 22.3685 24.375 21.9375V14.625C24.375 14.194 24.2038 13.7807 23.899 13.476C23.5943 13.1712 23.181 13 22.75 13ZM12.1875 1.625H13.8133V4.0625H12.1875V1.625Z" fill="#FC8019"/>
<path d="M8.9375 11.375H17.0625C17.4935 11.375 17.9068 11.2038 18.2115 10.899C18.5163 10.5943 18.6875 10.181 18.6875 9.75V3.25C18.6875 2.81902 18.5163 2.4057 18.2115 2.10095C17.9068 1.7962 17.4935 1.625 17.0625 1.625H15.4375V4.0625C15.4375 4.49348 15.2663 4.9068 14.9615 5.21155C14.6568 5.5163 14.2435 5.6875 13.8125 5.6875H12.1875C11.7565 5.6875 11.3432 5.5163 11.0385 5.21155C10.7337 4.9068 10.5625 4.49348 10.5625 4.0625V1.625H8.9375C8.50652 1.625 8.0932 1.7962 7.78845 2.10095C7.48371 2.4057 7.3125 2.81902 7.3125 3.25V9.75C7.3125 10.181 7.48371 10.5943 7.78845 10.899C8.0932 11.2038 8.50652 11.375 8.9375 11.375Z" fill="#FC8019"/>
</svg>
