<svg width="20" height="20" viewBox="0 0 20 20" fill="none" xmlns="http://www.w3.org/2000/svg">
<g clip-path="url(#clip0_116_2311)">
<path d="M16.5625 6.25C17.1188 6.25 17.6625 6.08505 18.125 5.77601C18.5876 5.46697 18.948 5.02772 19.1609 4.5138C19.3738 3.99988 19.4295 3.43438 19.321 2.88881C19.2124 2.34324 18.9446 1.8421 18.5512 1.44876C18.1579 1.05543 17.6568 0.787564 17.1112 0.679043C16.5656 0.570522 16.0001 0.626219 15.4862 0.83909C14.9723 1.05196 14.533 1.41245 14.224 1.87496C13.915 2.33747 13.75 2.88124 13.75 3.4375C13.7508 4.18317 14.0474 4.89806 14.5747 5.42533C15.1019 5.95259 15.8168 6.24917 16.5625 6.25ZM16.5625 1.25C16.9951 1.25 17.4181 1.3783 17.7778 1.61866C18.1375 1.85903 18.4179 2.20067 18.5835 2.60038C18.7491 3.00009 18.7924 3.43993 18.708 3.86426C18.6236 4.28859 18.4152 4.67837 18.1093 4.9843C17.8034 5.29022 17.4136 5.49856 16.9893 5.58297C16.5649 5.66737 16.1251 5.62405 15.7254 5.45849C15.3257 5.29292 14.984 5.01254 14.7437 4.65281C14.5033 4.29308 14.375 3.87015 14.375 3.4375C14.3757 2.85754 14.6063 2.30153 15.0164 1.89144C15.4265 1.48134 15.9825 1.25066 16.5625 1.25Z" fill="#FC8019"/>
<path d="M16.25 4.375C16.3329 4.37498 16.4123 4.34205 16.4709 4.28344L18.0334 2.72094L17.5916 2.27906L16.25 3.62063L15.5334 2.90406L15.0916 3.34594L16.0291 4.28344C16.0877 4.34205 16.1671 4.37498 16.25 4.375ZM19.0625 17.5H18.75V12.8125C18.75 12.7296 18.7171 12.6501 18.6585 12.5915C18.5999 12.5329 18.5204 12.5 18.4375 12.5H14.6875V11.95C14.8844 11.6094 15.9844 9.9 16.7313 8.75H17.8125C18.2269 8.75 18.6243 8.58538 18.9174 8.29235C19.2104 7.99933 19.375 7.6019 19.375 7.1875C19.375 7.10462 19.3421 7.02513 19.2835 6.96653C19.2249 6.90792 19.1454 6.875 19.0625 6.875H15.9375C15.5463 6.87602 15.1698 7.02407 14.8827 7.28978C14.5955 7.55549 14.4188 7.91942 14.3875 8.30937L13.3687 9.55625C13.0501 9.31159 12.677 9.14756 12.2812 9.07812L11.35 8.76562C11.2859 8.74473 11.2166 8.74583 11.1531 8.76875L11.0531 8.16562C11.3491 8.00194 11.6032 7.77209 11.7956 7.49401C11.988 7.21592 12.1136 6.89712 12.1625 6.5625H12.5C12.6656 6.56201 12.8243 6.496 12.9414 6.3789C13.0585 6.26179 13.1245 6.10311 13.125 5.9375V5.625C13.1247 5.48004 13.0741 5.33967 12.9817 5.22794C12.8894 5.1162 12.7611 5.04004 12.6188 5.0125L13.0344 4.59687C13.0919 4.53729 13.1244 4.45785 13.125 4.375V4.0625C13.1243 3.48254 12.8937 2.92653 12.4836 2.51643C12.0735 2.10634 11.5175 1.87566 10.9375 1.875H9.0625C8.48254 1.87566 7.92653 2.10634 7.51643 2.51643C7.10634 2.92653 6.87566 3.48254 6.875 4.0625V4.375C6.87562 4.45785 6.90806 4.53729 6.96563 4.59687L7.38125 5.0125C7.23893 5.04004 7.11061 5.1162 7.01825 5.22794C6.9259 5.33967 6.87526 5.48004 6.875 5.625V5.9375C6.87549 6.10311 6.9415 6.26179 7.0586 6.3789C7.17571 6.496 7.33439 6.56201 7.5 6.5625H7.8375C7.8864 6.89712 8.01197 7.21592 8.20441 7.49401C8.39685 7.77209 8.65095 8.00194 8.94687 8.16562L8.84688 8.76875C8.78343 8.74583 8.71414 8.74473 8.65 8.76562L7.71875 9.07812C7.32302 9.14756 6.94993 9.31159 6.63125 9.55625L5.6125 8.30937C5.58121 7.91942 5.40447 7.55549 5.11735 7.28978C4.83022 7.02407 4.4537 6.87602 4.0625 6.875H0.9375C0.85462 6.875 0.775134 6.90792 0.716529 6.96653C0.657924 7.02513 0.625 7.10462 0.625 7.1875C0.625 7.6019 0.78962 7.99933 1.08265 8.29235C1.37567 8.58538 1.7731 8.75 2.1875 8.75H3.26562L5.3125 11.9656V12.5H1.5625C1.47962 12.5 1.40013 12.5329 1.34153 12.5915C1.28292 12.6501 1.25 12.7296 1.25 12.8125V17.5H0.9375C0.85462 17.5 0.775134 17.5329 0.716529 17.5915C0.657924 17.6501 0.625 17.7296 0.625 17.8125V19.0625C0.625 19.1454 0.657924 19.2249 0.716529 19.2835C0.775134 19.3421 0.85462 19.375 0.9375 19.375H19.0625C19.1454 19.375 19.2249 19.3421 19.2835 19.2835C19.3421 19.2249 19.375 19.1454 19.375 19.0625V17.8125C19.375 17.7296 19.3421 17.6501 19.2835 17.5915C19.2249 17.5329 19.1454 17.5 19.0625 17.5ZM15.625 13.125H16.25V13.75H15.625V13.125ZM15 13.125V14.0625C15 14.1454 15.0329 14.2249 15.0915 14.2835C15.1501 14.3421 15.2296 14.375 15.3125 14.375H16.5625C16.6454 14.375 16.7249 14.3421 16.7835 14.2835C16.8421 14.2249 16.875 14.1454 16.875 14.0625V13.125H18.125V17.5H13.75V13.125H15ZM15.9375 7.5H18.6969C18.6317 7.68251 18.5118 7.84046 18.3535 7.95231C18.1952 8.06416 18.0063 8.12447 17.8125 8.125H15.0531C15.1183 7.94249 15.2382 7.78454 15.3965 7.67269C15.5548 7.56084 15.7437 7.50053 15.9375 7.5ZM12.5 5.9375H12.1875V5.625H12.5V5.9375ZM7.8125 5.9375H7.5V5.625H7.8125V5.9375ZM7.8125 4.375V4.55938L7.5 4.24688V4.0625C7.5 3.6481 7.66462 3.25067 7.95765 2.95765C8.25067 2.66462 8.6481 2.5 9.0625 2.5H10.9375C11.3519 2.5 11.7493 2.66462 12.0424 2.95765C12.3354 3.25067 12.5 3.6481 12.5 4.0625V4.24688L12.1875 4.55938V4.375C12.1874 4.30521 12.164 4.23745 12.121 4.18251C12.0779 4.12757 12.0178 4.08862 11.95 4.07187L9.45 3.44687C9.3775 3.42836 9.30072 3.43727 9.23438 3.47187L7.98438 4.09687C7.93231 4.12217 7.8885 4.16175 7.85807 4.21099C7.82764 4.26024 7.81184 4.31712 7.8125 4.375ZM8.4375 6.25V4.56875L9.4125 4.08125L11.5625 4.61875V6.25C11.5625 6.6644 11.3979 7.06183 11.1049 7.35485C10.8118 7.64788 10.4144 7.8125 10 7.8125C9.5856 7.8125 9.18817 7.64788 8.89515 7.35485C8.60212 7.06183 8.4375 6.6644 8.4375 6.25ZM10.6031 9.26875L10 9.87187L9.39688 9.26875L9.54375 8.3875C9.84426 8.45417 10.1557 8.45417 10.4562 8.3875L10.6031 9.26875ZM8.66562 9.41875L9.77813 10.5344C9.83713 10.5929 9.91688 10.6258 10 10.6258C10.0831 10.6258 10.1629 10.5929 10.2219 10.5344L11.3344 9.41875L11.6875 9.5375L10.4656 11.25H9.53438L8.3125 9.5375L8.66562 9.41875ZM10.5688 13.125L10.9156 15.2063L10 16.1219L9.08438 15.2063L9.43125 13.125H10.5688ZM9.53438 12.5L9.64062 11.875H10.3594L10.4656 12.5H9.53438ZM2.1875 8.125C1.9937 8.12447 1.80478 8.06416 1.64651 7.95231C1.48824 7.84046 1.36833 7.68251 1.30313 7.5H4.0625C4.2563 7.50053 4.44522 7.56084 4.60349 7.67269C4.76176 7.78454 4.88167 7.94249 4.94688 8.125H2.1875ZM4.00625 8.75H5.16563L7.88437 12.0719L8.36563 11.6781L7.025 10.0375C7.22218 9.89425 7.44336 9.78736 7.67812 9.72188L9.04688 11.6375L8.44063 15.2625C8.43284 15.3115 8.4367 15.3617 8.4519 15.4089C8.4671 15.4561 8.49322 15.4991 8.52813 15.5344L9.77813 16.7844C9.83736 16.8425 9.91703 16.875 10 16.875C10.083 16.875 10.1626 16.8425 10.2219 16.7844L11.4719 15.5344C11.5068 15.4991 11.5329 15.4561 11.5481 15.4089C11.5633 15.3617 11.5672 15.3115 11.5594 15.2625L10.9531 11.6375L12.3219 9.72188C12.5566 9.78736 12.7778 9.89425 12.975 10.0375L11.6344 11.6781L12.1156 12.0719L14.8344 8.75H15.9875C14.0625 11.7156 14.0625 11.7625 14.0625 11.875V12.5H13.4375C13.3546 12.5 13.2751 12.5329 13.2165 12.5915C13.1579 12.6501 13.125 12.7296 13.125 12.8125V17.5H6.875V12.8125C6.875 12.7296 6.84208 12.6501 6.78347 12.5915C6.72487 12.5329 6.64538 12.5 6.5625 12.5H5.9375V11.875C5.93829 11.815 5.92086 11.7561 5.8875 11.7062L4.00625 8.75ZM3.75 13.125H4.375V13.75H3.75V13.125ZM1.875 13.125H3.125V14.0625C3.125 14.1454 3.15792 14.2249 3.21653 14.2835C3.27513 14.3421 3.35462 14.375 3.4375 14.375H4.6875C4.77038 14.375 4.84987 14.3421 4.90847 14.2835C4.96708 14.2249 5 14.1454 5 14.0625V13.125H6.25V17.5H1.875V13.125ZM18.75 18.75H1.25V18.125H18.75V18.75Z" fill="#FC8019"/>
<path d="M1.5625 6.25H5.3125C5.56114 6.25 5.7996 6.15123 5.97541 5.97541C6.15123 5.7996 6.25 5.56114 6.25 5.3125V1.5625C6.25 1.31386 6.15123 1.0754 5.97541 0.899587C5.7996 0.723772 5.56114 0.625 5.3125 0.625H1.5625C1.31386 0.625 1.0754 0.723772 0.899587 0.899587C0.723772 1.0754 0.625 1.31386 0.625 1.5625V5.3125C0.625 5.56114 0.723772 5.7996 0.899587 5.97541C1.0754 6.15123 1.31386 6.25 1.5625 6.25ZM1.25 1.5625C1.25 1.47962 1.28292 1.40013 1.34153 1.34153C1.40013 1.28292 1.47962 1.25 1.5625 1.25H5.3125C5.39538 1.25 5.47487 1.28292 5.53347 1.34153C5.59208 1.40013 5.625 1.47962 5.625 1.5625V5.3125C5.625 5.39538 5.59208 5.47487 5.53347 5.53347C5.47487 5.59208 5.39538 5.625 5.3125 5.625H1.5625C1.47962 5.625 1.40013 5.59208 1.34153 5.53347C1.28292 5.47487 1.25 5.39538 1.25 5.3125V1.5625Z" fill="#FC8019"/>
<path d="M1.875 1.875H2.5V2.5H1.875V1.875ZM3.125 1.875H5V2.5H3.125V1.875ZM1.875 3.125H5V3.75H1.875V3.125ZM1.875 4.375H5V5H1.875V4.375Z" fill="#FC8019"/>
</g>
<defs>
<clipPath id="clip0_116_2311">
<rect width="20" height="20" fill="white"/>
</clipPath>
</defs>
</svg>
