<svg width="20" height="20" viewBox="0 0 20 20" fill="none" xmlns="http://www.w3.org/2000/svg">
<g clip-path="url(#clip0_77_6967)">
<path d="M16.6636 7.35166C15.7393 3.66932 12.0049 1.43355 8.32253 2.3579C5.44488 3.08029 3.35538 5.5674 3.14009 8.52649C1.09684 8.86344 -0.286409 10.793 0.0505465 12.8362C0.350084 14.6527 1.92405 15.983 3.76502 15.9757H6.88968V14.7258H3.76502C2.38447 14.7258 1.2653 13.6066 1.2653 12.2261C1.2653 10.8455 2.38447 9.72636 3.76502 9.72636C4.11018 9.72636 4.38995 9.44658 4.38995 9.10142C4.38683 5.99516 6.90245 3.4745 10.0087 3.47142C12.6976 3.46872 15.0123 5.36968 15.5325 8.00779C15.5575 8.13625 15.6223 8.25361 15.7176 8.34331C15.8129 8.43301 15.9339 8.49053 16.0637 8.50774C17.7722 8.75103 18.9599 10.3332 18.7166 12.0417C18.4982 13.5758 17.1883 14.7181 15.6387 14.7258H13.139V15.9757H15.6387C18.0547 15.9684 20.0073 14.0039 20 11.5879C19.9939 9.5768 18.6173 7.82891 16.6636 7.35166Z" fill="#FC8019"/>
<path d="M9.57102 9.90757L7.07129 12.4073L7.95244 13.2884L9.38979 11.8574V17.8504H10.6396V11.8574L12.0707 13.2884L12.9519 12.4073L10.4522 9.90757C10.2084 9.66525 9.81478 9.66525 9.57102 9.90757Z" fill="#FC8019"/>
</g>
<defs>
<clipPath id="clip0_77_6967">
<rect width="20" height="20" fill="white"/>
</clipPath>
</defs>
</svg>
