<svg width="100" height="100" viewBox="0 0 100 100" fill="none" xmlns="http://www.w3.org/2000/svg">
<g clip-path="url(#clip0_77_5476)">
<g clip-path="url(#clip1_77_5476)">
<path d="M47.4263 65.6961C63.0372 65.6961 75.6924 53.0409 75.6924 37.43C75.6924 21.819 63.0372 9.16382 47.4263 9.16382C31.8153 9.16382 19.1602 21.819 19.1602 37.43C19.1602 53.0409 31.8153 65.6961 47.4263 65.6961Z" fill="#F4E8D7"/>
<path d="M54.9602 85.2917C76.8075 85.2917 94.5182 84.0793 94.5182 82.5837C94.5182 81.0882 76.8075 79.8757 54.9602 79.8757C33.113 79.8757 15.4023 81.0882 15.4023 82.5837C15.4023 84.0793 33.113 85.2917 54.9602 85.2917Z" fill="#F4E8D7"/>
<path d="M84.1161 32.3501C87.1271 32.3501 89.5681 29.9091 89.5681 26.8981C89.5681 23.887 87.1271 21.446 84.1161 21.446C81.105 21.446 78.6641 23.887 78.6641 26.8981C78.6641 29.9091 81.105 32.3501 84.1161 32.3501Z" fill="#F4E8D7"/>
<path d="M31.3398 24.0401C33.1638 25.0941 33.7738 27.7061 34.1658 29.8941C34.5178 31.8561 34.9218 33.9281 36.2598 35.4041C38.0398 37.3681 40.9938 37.7421 43.6318 37.4801C49.8578 36.8661 55.4358 33.5301 60.8237 30.3461C66.2117 27.1621 71.9117 23.9661 78.1617 23.6821C80.6057 23.5701 83.3856 24.1101 84.6996 26.1741C85.4336 27.3261 85.5676 28.7801 85.3536 30.1301C85.1396 31.4801 84.6036 32.7541 84.0736 34.0121" stroke="#1A004D" stroke-width="0.4838" stroke-miterlimit="10" stroke-linecap="round" stroke-linejoin="round" stroke-dasharray="0.73 2.42"/>
<path d="M30.1743 23.6219L25.9463 21.682L27.5483 20.502L29.4523 21.9539L30.1743 23.6219Z" fill="#1A004D"/>
<path d="M30.1739 19.4282V23.6222L28.2299 21.6722L19.6279 18.1802L30.1739 19.4282Z" fill="#C14040"/>
<path d="M31.5859 17.6343L30.1739 19.4283L19.6279 18.1803L31.5859 17.6343Z" fill="#DB8C53"/>
<path d="M28.2299 21.6722L26.2519 24.5822L19.6279 18.1802L28.2299 21.6722Z" fill="#DB8C53"/>
<path d="M77.0718 23.0979V79.5578C77.0718 81.3178 75.6438 82.7458 73.8838 82.7458H43.2778C41.5178 82.7458 40.0898 81.3178 40.0898 79.5578V23.096C40.0898 21.336 41.5178 19.908 43.2778 19.908H51.3858C52.1078 19.908 52.6918 20.494 52.6918 21.214H64.4678C64.4678 20.492 65.0538 19.908 65.7738 19.908H73.8798C75.6418 19.908 77.0718 21.336 77.0718 23.0979Z" fill="#1A004D"/>
<path d="M43.2776 81.8198C42.0296 81.8198 41.0156 80.8058 41.0156 79.5578V23.096C41.0156 21.848 42.0296 20.834 43.2776 20.834H51.3856C51.5956 20.834 51.7656 21.004 51.7656 21.214V22.14H65.3916V21.214C65.3916 21.004 65.5616 20.834 65.7716 20.834H73.8776C75.1276 20.834 76.1436 21.85 76.1436 23.1V79.5598C76.1436 80.8078 75.1296 81.8218 73.8816 81.8218H43.2776V81.8198Z" fill="#FC8019"/>
<path d="M42.3281 27.7561H44.7421" stroke="white" stroke-width="0.1544" stroke-miterlimit="10" stroke-linecap="round" stroke-linejoin="round"/>
<path d="M42.3281 28.6582H43.8841" stroke="white" stroke-width="0.1544" stroke-miterlimit="10" stroke-linecap="round" stroke-linejoin="round"/>
<path d="M91.8898 37.92V63.036C91.8898 64.132 91.1558 65.016 90.2538 65.016H48.1819C47.2819 65.016 46.5459 64.132 46.5459 63.036V37.92C46.5459 36.832 47.2819 35.948 48.1819 35.948H90.2538C91.1558 35.948 91.8898 36.832 91.8898 37.92Z" fill="white"/>
<path d="M90.2399 65.0818H48.1678C47.2298 65.0818 46.4658 64.1638 46.4658 63.0358V37.9198C46.4658 36.7958 47.2298 35.8818 48.1678 35.8818H90.2399C91.1779 35.8818 91.9419 36.7958 91.9419 37.9198V63.0358C91.9419 64.1638 91.1779 65.0818 90.2399 65.0818ZM48.1678 36.0138C47.3018 36.0138 46.5978 36.8678 46.5978 37.9198V63.0358C46.5978 64.0918 47.3018 64.9498 48.1678 64.9498H90.2399C91.1059 64.9498 91.8099 64.0918 91.8099 63.0358V37.9198C91.8099 36.8698 91.1059 36.0138 90.2399 36.0138H48.1678Z" fill="#F4E8D7"/>
<path d="M91.8899 37.9159V41.5199H46.5439V37.9159C46.5439 36.8259 47.2779 35.9419 48.1859 35.9419H90.2539C91.1579 35.9419 91.8899 36.8259 91.8899 37.9159Z" fill="#1A004D"/>
<path d="M91.9575 41.586H46.4775V37.916C46.4775 36.79 47.2435 35.876 48.1855 35.876H90.2535C91.1935 35.876 91.9575 36.792 91.9575 37.916V41.586ZM46.6095 41.454H91.8255V37.916C91.8255 36.864 91.1195 36.008 90.2535 36.008H48.1835C47.3155 36.008 46.6095 36.864 46.6095 37.916V41.454Z" fill="#1A004D"/>
<path d="M84.1157 39.2599C84.3565 39.2599 84.5517 39.0647 84.5517 38.8239C84.5517 38.5831 84.3565 38.3879 84.1157 38.3879C83.8749 38.3879 83.6797 38.5831 83.6797 38.8239C83.6797 39.0647 83.8749 39.2599 84.1157 39.2599Z" fill="white"/>
<path d="M86.0161 39.2599C86.2569 39.2599 86.4521 39.0647 86.4521 38.8239C86.4521 38.5831 86.2569 38.3879 86.0161 38.3879C85.7753 38.3879 85.5801 38.5831 85.5801 38.8239C85.5801 39.0647 85.7753 39.2599 86.0161 39.2599Z" fill="white"/>
<path d="M87.9184 39.2599C88.1592 39.2599 88.3544 39.0647 88.3544 38.8239C88.3544 38.5831 88.1592 38.3879 87.9184 38.3879C87.6776 38.3879 87.4824 38.5831 87.4824 38.8239C87.4824 39.0647 87.6776 39.2599 87.9184 39.2599Z" fill="white"/>
<path d="M29.8375 62.9378C29.8375 62.9378 28.6335 68.0958 28.5255 68.5618C28.3335 69.3938 27.6475 71.3178 27.6475 71.3178C27.6475 71.3178 30.5615 72.9558 31.3935 72.4438C32.0215 72.0558 31.9795 69.8758 32.0355 69.0678C32.0895 68.2978 34.2615 60.8818 34.2615 60.8818L29.8375 62.9378Z" fill="#EFC0C1"/>
<path d="M34.4261 57.2799C34.4261 57.2799 31.6421 56.0039 30.4081 59.7199C29.4001 62.7519 28.7461 66.1499 28.7461 66.1499L33.5321 67.5799L34.4261 57.2799Z" fill="#DB8C53"/>
<path d="M32.2041 59.5939C32.2101 59.5679 34.8741 61.5379 36.2501 60.7979C37.7861 59.9659 37.9201 56.5079 37.9201 56.5079L37.0601 53.2139L37.0481 53.1599L37.0061 52.9619L36.7041 53.1379L35.5061 53.8359L35.0261 54.1179L33.7981 54.8339C33.7981 54.8339 33.9301 55.7019 33.8941 56.4319C33.8881 56.5099 33.8861 56.5819 33.8781 56.6519C33.8621 56.7739 33.8261 56.8919 33.7821 56.9959C33.6821 57.2419 33.5321 57.4139 33.5321 57.4159C33.3261 58.1639 32.2141 59.5919 32.2041 59.5939Z" fill="#EFC0C1"/>
<path d="M33.7822 56.9899C36.7282 57.2039 37.0682 53.6779 37.0602 53.2139L37.0482 53.1599L37.0062 52.9619L36.7042 53.1379C36.3922 53.4379 35.9382 53.8019 35.5062 53.8359L35.0262 54.1179L33.7982 54.8339C33.7982 54.8339 33.9302 55.7019 33.8942 56.4319C33.8882 56.5099 33.8862 56.5819 33.8782 56.6519C33.8602 56.7679 33.8242 56.8859 33.7822 56.9899Z" fill="#E5E6E7"/>
<path d="M31.8402 53.1038C32.3242 54.7738 33.1022 56.4338 34.7282 56.0858C35.8642 55.8438 36.8802 54.1878 37.0422 52.7138C37.1262 51.9538 37.2082 51.2898 37.1762 50.7958C37.1522 50.4038 37.1182 50.1598 37.1182 50.1598L36.7862 49.3258L36.5922 48.8378C36.5922 48.8378 36.2062 48.5598 35.7742 48.2478C35.2362 47.8558 34.4802 48.5118 34.4642 48.4838C34.4402 48.4398 32.1182 48.2518 31.4442 49.2178C31.4422 49.2198 31.4402 49.2218 31.4402 49.2238C31.3782 49.3118 31.3322 49.3998 31.3062 49.4898C31.2842 49.5638 31.2742 49.6378 31.2782 49.7118C31.2882 49.8538 31.3042 50.0658 31.3302 50.3358C31.3422 50.4478 31.3542 50.5718 31.3702 50.7018C31.3962 50.9218 31.4282 51.1598 31.4682 51.4138C31.5522 51.9378 31.6722 52.5278 31.8402 53.1038Z" fill="#EFC0C1"/>
<path d="M37.2518 50.7739C37.2518 50.7739 37.9958 46.7839 34.7998 47.0599C34.7998 47.0599 32.2998 46.1139 30.7958 47.4879C29.4558 48.7099 30.1999 50.1979 31.2819 50.4519C31.9899 50.6199 35.0739 49.4399 35.5819 49.6979C36.0899 49.9559 37.0278 52.9219 37.0278 52.9219C37.0278 52.9219 37.0198 51.5479 37.2518 50.7739Z" fill="#1A004D"/>
<path d="M34.2725 48.5945C34.9765 48.5005 35.4679 47.8305 35.37 47.0981C35.2722 46.3656 34.6222 45.848 33.9182 45.9421C33.2142 46.0361 32.7229 46.7061 32.8207 47.4385C32.9185 48.171 33.5685 48.6885 34.2725 48.5945Z" fill="#1A004D"/>
<path d="M32.4328 49.6167C33.347 49.4946 33.9851 48.6243 33.8581 47.6729C33.731 46.7215 32.8869 46.0492 31.9727 46.1713C31.0585 46.2934 30.4204 47.1636 30.5475 48.115C30.6745 49.0665 31.5186 49.7388 32.4328 49.6167Z" fill="#1A004D"/>
<path d="M30.708 50.3643C31.412 50.2703 31.9034 49.6003 31.8056 48.8678C31.7078 48.1354 31.0578 47.6178 30.3538 47.7118C29.6498 47.8059 29.1584 48.4758 29.2562 49.2083C29.354 49.9408 30.004 50.4583 30.708 50.3643Z" fill="#1A004D"/>
<path d="M35.0512 50.3759C35.5614 50.3078 35.9176 49.823 35.8468 49.2931C35.7761 48.7631 35.3051 48.3888 34.7949 48.4569C34.2847 48.5251 33.9285 49.0099 33.9992 49.5398C34.07 50.0697 34.541 50.4441 35.0512 50.3759Z" fill="#1A004D"/>
<path d="M36.2553 48.6718C36.7655 48.6037 37.1217 48.1189 37.0509 47.589C36.9802 47.059 36.5092 46.6847 35.999 46.7528C35.4888 46.821 35.1326 47.3058 35.2033 47.8357C35.2741 48.3656 35.7451 48.74 36.2553 48.6718Z" fill="#1A004D"/>
<path d="M36.7953 49.8217C37.3055 49.7536 37.6617 49.2688 37.591 48.7389C37.5202 48.2089 37.0492 47.8346 36.539 47.9027C36.0288 47.9709 35.6726 48.4557 35.7434 48.9856C35.8141 49.5155 36.2851 49.8899 36.7953 49.8217Z" fill="#1A004D"/>
<path d="M36.8419 50.771C37.2733 50.7134 37.5744 50.3028 37.5144 49.8539C37.4545 49.405 37.0562 49.0878 36.6248 49.1454C36.1934 49.2031 35.8923 49.6137 35.9523 50.0625C36.0122 50.5114 36.4105 50.8286 36.8419 50.771Z" fill="#1A004D"/>
<path d="M33.2914 50.9658C33.8016 50.8976 34.1578 50.4128 34.0871 49.8829C34.0163 49.353 33.5453 48.9787 33.0351 49.0468C32.5249 49.1149 32.1687 49.5997 32.2395 50.1297C32.3102 50.6596 32.7812 51.0339 33.2914 50.9658Z" fill="#1A004D"/>
<path d="M35.2151 47.7997C35.722 47.732 36.0758 47.2493 36.0053 46.7216C35.9348 46.1939 35.4668 45.8209 34.9598 45.8886C34.4529 45.9563 34.0991 46.439 34.1696 46.9667C34.2401 47.4945 34.7082 47.8674 35.2151 47.7997Z" fill="#1A004D"/>
<path d="M36.7344 51.148C36.7344 51.148 37.6684 50.392 37.7384 51.404C37.8084 52.416 36.8984 52.952 36.8984 52.952L36.7344 51.148Z" fill="#EFC0C1"/>
<path d="M37.0117 51.4478C37.0117 51.4478 37.7717 51.1298 37.0917 52.2958L37.0117 51.4478Z" fill="#EDAA98"/>
<path d="M32.8433 53.0552C32.9267 53.026 32.9534 52.8857 32.903 52.7418C32.8526 52.598 32.7442 52.505 32.6608 52.5343C32.5774 52.5635 32.5506 52.7038 32.601 52.8476C32.6514 52.9915 32.7599 53.0844 32.8433 53.0552Z" fill="#1A004D"/>
<path d="M34.6948 52.6409C34.7782 52.6117 34.805 52.4714 34.7546 52.3275C34.7042 52.1837 34.5957 52.0907 34.5123 52.12C34.4289 52.1492 34.4022 52.2895 34.4526 52.4333C34.503 52.5772 34.6114 52.6701 34.6948 52.6409Z" fill="#1A004D"/>
<path d="M32.9541 52.016C32.9541 52.016 32.4501 51.73 32.0801 51.986L32.9541 52.016ZM35.0701 51.384C35.0321 51.384 34.4301 51.354 34.1241 51.776L35.0701 51.384Z" fill="#1A004D"/>
<path d="M33.6978 52.9058C33.6978 52.9058 33.8618 53.3358 33.6818 53.4898C33.5018 53.6418 33.4758 54.1058 33.9918 53.8718" stroke="#EDAA98" stroke-width="0.0520001" stroke-miterlimit="10" stroke-linecap="round" stroke-linejoin="round"/>
<path d="M33.4941 54.79C33.4941 54.79 33.5221 54.83 33.5801 54.878C33.6821 54.966 33.8781 55.084 34.1601 55.032C34.4381 54.982 34.6041 54.79 34.6881 54.66C34.7341 54.586 34.7561 54.532 34.7561 54.532" fill="white"/>
<path d="M30.8903 60.1499C31.0943 63.0739 31.6403 65.9059 31.8583 68.7839C32.2163 71.8599 32.4303 74.6259 32.4363 74.6539C32.4223 74.5659 33.6243 75.3739 36.4643 75.8359C39.1683 76.2779 43.6843 76.6879 44.8783 76.1319C44.9203 76.1139 44.4763 68.9619 44.4383 68.7879C43.3383 58.1559 43.4383 57.3999 42.0283 56.7019C41.3663 56.3099 40.8703 56.3359 40.1043 56.1959V56.1939C39.5763 56.0839 38.0683 55.9319 37.7703 55.9299C37.0503 56.9819 35.7043 58.7979 34.6343 59.0019C34.0983 58.9099 33.9983 56.9519 33.8783 56.6439C32.0223 57.0679 30.6323 58.1339 30.8903 60.1499Z" fill="#DB8C53"/>
<path d="M45.4139 65.906C45.4139 65.906 46.3179 70.97 45.7619 72.172C45.2739 73.226 45.2839 73.018 41.4439 72.954C39.7599 72.926 37.1819 72.95 37.1819 72.95L37.0879 70.81L41.4019 69.402L40.9879 66.922L45.4139 65.906Z" fill="#EFC0C1"/>
<path d="M37.488 70.8439C37.488 70.8439 36.694 70.5059 36.17 70.1939C35.646 69.8819 35.062 69.5819 34.668 69.6519C34.274 69.7219 31.85 70.5439 32.222 71.0819C32.222 71.0819 31.71 71.4559 31.988 71.7839C31.988 71.7839 31.86 71.9739 32.04 72.1999C32.22 72.4259 33.204 71.5899 33.672 71.5699C34.14 71.5479 34.84 71.5959 34.84 71.5959C34.84 71.5959 33.85 71.9679 33.64 72.0339C33.43 72.0999 32.86 72.4599 32.922 72.6319C32.984 72.8039 33.822 72.3259 34.244 72.2579C34.666 72.1899 35.128 72.0659 35.356 72.2819C35.584 72.4979 35.922 72.9599 36.416 72.9659C36.91 72.9719 37.338 72.8899 37.338 72.8899L37.488 70.8439Z" fill="#EFC0C1"/>
<path d="M32.2223 71.0799C32.2223 71.0799 32.2523 71.0539 32.3063 71.0059C32.3623 70.9619 32.4403 70.8959 32.5423 70.8279C32.6443 70.7599 32.7623 70.6799 32.8963 70.6059C33.0303 70.5319 33.1803 70.4619 33.3343 70.4019C33.4903 70.3459 33.6503 70.3039 33.8023 70.2799C33.9543 70.2539 34.0983 70.2459 34.2223 70.2419C34.3463 70.2379 34.4483 70.2519 34.5183 70.2599C34.5883 70.2699 34.6283 70.2799 34.6283 70.2799C34.6283 70.2799 34.5883 70.2779 34.5163 70.2819C34.4463 70.2839 34.3443 70.2939 34.2243 70.3059C34.1043 70.3179 33.9663 70.3439 33.8203 70.3779C33.6743 70.4119 33.5203 70.4539 33.3723 70.5099C33.2223 70.5639 33.0763 70.6299 32.9403 70.6959C32.8043 70.7619 32.6783 70.8259 32.5743 70.8839C32.4683 70.9439 32.3783 70.9899 32.3183 71.0259C32.2563 71.0599 32.2223 71.0799 32.2223 71.0799ZM31.9883 71.7819C31.9883 71.7819 32.0223 71.7539 32.0843 71.7059C32.1463 71.6599 32.2343 71.5919 32.3443 71.5179C32.4543 71.4439 32.5843 71.3579 32.7283 71.2739C32.8723 71.1899 33.0303 71.1059 33.1963 71.0359C33.3643 70.9659 33.5443 70.9239 33.7103 70.9039C33.8783 70.8839 34.0343 70.8819 34.1683 70.8839C34.3023 70.8859 34.4123 70.8979 34.4903 70.9059C34.5683 70.9179 34.6103 70.9239 34.6103 70.9239C34.6103 70.9239 34.5663 70.9259 34.4883 70.9279C34.4103 70.9299 34.3003 70.9379 34.1703 70.9479C34.0383 70.9559 33.8863 70.9759 33.7263 71.0019C33.5643 71.0299 33.3983 71.0699 33.2403 71.1399C33.0803 71.2059 32.9243 71.2859 32.7763 71.3599C32.6303 71.4359 32.4923 71.5059 32.3783 71.5699C32.2683 71.6299 32.1643 71.6859 32.0963 71.7219C32.0263 71.7599 31.9883 71.7819 31.9883 71.7819Z" fill="#E7926A"/>
<path d="M41.4043 69.3999H42.9543" stroke="#313131" stroke-width="0.0466" stroke-miterlimit="10"/>
<path d="M41.8258 56.5779C41.8258 56.5779 43.9638 57.3599 44.4198 59.2699C44.8758 61.1799 45.7518 66.3119 45.7518 66.3119L40.9258 67.0639C40.9258 67.0639 39.9598 62.4119 39.7238 59.9779C39.4878 57.5439 41.8258 56.5779 41.8258 56.5779Z" fill="#DB8C53"/>
<path d="M41.0397 67.33C41.0397 67.33 39.9597 62.412 39.7217 59.978" stroke="#313131" stroke-width="0.0466" stroke-miterlimit="10"/>
<path d="M31.0117 61.124C31.1697 62.544 31.4517 64.182 31.6697 67.06" stroke="#313131" stroke-width="0.0466" stroke-miterlimit="10"/>
<path d="M39.7483 75.104C39.7483 75.104 28.0924 71.732 25.4924 71.636C22.8924 71.54 20.7724 72.92 22.4744 75.81C24.1764 78.7 32.9084 82.964 32.9084 82.964L35.3824 81.172L33.1664 78.796L39.7483 75.104Z" fill="#1A004D"/>
<path d="M37.3922 81.9282L34.6982 79.9282L32.9082 82.8622L35.6782 84.9922L37.1202 84.9522L37.3922 81.9282Z" fill="#EFC0C1"/>
<path d="M38.9724 82.5461C38.9724 82.5461 40.1644 83.1921 40.1684 83.3801C40.1824 83.9021 40.0244 84.1681 39.9564 84.7441C39.8924 85.2981 39.8264 85.7561 39.4044 86.5821C39.1224 87.1341 38.3224 88.8121 37.8024 88.5601C37.7584 88.5401 37.2964 88.4201 37.2864 88.3341C37.1844 87.3921 38.9724 82.5461 38.9724 82.5461Z" fill="#DB8C53"/>
<path d="M37.3744 88.394C38.0544 88.17 40.4604 84.084 39.4224 82.934C38.8444 82.29 37.2804 81.7 37.2804 81.7C37.2804 81.7 36.9504 82.882 36.0084 84.386C35.7064 84.868 35.4604 84.796 35.4584 84.848C35.4484 85.046 35.6464 85.624 35.6664 85.696C35.7104 85.862 36.6924 88.612 37.3744 88.394Z" fill="#1A004D"/>
<path d="M36.0363 86.19C36.0843 86.24 36.1623 86.242 36.2123 86.196L37.2223 85.242C37.2723 85.194 37.2743 85.116 37.2283 85.066C37.1803 85.016 37.1023 85.014 37.0523 85.06L36.0423 86.014C35.9903 86.06 35.9883 86.14 36.0363 86.19ZM36.2463 86.644C36.2943 86.694 36.3723 86.696 36.4223 86.65L37.4323 85.696C37.4823 85.648 37.4843 85.57 37.4383 85.52C37.3903 85.47 37.3123 85.468 37.2623 85.514L36.2523 86.468C36.2003 86.514 36.1983 86.594 36.2463 86.644ZM36.4863 87.144C36.5343 87.194 36.6123 87.196 36.6623 87.15L37.6723 86.196C37.7223 86.148 37.7243 86.07 37.6783 86.02C37.6303 85.97 37.5523 85.968 37.5023 86.014L36.4923 86.968C36.4403 87.014 36.4383 87.094 36.4863 87.144ZM35.8363 85.76C35.8843 85.81 35.9623 85.812 36.0123 85.766L37.0223 84.812C37.0723 84.764 37.0743 84.686 37.0283 84.636C36.9803 84.586 36.9023 84.584 36.8523 84.63L35.8423 85.584C35.7903 85.63 35.7883 85.71 35.8363 85.76Z" fill="white"/>
<path d="M33.1659 78.7981L27.1299 72.9541" stroke="black" stroke-width="0.0928" stroke-miterlimit="10" stroke-linecap="round" stroke-linejoin="round"/>
<path d="M25.4141 82.6603L28.2281 80.8323L29.8321 83.8723L26.9341 85.8243L25.4981 85.6963L25.4141 82.6603Z" fill="#EFC0C1"/>
<path d="M23.8001 83.1777C23.8001 83.1777 22.5701 83.7497 22.5541 83.9337C22.5081 84.4537 22.6481 84.7297 22.6801 85.3097C22.7101 85.8657 22.7461 86.3277 23.1161 87.1797C23.3621 87.7477 24.0581 89.4717 24.5921 89.2537C24.6361 89.2357 25.1061 89.1457 25.1221 89.0617C25.2821 88.1257 23.8001 83.1777 23.8001 83.1777Z" fill="#DB8C53"/>
<path d="M25.0306 89.1142C24.3666 88.8482 22.4486 84.8142 23.3266 83.5382C23.6466 83.0722 25.3366 82.5362 25.5406 82.4402C25.5406 82.4402 25.7966 83.6422 26.6426 85.2002C26.9146 85.7002 27.1626 85.6422 27.1626 85.6962C27.1606 85.8942 26.9266 86.4582 26.9026 86.5302C26.8486 86.6922 25.6966 89.3742 25.0306 89.1142Z" fill="#1A004D"/>
<path d="M26.5028 86.9982C26.4528 87.0462 26.3728 87.0422 26.3268 86.9922L25.3768 85.9762C25.3288 85.9262 25.3328 85.8462 25.3828 85.8002C25.4328 85.7522 25.5128 85.7562 25.5588 85.8062L26.5088 86.8222C26.5568 86.8722 26.5548 86.9522 26.5028 86.9982ZM26.2668 87.4402C26.2168 87.4882 26.1368 87.4842 26.0908 87.4342L25.1408 86.4182C25.0928 86.3682 25.0968 86.2882 25.1468 86.2422C25.1968 86.1942 25.2768 86.1982 25.3228 86.2482L26.2728 87.2642C26.3188 87.3122 26.3168 87.3922 26.2668 87.4402ZM25.9948 87.9242C25.9448 87.9722 25.8648 87.9682 25.8188 87.9182L24.8688 86.9022C24.8208 86.8522 24.8248 86.7722 24.8748 86.7262C24.9248 86.6782 25.0048 86.6822 25.0508 86.7322L26.0008 87.7482C26.0488 87.7962 26.0448 87.8762 25.9948 87.9242ZM26.7308 86.5822C26.6808 86.6302 26.6008 86.6262 26.5548 86.5762L25.6048 85.5602C25.5568 85.5102 25.5608 85.4302 25.6108 85.3842C25.6608 85.3362 25.7408 85.3402 25.7868 85.3902L26.7368 86.4062C26.7828 86.4562 26.7808 86.5342 26.7308 86.5822Z" fill="white"/>
<path d="M37.2822 81.6101C37.2822 81.6101 38.0542 82.3561 38.1102 82.4001C38.8202 82.9361 39.6642 83.2901 40.5482 83.4001C41.7642 83.5501 43.0062 83.2802 44.1142 82.7842C44.9322 82.4181 45.7462 81.9681 46.3662 81.3101C47.9442 79.6381 47.5562 76.6601 46.5142 74.8121C45.7102 73.3841 44.2302 72.3481 42.5622 72.9541C38.3802 74.4761 27.3682 80.8321 27.3682 80.8321L29.7682 84.9901C29.7702 84.9921 37.2782 81.6121 37.2822 81.6101Z" fill="#1A004D"/>
<path d="M38.4762 74.8003C33.6062 77.2303 27.3682 80.8323 27.3682 80.8323" stroke="black" stroke-width="0.0928" stroke-miterlimit="10" stroke-linecap="round" stroke-linejoin="round"/>
<path d="M37.2822 81.6099L43.2162 79.1819" stroke="black" stroke-width="0.0928" stroke-miterlimit="10" stroke-linecap="round" stroke-linejoin="round"/>
<path d="M22.4461 73.9099H34.0921L30.8941 64.616H19.248L22.4461 73.9099Z" fill="#383334"/>
<path d="M22.03 73.9099H33.6759L30.4799 64.616H18.834L22.03 73.9099Z" fill="#FC8019"/>
<path d="M26.0626 70.2199C26.4701 70.1289 26.6912 69.5658 26.5565 68.9621C26.4218 68.3584 25.9823 67.9427 25.5748 68.0336C25.1673 68.1245 24.9461 68.6877 25.0808 69.2914C25.2155 69.8951 25.6551 70.3108 26.0626 70.2199Z" fill="#231F20"/>
<path d="M22.0315 73.9111H38.9375V72.9691H22.0315V73.9111Z" fill="#FC8019"/>
<path d="M74.4918 43.8721H62.9678V50.6581H74.4918V43.8721Z" fill="#DB8C53"/>
<path d="M68.7298 48.3261L62.9678 43.8721H74.4918L68.7298 48.3261Z" fill="#DB8C53"/>
<path d="M68.7298 46.5242L62.9678 50.6582H74.4918L68.7298 46.5242Z" fill="#DB8C53"/>
<path d="M63.5157 50.452C63.4797 50.452 63.4437 50.434 63.4197 50.402C63.3817 50.35 63.3937 50.276 63.4457 50.238L67.5657 47.282C67.6177 47.244 67.6917 47.256 67.7297 47.308C67.7677 47.36 67.7557 47.434 67.7037 47.472L63.5837 50.428C63.5637 50.446 63.5397 50.452 63.5157 50.452ZM73.9417 50.452C73.9177 50.452 73.8937 50.444 73.8737 50.43L69.7537 47.474C69.7017 47.436 69.6897 47.362 69.7277 47.31C69.7657 47.258 69.8397 47.246 69.8917 47.284L74.0117 50.24C74.0637 50.278 74.0757 50.352 74.0377 50.404C74.0157 50.436 73.9797 50.452 73.9417 50.452Z" fill="#1A004D"/>
<path d="M68.7301 48.3421C68.7041 48.3421 68.6801 48.3341 68.6581 48.3181L63.4441 44.2901C63.3921 44.2501 63.3841 44.1761 63.4221 44.1261C63.4621 44.0741 63.5361 44.0661 63.5861 44.1041L68.7281 48.0781L73.8701 44.1041C73.9221 44.0641 73.9961 44.0741 74.0341 44.1261C74.0741 44.1781 74.0641 44.2521 74.0121 44.2901L68.7981 48.3181C68.7801 48.3341 68.7541 48.3421 68.7301 48.3421Z" fill="#1A004D"/>
<path d="M83.1097 62.5742H55.3118C53.8778 62.5742 52.7178 61.4122 52.7178 59.9802C52.7178 58.5462 53.8798 57.3862 55.3118 57.3862H83.1097C84.5437 57.3862 85.7037 58.5482 85.7037 59.9802C85.7037 61.4122 84.5417 62.5742 83.1097 62.5742Z" fill="#FC8019"/>
<path d="M67.3689 53.2415L66.8334 54.7512H66.3732L65.8377 53.2415H66.2291L66.6033 54.3813L66.9797 53.2415H67.3689ZM68.6539 54.1318C68.6539 54.1663 68.6517 54.2021 68.6474 54.2394H67.8151C67.8209 54.3139 67.8445 54.3713 67.8861 54.4114C67.9291 54.4501 67.9814 54.4695 68.0431 54.4695C68.1348 54.4695 68.1986 54.4308 68.2345 54.3534H68.6259C68.6058 54.4322 68.5693 54.5032 68.5162 54.5663C68.4646 54.6294 68.3994 54.6788 68.3205 54.7147C68.2417 54.7505 68.1535 54.7684 68.056 54.7684C67.9384 54.7684 67.8338 54.7433 67.742 54.6932C67.6502 54.643 67.5786 54.5713 67.5269 54.4781C67.4753 54.3849 67.4495 54.2759 67.4495 54.1512C67.4495 54.0265 67.4746 53.9175 67.5248 53.8243C67.5764 53.7311 67.6481 53.6594 67.7399 53.6093C67.8316 53.5591 67.937 53.534 68.056 53.534C68.1721 53.534 68.2754 53.5584 68.3657 53.6071C68.456 53.6558 68.5263 53.7254 68.5764 53.8157C68.628 53.906 68.6539 54.0114 68.6539 54.1318ZM68.2775 54.0351C68.2775 53.972 68.256 53.9218 68.213 53.8845C68.17 53.8473 68.1162 53.8286 68.0517 53.8286C67.99 53.8286 67.9377 53.8465 67.8947 53.8824C67.8531 53.9182 67.8273 53.9691 67.8173 54.0351H68.2775ZM69.2156 53.7512C69.2586 53.6852 69.3124 53.6336 69.3769 53.5963C69.4414 53.5576 69.5131 53.5383 69.592 53.5383V53.9275H69.4909C69.3991 53.9275 69.3303 53.9476 69.2844 53.9878C69.2386 54.0265 69.2156 54.0953 69.2156 54.1942V54.7512H68.8479V53.5512H69.2156V53.7512ZM69.9527 53.4265C69.8882 53.4265 69.8351 53.4078 69.7936 53.3705C69.7534 53.3318 69.7333 53.2845 69.7333 53.2286C69.7333 53.1712 69.7534 53.1239 69.7936 53.0867C69.8351 53.0479 69.8882 53.0286 69.9527 53.0286C70.0158 53.0286 70.0674 53.0479 70.1075 53.0867C70.1491 53.1239 70.1699 53.1712 70.1699 53.2286C70.1699 53.2845 70.1491 53.3318 70.1075 53.3705C70.0674 53.4078 70.0158 53.4265 69.9527 53.4265ZM70.1355 53.5512V54.7512H69.7677V53.5512H70.1355ZM71.0042 53.8566H70.8063V54.7512H70.4386V53.8566H70.3052V53.5512H70.4386V53.5168C70.4386 53.3691 70.4809 53.2573 70.5655 53.1813C70.65 53.1039 70.7741 53.0652 70.9375 53.0652C70.9647 53.0652 70.9848 53.0659 70.9977 53.0673V53.3791C70.9275 53.3748 70.878 53.3849 70.8493 53.4092C70.8207 53.4336 70.8063 53.4773 70.8063 53.5404V53.5512H71.0042V53.8566ZM72.4028 53.5512L71.6501 55.3211H71.2544L71.5297 54.7104L71.0415 53.5512H71.4523L71.7297 54.3017L72.005 53.5512H72.4028Z" fill="#1A004D"/>
<path d="M55.5898 61.084H83.1859" stroke="white" stroke-width="0.1" stroke-miterlimit="10"/>
</g>
</g>
<defs>
<clipPath id="clip0_77_5476">
<rect width="100" height="100" fill="white"/>
</clipPath>
<clipPath id="clip1_77_5476">
<rect width="100" height="100" fill="white"/>
</clipPath>
</defs>
</svg>
