<svg width="14" height="9" viewBox="0 0 14 9" fill="none" xmlns="http://www.w3.org/2000/svg">
<path d="M13.8136 0.86801C13.5651 0.619532 13.1622 0.619489 12.9137 0.868053L7.00015 6.7817L1.08634 0.86801C0.837858 0.619532 0.434912 0.619489 0.186391 0.868053C-0.0621303 1.11657 -0.0621303 1.51948 0.186391 1.768L6.5502 8.13163C6.60929 8.19072 6.67944 8.23759 6.75664 8.26957C6.83385 8.30154 6.91659 8.318 7.00016 8.31799C7.08372 8.31799 7.16647 8.30153 7.24367 8.26954C7.32087 8.23756 7.39101 8.19068 7.4501 8.13159L13.8136 1.76796C14.0621 1.51948 14.0621 1.11653 13.8136 0.86801Z" fill="#657479"/>
</svg>
