<svg width="8" height="14" viewBox="0 0 8 14" fill="none" xmlns="http://www.w3.org/2000/svg">
<path d="M7.63182 6.54985L1.26818 0.186386C1.01971 -0.0621356 0.61676 -0.0621356 0.368239 0.186428C0.11976 0.434949 0.11976 0.837852 0.368281 1.08637L6.28192 6.99989L0.368239 12.9137C0.11976 13.1622 0.11976 13.5651 0.368281 13.8136C0.492499 13.9379 0.655366 14 0.818233 14C0.981099 14 1.14397 13.9379 1.26823 13.8136L7.63182 7.4498C7.69093 7.39072 7.73782 7.32057 7.76981 7.24336C7.80181 7.16615 7.81827 7.0834 7.81827 6.99983C7.81827 6.91625 7.80181 6.8335 7.76981 6.75629C7.73782 6.67908 7.69093 6.60893 7.63182 6.54985Z" fill="black"/>
</svg>
