<svg width="16" height="12" viewBox="0 0 16 12" fill="none" xmlns="http://www.w3.org/2000/svg">
<path d="M14.0742 6.97656H2.43359C1.89414 6.97656 1.45703 6.53945 1.45703 6C1.45703 5.46055 1.89414 5.02344 2.43359 5.02344H14.0742C14.6137 5.02344 15.0508 5.46055 15.0508 6C15.0508 6.53945 14.6137 6.97656 14.0742 6.97656Z" fill="white"/>
<path d="M6.90588 11.5957C6.66838 11.5957 6.43009 11.5094 6.2422 11.3352L1.26173 6.71603C1.16234 6.62386 1.08323 6.51201 1.02943 6.38759C0.975632 6.26318 0.948323 6.12892 0.949241 5.99338C0.95016 5.85783 0.979287 5.72396 1.03477 5.60028C1.09025 5.47661 1.17087 5.36584 1.2715 5.27502L6.38869 0.655878C6.78908 0.29455 7.40666 0.326191 7.76798 0.726581C8.12931 1.12697 8.09767 1.74455 7.69728 2.10588L3.37228 6.00978L7.57033 9.90314C7.96564 10.2699 7.98908 10.8879 7.62228 11.2832C7.4297 11.4906 7.16838 11.5957 6.90588 11.5957Z" fill="white"/>
</svg>
