<svg width="21" height="20" viewBox="0 0 21 20" fill="none" xmlns="http://www.w3.org/2000/svg">
<path fill-rule="evenodd" clip-rule="evenodd" d="M8.71839 1.84116C8.71839 0.85731 9.51599 0.0595703 10.4999 0.0595703C11.4839 0.0595703 12.2814 0.857332 12.2814 1.84116V2.38923C12.6659 2.25229 13.0799 2.17773 13.5113 2.17773C15.5351 2.17773 17.1757 3.81833 17.1757 5.84208C17.1757 6.64011 16.9205 7.37856 16.4874 7.98033C16.5075 8.18022 16.5178 8.38289 16.5178 8.58778V12.7033L18.0456 14.3986C18.3615 14.7196 18.5574 15.1614 18.5574 15.6483C18.5574 16.6323 17.7598 17.4298 16.7759 17.4298H13.4912C13.242 18.8561 11.9976 19.9403 10.4999 19.9403C9.00226 19.9403 7.75784 18.8561 7.50864 17.4298H4.22471C4.22462 17.4298 4.22479 17.4298 4.22471 17.4298C3.76945 17.4299 3.31214 17.256 2.9642 16.9081C2.27196 16.2158 2.26845 15.0956 2.95374 14.399L4.48212 12.7032V8.58778C4.48212 5.88449 6.26462 3.59751 8.71839 2.83807V1.84116ZM9.36041 3.75401C9.36348 3.75332 9.36655 3.7526 9.3696 3.75186C9.73271 3.66732 10.1111 3.62262 10.4999 3.62262C10.5314 3.6226 10.5633 3.62288 10.5947 3.62346C10.1256 4.23928 9.84698 5.00815 9.84698 5.84208C9.84698 7.86584 11.4876 9.50643 13.5113 9.50643C14.2296 9.50643 14.8996 9.29977 15.4651 8.94265V12.9055C15.4651 13.0356 15.5133 13.1611 15.6005 13.2578L17.272 15.1126C17.2782 15.1195 17.2845 15.1261 17.291 15.1326C17.4237 15.2652 17.5048 15.4468 17.5048 15.6483C17.5048 16.0509 17.1785 16.3771 16.7759 16.3771H4.22445C4.03699 16.3772 3.851 16.3062 3.70846 16.1637C3.42384 15.879 3.42385 15.4175 3.70849 15.1328C3.71493 15.1264 3.7212 15.1198 3.72729 15.113L5.3994 13.2577C5.48653 13.1611 5.53475 13.0355 5.53475 12.9054V8.58778C5.53475 6.23773 7.16744 4.26899 9.36041 3.75401ZM15.5311 7.4979C15.5321 7.49677 15.533 7.49562 15.5339 7.49448C15.9021 7.04433 16.123 6.469 16.123 5.84208C16.123 4.39967 14.9537 3.23036 13.5113 3.23036C12.0689 3.23036 10.8996 4.39968 10.8996 5.84208C10.8996 7.28449 12.0689 8.4538 13.5113 8.4538C14.3252 8.4538 15.0522 8.0815 15.5311 7.4979ZM11.2288 2.61376V1.84116C11.2288 1.43858 10.9025 1.1122 10.4999 1.1122C10.0974 1.1122 9.77103 1.4386 9.77103 1.84116V2.61369C10.0099 2.58485 10.253 2.57001 10.4996 2.56999M11.2288 2.61376C10.9872 2.58448 10.7435 2.56985 10.4996 2.56999L11.2288 2.61376ZM8.58639 17.4298C8.817 18.2702 9.58636 18.8876 10.4999 18.8876C11.4135 18.8876 12.1828 18.2702 12.4134 17.4298H8.58639Z" fill="white"/>
</svg>
