<svg width="15" height="15" viewBox="0 0 15 15" fill="none" xmlns="http://www.w3.org/2000/svg">
<path d="M9.41406 8L13.707 3.70703C14.0977 3.31641 14.0977 2.68359 13.707 2.29297C13.3164 1.90234 12.6836 1.90234 12.293 2.29297L8 6.58594L3.70703 2.29297C3.31641 1.90234 2.68359 1.90234 2.29297 2.29297C1.90234 2.68359 1.90234 3.31641 2.29297 3.70703L6.58594 8L2.29297 12.293C1.90234 12.6836 1.90234 13.3164 2.29297 13.707C2.48828 13.9023 2.74414 14 3 14C3.25586 14 3.51172 13.9023 3.70703 13.707L8 9.41406L12.293 13.707C12.4883 13.9023 12.7441 14 13 14C13.2559 14 13.5117 13.9023 13.707 13.707C14.0977 13.3164 14.0977 12.6836 13.707 12.293L9.41406 8Z" fill='#FC8019' />
</svg>
