<svg width="10" height="10" viewBox="0 0 10 10" fill="none" xmlns="http://www.w3.org/2000/svg">
<path d="M0.979489 7.22882C0.903386 7.2288 0.828996 7.20622 0.765724 7.16393C0.702452 7.12164 0.653138 7.06155 0.624017 6.99124C0.594895 6.92092 0.587274 6.84356 0.602117 6.76892C0.616959 6.69427 0.653599 6.62571 0.707404 6.57189L6.72137 0.557918C6.75687 0.521162 6.79934 0.491843 6.84629 0.471674C6.89325 0.451505 6.94374 0.440888 6.99484 0.440444C7.04594 0.44 7.09662 0.449737 7.14392 0.469088C7.19121 0.488438 7.23418 0.517014 7.27031 0.553148C7.30645 0.589282 7.33502 0.632251 7.35437 0.679547C7.37372 0.726843 7.38346 0.777519 7.38302 0.828618C7.38257 0.879718 7.37196 0.930217 7.35179 0.97717C7.33162 1.02412 7.3023 1.06659 7.26554 1.10209L1.25157 7.11606C1.17653 7.1911 1.07801 7.22882 0.979489 7.22882Z" fill="#69A333"/>
<path d="M0.385152 9.99997C0.327727 10 0.27102 9.98721 0.219187 9.96249C0.167355 9.93777 0.121711 9.90177 0.0856023 9.85711C0.0494935 9.81246 0.023835 9.7603 0.0105077 9.70444C-0.00281957 9.64858 -0.00347774 9.59045 0.00858152 9.53431L0.603167 6.76285C0.613633 6.7133 0.633775 6.66631 0.662438 6.62456C0.691101 6.58281 0.727722 6.54713 0.770201 6.51956C0.81268 6.492 0.860182 6.47308 0.909984 6.46391C0.959787 6.45473 1.01091 6.45548 1.06042 6.4661C1.10994 6.47672 1.15687 6.49701 1.19853 6.52581C1.24018 6.5546 1.27575 6.59133 1.30318 6.6339C1.33062 6.67646 1.34938 6.72403 1.3584 6.77386C1.36741 6.82369 1.36651 6.87481 1.35573 6.92429L0.761145 9.69575C0.742707 9.78181 0.695329 9.85894 0.62691 9.9143C0.55849 9.96966 0.473163 9.9999 0.385152 9.99997ZM3.15623 9.40538C3.08012 9.40537 3.00573 9.38279 2.94246 9.3405C2.87919 9.29821 2.82988 9.23811 2.80075 9.1678C2.77163 9.09749 2.76401 9.02012 2.77885 8.94548C2.7937 8.87084 2.83034 8.80227 2.88414 8.74845L8.89811 2.73468C8.93361 2.69792 8.97608 2.6686 9.02303 2.64843C9.06998 2.62826 9.12048 2.61765 9.17158 2.6172C9.22268 2.61676 9.27336 2.6265 9.32065 2.64585C9.36795 2.6652 9.41092 2.69377 9.44705 2.72991C9.48319 2.76604 9.51176 2.80901 9.53111 2.8563C9.55046 2.9036 9.5602 2.95428 9.55976 3.00538C9.55931 3.05648 9.54869 3.10697 9.52853 3.15393C9.50836 3.20088 9.47904 3.24335 9.44228 3.27885L3.4285 9.29262C3.39279 9.32844 3.35035 9.35684 3.30362 9.37619C3.2569 9.39554 3.2068 9.40546 3.15623 9.40538Z" fill="#69A333"/>
<path d="M0.384378 10C0.289548 9.9996 0.198202 9.96421 0.127846 9.90063C0.05749 9.83704 0.0130736 9.74973 0.00310898 9.65542C-0.00685563 9.56112 0.0183325 9.46645 0.0738461 9.38957C0.12936 9.31268 0.211294 9.25899 0.303946 9.23878L3.07541 8.64419C3.17506 8.62314 3.279 8.64246 3.36445 8.6979C3.44989 8.75335 3.50986 8.84042 3.53123 8.94001C3.55259 9.0396 3.5336 9.1436 3.47842 9.22921C3.42324 9.31483 3.33637 9.37508 3.23685 9.39676L0.465388 9.99134C0.438777 9.99715 0.411615 10.0001 0.384378 10ZM8.08166 4.47998C8.03111 4.48007 7.98104 4.47016 7.93434 4.4508C7.88764 4.43145 7.84524 4.40304 7.80957 4.36722L5.6327 2.19034C5.59594 2.15484 5.56662 2.11238 5.54646 2.06543C5.52629 2.01847 5.51567 1.96797 5.51523 1.91687C5.51478 1.86577 5.52452 1.8151 5.54387 1.7678C5.56322 1.72051 5.5918 1.67754 5.62793 1.6414C5.66406 1.60527 5.70703 1.57669 5.75433 1.55734C5.80162 1.53799 5.8523 1.52826 5.9034 1.5287C5.9545 1.52914 6.005 1.53976 6.05195 1.55993C6.0989 1.5801 6.14137 1.60942 6.17687 1.64617L8.35374 3.82305C8.40755 3.87687 8.44419 3.94544 8.45903 4.02008C8.47387 4.09472 8.46625 4.17209 8.43713 4.2424C8.40801 4.31271 8.3587 4.37281 8.29542 4.41509C8.23215 4.45738 8.15776 4.47996 8.08166 4.47998ZM9.17019 3.39164C9.09403 3.3917 9.01957 3.36916 8.95623 3.32688C8.89288 3.28459 8.84351 3.22447 8.81436 3.15411C8.7852 3.08375 8.77758 3.00632 8.79246 2.93163C8.80733 2.85694 8.84403 2.78834 8.89791 2.73451C9.11208 2.52035 9.23004 2.23037 9.23004 1.91826C9.23004 1.60615 9.11208 1.31617 8.89791 1.102C8.68356 0.887645 8.39358 0.76969 8.08147 0.76969C7.76936 0.76969 7.47938 0.887645 7.26521 1.102C7.22947 1.13775 7.18703 1.1661 7.14033 1.18544C7.09363 1.20479 7.04358 1.21474 6.99303 1.21474C6.94248 1.21474 6.89243 1.20479 6.84573 1.18544C6.79903 1.1661 6.75659 1.13775 6.72085 1.102C6.6851 1.06626 6.65675 1.02383 6.63741 0.977125C6.61806 0.930424 6.60811 0.88037 6.60811 0.829822C6.60811 0.779273 6.61806 0.729219 6.63741 0.682518C6.65675 0.635817 6.6851 0.593383 6.72085 0.55764C7.08029 0.198003 7.56347 0 8.08147 0C8.59928 0 9.08264 0.198003 9.44209 0.55764C9.80172 0.917085 9.99973 1.40026 9.99973 1.91826C9.99973 2.43626 9.80172 2.91943 9.44209 3.27888C9.40644 3.31468 9.36407 3.34307 9.31741 3.36243C9.27074 3.38178 9.22071 3.39171 9.17019 3.39164Z" fill="#69A333"/>
</svg>
