<svg width="21" height="21" viewBox="0 0 21 21" fill="none" xmlns="http://www.w3.org/2000/svg">
<g clip-path="url(#clip0_323_1736)">
<path fill-rule="evenodd" clip-rule="evenodd" d="M2.2334 0.614844C2.2334 0.324894 2.46845 0.0898438 2.7584 0.0898438H9.99766C10.2876 0.0898438 10.5227 0.324894 10.5227 0.614844V2.55078H11.6793C11.9692 2.55078 12.2043 2.78583 12.2043 3.07578V12.7899C12.2845 12.7743 12.3672 12.7661 12.4519 12.7661L13.6562 12.7655V11.6891C13.6562 10.9254 14.2788 10.3027 15.0425 10.3027H16.5602C17.3238 10.3027 17.9465 10.9253 17.9465 11.6891V12.7636L19.1501 12.7631C19.8664 12.7627 20.4484 13.3461 20.4484 14.0611V15.3356C20.4484 15.3866 20.4456 15.4366 20.44 15.4855C20.4456 15.516 20.4484 15.5474 20.4484 15.5796V19.6916C20.4484 20.3619 19.9014 20.9097 19.2304 20.9094C19.2304 20.9094 19.2304 20.9094 19.2304 20.9094L12.3715 20.9063C12.22 20.9063 12.0748 20.8783 11.9408 20.8273C11.8593 20.8793 11.7626 20.9094 11.6588 20.9094H1.07676C0.786808 20.9094 0.551758 20.6743 0.551758 20.3844V3.07578C0.551758 2.78583 0.786808 2.55078 1.07676 2.55078H2.2334V0.614844ZM3.2834 2.55078H9.47266V1.13984H3.2834V2.55078ZM1.60176 3.60078V15.5117H11.1543V15.3645C11.1541 15.3559 11.154 15.3473 11.154 15.3387V14.0642C11.154 14.0556 11.1541 14.0471 11.1543 14.0387V3.60078H1.60176ZM11.1338 16.5617H9.08711V19.8594H11.1338V16.5617ZM12.2039 16.612V19.6885C12.2039 19.7792 12.2806 19.8563 12.3719 19.8563L19.2309 19.8594C19.3211 19.8594 19.3984 19.7825 19.3984 19.6916V16.609C19.393 16.6102 19.3876 16.6113 19.3822 16.6125L16.3262 17.2577V17.4632C16.3262 17.7532 16.0912 17.9882 15.8012 17.9882C15.5113 17.9882 15.2762 17.7532 15.2762 17.4632V17.2489L12.2222 16.6159C12.2161 16.6147 12.21 16.6133 12.2039 16.612ZM16.3246 16.1849C16.3035 15.9143 16.0772 15.7013 15.8012 15.7013C15.5279 15.7013 15.3034 15.9102 15.2785 16.177L12.4353 15.5878C12.2819 15.556 12.209 15.4517 12.2043 15.3493V14.0531C12.2102 13.9225 12.3198 13.8162 12.4524 13.8161L19.1506 13.8131C19.2859 13.813 19.3984 13.9252 19.3984 14.0611V15.3356C19.3984 15.4396 19.327 15.551 19.1653 15.5851C19.1653 15.5851 19.1653 15.5851 19.1653 15.5851L16.3246 16.1849ZM8.03711 19.8594V16.5617H4.71895V19.8594H8.03711ZM3.66895 19.8594V16.5617H1.60176V19.8594H3.66895ZM16.8965 12.7637V11.6891C16.8965 11.5053 16.744 11.3527 16.5602 11.3527H15.0425C14.8588 11.3527 14.7062 11.5052 14.7062 11.6891V12.7637H16.8965ZM2.99219 5.8648C2.99219 5.57485 3.22724 5.3398 3.51719 5.3398H3.72227C4.01222 5.3398 4.24727 5.57485 4.24727 5.8648C4.24727 6.15475 4.01222 6.3898 3.72227 6.3898H3.51719C3.22724 6.3898 2.99219 6.15475 2.99219 5.8648ZM5.75049 5.8648C5.75049 5.57485 5.98554 5.3398 6.27549 5.3398H6.48057C6.77052 5.3398 7.00557 5.57485 7.00557 5.8648C7.00557 6.15475 6.77052 6.3898 6.48057 6.3898H6.27549C5.98554 6.3898 5.75049 6.15475 5.75049 5.8648ZM8.48828 5.8648C8.48828 5.57485 8.72333 5.3398 9.01328 5.3398H9.21836C9.50831 5.3398 9.74336 5.57485 9.74336 5.8648C9.74336 6.15475 9.50831 6.3898 9.21836 6.3898H9.01328C8.72333 6.3898 8.48828 6.15475 8.48828 5.8648ZM2.99219 8.32578C2.99219 8.03583 3.22724 7.80078 3.51719 7.80078H3.72227C4.01222 7.80078 4.24727 8.03583 4.24727 8.32578C4.24727 8.61573 4.01222 8.85078 3.72227 8.85078H3.51719C3.22724 8.85078 2.99219 8.61573 2.99219 8.32578ZM5.75049 8.32578C5.75049 8.03583 5.98554 7.80078 6.27549 7.80078H6.48057C6.77052 7.80078 7.00557 8.03583 7.00557 8.32578C7.00557 8.61573 6.77052 8.85078 6.48057 8.85078H6.27549C5.98554 8.85078 5.75049 8.61573 5.75049 8.32578ZM8.48828 8.32578C8.48828 8.03583 8.72333 7.80078 9.01328 7.80078H9.21836C9.50831 7.80078 9.74336 8.03583 9.74336 8.32578C9.74336 8.61573 9.50831 8.85078 9.21836 8.85078H9.01328C8.72333 8.85078 8.48828 8.61573 8.48828 8.32578ZM2.99219 10.7867C2.99219 10.4968 3.22724 10.2617 3.51719 10.2617H3.72227C4.01222 10.2617 4.24727 10.4968 4.24727 10.7867C4.24727 11.0767 4.01222 11.3117 3.72227 11.3117H3.51719C3.22724 11.3117 2.99219 11.0767 2.99219 10.7867ZM5.75049 10.7867C5.75049 10.4968 5.98554 10.2617 6.27549 10.2617H6.48057C6.77052 10.2617 7.00557 10.4968 7.00557 10.7867C7.00557 11.0767 6.77052 11.3117 6.48057 11.3117H6.27549C5.98554 11.3117 5.75049 11.0767 5.75049 10.7867ZM8.48828 10.7867C8.48828 10.4968 8.72333 10.2617 9.01328 10.2617H9.21836C9.50831 10.2617 9.74336 10.4968 9.74336 10.7867C9.74336 11.0767 9.50831 11.3117 9.21836 11.3117H9.01328C8.72333 11.3117 8.48828 11.0767 8.48828 10.7867ZM2.99219 13.2477C2.99219 12.9577 3.22724 12.7227 3.51719 12.7227H3.72227C4.01222 12.7227 4.24727 12.9577 4.24727 13.2477C4.24727 13.5376 4.01222 13.7727 3.72227 13.7727H3.51719C3.22724 13.7727 2.99219 13.5376 2.99219 13.2477ZM5.75049 13.2477C5.75049 12.9577 5.98554 12.7227 6.27549 12.7227H6.48057C6.77052 12.7227 7.00557 12.9577 7.00557 13.2477C7.00557 13.5376 6.77052 13.7727 6.48057 13.7727H6.27549C5.98554 13.7727 5.75049 13.5376 5.75049 13.2477ZM8.48828 13.2477C8.48828 12.9577 8.72333 12.7227 9.01328 12.7227H9.21836C9.50831 12.7227 9.74336 12.9577 9.74336 13.2477C9.74336 13.5376 9.50831 13.7727 9.21836 13.7727H9.01328C8.72333 13.7727 8.48828 13.5376 8.48828 13.2477Z" fill="#FC8019"/>
</g>
<defs>
<clipPath id="clip0_323_1736">
<rect width="21" height="21" fill="white"/>
</clipPath>
</defs>
</svg>
