<svg width="20" height="20" viewBox="0 0 20 20" fill="none" xmlns="http://www.w3.org/2000/svg">
<g clip-path="url(#clip0_266_261)">
<path d="M7.32922 0H1.7073C0.765898 0 0 0.765898 0 1.7073V7.32922C0 8.27063 0.765898 9.03652 1.7073 9.03652H7.32922C8.27063 9.03652 9.03652 8.27063 9.03652 7.32922V1.7073C9.03652 0.765898 8.27063 0 7.32922 0ZM7.57312 7.32922C7.57305 7.39388 7.54733 7.45588 7.50161 7.50161C7.45588 7.54733 7.39388 7.57305 7.32922 7.57312H1.7073C1.64264 7.57305 1.58064 7.54733 1.53492 7.50161C1.48919 7.45588 1.46347 7.39388 1.4634 7.32922V1.7073C1.46347 1.64264 1.48919 1.58064 1.53492 1.53492C1.58064 1.48919 1.64264 1.46347 1.7073 1.4634H7.32922C7.39388 1.46347 7.45588 1.48919 7.50161 1.53492C7.54733 1.58064 7.57305 1.64264 7.57312 1.7073V7.32922ZM18.2927 0H12.6708C11.7294 0 10.9635 0.765898 10.9635 1.7073V7.32922C10.9635 8.27063 11.7294 9.03652 12.6708 9.03652H18.2927C19.2341 9.03652 20 8.27063 20 7.32922V1.7073C20 0.765898 19.2341 0 18.2927 0ZM7.32922 10.9635H1.7073C0.765898 10.9635 0 11.7294 0 12.6708V18.2927C0 19.2341 0.765898 20 1.7073 20H7.32922C8.27063 20 9.03652 19.2341 9.03652 18.2927V12.6708C9.03652 11.7294 8.27063 10.9635 7.32922 10.9635ZM18.2927 10.9635H12.6708C11.7294 10.9635 10.9635 11.7294 10.9635 12.6708V18.2927C10.9635 19.2341 11.7294 20 12.6708 20H18.2927C19.2341 20 20 19.2341 20 18.2927V12.6708C20 11.7294 19.2341 10.9635 18.2927 10.9635ZM18.5366 18.2927C18.5365 18.3574 18.5108 18.4194 18.4651 18.4651C18.4194 18.5108 18.3574 18.5365 18.2927 18.5366H12.6708C12.6061 18.5365 12.5441 18.5108 12.4984 18.4651C12.4527 18.4194 12.4269 18.3574 12.4269 18.2927V12.6708C12.4269 12.6061 12.4527 12.5441 12.4984 12.4984C12.5441 12.4527 12.6061 12.4269 12.6708 12.4269H18.2927C18.3574 12.4269 18.4194 12.4527 18.4651 12.4984C18.5108 12.5441 18.5365 12.6061 18.5366 12.6708V18.2927Z" fill="#FC8019"/>
</g>
<defs>
<clipPath id="clip0_266_261">
<rect width="20" height="20" fill="white"/>
</clipPath>
</defs>
</svg>
