<svg width="18" height="18" viewBox="0 0 18 18" fill="none" xmlns="http://www.w3.org/2000/svg">
<path d="M3.96517 6.84928C4.25282 6.84928 4.486 6.6161 4.486 6.32845C4.486 6.0408 4.25282 5.80762 3.96517 5.80762C3.67752 5.80762 3.44434 6.0408 3.44434 6.32845C3.44434 6.6161 3.67752 6.84928 3.96517 6.84928Z" fill="#FC8019"/>
<path fill-rule="evenodd" clip-rule="evenodd" d="M14.9028 3.96604C15.4093 3.96604 15.895 4.16724 16.2532 4.52538C16.6113 4.88352 16.8125 5.36927 16.8125 5.87576V13.5147C16.8125 14.0211 16.6113 14.5069 16.2532 14.865C15.895 15.2232 15.4093 15.4244 14.9028 15.4244H3.09722C2.59073 15.4244 2.10499 15.2232 1.74684 14.865C1.3887 14.5069 1.1875 14.0211 1.1875 13.5147V5.87576C1.1875 5.36927 1.3887 4.88352 1.74684 4.52538C2.10499 4.16724 2.59073 3.96604 3.09722 3.96604H5.24028C5.26309 3.96608 5.28569 3.96162 5.30678 3.95292C5.32787 3.94423 5.34704 3.93145 5.36319 3.91534L6.34514 2.9334C6.45784 2.82041 6.59173 2.73078 6.73914 2.66964C6.88655 2.60851 7.04458 2.57708 7.20417 2.57715H10.7958C11.1181 2.57715 11.4271 2.70493 11.6549 2.9334L12.6368 3.91534C12.653 3.93145 12.6721 3.94423 12.6932 3.95292C12.7143 3.96162 12.7369 3.96608 12.7597 3.96604H14.9028ZM14.9028 5.0077H12.7597C12.4375 5.0077 12.1285 4.87993 11.9007 4.65145L10.9188 3.66951C10.9026 3.6534 10.8834 3.64063 10.8623 3.63193C10.8412 3.62323 10.8186 3.61877 10.7958 3.61882H7.20417C7.18135 3.61877 7.15875 3.62323 7.13766 3.63193C7.11657 3.64063 7.0974 3.6534 7.08125 3.66951L6.09931 4.65145C5.98661 4.76445 5.85272 4.85408 5.7053 4.91521C5.55789 4.97634 5.39986 5.00778 5.24028 5.0077H3.09722C2.61806 5.0077 2.22917 5.39659 2.22917 5.87576V13.5147C2.22917 13.9938 2.61806 14.3827 3.09722 14.3827H14.9028C15.3819 14.3827 15.7708 13.9938 15.7708 13.5147V5.87576C15.7708 5.39659 15.3819 5.0077 14.9028 5.0077Z" fill="#FC8019"/>
<path fill-rule="evenodd" clip-rule="evenodd" d="M8.99995 5.35449C11.3951 5.35449 13.3402 7.29963 13.3402 9.69477C13.3402 12.0899 11.3951 14.035 8.99995 14.035C6.60481 14.035 4.65967 12.0899 4.65967 9.69477C4.65967 7.29963 6.60481 5.35449 8.99995 5.35449ZM8.99995 6.39616C7.17911 6.39616 5.70133 7.87394 5.70133 9.69477C5.70133 11.5156 7.17911 12.9934 8.99995 12.9934C10.8208 12.9934 12.2986 11.5156 12.2986 9.69477C12.2986 7.87394 10.8208 6.39616 8.99995 6.39616Z" fill="#FC8019"/>
<path fill-rule="evenodd" clip-rule="evenodd" d="M8.99984 7.78581C8.8617 7.78581 8.72923 7.73093 8.63155 7.63326C8.53388 7.53558 8.479 7.40311 8.479 7.26497C8.479 7.12684 8.53388 6.99436 8.63155 6.89669C8.72923 6.79901 8.8617 6.74414 8.99984 6.74414C9.78248 6.74451 10.533 7.05558 11.0864 7.60899C11.6398 8.1624 11.9509 8.91289 11.9512 9.69553C11.9512 9.83366 11.8964 9.96614 11.7987 10.0638C11.701 10.1615 11.5685 10.2164 11.4304 10.2164C11.2923 10.2164 11.1598 10.1615 11.0621 10.0638C10.9644 9.96614 10.9096 9.83366 10.9096 9.69553C10.9094 9.1891 10.7081 8.70346 10.35 8.34536C9.99191 7.98725 9.50627 7.78599 8.99984 7.78581Z" fill="#FC8019"/>
</svg>
