<svg width="21" height="21" viewBox="0 0 21 21" fill="none" xmlns="http://www.w3.org/2000/svg">
<path d="M14.0059 13.875C16.2405 10.3684 15.9596 10.8059 16.024 10.7145C16.8376 9.56694 17.2676 8.21633 17.2676 6.80859C17.2676 3.07535 14.2381 0 10.5 0C6.77406 0 3.73242 3.06928 3.73242 6.80859C3.73242 8.21543 4.17145 9.60139 5.0117 10.7644L6.99407 13.875C4.87458 14.2007 1.27148 15.1714 1.27148 17.3086C1.27148 18.0877 1.78 19.198 4.20254 20.0632C5.89411 20.6673 8.13057 21 10.5 21C14.9307 21 19.7285 19.7502 19.7285 17.3086C19.7285 15.171 16.1296 14.2014 14.0059 13.875ZM6.03951 10.0876C6.03275 10.077 6.02568 10.0667 6.0183 10.0565C5.31911 9.0946 4.96289 7.95461 4.96289 6.80859C4.96289 3.73168 7.44048 1.23047 10.5 1.23047C13.5532 1.23047 16.0371 3.73279 16.0371 6.80859C16.0371 7.95646 15.6876 9.05777 15.0262 9.99432C14.967 10.0725 15.2762 9.59212 10.5 17.0867L6.03951 10.0876ZM10.5 19.7695C5.6604 19.7695 2.50195 18.347 2.50195 17.3086C2.50195 16.6107 4.12486 15.4631 7.72111 15.0158L9.98115 18.5621C10.0367 18.6493 10.1134 18.7212 10.2041 18.7709C10.2948 18.8207 10.3965 18.8467 10.5 18.8467C10.6034 18.8467 10.7052 18.8207 10.7958 18.7709C10.8865 18.7212 10.9632 18.6493 11.0188 18.5621L13.2788 15.0158C16.8751 15.4631 18.498 16.6107 18.498 17.3086C18.498 18.3382 15.368 19.7695 10.5 19.7695Z" fill="#FC8019"/>
<path d="M10.5 3.73242C8.8038 3.73242 7.42383 5.11239 7.42383 6.80859C7.42383 8.5048 8.8038 9.88477 10.5 9.88477C12.1962 9.88477 13.5762 8.5048 13.5762 6.80859C13.5762 5.11239 12.1962 3.73242 10.5 3.73242ZM10.5 8.6543C9.48228 8.6543 8.6543 7.82631 8.6543 6.80859C8.6543 5.79087 9.48228 4.96289 10.5 4.96289C11.5177 4.96289 12.3457 5.79087 12.3457 6.80859C12.3457 7.82631 11.5177 8.6543 10.5 8.6543Z" fill="#FC8019"/>
</svg>
