<svg width="20" height="20" viewBox="0 0 20 20" fill="none" xmlns="http://www.w3.org/2000/svg">
<path d="M5.8984 8.8216C5.8984 8.82039 5.8982 8.81926 5.89816 8.81805C5.8927 7.85344 5.10648 7.07031 4.14062 7.07031C3.17137 7.07031 2.38281 7.85887 2.38281 8.82812C2.38281 9.79738 3.17137 10.5859 4.14062 10.5859C4.3433 10.5861 4.54445 10.551 4.73512 10.4823C4.72934 10.9015 4.71316 11.2731 4.67582 11.4112C4.62965 11.5145 4.55453 11.6022 4.45955 11.6637C4.36457 11.7253 4.25379 11.7579 4.14062 11.7578C4.02534 11.7579 3.91258 11.724 3.81649 11.6603C3.7204 11.5966 3.64525 11.506 3.60047 11.3998C3.47441 11.1017 3.13055 10.9623 2.83258 11.0884C2.53453 11.2144 2.39512 11.5582 2.52117 11.8562C2.79699 12.5084 3.43266 12.9297 4.14062 12.9297C4.84859 12.9297 5.48422 12.5084 5.76008 11.8563C5.95437 11.3969 5.91137 9.97949 5.8984 8.8216ZM4.14062 9.41406C3.81754 9.41406 3.55469 9.15121 3.55469 8.82812C3.55469 8.50504 3.81754 8.24219 4.14062 8.24219C4.46371 8.24219 4.72656 8.50504 4.72656 8.82812C4.72656 9.15121 4.46371 9.41406 4.14062 9.41406ZM10.5857 8.8216V8.81805C10.5802 7.85344 9.79398 7.07031 8.82812 7.07031C7.85887 7.07031 7.07031 7.85887 7.07031 8.82812C7.07031 9.79738 7.85887 10.5859 8.82812 10.5859C9.0308 10.5861 9.23195 10.551 9.42262 10.4823C9.41684 10.9015 9.40066 11.2731 9.36332 11.4112C9.31715 11.5145 9.24203 11.6022 9.14705 11.6637C9.05207 11.7253 8.94129 11.7579 8.82812 11.7578C8.71284 11.7579 8.60008 11.724 8.50399 11.6603C8.4079 11.5966 8.33275 11.506 8.28797 11.3998C8.16187 11.1017 7.81813 10.9623 7.52008 11.0884C7.22203 11.2144 7.08262 11.5582 7.20867 11.8562C7.48449 12.5084 8.12016 12.9297 8.82812 12.9297C9.53609 12.9297 10.1717 12.5084 10.4476 11.8563C10.5719 11.5624 10.5857 10.8764 10.5857 10.1172C10.5857 9.68961 10.5904 9.23875 10.5857 8.8216ZM8.82812 9.41406C8.50504 9.41406 8.24219 9.15121 8.24219 8.82812C8.24219 8.50504 8.50504 8.24219 8.82812 8.24219C9.15121 8.24219 9.41406 8.50504 9.41406 8.82812C9.41406 9.15121 9.15121 9.41406 8.82812 9.41406Z" fill="white"/>
<path d="M18.2422 4.72656H16.4453V3.55469H17.0147C17.3302 3.55469 17.6017 3.31223 17.6165 2.99707C17.6324 2.66059 17.3643 2.38281 17.0312 2.38281H14.7041C14.3886 2.38281 14.1171 2.62527 14.1022 2.94043C14.0864 3.27691 14.3545 3.55469 14.6875 3.55469H15.2734V4.72656H1.75781C0.786992 4.72656 0 5.51355 0 6.48438V13.5156C0 14.4864 0.786992 15.2734 1.75781 15.2734H15.2734V16.4453H14.7041C14.3886 16.4453 14.1171 16.6878 14.1022 17.0029C14.0864 17.3394 14.3545 17.6172 14.6875 17.6172H17.0147C17.3302 17.6172 17.6017 17.3747 17.6165 17.0596C17.6324 16.7231 17.3643 16.4453 17.0312 16.4453H16.4453V15.2734H18.2422C19.213 15.2734 20 14.4864 20 13.5156V6.48438C20 5.51355 19.213 4.72656 18.2422 4.72656ZM1.17188 13.5156V6.48438C1.17188 6.16078 1.43422 5.89844 1.75781 5.89844H15.2734V14.1016H1.75781C1.43422 14.1016 1.17188 13.8392 1.17188 13.5156ZM18.8281 13.5156C18.8281 13.8387 18.5653 14.1016 18.2422 14.1016H16.4453V5.89844H18.2422C18.5653 5.89844 18.8281 6.16129 18.8281 6.48438V13.5156Z" fill="white"/>
</svg>
