<svg width="12" height="13" viewBox="0 0 12 13" fill="none" xmlns="http://www.w3.org/2000/svg">
<g clip-path="url(#clip0_177_8293)">
<path d="M2.28509 12.0999H10.1002C10.9195 12.0999 11.5852 11.4341 11.5852 10.6149V3.21456C11.5852 2.3953 10.9195 1.72952 10.1002 1.72952H9.51117V1.31471C9.51117 1.08656 9.32448 0.899902 9.09633 0.899902C8.86818 0.899902 8.68152 1.08656 8.68152 1.31471V1.72952H3.70377V1.31471C3.70377 1.08656 3.51708 0.899902 3.28893 0.899902C3.06078 0.899902 2.87412 1.08656 2.87412 1.31471V1.72952H2.28509C1.46583 1.72952 0.800049 2.3953 0.800049 3.21456V10.6149C0.800049 11.4341 1.46583 12.0999 2.28509 12.0999ZM1.6297 3.21456C1.6297 2.85368 1.92421 2.55917 2.28509 2.55917H2.87412V2.97397C2.87412 3.20212 3.06078 3.38878 3.28893 3.38878C3.51708 3.38878 3.70373 3.20212 3.70373 2.97397V2.55917H8.68152V2.97397C8.68152 3.20212 8.86818 3.38878 9.09633 3.38878C9.32448 3.38878 9.51114 3.20212 9.51114 2.97397V2.55917H10.1002C10.461 2.55917 10.7556 2.85368 10.7556 3.21456V4.42583H1.6297V3.21456ZM1.6297 5.25545H10.7556V10.6149C10.7556 10.9757 10.4611 11.2703 10.1002 11.2703H2.28509C1.92421 11.2703 1.6297 10.9757 1.6297 10.6149V5.25545Z" fill="#556267"/>
<path d="M5.52016 9.97988C5.64389 10.1035 5.81163 10.1729 5.98652 10.1729C6.16129 10.1729 6.32896 10.1036 6.45265 9.97988L8.8068 7.62573C9.0644 7.36813 9.0644 6.95072 8.8068 6.69307C8.54933 6.43564 8.13174 6.43564 7.87426 6.69307L5.98652 8.5809L5.12574 7.72012C4.86813 7.46269 4.45072 7.46269 4.19307 7.72012C3.93564 7.97759 3.93564 8.39518 4.19307 8.65279L5.52016 9.97988Z" fill="#556267"/>
</g>
<defs>
<clipPath id="clip0_177_8293">
<rect width="12" height="12" fill="white" transform="translate(0 0.5)"/>
</clipPath>
</defs>
</svg>
