<svg width="21" height="21" viewBox="0 0 21 21" fill="none" xmlns="http://www.w3.org/2000/svg">
<path d="M18.6171 3.25775C17.6554 2.90222 16.9627 2.05291 16.8095 1.04122C16.7196 0.447645 16.197 0 15.5939 0H5.40629C4.80319 0 4.28061 0.447645 4.19071 1.04122C4.03751 2.05291 3.34488 2.90227 2.38319 3.25775C1.904 3.43485 1.58203 3.89812 1.58203 4.41057V9.42707C1.58203 14.5662 4.48799 19.1846 9.40228 20.8176C10.1315 21.0591 10.8667 21.0554 11.5353 20.8382C16.3986 19.253 19.4182 14.6946 19.4182 9.42703V4.41057C19.4182 3.89817 19.0963 3.43489 18.6171 3.25775ZM18.1877 9.42707C18.1877 14.2557 15.4268 18.2757 11.1545 19.6681C10.7429 19.8018 10.2767 19.811 9.78971 19.6497C5.55124 18.2412 2.8125 14.2286 2.8125 9.42707L2.80979 4.41189C4.19013 3.90165 5.18472 2.68287 5.40653 1.23047L15.5937 1.23088C15.8154 2.68222 16.8088 3.90005 18.1877 4.41086V9.42707Z" fill="#FC8019"/>
<path d="M13.4472 7.22563H13.2023V5.27246C13.2023 3.78237 11.9903 2.57031 10.5002 2.57031C9.0101 2.57031 7.79809 3.78232 7.79809 5.27246V7.22563H7.55322C6.76162 7.22563 6.11768 7.86957 6.11768 8.66117V14.3288C6.11768 15.1204 6.76162 15.7643 7.55322 15.7643H13.4472C14.2388 15.7643 14.8828 15.1204 14.8828 14.3288V8.66117C14.8827 7.86957 14.2388 7.22563 13.4472 7.22563ZM9.02851 5.27246C9.02851 4.46076 9.68887 3.80082 10.5002 3.80082C11.3114 3.80082 11.9718 4.46076 11.9718 5.27246V7.22563H9.02851V5.27246ZM13.6522 14.3288C13.6522 14.442 13.5604 14.5338 13.4472 14.5338H7.55318C7.43998 14.5338 7.3481 14.442 7.3481 14.3288V8.66117C7.3481 8.54797 7.43998 8.4561 7.55318 8.4561H13.4472C13.5604 8.4561 13.6522 8.54797 13.6522 8.66117V14.3288Z" fill="#FC8019"/>
<path d="M10.5 9.71387C9.82152 9.71387 9.26953 10.2659 9.26953 10.9443C9.26953 11.3988 9.51735 11.7962 9.88477 12.0093V12.6616C9.88477 13.0014 10.1602 13.2769 10.5 13.2769C10.8398 13.2769 11.1152 13.0014 11.1152 12.6616V12.0093C11.4827 11.7962 11.7305 11.3988 11.7305 10.9443C11.7305 10.2659 11.1785 9.71387 10.5 9.71387Z" fill="#FC8019"/>
</svg>
