<svg width="30" height="30" viewBox="0 0 30 30" fill="none" xmlns="http://www.w3.org/2000/svg">
<path d="M24.1113 16.4648H6.65039C5.84121 16.4648 5.18555 15.8092 5.18555 15C5.18555 14.1908 5.84121 13.5352 6.65039 13.5352H24.1113C24.9205 13.5352 25.5762 14.1908 25.5762 15C25.5762 15.8092 24.9205 16.4648 24.1113 16.4648Z" fill="#272D2F"/>
<path d="M13.3588 23.3936C13.0026 23.3936 12.6451 23.2641 12.3633 23.0028L4.8926 16.074C4.74352 15.9358 4.62485 15.768 4.54415 15.5814C4.46345 15.3948 4.42248 15.1934 4.42386 14.9901C4.42524 14.7867 4.46893 14.5859 4.55215 14.4004C4.63537 14.2149 4.7563 14.0488 4.90725 13.9125L12.583 6.98382C13.1836 6.44182 14.11 6.48929 14.652 7.08987C15.194 7.69046 15.1465 8.61682 14.5459 9.15882L8.05842 15.0147L14.3555 20.8547C14.9485 21.4049 14.9836 22.3319 14.4334 22.9248C14.1446 23.236 13.7526 23.3936 13.3588 23.3936Z" fill="#272D2F"/>
</svg>
