<svg width="21" height="21" viewBox="0 0 21 21" fill="none" xmlns="http://www.w3.org/2000/svg">
<path fill-rule="evenodd" clip-rule="evenodd" d="M8.62936 1.93316C8.62936 0.900127 9.46684 0.0625 10.5 0.0625C11.5332 0.0625 12.3706 0.90015 12.3706 1.93316V2.50865C12.7742 2.36486 13.2089 2.28656 13.662 2.28656C15.7869 2.28656 17.5095 4.0092 17.5095 6.13414C17.5095 6.97207 17.2416 7.74744 16.7869 8.3793C16.8079 8.58918 16.8187 8.80199 16.8187 9.01712V13.3384L18.4229 15.1185C18.7546 15.4555 18.9604 15.9194 18.9604 16.4307C18.9604 17.4639 18.1229 18.3012 17.0898 18.3012H13.6408C13.3791 19.7988 12.0725 20.9372 10.5 20.9372C8.92743 20.9372 7.62078 19.7988 7.35912 18.3012H3.91099C3.9109 18.3012 3.91108 18.3012 3.91099 18.3012C3.43297 18.3014 2.9528 18.1187 2.58746 17.7534C1.86061 17.0266 1.85692 15.8503 2.57647 15.1189L4.18127 13.3383V9.01712C4.18127 6.17866 6.05289 3.77734 8.62936 2.97992V1.93316ZM9.30348 3.94166C9.30671 3.94093 9.30993 3.94018 9.31313 3.9394C9.69439 3.85064 10.0917 3.80371 10.5 3.80371C10.5331 3.80369 10.5665 3.80398 10.5995 3.80458C10.1069 4.4512 9.81438 5.25851 9.81438 6.13414C9.81438 8.25908 11.537 9.98171 13.662 9.98171C14.4161 9.98171 15.1196 9.76471 15.7134 9.38973V13.5507C15.7134 13.6873 15.7641 13.8191 15.8555 13.9206L17.6107 15.8682C17.6171 15.8754 17.6238 15.8824 17.6306 15.8892C17.77 16.0284 17.8551 16.219 17.8551 16.4307C17.8551 16.8534 17.5125 17.1959 17.0898 17.1959H3.91072C3.71389 17.196 3.5186 17.1215 3.36893 16.9718C3.07008 16.6729 3.07009 16.1883 3.36896 15.8894C3.37572 15.8827 3.38231 15.8757 3.38871 15.8686L5.14442 13.9206C5.2359 13.8191 5.28654 13.6873 5.28654 13.5506V9.01712C5.28654 6.54957 7.00086 4.48239 9.30348 3.94166ZM15.7827 7.87275C15.7837 7.87155 15.7847 7.87036 15.7857 7.86916C16.1723 7.39649 16.4042 6.7924 16.4042 6.13414C16.4042 4.61961 15.1764 3.39183 13.662 3.39183C12.1474 3.39183 10.9196 4.61961 10.9196 6.13414C10.9196 7.64866 12.1474 8.87644 13.662 8.87644C14.5165 8.87644 15.2798 8.48553 15.7827 7.87275ZM11.2653 2.7444V1.93316C11.2653 1.51046 10.9226 1.16776 10.5 1.16776C10.0773 1.16776 9.73463 1.51048 9.73463 1.93316V2.74433C9.9854 2.71405 10.2407 2.69846 10.4996 2.69844M11.2653 2.7444C11.0116 2.71366 10.7558 2.69829 10.4996 2.69844L11.2653 2.7444ZM8.49076 18.3013C8.7329 19.1836 9.54073 19.832 10.5 19.832C11.4592 19.832 12.267 19.1836 12.5092 18.3013H8.49076Z" fill="#FC8019"/>
</svg>
