<svg width="30" height="30" viewBox="0 0 30 30" fill="none" xmlns="http://www.w3.org/2000/svg">
<path d="M26.8792 24.7393L25.5394 7.85754C25.4559 6.76992 24.5361 5.91791 23.4453 5.91791H20.7991V5.79896C20.7991 2.60139 18.1977 0 15.0001 0C11.8025 0 9.20114 2.60139 9.20114 5.79896V5.91791H6.55493C5.46409 5.91791 4.54422 6.76986 4.46102 7.85525L3.12086 24.7416C3.01715 26.0937 3.4862 27.4397 4.40764 28.4345C5.32909 29.4294 6.63532 30 7.99135 30H22.0088C23.3648 30 24.6711 29.4294 25.5926 28.4345C26.514 27.4397 26.983 26.0937 26.8792 24.7393ZM10.9584 5.79896C10.9584 3.57035 12.7715 1.75723 15.0001 1.75723C17.2287 1.75723 19.0418 3.57041 19.0418 5.79896V5.91791H10.9584V5.79896ZM24.3033 27.2405C23.7046 27.8868 22.8898 28.2428 22.0088 28.2428H7.99141C7.1104 28.2428 6.29559 27.8868 5.69688 27.2405C5.09823 26.5942 4.80561 25.7544 4.87288 24.8783L6.21292 7.99189C6.22651 7.81424 6.37674 7.67514 6.55493 7.67514H9.20114V9.8393C9.20114 10.3245 9.59454 10.7179 10.0798 10.7179C10.565 10.7179 10.9584 10.3245 10.9584 9.8393V7.67514H19.0418V9.8393C19.0418 10.3245 19.4352 10.7179 19.9205 10.7179C20.4057 10.7179 20.7991 10.3245 20.7991 9.8393V7.67514H23.4453C23.6235 7.67514 23.7737 7.8143 23.7875 7.99424L25.1273 24.876C25.1947 25.7544 24.902 26.5941 24.3033 27.2405Z" fill="#FC8019"/>
<path d="M18.9585 14.8994C18.6155 14.5563 18.0591 14.5563 17.7161 14.8994L13.7929 18.8226L12.2843 17.3141C11.9412 16.971 11.3849 16.971 11.0418 17.3141C10.6986 17.6572 10.6986 18.2135 11.0418 18.5566L13.1716 20.6864C13.3432 20.858 13.568 20.9438 13.7928 20.9438C14.0176 20.9438 14.2425 20.8581 14.414 20.6864L18.9584 16.142C19.3016 15.7988 19.3016 15.2426 18.9585 14.8994Z" fill="#FC8019"/>
</svg>
