<svg width="21" height="21" viewBox="0 0 21 21" fill="none" xmlns="http://www.w3.org/2000/svg">
<g clip-path="url(#clip0_415_1758)">
<path d="M20.3848 19.7695H15.4424C13.0564 19.7695 11.1152 17.8284 11.1152 15.4424C11.1152 13.0564 13.0564 11.1152 15.4424 11.1152C17.8284 11.1152 19.7695 13.0564 19.7695 15.4424C19.7695 16.0116 19.3065 16.4746 18.7373 16.4746C18.1682 16.4746 17.7051 16.0116 17.7051 15.4424C17.7051 14.1947 16.6901 13.1797 15.4424 13.1797C14.1947 13.1797 13.1797 14.1947 13.1797 15.4424C13.1797 16.69 14.1947 17.705 15.4424 17.705C16.0913 17.705 16.6769 17.4301 17.0899 16.991C17.5028 17.4301 18.0884 17.705 18.7373 17.705C19.985 17.705 21 16.69 21 15.4424C21 12.3779 18.5069 9.88477 15.4424 9.88477C14.9697 9.88451 14.4989 9.94465 14.0415 10.0637C14.6918 9.0471 15.0691 7.83985 15.0691 6.54609C15.0691 2.93655 12.1326 0 8.52309 0C4.91355 0 1.97699 2.93655 1.97699 6.54609C1.97699 9.09485 3.44125 11.3078 5.57263 12.3884C2.32276 13.5914 0 16.7218 0 20.3848C0 20.7245 0.275461 21 0.615234 21H20.3848C20.7245 21 21 20.7245 21 20.3848C21 20.045 20.7245 19.7695 20.3848 19.7695ZM15.4424 16.4746C14.8732 16.4746 14.4102 16.0116 14.4102 15.4424C14.4102 14.8732 14.8732 14.4101 15.4424 14.4101C16.0116 14.4101 16.4747 14.8732 16.4747 15.4424C16.4747 16.0116 16.0116 16.4746 15.4424 16.4746ZM3.20746 6.54609C3.20746 3.61504 5.59203 1.23047 8.52309 1.23047C11.4541 1.23047 13.8387 3.61504 13.8387 6.54609C13.8387 9.47715 11.4541 11.8617 8.52309 11.8617C5.59203 11.8617 3.20746 9.47711 3.20746 6.54609ZM1.25619 19.7695C1.56954 16.0351 4.70909 13.0921 8.52309 13.0921C9.13032 13.0921 9.72854 13.1665 10.3093 13.3128C10.036 13.969 9.88477 14.6883 9.88477 15.4424C9.88477 17.1892 10.695 18.75 11.9592 19.7695H1.25619Z" fill="#FC8019"/>
</g>
<defs>
<clipPath id="clip0_415_1758">
<rect width="21" height="21" fill="white"/>
</clipPath>
</defs>
</svg>
