<svg width="46" height="46" viewBox="0 0 46 46" fill="none" xmlns="http://www.w3.org/2000/svg">
<g clip-path="url(#clip0_325_265)">
<path fill-rule="evenodd" clip-rule="evenodd" d="M22.6701 38.6737V40.9661C22.6701 42.8045 21.7539 44.3916 20.1618 45.3107C19.3958 45.7529 18.5408 45.9996 17.6544 46.0001C16.7672 46.0005 15.9125 45.7534 15.146 45.3107L4.95268 39.4256C3.36038 38.5063 2.44434 36.9197 2.44434 35.081V5.0167C2.44434 2.25032 4.69474 0 7.46103 0H29.9104C32.6768 0 34.9274 2.25014 34.9274 5.0167V11.3542C34.9274 12.2633 34.1893 13.0015 33.2801 13.0015C32.3708 13.0015 31.6332 12.2634 31.6332 11.3542V5.0167C31.6332 4.06678 30.8603 3.29385 29.9104 3.29385H10.2389L20.1618 9.02382C21.7534 9.94292 22.6701 11.5296 22.6701 13.3675V35.3795H29.9104C30.8602 35.3795 31.6332 34.607 31.6332 33.657V28.1014C31.6332 27.1917 32.3703 26.4541 33.2801 26.4541C34.1896 26.4541 34.9274 27.1918 34.9274 28.1014V33.657C34.9274 36.4236 32.6768 38.6737 29.9104 38.6737H22.6701ZM37.9331 20.9837L36.119 22.7978C35.4758 23.441 35.476 24.4837 36.119 25.127C36.2719 25.28 36.4534 25.4014 36.6533 25.4841C36.8531 25.5668 37.0674 25.6092 37.2837 25.6089C37.5001 25.6093 37.7144 25.567 37.9143 25.4843C38.1143 25.4015 38.2959 25.2801 38.4488 25.127L43.0738 20.5011C43.7168 19.858 43.7169 18.8158 43.0738 18.1727L38.4488 13.5475C37.8055 12.9043 36.7627 12.9045 36.1191 13.5474C35.4761 14.19 35.4763 15.2332 36.1191 15.8759L37.9331 17.6895H25.7808C24.8708 17.6895 24.1339 18.427 24.1339 19.3369C24.1339 20.2468 24.8709 20.9838 25.7808 20.9838H37.9331V20.9837Z" fill="#FC8019"/>
</g>
<defs>
<clipPath id="clip0_325_265">
<rect width="46" height="46" fill="white"/>
</clipPath>
</defs>
</svg>
