<svg width="20" height="20" viewBox="0 0 20 20" fill="none" xmlns="http://www.w3.org/2000/svg">
<g clip-path="url(#clip0_266_633)">
<path d="M4.54547 0H0.909102C0.407031 0 0 0.407031 0 0.909102V4.54547C0 5.04754 0.407031 5.45457 0.909102 5.45457H4.54547C5.04754 5.45457 5.45457 5.04754 5.45457 4.54547V0.909102C5.45453 0.407031 5.0475 0 4.54547 0ZM4.54547 7.27273H0.909102C0.407031 7.27273 0 7.67977 0 8.18184V11.8182C0 12.3203 0.407031 12.7273 0.909102 12.7273H4.54547C5.04754 12.7273 5.45457 12.3203 5.45457 11.8182V8.18184C5.45453 7.67977 5.0475 7.27273 4.54547 7.27273ZM4.54547 14.5455H0.909102C0.407031 14.5455 0 14.9525 0 15.4545V19.0909C0 19.593 0.407031 20 0.909102 20H4.54547C5.04754 20 5.45457 19.593 5.45457 19.0909V15.4545C5.45453 14.9525 5.0475 14.5455 4.54547 14.5455ZM3.63637 18.1818H1.81816V16.3637H3.63633V18.1818H3.63637ZM19.0909 1.81816H8.18184C7.67977 1.81816 7.27273 2.2252 7.27273 2.72727C7.27273 3.22934 7.67977 3.63637 8.18184 3.63637H19.0909C19.593 3.63637 20 3.22934 20 2.72727C20 2.2252 19.593 1.81816 19.0909 1.81816ZM19.0909 16.3636H8.18184C7.67977 16.3636 7.27273 16.7707 7.27273 17.2727C7.27273 17.7748 7.67977 18.1818 8.18184 18.1818H19.0909C19.593 18.1818 20 17.7748 20 17.2727C20 16.7707 19.593 16.3636 19.0909 16.3636ZM19.0909 9.0909H8.18184C7.67977 9.0909 7.27273 9.49793 7.27273 10C7.27273 10.5021 7.67977 10.9091 8.18184 10.9091H19.0909C19.593 10.9091 20 10.5021 20 10C20 9.49793 19.593 9.0909 19.0909 9.0909Z" fill="#FC8019"/>
</g>
<defs>
<clipPath id="clip0_266_633">
<rect width="20" height="20" fill="white"/>
</clipPath>
</defs>
</svg>
