<svg width="16" height="16" viewBox="0 0 16 16" fill="none" xmlns="http://www.w3.org/2000/svg">
<g clip-path="url(#clip0_323_1734)">
<path fill-rule="evenodd" clip-rule="evenodd" d="M1.70166 0.468848C1.70166 0.247934 1.88075 0.0688477 2.10166 0.0688477H7.61729C7.8382 0.0688477 8.01729 0.247934 8.01729 0.468848V1.94385H8.89853C9.11945 1.94385 9.29853 2.12293 9.29853 2.34385V9.74507C9.35961 9.7332 9.42269 9.72697 9.48717 9.72694L10.4048 9.72653V8.90635C10.4048 8.32448 10.8791 7.8501 11.461 7.8501H12.6173C13.1991 7.8501 13.6735 8.32445 13.6735 8.90635V9.72504L14.5906 9.72463C15.1363 9.72437 15.5798 10.1688 15.5798 10.7136V11.6847C15.5798 11.7235 15.5776 11.7616 15.5734 11.7988C15.5776 11.8221 15.5798 11.8461 15.5798 11.8705V15.0035C15.5798 15.5142 15.163 15.9316 14.6518 15.9313C14.6518 15.9313 14.6518 15.9313 14.6518 15.9313L9.42592 15.929C9.31052 15.929 9.19987 15.9077 9.09774 15.8688C9.03568 15.9084 8.96198 15.9313 8.88291 15.9313H0.82041C0.599496 15.9313 0.42041 15.7523 0.42041 15.5313V2.34385C0.42041 2.12293 0.599496 1.94385 0.82041 1.94385H1.70166V0.468848ZM2.50166 1.94385H7.21729V0.868848H2.50166V1.94385ZM1.22041 2.74385V11.8188H8.49854V11.7067C8.49841 11.7002 8.49835 11.6936 8.49835 11.687V10.7159C8.49835 10.7095 8.49841 10.703 8.49854 10.6965V2.74385H1.22041ZM8.48291 12.6188H6.92354V15.1313H8.48291V12.6188ZM9.29822 12.6572V15.0012C9.29822 15.0702 9.35671 15.129 9.42627 15.129L14.6521 15.1313C14.7208 15.1314 14.7798 15.0728 14.7798 15.0035V12.6548C14.7757 12.6558 14.7715 12.6567 14.7674 12.6575L12.4391 13.1491V13.3057C12.4391 13.5266 12.26 13.7057 12.0391 13.7057C11.8182 13.7057 11.6391 13.5266 11.6391 13.3057V13.1424L9.3122 12.6601C9.30754 12.6592 9.30287 12.6582 9.29822 12.6572ZM12.4378 12.3317C12.4217 12.1256 12.2493 11.9633 12.0391 11.9633C11.8308 11.9633 11.6597 12.1224 11.6408 12.3257L9.47457 11.8768C9.35765 11.8526 9.30214 11.7731 9.29853 11.6951V10.7076C9.303 10.608 9.38654 10.527 9.48753 10.5269L14.591 10.5246C14.694 10.5246 14.7798 10.6101 14.7798 10.7136V11.6847C14.7798 11.7639 14.7253 11.8488 14.6021 11.8748C14.6021 11.8748 14.6021 11.8748 14.6021 11.8748L12.4378 12.3317ZM6.12354 15.1313V12.6188H3.59541V15.1313H6.12354ZM2.79541 15.1313V12.6188H1.22041V15.1313H2.79541ZM12.8735 9.7251V8.90635C12.8735 8.7663 12.7573 8.6501 12.6173 8.6501H11.461C11.321 8.6501 11.2048 8.76628 11.2048 8.90635V9.7251H12.8735ZM2.27979 4.46882C2.27979 4.2479 2.45887 4.06882 2.67979 4.06882H2.83604C3.05695 4.06882 3.23604 4.2479 3.23604 4.46882C3.23604 4.68973 3.05695 4.86882 2.83604 4.86882H2.67979C2.45887 4.86882 2.27979 4.68973 2.27979 4.46882ZM4.38135 4.46882C4.38135 4.2479 4.56043 4.06882 4.78135 4.06882H4.9376C5.15851 4.06882 5.3376 4.2479 5.3376 4.46882C5.3376 4.68973 5.15851 4.86882 4.9376 4.86882H4.78135C4.56043 4.86882 4.38135 4.68973 4.38135 4.46882ZM6.46729 4.46882C6.46729 4.2479 6.64637 4.06882 6.86729 4.06882H7.02354C7.24445 4.06882 7.42354 4.2479 7.42354 4.46882C7.42354 4.68973 7.24445 4.86882 7.02354 4.86882H6.86729C6.64637 4.86882 6.46729 4.68973 6.46729 4.46882ZM2.27979 6.34385C2.27979 6.12293 2.45887 5.94385 2.67979 5.94385H2.83604C3.05695 5.94385 3.23604 6.12293 3.23604 6.34385C3.23604 6.56476 3.05695 6.74385 2.83604 6.74385H2.67979C2.45887 6.74385 2.27979 6.56476 2.27979 6.34385ZM4.38135 6.34385C4.38135 6.12293 4.56043 5.94385 4.78135 5.94385H4.9376C5.15851 5.94385 5.3376 6.12293 5.3376 6.34385C5.3376 6.56476 5.15851 6.74385 4.9376 6.74385H4.78135C4.56043 6.74385 4.38135 6.56476 4.38135 6.34385ZM6.46729 6.34385C6.46729 6.12293 6.64637 5.94385 6.86729 5.94385H7.02354C7.24445 5.94385 7.42354 6.12293 7.42354 6.34385C7.42354 6.56476 7.24445 6.74385 7.02354 6.74385H6.86729C6.64637 6.74385 6.46729 6.56476 6.46729 6.34385ZM2.27979 8.21885C2.27979 7.99793 2.45887 7.81885 2.67979 7.81885H2.83604C3.05695 7.81885 3.23604 7.99793 3.23604 8.21885C3.23604 8.43976 3.05695 8.61885 2.83604 8.61885H2.67979C2.45887 8.61885 2.27979 8.43976 2.27979 8.21885ZM4.38135 8.21885C4.38135 7.99793 4.56043 7.81885 4.78135 7.81885H4.9376C5.15851 7.81885 5.3376 7.99793 5.3376 8.21885C5.3376 8.43976 5.15851 8.61885 4.9376 8.61885H4.78135C4.56043 8.61885 4.38135 8.43976 4.38135 8.21885ZM6.46729 8.21885C6.46729 7.99793 6.64637 7.81885 6.86729 7.81885H7.02354C7.24445 7.81885 7.42354 7.99793 7.42354 8.21885C7.42354 8.43976 7.24445 8.61885 7.02354 8.61885H6.86729C6.64637 8.61885 6.46729 8.43976 6.46729 8.21885ZM2.27979 10.0938C2.27979 9.87293 2.45887 9.69385 2.67979 9.69385H2.83604C3.05695 9.69385 3.23604 9.87293 3.23604 10.0938C3.23604 10.3148 3.05695 10.4938 2.83604 10.4938H2.67979C2.45887 10.4938 2.27979 10.3148 2.27979 10.0938ZM4.38135 10.0938C4.38135 9.87293 4.56043 9.69385 4.78135 9.69385H4.9376C5.15851 9.69385 5.3376 9.87293 5.3376 10.0938C5.3376 10.3148 5.15851 10.4938 4.9376 10.4938H4.78135C4.56043 10.4938 4.38135 10.3148 4.38135 10.0938ZM6.46729 10.0938C6.46729 9.87293 6.64637 9.69385 6.86729 9.69385H7.02354C7.24445 9.69385 7.42354 9.87293 7.42354 10.0938C7.42354 10.3148 7.24445 10.4938 7.02354 10.4938H6.86729C6.64637 10.4938 6.46729 10.3148 6.46729 10.0938Z" fill="#272D2F"/>
</g>
<defs>
<clipPath id="clip0_323_1734">
<rect width="16" height="16" fill="white"/>
</clipPath>
</defs>
</svg>
