<svg width="21" height="21" viewBox="0 0 21 21" fill="none" xmlns="http://www.w3.org/2000/svg">
<g clip-path="url(#clip0_415_1752)">
<path fill-rule="evenodd" clip-rule="evenodd" d="M10.5001 1.26484C5.39985 1.26484 1.26533 5.39936 1.26533 10.4996C1.26533 15.5998 5.39985 19.7343 10.5001 19.7343C15.6003 19.7343 19.7348 15.5998 19.7348 10.4996C19.7348 5.39936 15.6003 1.26484 10.5001 1.26484ZM-0.034668 10.4996C-0.034668 4.68139 4.68188 -0.0351562 10.5001 -0.0351562C16.3183 -0.0351562 21.0348 4.68139 21.0348 10.4996C21.0348 16.3178 16.3183 21.0343 10.5001 21.0343C4.68188 21.0343 -0.034668 16.3178 -0.034668 10.4996ZM10.5821 5.21377C10.1839 5.21377 9.86111 5.53657 9.86111 5.93476C9.86111 6.33289 10.1839 6.6557 10.5821 6.6557C10.9803 6.6557 11.3031 6.33291 11.3031 5.93476C11.3031 5.53656 10.9803 5.21377 10.5821 5.21377ZM8.56111 5.93476C8.56111 4.81857 9.46598 3.91377 10.5821 3.91377C11.6983 3.91377 12.6031 4.81859 12.6031 5.93476C12.6031 7.0509 11.6983 7.9557 10.5821 7.9557C9.46599 7.9557 8.56111 7.05091 8.56111 5.93476ZM7.89758 8.67392C8.07755 8.49396 8.32162 8.39287 8.57611 8.39287H11.6346C11.8891 8.39287 12.1332 8.49396 12.3132 8.67392C12.4931 8.85388 12.5942 9.09796 12.5942 9.35245V13.6649C12.8465 13.6665 13.0881 13.7674 13.2667 13.9459C13.4466 14.1259 13.5477 14.3699 13.5477 14.6244V16.1258C13.5477 16.3803 13.4466 16.6244 13.2666 16.8043C13.0867 16.9843 12.8426 17.0854 12.5881 17.0854H8.5762C8.57617 17.0854 8.57614 17.0854 8.57611 17.0854C8.45012 17.0854 8.32536 17.0606 8.20896 17.0124C8.09253 16.9642 7.98673 16.8935 7.89762 16.8044C7.8085 16.7153 7.73781 16.6095 7.68958 16.4931C7.64135 16.3766 7.61653 16.2519 7.61653 16.1258V14.6244C7.61653 14.3699 7.71763 14.1259 7.89758 13.9459C8.07683 13.7666 8.31968 13.6656 8.57309 13.6648V11.8134C8.31968 11.8127 8.07683 11.7116 7.89758 11.5324C7.71763 11.3524 7.61653 11.1084 7.61653 10.8539V9.35245C7.61653 9.09796 7.71763 8.85388 7.89758 8.67392ZM8.91653 9.69287V10.5135H9.17728C9.56117 10.5135 9.87309 10.8246 9.87309 11.2092V14.2691C9.87309 14.6537 9.56119 14.9648 9.17728 14.9648H8.91653V15.7854H12.2477V14.9648H11.99C11.6061 14.9648 11.2942 14.6537 11.2942 14.2691V9.69287H8.91653Z" fill="#FC8019"/>
</g>
<defs>
<clipPath id="clip0_415_1752">
<rect width="21" height="21" fill="white"/>
</clipPath>
</defs>
</svg>
