<svg width="30" height="30" viewBox="0 0 30 30" fill="none" xmlns="http://www.w3.org/2000/svg">
<g clip-path="url(#clip0_281_977)">
<path d="M28.2421 17.8464V6.15238C28.2421 6.14787 28.2415 6.14353 28.2414 6.13902C28.2393 5.97443 28.1906 5.81381 28.101 5.67578C28.0986 5.6722 28.0968 5.66845 28.0945 5.66488L28.0931 5.66277L28.091 5.65972L24.5788 0.391346C24.4986 0.270963 24.3898 0.172256 24.2623 0.103987C24.1347 0.0357182 23.9922 -1.08169e-06 23.8476 0H7.91013C7.76544 9.91815e-06 7.62299 0.0357335 7.49542 0.104001C7.36784 0.172269 7.2591 0.270969 7.17882 0.391346L3.66643 5.65996C3.66592 5.66069 3.66543 5.66143 3.66497 5.66218L3.66327 5.66476C3.66034 5.6691 3.65811 5.67373 3.65536 5.67806C3.56655 5.81556 3.51837 5.97535 3.51637 6.13902C3.51631 6.14347 3.51573 6.14781 3.51573 6.15232V17.6952H0.878903C0.393514 17.6952 0 18.0887 0 18.5741V29.1209C0 29.6063 0.393514 29.9998 0.878903 29.9998H4.39451C5.18383 29.9998 5.89275 29.6507 6.37638 29.0994C7.29987 29.3589 9.40701 29.9998 12.3669 29.9998H20.332C22.2582 29.9998 24.098 29.0798 25.2538 27.539L29.4733 21.9131L29.4734 21.913C30.5376 20.4941 29.9196 18.4414 28.2421 17.8464ZM19.3945 1.75781H23.3772L25.721 5.27342H19.3945V1.75781ZM14.121 1.75781H17.6367V5.27342H14.121V1.75781ZM14.121 7.03122H17.6367V11.5999L16.3663 10.753C16.222 10.6568 16.0523 10.6054 15.8788 10.6054C15.7053 10.6054 15.5357 10.6568 15.3913 10.753L14.121 11.5999V7.03122ZM8.38051 1.75781H12.3632V5.27342H6.03677L8.38051 1.75781ZM5.27342 27.3632C5.27342 27.8478 4.87914 28.2421 4.39451 28.2421H1.75781V19.453H4.39451C4.87914 19.453 5.27342 19.8473 5.27342 20.332V27.3632ZM5.27342 17.8464V7.03122H12.3632V13.2421C12.3632 13.9435 13.147 14.3619 13.7296 13.9734L15.8788 12.5407L18.0281 13.9734C18.6089 14.3608 19.3945 13.9463 19.3945 13.2421V7.03122H26.4843V17.8477C26.0875 17.9883 25.725 18.2222 25.4336 18.535L22.8504 21.3081C22.5165 20.2347 21.5138 19.453 20.332 19.453H16.1545C15.5864 19.4532 15.0377 19.2461 14.6112 18.8707C12.3159 16.8509 8.86602 16.8331 6.549 18.8148C6.23675 18.3726 5.79232 18.0305 5.27342 17.8464ZM28.0672 20.8582L28.067 20.8585L23.8476 26.4843C23.022 27.5849 21.7078 28.2421 20.332 28.2421H12.3669C10.306 28.2421 8.68649 27.9261 7.0171 27.4569C7.02062 27.3563 7.0195 27.8929 7.0195 20.7293L7.6437 20.1903C9.29873 18.7338 11.7949 18.7338 13.45 20.1903C14.1973 20.8482 15.1589 21.211 16.1545 21.2108H20.332C20.8166 21.2108 21.2109 21.6051 21.2109 22.0897C21.2109 22.5743 20.8166 22.9686 20.332 22.9686H14.0039C13.5185 22.9686 13.1249 23.3621 13.1249 23.8475C13.1249 24.3329 13.5185 24.7264 14.0039 24.7264H20.921C21.6502 24.7264 22.3534 24.4204 22.8504 23.8869L26.7198 19.7331C26.8881 19.5525 27.1166 19.453 27.3632 19.453C28.0872 19.453 28.4984 20.2834 28.0672 20.8582Z" fill="#FC8019"/>
<path d="M23.8477 15.9375H20.332C19.8466 15.9375 19.4531 16.331 19.4531 16.8164C19.4531 17.3018 19.8466 17.6953 20.332 17.6953H23.8477C24.333 17.6953 24.7266 17.3018 24.7266 16.8164C24.7266 16.331 24.333 15.9375 23.8477 15.9375Z" fill="#FC8019"/>
</g>
<defs>
<clipPath id="clip0_281_977">
<rect width="30" height="30" fill="white"/>
</clipPath>
</defs>
</svg>
