<svg width="21" height="21" viewBox="0 0 21 21" fill="none" xmlns="http://www.w3.org/2000/svg">
<g clip-path="url(#clip0_415_1737)">
<path d="M3.8064 7.83496H8.73795C9.07772 7.83496 9.35319 7.5595 9.35319 7.21973C9.35319 6.87995 9.07772 6.60449 8.73795 6.60449H3.8064C3.46662 6.60449 3.19116 6.87995 3.19116 7.21973C3.19116 7.5595 3.46662 7.83496 3.8064 7.83496ZM8.63168 13.9873H3.8064C3.46662 13.9873 3.19116 14.2628 3.19116 14.6025C3.19116 14.9423 3.46662 15.2178 3.8064 15.2178H8.63168C8.97145 15.2178 9.24691 14.9423 9.24691 14.6025C9.24691 14.2628 8.97145 13.9873 8.63168 13.9873ZM8.63168 16.4482H3.8064C3.46662 16.4482 3.19116 16.7237 3.19116 17.0635C3.19116 17.4033 3.46662 17.6787 3.8064 17.6787H8.63168C8.97145 17.6787 9.24691 17.4033 9.24691 17.0635C9.24691 16.7237 8.97145 16.4482 8.63168 16.4482Z" fill="#FC8019"/>
<path d="M20.5322 10.5C20.5322 8.12265 18.7568 6.15247 16.4623 5.84501V0.615234C16.4623 0.275461 16.1868 0 15.847 0H4.81658C4.73578 -2.14355e-07 4.65577 0.0159195 4.58112 0.0468498C4.50647 0.07778 4.43865 0.123115 4.38153 0.180264L0.647955 3.91433C0.532598 4.02969 0.467787 4.18615 0.467773 4.3493V20.3848C0.467773 20.7245 0.743234 21 1.08301 21H15.847C16.1868 21 16.4622 20.7245 16.4622 20.3848V15.155C18.7568 14.8475 20.5322 12.8773 20.5322 10.5ZM4.20134 2.1007V3.73361H2.56868L4.20134 2.1007ZM1.69824 19.7695V4.96404H4.81658C5.15635 4.96404 5.43181 4.68858 5.43181 4.3488V1.23047H15.2318V5.84173C13.4085 6.07663 11.9096 7.36116 11.3619 9.06777C11.3477 9.06679 11.3335 9.0656 11.3191 9.0656H3.80628C3.46651 9.0656 3.19105 9.34106 3.19105 9.68084C3.19105 10.0206 3.46651 10.2961 3.80628 10.2961H11.1431C11.14 10.364 11.1385 10.432 11.1384 10.5C11.1384 10.8525 11.1777 11.196 11.2516 11.5265H3.80628C3.46651 11.5265 3.19105 11.802 3.19105 12.1418C3.19105 12.4815 3.46651 12.757 3.80628 12.757H11.7173C12.4246 14.0424 13.7161 14.963 15.2318 15.1583V19.7695H1.69824ZM15.8353 13.9665C13.9239 13.9665 12.3688 12.4115 12.3688 10.5C12.3688 8.58855 13.9239 7.03352 15.8353 7.03352C17.7467 7.03352 19.3017 8.58855 19.3017 10.5C19.3017 12.4115 17.7467 13.9665 15.8353 13.9665Z" fill="#FC8019"/>
<path d="M16.8535 9.27783L15.471 10.6603L14.8176 10.0069C14.5774 9.76669 14.1878 9.76669 13.9475 10.0069C13.7073 10.2471 13.7073 10.6367 13.9475 10.877L15.036 11.9654C15.0931 12.0225 15.1609 12.0679 15.2355 12.0988C15.3102 12.1297 15.3902 12.1456 15.471 12.1456C15.5518 12.1456 15.6318 12.1297 15.7064 12.0988C15.7811 12.0679 15.8489 12.0225 15.906 11.9654L17.7235 10.1479C17.9637 9.90766 17.9637 9.5181 17.7235 9.27783C17.4833 9.0376 17.0937 9.0376 16.8535 9.27783Z" fill="#FC8019"/>
</g>
<defs>
<clipPath id="clip0_415_1737">
<rect width="21" height="21" fill="white"/>
</clipPath>
</defs>
</svg>
