<svg width="16" height="17" viewBox="0 0 16 17" fill="none" xmlns="http://www.w3.org/2000/svg">
<path d="M13.2218 5.1L12.2687 6.05312C13.1906 6.675 13.9812 7.50625 14.5718 8.5C13.2031 10.8156 10.7125 12.25 7.99995 12.25C7.40933 12.25 6.8312 12.1844 6.27495 12.0562L5.19683 13.1344C6.08433 13.425 7.03433 13.5813 7.99995 13.5813C11.3281 13.5813 14.3593 11.7531 15.9218 8.81875C16.025 8.625 16.025 8.39062 15.9218 8.19688C15.2593 6.9375 14.325 5.89062 13.2218 5.1ZM3.30933 12.25L2.04995 13.5094C1.79683 13.7687 1.79683 14.1906 2.04995 14.45C2.1812 14.5813 2.3562 14.6438 2.52495 14.6438C2.6937 14.6438 2.86245 14.5781 2.99058 14.45L13.95 3.49062C14.2093 3.23125 14.2093 2.80938 13.95 2.55C13.6968 2.29063 13.2687 2.29063 13.0093 2.55L11.4531 4.1125H11.4468C10.375 3.66562 9.20933 3.425 8.00308 3.425C4.67183 3.425 1.64058 5.25625 0.0780762 8.1875C-0.0250488 8.38125 -0.0250488 8.61562 0.0780762 8.80937C0.843701 10.2531 1.96558 11.425 3.30933 12.25ZM7.0062 8.55313C6.99995 8.53438 6.99995 8.52187 6.99995 8.5C6.99995 7.95625 7.44683 7.5 7.99995 7.5C8.0187 7.5 8.0312 7.5 8.05308 7.50625L7.0062 8.55313ZM7.99995 4.75C8.83745 4.75 9.64058 4.8875 10.4125 5.14062L9.10308 6.45625C8.77183 6.275 8.39683 6.17812 7.99995 6.17812C6.71558 6.17812 5.67808 7.22188 5.67808 8.5C5.67808 8.89687 5.77495 9.27187 5.9562 9.60312V9.60938L4.2812 11.2844H4.27495C3.10933 10.6344 2.12183 9.6875 1.42808 8.5C2.79683 6.18438 5.28745 4.75 7.99995 4.75Z" fill="#657479"/>
<path d="M7.99995 10.8219C9.28433 10.8219 10.3218 9.77812 10.3218 8.5C10.3218 8.34375 10.3031 8.1875 10.275 8.04688L7.5437 10.7844C7.68745 10.8094 7.8437 10.8219 7.99995 10.8219Z" fill="#657479"/>
</svg>
