<svg width="15" height="15" viewBox="0 0 15 15" fill="none" xmlns="http://www.w3.org/2000/svg">
<path d="M12.0332 10.3076C11.8749 10.3076 11.7166 10.2492 11.5916 10.1242C11.4753 10.0066 11.4102 9.84791 11.4102 9.68255C11.4102 9.51719 11.4753 9.3585 11.5916 9.24089L13.2832 7.54922L11.5916 5.85755C11.3499 5.61589 11.3499 5.21589 11.5916 4.97422C11.8332 4.73255 12.2332 4.73255 12.4749 4.97422L14.6082 7.10755C14.8499 7.34922 14.8499 7.74922 14.6082 7.99089L12.4749 10.1242C12.3499 10.2492 12.1916 10.3076 12.0332 10.3076Z" fill="white"/>
<path d="M14.1083 8.1748H5.6333C5.29163 8.1748 5.0083 7.89147 5.0083 7.5498C5.0083 7.20814 5.29163 6.9248 5.6333 6.9248H14.1083C14.45 6.9248 14.7333 7.20814 14.7333 7.5498C14.7333 7.89147 14.45 8.1748 14.1083 8.1748Z" fill="white"/>
<path d="M7.29997 14.7913C3.0083 14.7913 0.00830078 11.7913 0.00830078 7.49967C0.00830078 3.20801 3.0083 0.208008 7.29997 0.208008C7.64163 0.208008 7.92497 0.491341 7.92497 0.833008C7.92497 1.17467 7.64163 1.45801 7.29997 1.45801C3.74163 1.45801 1.2583 3.94134 1.2583 7.49967C1.2583 11.058 3.74163 13.5413 7.29997 13.5413C7.64163 13.5413 7.92497 13.8247 7.92497 14.1663C7.92497 14.508 7.64163 14.7913 7.29997 14.7913Z" fill="white"/>
</svg>
