<svg width="22" height="22" viewBox="0 0 22 22" fill="none" xmlns="http://www.w3.org/2000/svg">
<g clip-path="url(#clip0_136_1258)">
<path d="M20.7109 13.0874V4.51174C20.7109 4.50844 20.7104 4.50526 20.7104 4.50195C20.7089 4.38125 20.6731 4.26346 20.6074 4.16224C20.6057 4.15962 20.6043 4.15687 20.6026 4.15425L20.6016 4.1527L20.6001 4.15046L18.0245 0.286987C17.9656 0.198706 17.8859 0.126321 17.7923 0.0762573C17.6988 0.0261933 17.5943 -7.93241e-07 17.4882 0H5.80076C5.69465 7.27331e-06 5.59019 0.0262046 5.49664 0.0762675C5.40309 0.12633 5.32334 0.198711 5.26447 0.286987L2.68872 4.15064C2.68834 4.15117 2.68798 4.15171 2.68764 4.15227L2.6864 4.15416C2.68425 4.15734 2.68261 4.16073 2.68059 4.16391C2.61547 4.26475 2.58014 4.38192 2.57867 4.50195C2.57863 4.50521 2.5782 4.50839 2.5782 4.5117V12.9765H0.644529C0.288577 12.9765 0 13.265 0 13.621V21.3553C0 21.7113 0.288577 21.9999 0.644529 21.9999H3.22264C3.80147 21.9999 4.32135 21.7439 4.67601 21.3395C5.35324 21.5299 6.89848 21.9999 9.06908 21.9999H14.9101C16.3226 21.9999 17.6719 21.3252 18.5195 20.1952L21.6138 16.0696L21.6138 16.0695C22.3942 15.029 21.941 13.5237 20.7109 13.0874ZM14.2226 1.28906H17.1433L18.862 3.86717H14.2226V1.28906ZM10.3554 1.28906H12.9335V3.86717H10.3554V1.28906ZM10.3554 5.15623H12.9335V8.50658L12.002 7.88555C11.8961 7.81497 11.7717 7.7773 11.6445 7.7773C11.5172 7.7773 11.3928 7.81497 11.2869 7.88555L10.3554 8.50658V5.15623ZM6.14571 1.28906H9.06637V3.86717H4.42697L6.14571 1.28906ZM3.86717 20.0663C3.86717 20.4217 3.57804 20.7109 3.22264 20.7109H1.28906V14.2656H3.22264C3.57804 14.2656 3.86717 14.5547 3.86717 14.9101V20.0663ZM3.86717 13.0874V5.15623H9.06637V9.7109C9.06637 10.2252 9.64116 10.532 10.0684 10.2472L11.6445 9.19648L13.2206 10.2472C13.6466 10.5313 14.2226 10.2273 14.2226 9.7109V5.15623H19.4218V13.0883C19.1309 13.1914 18.865 13.3629 18.6513 13.5923L16.7569 15.626C16.5121 14.8388 15.7768 14.2656 14.9101 14.2656H11.8467C11.43 14.2657 11.0276 14.1138 10.7149 13.8385C9.0317 12.3573 6.50175 12.3443 4.8026 13.7975C4.57362 13.4733 4.2477 13.2223 3.86717 13.0874ZM20.5826 15.296L20.5825 15.2963L17.4882 19.4218C16.8828 20.229 15.919 20.7109 14.9101 20.7109H9.06908C7.5577 20.7109 6.37009 20.4792 5.14587 20.135C5.14845 20.0613 5.14764 20.4548 5.14764 15.2015L5.60538 14.8062C6.81907 13.7381 8.64958 13.7381 9.86331 14.8062C10.4113 15.2887 11.1165 15.5547 11.8467 15.5546H14.9101C15.2655 15.5546 15.5546 15.8437 15.5546 16.1991C15.5546 16.5545 15.2655 16.8436 14.9101 16.8436H10.2695C9.91354 16.8436 9.62496 17.1322 9.62496 17.4882C9.62496 17.8441 9.91354 18.1327 10.2695 18.1327H15.3421C15.8768 18.1327 16.3925 17.9083 16.757 17.5171L19.5945 14.471C19.7179 14.3385 19.8855 14.2656 20.0663 14.2656C20.5973 14.2656 20.8988 14.8745 20.5826 15.296Z"/>
<path d="M17.4883 11.6875H14.9102C14.5542 11.6875 14.2656 11.9761 14.2656 12.332C14.2656 12.688 14.5542 12.9766 14.9102 12.9766H17.4883C17.8442 12.9766 18.1328 12.688 18.1328 12.332C18.1328 11.9761 17.8442 11.6875 17.4883 11.6875Z"/>
</g>
<defs>
<clipPath id="clip0_136_1258">
<rect width="22" height="22" fill="white"/>
</clipPath>
</defs>
</svg>
