<svg width="22" height="22" viewBox="0 0 22 22" fill="none" xmlns="http://www.w3.org/2000/svg">
<path d="M19.7115 18.1422L18.729 5.7622C18.6678 4.96461 17.9932 4.3398 17.1933 4.3398H15.2527V4.25257C15.2527 1.90768 13.345 0 11.0002 0C8.65527 0 6.74758 1.90768 6.74758 4.25257V4.3398H4.80703C4.00708 4.3398 3.33251 4.96457 3.2715 5.76052L2.28872 18.1439C2.21266 19.1354 2.55663 20.1225 3.23235 20.852C3.90808 21.5815 4.86598 22 5.86041 22H16.1399C17.1342 22 18.0922 21.5816 18.768 20.852C19.4437 20.1224 19.7876 19.1354 19.7115 18.1422ZM8.03622 4.25257C8.03622 2.61826 9.36588 1.28863 11.0002 1.28863C12.6344 1.28863 13.9641 2.6183 13.9641 4.25257V4.3398H8.03622V4.25257ZM17.8225 19.9764C17.3835 20.4503 16.7859 20.7114 16.1399 20.7114H5.86045C5.21437 20.7114 4.61685 20.4503 4.17779 19.9764C3.73878 19.5024 3.5242 18.8866 3.57352 18.2441L4.55622 5.86072C4.56619 5.73044 4.67636 5.62843 4.80703 5.62843H6.74758V7.21548C6.74758 7.57131 7.03607 7.8598 7.3919 7.8598C7.74772 7.8598 8.03622 7.57131 8.03622 7.21548V5.62843H13.9641V7.21548C13.9641 7.57131 14.2526 7.8598 14.6084 7.8598C14.9642 7.8598 15.2527 7.57131 15.2527 7.21548V5.62843H17.1933C17.324 5.62843 17.4341 5.73048 17.4443 5.86244L18.4267 18.2424C18.4762 18.8866 18.2615 19.5024 17.8225 19.9764Z"/>
<path d="M13.903 10.9265C13.6515 10.6749 13.2435 10.6749 12.9919 10.9265L10.1149 13.8035L9.00861 12.6973C8.75702 12.4456 8.34904 12.4456 8.09741 12.6973C7.84579 12.9489 7.84579 13.3568 8.09741 13.6084L9.65928 15.1703C9.78509 15.2961 9.95001 15.3591 10.1148 15.3591C10.2797 15.3591 10.4446 15.2962 10.5704 15.1703L13.903 11.8377C14.1546 11.5861 14.1546 11.1781 13.903 10.9265Z"/>
</svg>
