<svg width="22" height="22" viewBox="0 0 22 22" fill="none" xmlns="http://www.w3.org/2000/svg">
<path d="M11 17.1875C10.6242 17.1875 10.3125 16.8758 10.3125 16.5V13.75C10.3125 13.3742 10.6242 13.0625 11 13.0625C11.3758 13.0625 11.6875 13.3742 11.6875 13.75V16.5C11.6875 16.8758 11.3758 17.1875 11 17.1875Z"/>
<path d="M16.1335 20.6799H5.86687C4.19854 20.6799 2.67687 19.3966 2.40187 17.7558L1.18271 10.4499C0.981041 9.31325 1.54021 7.85575 2.44771 7.13159L8.80021 2.04408C10.0285 1.05408 11.9627 1.06325 13.2002 2.05325L19.5527 7.13159C20.451 7.85575 21.001 9.31325 20.8177 10.4499L19.5985 17.7466C19.3235 19.3691 17.7652 20.6799 16.1335 20.6799ZM10.991 2.68575C10.5052 2.68575 10.0194 2.83242 9.66187 3.11659L3.30937 8.21325C2.79604 8.62575 2.42937 9.57908 2.53937 10.2299L3.75854 17.5266C3.92354 18.4891 4.88604 19.3049 5.86687 19.3049H16.1335C17.1144 19.3049 18.0769 18.4891 18.2419 17.5174L19.461 10.2208C19.5619 9.57908 19.1952 8.60742 18.691 8.20408L12.3385 3.12575C11.9719 2.83242 11.4769 2.68575 10.991 2.68575Z"/>
</svg>
