<svg width="20" height="20" viewBox="0 0 20 20" fill="none" xmlns="http://www.w3.org/2000/svg">
<path fill-rule="evenodd" clip-rule="evenodd" d="M1.5 2.04898C1.5 1.74579 1.74579 1.5 2.04898 1.5C3.54707 1.5 4.85273 2.51954 5.21599 3.97268C5.21598 3.97265 5.21599 3.97271 5.21599 3.97268L5.65803 5.74053H17.951C18.1201 5.74053 18.2797 5.81841 18.3837 5.95166C18.4878 6.0849 18.5246 6.25865 18.4836 6.42265L17.2448 11.3782C16.9773 12.4485 16.0156 13.1993 14.9124 13.1993H8.268C8.24014 13.1993 8.21237 13.1988 8.1847 13.1979C8.17151 13.1988 8.1582 13.1993 8.14477 13.1993C7.71621 13.1993 7.36858 13.5469 7.36858 13.9755C7.36858 14.4041 7.71621 14.7517 8.14477 14.7517L8.66418 14.7517C8.66772 14.7517 8.67127 14.7517 8.67482 14.7517C8.67836 14.7517 8.6819 14.7517 8.68544 14.7517L14.5056 14.7517C15.5407 14.7517 16.3798 15.5908 16.3798 16.6258C16.3798 17.6609 15.5407 18.5 14.5056 18.5C13.4705 18.5 12.6314 17.6609 12.6314 16.6258C12.6314 16.349 12.6915 16.0862 12.7992 15.8496L10.3812 15.8497C10.489 16.0862 10.549 16.349 10.549 16.6258C10.549 17.6609 9.70989 18.5 8.67482 18.5C7.63975 18.5 6.80066 17.6609 6.80066 16.6258C6.80066 16.2279 6.9247 15.8589 7.13624 15.5554C6.61571 15.2224 6.27061 14.6392 6.27061 13.9755C6.27061 13.4763 6.46585 13.0227 6.78412 12.6868C6.37452 12.3655 6.06889 11.9115 5.93557 11.3783L4.69679 6.42265L4.15083 4.2391C3.90978 3.27471 3.04326 2.59797 2.04898 2.59797C1.74579 2.59797 1.5 2.35218 1.5 2.04898ZM8.66797 15.8497C8.24244 15.8533 7.89862 16.1994 7.89862 16.6258C7.89862 17.0545 8.24614 17.402 8.67482 17.402C9.1035 17.402 9.45102 17.0545 9.45102 16.6258C9.45102 16.1994 9.10719 15.8533 8.68166 15.8497H8.66797ZM14.5056 15.8496C14.0769 15.8496 13.7294 16.1972 13.7294 16.6258C13.7294 17.0545 14.0769 17.402 14.5056 17.402C14.9343 17.402 15.2818 17.0545 15.2818 16.6258C15.2818 16.1972 14.9343 15.8496 14.5056 15.8496ZM5.9325 6.8385L7.00076 11.112C7.14612 11.6934 7.6686 12.1013 8.268 12.1013H14.9124C15.5118 12.1013 16.0343 11.6934 16.1796 11.112C16.1796 11.112 16.1796 11.112 16.1796 11.112L17.2479 6.8385H5.9325Z" fill="white"/>
</svg>
