<svg width="22" height="22" viewBox="0 0 22 22" fill="none" xmlns="http://www.w3.org/2000/svg">
<path d="M11.0385 10.5975C12.4944 10.5975 13.7549 10.0753 14.7852 9.04503C15.8151 8.01499 16.3374 6.75463 16.3374 5.29859C16.3374 3.84299 15.8153 2.5825 14.785 1.55207C13.7548 0.522155 12.4942 0 11.0385 0C9.58246 0 8.32207 0.522155 7.29202 1.55224C6.26198 2.58233 5.73961 3.84286 5.73961 5.29859C5.73961 6.75463 6.26193 8.01516 7.29206 9.04525C8.32245 10.0752 9.58298 10.5975 11.0385 10.5975H11.0385ZM8.20377 2.46382C8.99414 1.67341 9.92136 1.28923 11.0385 1.28923C12.1556 1.28923 13.0829 1.67341 13.8734 2.46382C14.6639 3.25436 15.0482 4.18171 15.0482 5.29855C15.0482 6.41574 14.6639 7.34296 13.8734 8.1335C13.0829 8.92408 12.1556 9.30826 11.0385 9.30826C9.92166 9.30826 8.99452 8.9239 8.20377 8.1335C7.41319 7.34313 7.02884 6.41578 7.02884 5.29859C7.02884 4.18171 7.41319 3.25436 8.20377 2.46382ZM20.3102 16.9169C20.2805 16.4882 20.2204 16.0206 20.1319 15.5268C20.0426 15.0293 19.9277 14.559 19.79 14.1291C19.6477 13.6848 19.4545 13.2461 19.2153 12.8256C18.9674 12.3892 18.6761 12.0092 18.3491 11.6965C18.0072 11.3694 17.5886 11.1064 17.1045 10.9145C16.6221 10.7237 16.0875 10.6271 15.5157 10.6271C15.2911 10.6271 15.0739 10.7192 14.6544 10.9923C14.3563 11.1864 14.0572 11.3792 13.7573 11.5706C13.4691 11.7543 13.0787 11.9263 12.5965 12.0821C12.126 12.2343 11.6483 12.3116 11.1766 12.3116C10.7054 12.3116 10.2276 12.2343 9.75683 12.0821C9.27515 11.9265 8.88457 11.7545 8.59685 11.5708C8.26298 11.3575 7.96091 11.1628 7.69889 10.9921C7.27977 10.719 7.06257 10.6268 6.83801 10.6268C6.26597 10.6268 5.73157 10.7237 5.24933 10.9147C4.76559 11.1062 4.34682 11.3693 4.00457 11.6967C3.67763 12.0096 3.38625 12.3894 3.1385 12.8256C2.89968 13.2461 2.70632 13.6847 2.56396 14.1293C2.42646 14.5592 2.31152 15.0293 2.22223 15.5268C2.13359 16.0199 2.07369 16.4877 2.04396 16.9174C2.01474 17.3375 2 17.7748 2 18.2165C2 19.3649 2.36506 20.2946 3.08496 20.9803C3.79596 21.6569 4.73659 22 5.88076 22H16.4739C17.6177 22 18.5584 21.6569 19.2695 20.9803C19.9896 20.2951 20.3547 19.3651 20.3547 18.2164C20.3545 17.7731 20.3396 17.3358 20.3102 16.9169ZM18.3806 20.0462C17.9108 20.4933 17.2871 20.7107 16.4737 20.7107H5.8808C5.06727 20.7107 4.44354 20.4933 3.97389 20.0464C3.51318 19.6078 3.28927 19.0091 3.28927 18.2165C3.28927 17.8043 3.30285 17.3973 3.33009 17.0065C3.35656 16.6232 3.41079 16.202 3.49123 15.7545C3.57059 15.3126 3.67161 14.8979 3.79179 14.5224C3.90712 14.1623 4.06439 13.8059 4.25942 13.4625C4.44556 13.1351 4.65972 12.8543 4.89604 12.6281C5.11712 12.4164 5.39577 12.2432 5.72405 12.1133C6.02767 11.9931 6.36892 11.9273 6.73936 11.9174C6.78447 11.9415 6.86491 11.9873 6.99515 12.0722C7.26018 12.2449 7.56564 12.442 7.90338 12.6576C8.28408 12.9004 8.77448 13.1195 9.36045 13.3087C9.95947 13.5024 10.5704 13.6007 11.1769 13.6007C11.7833 13.6007 12.3944 13.5024 12.9931 13.3089C13.5796 13.1194 14.0699 12.9004 14.4511 12.6573C14.7967 12.4364 15.0936 12.2451 15.3586 12.0722C15.4889 11.9874 15.5692 11.9414 15.6144 11.9174C15.985 11.9273 16.3262 11.9931 16.63 12.1133C16.9582 12.2432 17.2368 12.4166 17.4578 12.6281C17.6942 12.8542 17.9083 13.135 18.0945 13.4626C18.2897 13.8059 18.4472 14.1626 18.5623 14.5222C18.6826 14.8982 18.7838 15.3128 18.8631 15.7544C18.9433 16.2027 18.9977 16.624 19.0242 17.0067V17.007C19.0516 17.3962 19.0653 17.8031 19.0655 18.2165C19.0653 19.0093 18.8414 19.6078 18.3807 20.0462H18.3806Z"/>
</svg>
