<svg width="25" height="25" viewBox="0 0 25 25" fill="none" xmlns="http://www.w3.org/2000/svg">
<circle cx="12.5" cy="12.5" r="12.5" transform="matrix(1 0 0 -1 0 25)" fill="#FC8019"/>
<path d="M8.15625 12.9292H16.8867C17.2913 12.9292 17.6191 12.6014 17.6191 12.1968C17.6191 11.7922 17.2913 11.4644 16.8867 11.4644H8.15625C7.75166 11.4644 7.42383 11.7922 7.42383 12.1968C7.42383 12.6014 7.75166 12.9292 8.15625 12.9292Z" fill="white"/>
<path d="M13.5325 16.3936C13.7106 16.3936 13.8894 16.3288 14.0303 16.1982L17.7656 12.7338C17.8402 12.6647 17.8995 12.5808 17.9399 12.4875C17.9802 12.3942 18.0007 12.2935 18 12.1918C17.9993 12.0901 17.9775 11.9897 17.9358 11.897C17.8942 11.8042 17.8338 11.7212 17.7583 11.653L13.9204 8.18869C13.6201 7.91769 13.1569 7.94142 12.8859 8.24171C12.6149 8.54201 12.6387 9.00519 12.939 9.27619L16.1827 12.2041L13.0342 15.1241C12.7377 15.3992 12.7201 15.8627 12.9952 16.1592C13.1396 16.3148 13.3356 16.3936 13.5325 16.3936Z" fill="white"/>
</svg>
