<svg width="222" height="222" viewBox="0 0 222 222" fill="none" xmlns="http://www.w3.org/2000/svg">
<path d="M199.825 63.1321L160.043 71.9429C158.418 72.303 156.808 71.2769 156.448 69.6514L148.159 32.2249C147.799 30.5994 148.825 28.9894 150.45 28.6298L190.232 19.8191C191.857 19.459 193.467 20.4851 193.827 22.1105L202.116 59.5371C202.477 61.1621 201.45 62.7721 199.825 63.1321Z" fill="#EBEBEB"/>
<path d="M184.231 50.7041C184.232 50.7108 184.128 50.741 183.928 50.7925C183.71 50.8462 183.417 50.9181 183.049 51.0087C182.262 51.193 181.154 51.4527 179.784 51.7733C176.993 52.4073 173.142 53.2829 168.808 54.2676L168.719 54.2881L168.686 54.2015C168.475 53.6389 168.251 53.0427 168.024 52.4393C166.101 47.2746 164.385 42.6655 163.264 39.6534L163.342 39.6956C162.101 39.9602 161.111 40.1711 160.409 40.3207C160.082 40.3864 159.823 40.4388 159.628 40.4779C159.45 40.5116 159.356 40.5258 159.355 40.5196C159.354 40.5134 159.444 40.4868 159.619 40.4415C159.812 40.3935 160.069 40.33 160.394 40.2501C161.091 40.0863 162.077 39.8545 163.312 39.5646L163.369 39.5513L163.39 39.6068C164.528 42.6126 166.27 47.212 168.222 52.3651C168.449 52.969 168.672 53.5652 168.883 54.1278L168.761 54.0616C173.101 53.103 176.957 52.2514 179.752 51.6343C181.127 51.3399 182.241 51.1019 183.031 50.9328C183.403 50.8573 183.698 50.7978 183.919 50.7529C184.123 50.7143 184.23 50.6974 184.231 50.7041Z" fill="#FAFAFA"/>
<path d="M167.621 51.0653C167.62 51.0622 167.646 51.0538 167.697 51.0391C167.758 51.0231 167.832 51.0036 167.923 50.9796C168.137 50.9272 168.43 50.8562 168.803 50.7652C169.588 50.5822 170.705 50.3212 172.102 49.9953C174.937 49.3506 178.902 48.4484 183.493 47.4045L183.413 47.5084C183.321 45.514 183.221 43.3575 183.118 41.1255C183.066 39.9773 183.015 38.8491 182.967 37.7737L183.095 37.8714C177.758 39.0529 173.047 40.0954 169.652 40.8471C167.972 41.2099 166.618 41.502 165.668 41.7071C165.211 41.8013 164.852 41.8759 164.592 41.9296C164.478 41.9509 164.386 41.9682 164.312 41.9824C164.249 41.9931 164.216 41.9971 164.216 41.994C164.215 41.9908 164.246 41.9802 164.308 41.9633C164.381 41.9442 164.472 41.9207 164.583 41.8918C164.841 41.8297 165.198 41.7435 165.651 41.6339C166.598 41.4141 167.947 41.1006 169.622 40.7117C173.012 39.9431 177.718 38.8757 183.049 37.6672L183.171 37.6396L183.177 37.7653C183.226 38.8407 183.278 39.9689 183.33 41.1171C183.43 43.349 183.527 45.5056 183.617 47.5L183.621 47.5857L183.537 47.6039C178.941 48.618 174.97 49.4944 172.131 50.1209C170.728 50.4224 169.606 50.6635 168.818 50.8327C168.443 50.9095 168.147 50.9699 167.931 51.0143C167.839 51.0316 167.763 51.0453 167.701 51.0569C167.649 51.0653 167.622 51.0684 167.621 51.0653Z" fill="#FAFAFA"/>
<path d="M173.586 57.4924C173.567 57.4972 173.535 57.3592 173.416 57.1447C173.299 56.9342 173.066 56.6421 172.67 56.4698C172.284 56.2936 171.716 56.2776 171.243 56.5884C170.771 56.8823 170.452 57.5265 170.6 58.1615C170.737 58.7986 171.3 59.2457 171.853 59.3101C172.413 59.3896 172.919 59.1325 173.193 58.8084C173.479 58.4829 173.564 58.1197 173.581 57.8791C173.597 57.634 173.567 57.4959 173.586 57.4924C173.595 57.4892 173.654 57.6224 173.664 57.8813C173.672 58.1348 173.607 58.5335 173.309 58.9052C173.024 59.2741 172.465 59.5827 171.828 59.5041C171.201 59.4437 170.549 58.9376 170.394 58.2076C170.224 57.4808 170.596 56.7455 171.138 56.4232C171.681 56.0809 172.317 56.1213 172.733 56.3331C173.161 56.5417 173.39 56.8743 173.491 57.1074C173.592 57.3458 173.595 57.491 173.586 57.4924Z" fill="#FAFAFA"/>
<path d="M183.527 55.2653C183.508 55.2702 183.476 55.1321 183.357 54.9177C183.24 54.7072 183.007 54.415 182.61 54.2423C182.225 54.0661 181.657 54.0501 181.184 54.3609C180.711 54.6552 180.393 55.299 180.541 55.934C180.678 56.5715 181.241 57.0182 181.793 57.0826C182.354 57.1621 182.86 56.905 183.134 56.5813C183.42 56.2559 183.505 55.8927 183.522 55.652C183.538 55.4069 183.507 55.2689 183.527 55.2653C183.536 55.2622 183.595 55.3949 183.605 55.6542C183.613 55.9078 183.548 56.3065 183.25 56.6781C182.965 57.0471 182.406 57.3557 181.769 57.2771C181.142 57.2167 180.49 56.7105 180.334 55.9806C180.164 55.2538 180.537 54.5185 181.079 54.1962C181.622 53.8538 182.258 53.8942 182.674 54.106C183.102 54.3147 183.331 54.6473 183.432 54.8804C183.533 55.1183 183.536 55.264 183.527 55.2653Z" fill="#FAFAFA"/>
<path d="M186.284 35.4094C186.83 37.8434 185.299 40.2592 182.864 40.8044C180.43 41.3497 178.014 39.8187 177.469 37.3843C176.924 34.9503 178.455 32.5345 180.889 31.9892C183.324 31.4436 185.739 32.9749 186.284 35.4094Z" fill="#FAFAFA"/>
<path d="M183.901 34.2149C183.926 34.23 183.767 34.5492 183.489 35.0536C183.211 35.558 182.815 36.2471 182.365 37.0019C182.197 37.2812 182.035 37.5507 181.882 37.8042L181.831 37.8886L181.746 37.8415C180.606 37.211 179.797 36.7288 179.82 36.6867C179.842 36.6445 180.69 37.0561 181.843 37.6626L181.707 37.6999C181.857 37.4446 182.017 37.1737 182.182 36.8927C182.632 36.1383 183.049 35.4612 183.359 34.9764C183.671 34.4924 183.876 34.1998 183.901 34.2149Z" fill="#E0E0E0"/>
<path d="M32.0946 86.3033C31.2754 83.4022 27.5054 83.6837 27.5054 83.6837L27.6088 85.7012C29.7884 85.3252 31.1431 87.8795 31.1431 87.8795L32.0946 86.3033Z" fill="#E0E0E0"/>
<path d="M87.4569 52.8109C91.8303 54.1358 94.5516 49.0919 94.5516 49.0919L91.8907 47.5757C90.5898 50.6655 86.2217 50.3081 86.2217 50.3081L87.4569 52.8109Z" fill="#E0E0E0"/>
<path d="M123.761 79.8873C122.915 77.4755 119.739 77.9128 119.739 77.9128L119.933 79.6147C121.758 79.1818 123.039 81.2717 123.039 81.2717L123.761 79.8873Z" fill="#E0E0E0"/>
<path d="M73.5984 23.3912C72.7521 20.9794 69.5767 21.4167 69.5767 21.4167L69.7707 23.1186C71.5951 22.6857 72.876 24.7756 72.876 24.7756L73.5984 23.3912Z" fill="#E0E0E0"/>
<path d="M35.7068 54.2534C34.8605 51.8416 31.6851 52.2785 31.6851 52.2785L31.8791 53.9803C33.7035 53.547 34.9844 55.6373 34.9844 55.6373L35.7068 54.2534Z" fill="#EBEBEB"/>
<path d="M27.7456 31.7056C25.2232 32.1194 25.1016 35.3228 25.1016 35.3228L26.8114 35.4276C26.7022 33.5557 28.983 32.6575 28.983 32.6575L27.7456 31.7056Z" fill="#EBEBEB"/>
<path d="M9.58673 106.735C13.9601 108.06 16.681 103.015 16.681 103.015L14.0201 101.499C12.7191 104.589 8.35107 104.231 8.35107 104.231L9.58673 106.735Z" fill="#EBEBEB"/>
<path d="M134.177 53.0897C134.472 51.0646 132.057 50.1948 132.057 50.1948L131.562 51.4744C133.018 51.8452 133.15 53.8037 133.15 53.8037L134.177 53.0897Z" fill="#E0E0E0"/>
<path d="M119.637 30.8467C117.931 31.9784 118.897 34.3574 118.897 34.3574L120.179 33.8712C119.484 32.5405 120.853 31.1344 120.853 31.1344L119.637 30.8467Z" fill="#EBEBEB"/>
<path d="M193.621 76.1748L187.717 93.5645L205.178 97.0344L206.183 78.671L193.621 76.1748Z" fill="#F5F5F5"/>
<path d="M204.249 80.981C204.27 80.9894 204.217 81.1754 204.053 81.4796C203.889 81.782 203.615 82.2073 203.174 82.6482C202.736 83.086 202.116 83.5371 201.323 83.8017C200.535 84.0721 199.591 84.1232 198.658 83.9367C197.724 83.7609 196.86 83.383 196.222 82.8413C195.575 82.3068 195.191 81.6314 194.972 81.0525C194.753 80.4673 194.689 79.9638 194.672 79.6201C194.656 79.2747 194.69 79.0842 194.712 79.086C194.768 79.0793 194.727 79.8603 195.187 80.9659C195.423 81.5076 195.803 82.1247 196.416 82.6087C197.019 83.0997 197.827 83.4452 198.718 83.6139C199.608 83.7911 200.489 83.7506 201.231 83.5135C201.977 83.2818 202.574 82.8782 203.014 82.4799C203.895 81.6656 204.203 80.9521 204.249 80.981Z" fill="white"/>
<path d="M210.489 201.65C210.489 201.714 164.948 201.765 108.785 201.765C52.6022 201.765 7.07178 201.713 7.07178 201.65C7.07178 201.586 52.6022 201.534 108.785 201.534C164.948 201.534 210.489 201.586 210.489 201.65Z" fill="#263238"/>
<path d="M122.815 64.751H14.5439V149.509H122.815V64.751Z" fill="#FAFAFA"/>
<path d="M122.815 149.509C122.814 148.713 122.777 115.883 122.719 64.7511L122.815 64.8466C91.9613 64.8524 54.6861 64.859 14.553 64.8666H14.5437L14.6591 64.7511C14.6547 95.3152 14.6507 124.218 14.6471 149.509L14.5432 149.405C78.8189 149.467 121.905 149.508 122.815 149.509C121.905 149.51 78.8189 149.551 14.5441 149.613H14.4402V149.509C14.4367 124.218 14.4327 95.3152 14.4282 64.7511V64.6353H14.5441H14.5534C54.6866 64.6428 91.9617 64.6495 122.815 64.6552H122.911V64.7511C122.853 115.883 122.816 148.714 122.815 149.509Z" fill="#263238"/>
<path d="M35.0338 106.483V107.892H34.113V106.471L32.5728 103.913H33.5504L34.6134 105.681L35.6763 103.913H36.5803L35.0338 106.483Z" fill="#263238"/>
<path d="M36.334 106.363C36.334 105.442 37.0444 104.789 38.0167 104.789C38.9887 104.789 39.6933 105.442 39.6933 106.363C39.6933 107.284 38.9887 107.937 38.0167 107.937C37.0444 107.937 36.334 107.284 36.334 106.363ZM38.7951 106.363C38.7951 105.834 38.4599 105.516 38.0163 105.516C37.5727 105.516 37.2318 105.835 37.2318 106.363C37.2318 106.892 37.5727 107.21 38.0163 107.21C38.4599 107.21 38.7951 106.891 38.7951 106.363Z" fill="#263238"/>
<path d="M43.3634 104.834V107.892H42.522V107.528C42.2889 107.795 41.9479 107.938 41.5728 107.938C40.8055 107.938 40.2656 107.506 40.2656 106.562V104.834H41.1523V106.431C41.1523 106.943 41.3796 107.17 41.7721 107.17C42.1815 107.17 42.4767 106.909 42.4767 106.346V104.834L43.3634 104.834Z" fill="#263238"/>
<path d="M46.0846 104.789V105.607C46.0109 105.601 45.954 105.596 45.8857 105.596C45.3968 105.596 45.0727 105.863 45.0727 106.448V107.892H44.186V104.833H45.0327V105.237C45.249 104.942 45.6126 104.789 46.0846 104.789Z" fill="#263238"/>
<path d="M48.0552 105.902C48.0552 104.72 48.976 103.845 50.2321 103.845C51.4824 103.845 52.409 104.715 52.409 105.902C52.409 107.09 51.4824 107.96 50.2321 107.96C48.976 107.96 48.0552 107.085 48.0552 105.902ZM51.4771 105.902C51.4771 105.146 50.943 104.629 50.2321 104.629C49.5217 104.629 48.9871 105.146 48.9871 105.902C48.9871 106.658 49.5217 107.176 50.2321 107.176C50.9425 107.176 51.4771 106.659 51.4771 105.902Z" fill="#263238"/>
<path d="M54.9361 104.789V105.607C54.8624 105.601 54.8056 105.596 54.7372 105.596C54.2484 105.596 53.9243 105.863 53.9243 106.448V107.892H53.0376V104.833H53.8843V105.237C54.1005 104.942 54.4646 104.789 54.9361 104.789Z" fill="#263238"/>
<path d="M58.5501 103.674V107.892H57.7029V107.539C57.4814 107.807 57.1573 107.937 56.7479 107.937C55.8839 107.937 55.2188 107.323 55.2188 106.363C55.2188 105.402 55.8839 104.788 56.7479 104.788C57.1231 104.788 57.4414 104.907 57.663 105.158V103.674H58.5501ZM57.6803 106.363C57.6803 105.834 57.3393 105.516 56.9015 105.516C56.458 105.516 56.117 105.835 56.117 106.363C56.117 106.892 56.458 107.21 56.9015 107.21C57.3393 107.21 57.6803 106.892 57.6803 106.363Z" fill="#263238"/>
<path d="M62.3454 106.613H60.0322C60.1174 106.993 60.4415 107.227 60.9077 107.227C61.2319 107.227 61.4645 107.13 61.6754 106.931L62.1474 107.442C61.8632 107.766 61.4366 107.937 60.8855 107.937C59.8284 107.937 59.1406 107.272 59.1406 106.363C59.1406 105.447 59.8399 104.788 60.7719 104.788C61.6701 104.788 62.3636 105.391 62.3636 106.374C62.3623 106.442 62.3512 106.539 62.3454 106.613ZM60.0206 106.096H61.5271C61.4645 105.709 61.1746 105.459 60.7768 105.459C60.3727 105.459 60.0828 105.704 60.0206 106.096Z" fill="#263238"/>
<path d="M64.8507 104.789V105.607C64.7765 105.601 64.7202 105.596 64.6518 105.596C64.1629 105.596 63.8388 105.863 63.8388 106.448V107.892H62.9521V104.833H63.7989V105.237C64.0151 104.942 64.3787 104.789 64.8507 104.789Z" fill="#263238"/>
<path d="M66.9004 103.913C66.9004 103.635 67.1219 103.418 67.4518 103.418C67.7817 103.418 68.0033 103.623 68.0033 103.896C68.0033 104.191 67.7817 104.407 67.4518 104.407C67.1219 104.408 66.9004 104.191 66.9004 103.913ZM67.0087 104.834H67.8954V107.892H67.0087V104.834Z" fill="#263238"/>
<path d="M68.4229 107.607L68.7186 106.971C68.9912 107.147 69.4063 107.266 69.7815 107.266C70.1904 107.266 70.344 107.158 70.344 106.988C70.344 106.487 68.4966 106.999 68.4966 105.777C68.4966 105.197 69.0196 104.788 69.912 104.788C70.3325 104.788 70.7987 104.884 71.0886 105.055L70.7934 105.686C70.4919 105.516 70.1904 105.459 69.9125 105.459C69.5146 105.459 69.3442 105.584 69.3442 105.743C69.3442 106.266 71.1916 105.76 71.1916 106.965C71.1916 107.533 70.6628 107.937 69.7477 107.937C69.23 107.937 68.707 107.795 68.4229 107.607Z" fill="#263238"/>
<path d="M73.1562 105.902C73.1562 104.703 74.0771 103.845 75.3163 103.845C76.0041 103.845 76.5782 104.095 76.9533 104.549L76.3624 105.095C76.0951 104.788 75.7599 104.629 75.362 104.629C74.6174 104.629 74.0886 105.152 74.0886 105.902C74.0886 106.653 74.6174 107.176 75.362 107.176C75.7599 107.176 76.0955 107.017 76.3624 106.704L76.9533 107.249C76.5782 107.71 76.0041 107.96 75.3105 107.96C74.0767 107.96 73.1562 107.102 73.1562 105.902Z" fill="#263238"/>
<path d="M77.1724 106.363C77.1724 105.442 77.8828 104.789 78.8551 104.789C79.827 104.789 80.5317 105.442 80.5317 106.363C80.5317 107.284 79.827 107.937 78.8551 107.937C77.8828 107.937 77.1724 107.284 77.1724 106.363ZM79.6339 106.363C79.6339 105.834 79.2987 105.516 78.8551 105.516C78.4116 105.516 78.0706 105.835 78.0706 106.363C78.0706 106.892 78.4116 107.21 78.8551 107.21C79.2982 107.21 79.6339 106.891 79.6339 106.363Z" fill="#263238"/>
<path d="M84.2478 106.141V107.892H83.3612V106.277C83.3612 105.783 83.1338 105.555 82.7418 105.555C82.3155 105.555 82.0087 105.817 82.0087 106.379V107.892H81.1221V104.833H81.9688V105.192C82.2076 104.93 82.5655 104.788 82.9807 104.788C83.7022 104.789 84.2478 105.209 84.2478 106.141Z" fill="#263238"/>
<path d="M86.0191 104.771V104.902H86.8037V105.584H86.0422V107.892H85.1556V105.584H84.6836V104.902H85.1556V104.766C85.1556 104.078 85.576 103.628 86.3379 103.628C86.5884 103.628 86.8494 103.68 87.0141 103.793L86.781 104.436C86.6847 104.367 86.5595 104.328 86.4232 104.328C86.1617 104.328 86.0191 104.47 86.0191 104.771ZM87.594 103.913C87.594 103.635 87.8156 103.418 88.1455 103.418C88.4754 103.418 88.6969 103.623 88.6969 103.896C88.6969 104.191 88.4754 104.407 88.1455 104.407C87.8156 104.408 87.594 104.191 87.594 103.913ZM87.7019 104.834H88.5886V107.892H87.7019V104.834Z" fill="#263238"/>
<path d="M91.3092 104.789V105.607C91.2355 105.601 91.1787 105.596 91.1103 105.596C90.6214 105.596 90.2973 105.863 90.2973 106.448V107.892H89.4106V104.833H90.2574V105.237C90.474 104.942 90.8377 104.789 91.3092 104.789Z" fill="#263238"/>
<path d="M97.0037 106.141V107.892H96.1166V106.277C96.1166 105.783 95.895 105.555 95.5367 105.555C95.1389 105.555 94.8605 105.811 94.8605 106.357V107.892H93.9738V106.277C93.9738 105.783 93.7634 105.555 93.394 105.555C93.0019 105.555 92.7231 105.811 92.7231 106.357V107.892H91.8364V104.833H92.6831V105.186C92.9105 104.924 93.2515 104.788 93.6439 104.788C94.0702 104.788 94.4343 104.953 94.65 105.288C94.8942 104.975 95.2925 104.788 95.7525 104.788C96.4807 104.789 97.0037 105.209 97.0037 106.141Z" fill="#263238"/>
<path d="M100.809 106.613H98.4956C98.5808 106.993 98.9049 107.227 99.3711 107.227C99.6952 107.227 99.9279 107.13 100.139 106.931L100.611 107.442C100.327 107.766 99.8999 107.937 99.3489 107.937C98.2918 107.937 97.604 107.272 97.604 106.363C97.604 105.447 98.3033 104.788 99.2353 104.788C100.133 104.788 100.827 105.391 100.827 106.374C100.827 106.442 100.815 106.539 100.809 106.613ZM98.4845 106.096H99.991C99.9283 105.709 99.6384 105.459 99.2406 105.459C98.837 105.459 98.5471 105.704 98.4845 106.096Z" fill="#263238"/>
<path d="M104.531 103.674V107.892H103.684V107.539C103.462 107.807 103.138 107.937 102.729 107.937C101.865 107.937 101.2 107.323 101.2 106.363C101.2 105.402 101.865 104.788 102.729 104.788C103.104 104.788 103.422 104.907 103.644 105.158V103.674H104.531ZM103.661 106.363C103.661 105.834 103.32 105.516 102.882 105.516C102.439 105.516 102.098 105.835 102.098 106.363C102.098 106.892 102.439 107.21 102.882 107.21C103.32 107.21 103.661 106.892 103.661 106.363Z" fill="#263238"/>
<path d="M105.217 107.42C105.217 107.13 105.444 106.914 105.762 106.914C106.081 106.914 106.308 107.13 106.308 107.42C106.308 107.704 106.081 107.938 105.762 107.938C105.444 107.938 105.217 107.704 105.217 107.42ZM105.234 103.913H106.291L106.115 106.511H105.41L105.234 103.913Z" fill="#263238"/>
<path d="M41.3334 113.15H40.0352V112.812H43.0224V113.15H41.7241V116.507H41.3339L41.3334 113.15Z" fill="#263238"/>
<path d="M46.1192 114.897V116.507H45.7445V114.934C45.7445 114.349 45.4381 114.048 44.9107 114.048C44.3144 114.048 43.9392 114.417 43.9392 115.051V116.507H43.5645V112.591H43.9392V114.217C44.1452 113.894 44.5093 113.71 44.979 113.71C45.6548 113.71 46.1192 114.1 46.1192 114.897Z" fill="#263238"/>
<path d="M49.2317 114.786V116.507H48.8725V116.074C48.7038 116.359 48.3766 116.533 47.9175 116.533C47.2892 116.533 46.9043 116.206 46.9043 115.726C46.9043 115.298 47.1787 114.939 47.9757 114.939H48.857V114.771C48.857 114.296 48.5879 114.037 48.0707 114.037C47.7115 114.037 47.374 114.164 47.1472 114.364L46.9784 114.084C47.2582 113.847 47.6698 113.709 48.1075 113.709C48.8255 113.709 49.2317 114.068 49.2317 114.786ZM48.857 115.673V115.219H47.9863C47.4482 115.219 47.2741 115.43 47.2741 115.715C47.2741 116.037 47.5326 116.238 47.9761 116.238C48.3979 116.237 48.7092 116.037 48.857 115.673Z" fill="#263238"/>
<path d="M52.8033 114.897V116.507H52.4286V114.934C52.4286 114.348 52.1227 114.047 51.5947 114.047C50.9985 114.047 50.6233 114.417 50.6233 115.05V116.507H50.2485V113.731H50.6073V114.243C50.808 113.905 51.1827 113.709 51.6627 113.709C52.3389 113.709 52.8033 114.1 52.8033 114.897Z" fill="#263238"/>
<path d="M54.85 115.114L54.1955 115.715V116.506H53.8208V112.591H54.1955V115.246L55.8525 113.731H56.317L55.1293 114.866L56.4275 116.507H55.9684L54.85 115.114Z" fill="#263238"/>
<path d="M56.522 116.19L56.6907 115.894C56.9122 116.068 57.287 116.206 57.6777 116.206C58.2056 116.206 58.4218 116.027 58.4218 115.752C58.4218 115.029 56.6219 115.599 56.6219 114.501C56.6219 114.047 57.0126 113.709 57.7199 113.709C58.0786 113.709 58.4694 113.809 58.7016 113.968L58.5377 114.269C58.2949 114.1 58.0049 114.032 57.7199 114.032C57.2186 114.032 56.9971 114.227 56.9971 114.491C56.9971 115.24 58.7966 114.676 58.7966 115.741C58.7966 116.222 58.3743 116.533 57.6515 116.533C57.1924 116.533 56.7493 116.385 56.522 116.19Z" fill="#263238"/>
<path d="M61.339 113.15V114.602H63.2495V114.94H61.339V116.507H60.9482V112.813H63.4817V113.151L61.339 113.15Z" fill="#263238"/>
<path d="M63.8345 115.119C63.8345 114.296 64.4361 113.709 65.2491 113.709C66.062 113.709 66.6583 114.295 66.6583 115.119C66.6583 115.942 66.062 116.533 65.2491 116.533C64.4361 116.533 63.8345 115.942 63.8345 115.119ZM66.2778 115.119C66.2778 114.47 65.8396 114.037 65.2486 114.037C64.6572 114.037 64.2141 114.47 64.2141 115.119C64.2141 115.768 64.6572 116.2 65.2486 116.2C65.8396 116.2 66.2778 115.768 66.2778 115.119Z" fill="#263238"/>
<path d="M68.8205 113.709V114.074C68.789 114.074 68.757 114.068 68.7308 114.068C68.15 114.068 67.7966 114.438 67.7966 115.092V116.507H67.4219V113.731H67.7806V114.275C67.9547 113.905 68.3085 113.709 68.8205 113.709Z" fill="#263238"/>
<path d="M72.2653 115.23V116.507H71.8799V115.23L70.4019 112.813H70.8188L72.0851 114.887L73.3518 112.813H73.7425L72.2653 115.23Z" fill="#263238"/>
<path d="M73.6733 115.119C73.6733 114.296 74.275 113.709 75.0875 113.709C75.9004 113.709 76.4967 114.295 76.4967 115.119C76.4967 115.942 75.9004 116.533 75.0875 116.533C74.275 116.533 73.6733 115.942 73.6733 115.119ZM76.1167 115.119C76.1167 114.47 75.6784 114.037 75.0875 114.037C74.4965 114.037 74.0534 114.47 74.0534 115.119C74.0534 115.768 74.4965 116.2 75.0875 116.2C75.6784 116.2 76.1167 115.768 76.1167 115.119Z" fill="#263238"/>
<path d="M79.7625 113.731V116.507H79.4038V116C79.2084 116.338 78.8492 116.533 78.4061 116.533C77.6988 116.533 77.2344 116.137 77.2344 115.34V113.731H77.6091V115.304C77.6091 115.895 77.915 116.196 78.4429 116.196C79.0237 116.196 79.3878 115.821 79.3878 115.187V113.731H79.7625Z" fill="#263238"/>
<path d="M82.2096 113.709V114.074C82.1781 114.074 82.1461 114.068 82.1199 114.068C81.5392 114.068 81.1858 114.438 81.1858 115.092V116.507H80.811V113.731H81.1698V114.275C81.3443 113.905 81.6981 113.709 82.2096 113.709Z" fill="#263238"/>
<path d="M84.0615 114.659C84.0615 113.583 84.8847 112.781 86.0036 112.781C87.1123 112.781 87.9408 113.578 87.9408 114.659C87.9408 115.741 87.1123 116.538 86.0036 116.538C84.8847 116.538 84.0615 115.736 84.0615 114.659ZM87.55 114.659C87.55 113.778 86.8903 113.129 86.0036 113.129C85.1116 113.129 84.4469 113.778 84.4469 114.659C84.4469 115.541 85.112 116.19 86.0036 116.19C86.8903 116.19 87.55 115.541 87.55 114.659Z" fill="#263238"/>
<path d="M90.1339 113.709V114.074C90.1024 114.074 90.0709 114.068 90.0443 114.068C89.4635 114.068 89.1101 114.438 89.1101 115.092V116.507H88.7354V113.731H89.0941V114.275C89.2686 113.905 89.6225 113.709 90.1339 113.709Z" fill="#263238"/>
<path d="M93.3157 112.591V116.506H92.9569V115.958C92.73 116.333 92.3446 116.533 91.8855 116.533C91.0939 116.533 90.5029 115.958 90.5029 115.119C90.5029 114.28 91.0939 113.71 91.8855 113.71C92.3291 113.71 92.7087 113.9 92.9409 114.258V112.591H93.3157ZM92.9467 115.119C92.9467 114.47 92.5031 114.037 91.9175 114.037C91.3261 114.037 90.8834 114.47 90.8834 115.119C90.8834 115.768 91.3265 116.201 91.9175 116.201C92.5031 116.201 92.9467 115.768 92.9467 115.119Z" fill="#263238"/>
<path d="M96.7764 115.235H94.4543C94.4965 115.815 94.94 116.2 95.5465 116.2C95.8844 116.2 96.1854 116.079 96.3963 115.836L96.6072 116.079C96.359 116.375 95.9741 116.533 95.5359 116.533C94.6701 116.533 94.0791 115.942 94.0791 115.119C94.0791 114.296 94.6541 113.709 95.4355 113.709C96.2165 113.709 96.7813 114.285 96.7813 115.119C96.7817 115.15 96.7764 115.192 96.7764 115.235ZM94.4543 114.955H96.423C96.3755 114.411 95.9799 114.032 95.436 114.032C94.8974 114.031 94.5018 114.411 94.4543 114.955Z" fill="#263238"/>
<path d="M98.9445 113.709V114.074C98.913 114.074 98.881 114.068 98.8548 114.068C98.2741 114.068 97.9206 114.438 97.9206 115.092V116.507H97.5459V113.731H97.9046V114.275C98.0791 113.905 98.4326 113.709 98.9445 113.709Z" fill="#263238"/>
<path d="M84.7733 137.971H52.5859C48.8976 137.971 45.9077 134.981 45.9077 131.293C45.9077 127.605 48.8976 124.615 52.5859 124.615H84.7733C88.4616 124.615 91.4515 127.605 91.4515 131.293C91.4515 134.981 88.4616 137.971 84.7733 137.971Z" fill="#FC8019"/>
<path d="M63.1699 129.773H64.3101C65.1559 129.773 65.7336 130.296 65.7336 131.078C65.7336 131.861 65.1559 132.382 64.3101 132.382H63.1699V129.773ZM64.2879 131.972C64.8691 131.972 65.2456 131.618 65.2456 131.077C65.2456 130.537 64.8691 130.183 64.2879 130.183H63.6543V131.972L64.2879 131.972Z" fill="white"/>
<path d="M66.0586 131.078C66.0586 130.306 66.6549 129.736 67.4634 129.736C68.2719 129.736 68.8682 130.303 68.8682 131.078C68.8682 131.853 68.2719 132.419 67.4634 132.419C66.6549 132.419 66.0586 131.849 66.0586 131.078ZM68.3803 131.078C68.3803 130.545 67.9891 130.161 67.4639 130.161C66.9386 130.161 66.5474 130.545 66.5474 131.078C66.5474 131.61 66.9386 131.994 67.4639 131.994C67.9891 131.994 68.3803 131.61 68.3803 131.078Z" fill="white"/>
<path d="M71.6976 129.773V132.382H71.2988L69.8607 130.616V132.382H69.3799V129.773H69.7786L71.2167 131.54V129.773H71.6976Z" fill="white"/>
<path d="M74.3518 131.975V132.381H72.3955V129.773H74.2994V130.179H72.8799V130.857H74.1391V131.256H72.8799V131.975H74.3518V131.975Z" fill="white"/>
<path d="M69.5768 97.2293C64.8313 97.2293 60.9712 93.3687 60.9712 88.6237C60.9712 83.8782 64.8318 80.0181 69.5768 80.0181C74.3218 80.0181 78.1824 83.8786 78.1824 88.6237C78.1824 93.3687 74.3218 97.2293 69.5768 97.2293ZM69.5768 80.9061C65.3211 80.9061 61.8592 84.3684 61.8592 88.6237C61.8592 92.8794 65.3215 96.3413 69.5768 96.3413C73.8321 96.3413 77.2944 92.8794 77.2944 88.6237C77.2944 84.3684 73.8321 80.9061 69.5768 80.9061Z" fill="#FC8019"/>
<path d="M68.9528 91.2757C68.848 91.2757 68.7436 91.2389 68.6593 91.1652C67.9067 90.5027 66.6191 89.3545 66.4539 89.1068C66.3181 88.9026 66.3731 88.6268 66.5769 88.491C66.7785 88.356 67.0493 88.4088 67.1879 88.6069C67.3077 88.7574 68.1234 89.5042 68.9417 90.2297L73.2991 86.0938C73.4762 85.9251 73.7577 85.9318 73.9269 86.1102C74.0956 86.2878 74.0885 86.5693 73.9105 86.7381L69.2578 91.1541C69.173 91.2349 69.0629 91.2757 68.9528 91.2757Z" fill="#FC8019"/>
<path d="M122.815 73.0315C122.815 73.0954 98.6369 73.1469 68.8183 73.1469C38.9891 73.1469 14.8159 73.0949 14.8159 73.0315C14.8159 72.968 38.9891 72.916 68.8183 72.916C98.6369 72.9156 122.815 72.9675 122.815 73.0315Z" fill="#263238"/>
<path d="M18.3758 69.403C18.7228 69.403 19.0041 69.1217 19.0041 68.7747C19.0041 68.4278 18.7228 68.1465 18.3758 68.1465C18.0288 68.1465 17.7476 68.4278 17.7476 68.7747C17.7476 69.1217 18.0288 69.403 18.3758 69.403Z" fill="#263238"/>
<path d="M20.7201 69.403C21.067 69.403 21.3483 69.1217 21.3483 68.7747C21.3483 68.4278 21.067 68.1465 20.7201 68.1465C20.3731 68.1465 20.0918 68.4278 20.0918 68.7747C20.0918 69.1217 20.3731 69.403 20.7201 69.403Z" fill="#263238"/>
<path d="M23.6574 68.7747C23.6574 69.1219 23.3759 69.403 23.0291 69.403C22.6819 69.403 22.4009 69.1215 22.4009 68.7747C22.4009 68.4275 22.6824 68.1465 23.0291 68.1465C23.3763 68.146 23.6574 68.4275 23.6574 68.7747Z" fill="#263238"/>
<path d="M193.991 121.694C193.991 121.694 199.379 118.415 200.594 119.379C202.347 120.769 202.931 123.116 202.931 123.116C202.931 123.116 205.777 112.261 208.493 112.673C210.051 112.909 209.286 114.123 208.588 115.646C207.94 117.061 206.834 122.255 206.834 122.255C206.834 122.255 211.984 116.145 213.497 116.255C214.668 116.34 214.836 117.371 213.152 119.022C211.469 120.673 208.671 125.876 208.671 125.876C208.671 125.876 212.278 122.513 213.769 122.495C214.957 122.48 215.725 123.305 214.187 124.641C212.648 125.977 210.321 126.979 209.079 129.394C207.549 132.372 204.285 139.795 204.285 139.795L192.863 135.751C192.863 135.751 191.004 128.174 190.93 126.334C190.93 126.334 191.086 122.444 191.065 121.751C191.042 121.058 192.88 120.88 193.437 122.21C193.995 123.54 193.742 124.935 193.968 125.819C194.194 126.704 194.597 127.523 195.243 127.919C195.89 128.315 197.535 128.342 197.956 127.853C198.376 127.364 198.886 125.941 198.996 125.065C199.107 124.19 198.964 122.808 198.964 122.808C198.964 122.808 194.222 124.734 193.991 121.694Z" fill="#FFBE9D"/>
<path d="M65.6565 157.047L57.7195 154.074C57.7195 154.074 49.6392 149.343 48.1429 151.023C48.1429 151.023 46.5449 150.262 45.8345 151.967C45.4229 152.954 46.7807 154.388 46.7807 154.388C46.7807 154.388 46.358 154.817 47.0271 156.267C47.6962 157.717 55.3663 162.29 55.3663 162.29C55.3663 162.29 65.3386 167.728 69.3705 170.329L76.328 160.867L75.3605 160.506C75.3605 160.506 74.786 155.79 72.8559 154.532C70.7554 153.164 68.2215 149.462 67.6638 148.012C67.1061 146.562 64.4288 147.231 64.875 150.243C65.3212 153.255 67.6638 154.036 67.4409 156.044C67.2185 158.051 65.6565 157.047 65.6565 157.047Z" fill="#FFBE9D"/>
<path d="M53.4895 158.148C53.4584 158.203 51.9119 157.396 50.0365 156.345C48.1601 155.294 46.6652 154.397 46.6963 154.341C46.7274 154.285 48.2734 155.092 50.1497 156.144C52.0252 157.195 53.521 158.092 53.4895 158.148Z" fill="#EB996E"/>
<path d="M57.3632 155.916C57.3499 155.945 56.8073 155.725 55.9389 155.349C55.0713 154.972 53.8805 154.43 52.5929 153.772C51.3057 153.113 50.1713 152.455 49.3779 151.935C48.9827 151.673 48.6661 151.456 48.457 151.292C48.2461 151.131 48.1338 151.036 48.1431 151.023C48.164 150.994 48.6528 151.315 49.464 151.796C50.2752 152.278 51.4158 152.909 52.6981 153.566C53.9808 154.221 55.1574 154.786 56.0072 155.201C56.8575 155.614 57.377 155.887 57.3632 155.916Z" fill="#EB996E"/>
<path d="M59.033 160.288C59.0241 160.303 58.7741 160.166 58.3297 159.906C57.8537 159.622 57.2228 159.246 56.4595 158.79L56.4382 158.777L56.4267 158.752C56.0764 157.995 55.6408 157.103 55.0791 156.172C54.795 155.715 54.4833 155.22 54.0695 154.838C53.657 154.455 52.9999 154.388 52.5057 154.721C52.3996 154.781 52.2717 154.907 52.2566 154.949C52.2686 154.968 52.2673 154.971 52.2748 155.002L52.3068 155.1C52.3268 155.165 52.3521 155.232 52.3761 155.298C52.4724 155.563 52.5768 155.824 52.6793 156.08C52.8889 156.591 53.0918 157.086 53.2867 157.563C53.6814 158.504 54.0437 159.367 54.3603 160.123L54.3456 160.1C54.9979 160.864 55.5373 161.496 55.9414 161.97C56.1105 162.176 56.2509 162.347 56.3676 162.489C56.4631 162.61 56.5101 162.677 56.5035 162.682C56.4968 162.688 56.4369 162.633 56.329 162.523C56.2029 162.39 56.0506 162.229 55.8672 162.035C55.4481 161.574 54.8891 160.959 54.2133 160.216L54.2049 160.207L54.1987 160.193C53.8683 159.452 53.4914 158.592 53.0874 157.647C52.8884 157.171 52.682 156.676 52.4684 156.165C52.3645 155.907 52.2588 155.647 52.1598 155.377C52.135 155.309 52.1092 155.242 52.087 155.171L52.0524 155.065C52.04 155.026 52.0315 154.958 52.0293 154.906C52.0706 154.766 52.1341 154.737 52.1909 154.67C52.2513 154.617 52.3143 154.569 52.3805 154.527C52.6655 154.345 53.003 154.252 53.3373 154.281C53.6734 154.302 53.9789 154.463 54.216 154.666C54.6747 155.095 54.9735 155.591 55.2616 156.062C55.8219 157.012 56.2437 157.912 56.5799 158.685L56.547 158.647C57.2943 159.129 57.9119 159.527 58.3776 159.828C58.8083 160.111 59.0418 160.274 59.033 160.288Z" fill="#EB996E"/>
<path d="M66.9904 160.365C66.9798 160.397 66.6091 160.293 66.015 160.126C65.4218 159.964 64.596 159.734 63.6689 159.712C62.7431 159.691 61.92 159.95 61.4067 160.266C60.8859 160.577 60.6559 160.894 60.6239 160.867C60.6044 160.858 60.7922 160.494 61.3183 160.128C61.8356 159.759 62.7023 159.458 63.6733 159.48C64.6421 159.505 65.4791 159.768 66.0638 159.97C66.6503 160.179 67.0002 160.336 66.9904 160.365Z" fill="#EB996E"/>
<path d="M66.3936 158.268C66.4465 158.308 66.2489 158.652 66.0575 159.093C65.8626 159.532 65.7436 159.91 65.6783 159.898C65.6175 159.889 65.6384 159.468 65.8457 159C66.0504 158.53 66.3457 158.23 66.3936 158.268Z" fill="#EB996E"/>
<path d="M112.138 120.537C112.686 116.796 117.042 111.432 120.896 111.427C118.687 108.224 118.653 103.718 120.814 100.484C122.301 98.258 124.699 96.6214 125.717 94.1541C126.868 91.3627 125.984 88.209 126.094 85.2C126.255 80.7955 128.546 76.7733 130.778 72.9474C132.821 69.4442 135.314 65.604 139.335 64.7436C141.88 64.1992 144.519 65.0024 146.908 66.0196C158.339 70.8881 167.229 81.1494 170.279 92.9966C171.01 95.8329 171.499 98.9009 173.475 101.093C175.568 103.414 179.234 104.673 179.862 107.709C180.312 109.887 178.915 112.076 179.125 114.288C179.3 116.141 182.771 121.543 183.571 123.23C184.95 126.138 184.451 129.279 183.048 132.175C181.644 135.071 178.072 137.892 174.902 138.681L139.469 126.874C136.136 128.771 132.815 136.113 128.988 136.564C125.161 137.015 120.492 138.681 116.81 134.651C112.951 130.428 111.59 124.277 112.138 120.537Z" fill="#263238"/>
<path d="M170.89 85.2944C170.493 88.2594 171.306 93.1616 172.926 95.6946C174.014 97.3947 175.829 98.5012 177.62 99.4735C179.41 100.446 181.286 101.379 182.643 102.881C184.001 104.383 184.729 106.636 183.821 108.435C187.013 109.625 188.445 113.691 187.274 116.836C186.102 119.981 182.891 122.096 179.537 122.724L164.923 118.328L161.714 99.6795L170.149 85.2939" fill="#263238"/>
<path d="M172.684 104.307C172.687 104.301 172.784 104.344 172.97 104.432C173.15 104.528 173.437 104.636 173.768 104.846C174.445 105.237 175.381 105.916 176.329 106.982C176.812 107.506 177.259 108.154 177.694 108.877C178.095 109.618 178.501 110.437 178.758 111.363C179.327 113.189 179.452 115.407 178.798 117.587L178.744 117.454C179.586 117.923 180.398 118.534 181.122 119.26C182.988 121.111 184.054 123.517 184.309 125.767C184.558 128.035 184.018 130.09 183.263 131.615C182.503 133.154 181.56 134.201 180.863 134.844C180.507 135.162 180.221 135.396 180.012 135.536C179.808 135.682 179.699 135.755 179.694 135.749C179.69 135.742 179.79 135.656 179.984 135.5C180.182 135.348 180.458 135.104 180.801 134.779C181.474 134.121 182.386 133.07 183.115 131.544C183.841 130.032 184.352 128.01 184.097 125.792C183.836 123.591 182.786 121.237 180.958 119.425C180.249 118.713 179.455 118.114 178.633 117.654L178.552 117.609L178.58 117.52C179.222 115.393 179.112 113.22 178.565 111.422C178.318 110.51 177.926 109.701 177.539 108.967C177.117 108.25 176.685 107.606 176.216 107.082C175.296 106.018 174.385 105.327 173.726 104.917C173.404 104.698 173.125 104.579 172.951 104.471C172.772 104.369 172.681 104.314 172.684 104.307Z" fill="#455A64"/>
<path d="M129.452 123.619C129.452 123.619 122.922 125.605 120.634 128.934C119.014 131.29 102.435 167.193 102.435 167.193L77.2681 159.626L68.27 171.511L96.2718 187.032C101.463 189.909 107.778 189.882 112.944 186.958C115.808 185.337 118.143 182.922 119.666 180.004L126.786 166.363L129.452 123.619Z" fill="#FC8019"/>
<path d="M122.77 201.819L126.7 184.881L123.722 172.582C121.807 166.249 120.163 155.933 122.247 147.624L129.207 123.732L136.859 120.213L154.371 117.201C155.045 117.425 172.683 122.407 172.683 122.407C175.125 122.974 176.105 123.363 176.105 123.363L178.127 136.442L172.046 158L169.398 179.479L175.216 201.819H122.77Z" fill="#FC8019"/>
<path d="M132.891 122.038L137.969 119.765L160.857 120.084L166.271 123.226C166.271 123.226 147.362 144.096 142.616 144.786C130.679 146.522 132.891 122.038 132.891 122.038Z" fill="#FFBE9D"/>
<path d="M175.608 123.182C175.608 123.182 179.037 123.953 181.976 130.223C184.915 136.492 189.665 153.941 189.665 153.941L191.697 135.45L208.245 137.27L205.042 181.462C205.042 181.462 199.186 189.955 189.39 189.171C179.594 188.388 167.158 157.423 167.158 157.423L175.608 123.182Z" fill="#FC8019"/>
<path d="M187.083 176.52C187.079 176.519 187.078 176.483 187.079 176.413C187.083 176.328 187.087 176.225 187.092 176.1C187.11 175.805 187.134 175.404 187.164 174.897C187.227 173.853 187.352 172.344 187.525 170.481C187.87 166.756 188.501 161.624 189.274 155.971C190.047 150.315 190.704 145.192 191.09 141.473C191.284 139.613 191.433 138.108 191.524 137.066C191.572 136.561 191.611 136.161 191.64 135.867C191.654 135.742 191.666 135.64 191.675 135.556C191.685 135.486 191.691 135.45 191.695 135.45C191.699 135.451 191.701 135.487 191.699 135.558C191.695 135.642 191.691 135.745 191.686 135.871C191.668 136.165 191.644 136.566 191.614 137.073C191.551 138.117 191.426 139.626 191.253 141.489C190.909 145.214 190.277 150.346 189.503 156.002C188.73 161.655 188.074 166.778 187.687 170.497C187.494 172.357 187.345 173.862 187.254 174.904C187.205 175.41 187.167 175.81 187.138 176.103C187.124 176.228 187.112 176.331 187.102 176.414C187.094 176.484 187.087 176.52 187.083 176.52Z" fill="#263238"/>
<path d="M102.721 176.73C102.707 176.736 102.642 176.618 102.538 176.399C102.432 176.181 102.299 175.855 102.154 175.446C101.862 174.629 101.559 173.458 101.429 172.136C101.302 170.812 101.376 169.605 101.505 168.747C101.569 168.318 101.637 167.973 101.699 167.738C101.759 167.503 101.8 167.375 101.816 167.378C101.853 167.386 101.753 167.911 101.667 168.766C101.581 169.621 101.535 170.81 101.659 172.113C101.787 173.416 102.061 174.574 102.309 175.395C102.557 176.219 102.756 176.715 102.721 176.73Z" fill="#263238"/>
<path d="M105.504 177.14C105.492 177.149 105.389 177.032 105.213 176.81C105.034 176.59 104.797 176.256 104.522 175.83C103.972 174.98 103.309 173.735 102.798 172.272C102.29 170.807 102.037 169.419 101.941 168.411C101.892 167.907 101.871 167.497 101.874 167.214C101.874 166.931 101.882 166.774 101.898 166.774C101.937 166.773 101.965 167.396 102.103 168.391C102.24 169.385 102.515 170.749 103.017 172.195C103.522 173.64 104.152 174.88 104.662 175.744C105.171 176.61 105.536 177.116 105.504 177.14Z" fill="#263238"/>
<path d="M125.095 137.657C125.103 137.659 125.074 137.782 125.012 138.015C124.942 138.267 124.848 138.605 124.729 139.03C124.474 139.932 124.115 141.199 123.674 142.755C122.814 145.904 121.617 150.276 121.044 155.227C120.757 157.699 120.7 160.08 120.947 162.221C121.174 164.364 121.647 166.257 122.113 167.819C122.58 169.383 123.024 170.63 123.327 171.492C123.473 171.907 123.589 172.238 123.676 172.485C123.754 172.713 123.792 172.834 123.784 172.837C123.777 172.839 123.725 172.724 123.633 172.501C123.536 172.258 123.406 171.932 123.242 171.523C122.913 170.669 122.446 169.43 121.956 167.867C121.469 166.305 120.976 164.404 120.735 162.245C120.474 160.088 120.527 157.684 120.814 155.201C121.39 150.226 122.616 145.85 123.517 142.711C123.976 141.14 124.368 139.876 124.643 139.004C124.779 138.585 124.887 138.251 124.967 138.002C125.044 137.773 125.087 137.655 125.095 137.657Z" fill="#263238"/>
<path d="M171.37 166.774C171.366 166.775 171.346 166.739 171.31 166.665C171.269 166.579 171.218 166.471 171.155 166.337C171.016 166.031 170.823 165.605 170.579 165.066C170.334 164.511 170.021 163.838 169.687 163.044C169.367 162.241 169.003 161.331 168.601 160.326C168.211 159.314 167.835 158.187 167.404 156.986C167.215 156.376 167.02 155.746 166.819 155.097C166.72 154.772 166.618 154.442 166.516 154.108C166.42 153.772 166.337 153.427 166.246 153.08C165.501 150.311 164.867 147.2 164.68 143.885C164.478 140.576 164.793 137.378 165.637 134.621C166.428 131.846 167.82 129.57 169.302 127.979C170.784 126.371 172.328 125.444 173.433 124.949C173.991 124.707 174.435 124.543 174.745 124.464C174.888 124.424 175.003 124.391 175.094 124.365C175.173 124.345 175.215 124.336 175.216 124.34C175.217 124.344 175.178 124.36 175.101 124.388C175.011 124.419 174.899 124.459 174.759 124.507C174.455 124.602 174.019 124.778 173.471 125.031C172.386 125.546 170.872 126.485 169.423 128.089C167.971 129.678 166.614 131.93 165.841 134.681C165.016 137.416 164.71 140.583 164.911 143.872C165.096 147.164 165.721 150.263 166.451 153.025C166.54 153.371 166.629 153.713 166.716 154.05C166.816 154.384 166.916 154.713 167.013 155.038C167.21 155.686 167.4 156.316 167.585 156.925C168.007 158.125 168.373 159.254 168.753 160.267C169.142 161.275 169.495 162.188 169.806 162.993C170.128 163.791 170.428 164.469 170.66 165.028C170.888 165.575 171.067 166.006 171.197 166.317C171.252 166.455 171.296 166.566 171.331 166.654C171.36 166.732 171.373 166.772 171.37 166.774Z" fill="#263238"/>
<g opacity="0.3">
<path d="M165.063 146.757C162.9 156.991 162.87 167.519 166.595 177.293C166.811 177.86 167.666 179.876 168.272 179.905C169.041 179.943 169.405 178.987 169.538 178.229C169.812 176.671 169.979 174.108 170.252 172.55C170.594 170.6 171.058 166.084 171.058 166.084C171.058 166.084 169.269 161.989 168.482 159.793C167.023 155.719 165.789 151.83 165.107 147.08" fill="black"/>
</g>
<path d="M163.296 186.404C163.303 186.408 163.243 186.5 163.124 186.671C162.989 186.86 162.813 187.105 162.592 187.412C162.474 187.574 162.344 187.752 162.203 187.945C162.055 188.135 161.877 188.327 161.695 188.542C161.32 188.962 160.923 189.469 160.4 189.95C160.146 190.198 159.88 190.458 159.604 190.729C159.325 190.997 159.004 191.243 158.688 191.515C158.066 192.073 157.328 192.576 156.567 193.124C155.003 194.16 153.186 195.158 151.171 195.958C149.145 196.733 147.132 197.227 145.279 197.524C144.348 197.634 143.464 197.764 142.628 197.774C142.211 197.787 141.809 197.824 141.422 197.815C141.036 197.802 140.664 197.791 140.309 197.78C139.599 197.779 138.963 197.675 138.403 197.619C138.124 197.585 137.862 197.563 137.625 197.524C137.391 197.477 137.175 197.434 136.978 197.395C136.609 197.318 136.312 197.256 136.086 197.209C135.882 197.164 135.777 197.136 135.778 197.129C135.78 197.121 135.889 197.133 136.095 197.163C136.324 197.2 136.622 197.247 136.994 197.306C137.191 197.339 137.406 197.376 137.641 197.415C137.878 197.447 138.14 197.463 138.418 197.491C138.976 197.535 139.609 197.627 140.315 197.616C140.668 197.623 141.037 197.63 141.421 197.637C141.806 197.641 142.205 197.6 142.619 197.583C143.448 197.564 144.324 197.428 145.248 197.313C147.084 197.008 149.079 196.511 151.088 195.743C153.086 194.949 154.89 193.965 156.449 192.948C157.207 192.408 157.944 191.915 158.567 191.367C158.883 191.1 159.204 190.86 159.485 190.597C159.763 190.332 160.03 190.077 160.285 189.833C160.812 189.363 161.216 188.867 161.597 188.457C161.783 188.248 161.965 188.06 162.119 187.875C162.265 187.688 162.399 187.515 162.522 187.357C162.756 187.062 162.943 186.825 163.087 186.644C163.218 186.483 163.29 186.4 163.296 186.404Z" fill="#263238"/>
<path d="M159.685 179.631C159.7 179.635 159.679 179.806 159.626 180.116C159.577 180.427 159.473 180.871 159.316 181.411C159.005 182.491 158.413 183.948 157.478 185.395C156.539 186.841 155.451 187.976 154.592 188.702C154.163 189.066 153.8 189.342 153.537 189.514C153.276 189.688 153.128 189.779 153.118 189.766C153.094 189.732 153.661 189.332 154.483 188.579C155.306 187.829 156.357 186.694 157.284 185.27C158.205 183.843 158.812 182.419 159.16 181.362C159.511 180.305 159.644 179.623 159.685 179.631Z" fill="#263238"/>
<path d="M151.625 61.9136C157.82 61.9558 163.88 65.4536 167.016 70.7976C170.152 76.1411 170.25 83.1377 167.265 88.5669C166.247 90.4179 164.784 92.1704 162.772 92.8155C163.457 82.1973 159.225 71.3619 151.524 64.019" fill="#FC8019"/>
<path d="M158.876 63.5173C157.956 61.6045 158.941 59.2113 160.581 57.8642C162.221 56.5171 164.358 55.9732 166.423 55.48C168.488 54.9871 170.626 54.4752 172.303 53.1738C172.062 56.4994 171.235 59.9213 169.082 62.4681C166.93 65.0144 163.201 66.4334 160.128 65.1396" fill="#FC8019"/>
<path d="M161.008 65.7082C159.595 66.3027 157.911 65.9311 156.646 65.0648C155.382 64.1986 154.477 62.9008 153.735 61.5594C152.823 59.9118 152.107 58.1318 151.864 56.2647C151.621 54.3977 151.877 52.4326 152.801 50.792C155.232 53.3814 157.908 55.557 159.298 58.8253C160.114 60.7451 160.015 63.8234 159.14 65.7171" fill="#FC8019"/>
<path d="M167.892 76.4751C167.908 76.4729 167.95 76.6922 168.013 77.0927C168.047 77.2925 168.082 77.5381 168.104 77.8249C168.129 78.1117 168.169 78.4376 168.176 78.8003C168.217 79.5245 168.204 80.3899 168.131 81.3467C168.046 82.3022 167.894 83.3491 167.642 84.428C167.381 85.5056 167.045 86.5091 166.691 87.4006C166.324 88.2877 165.946 89.0661 165.584 89.6948C165.414 90.0153 165.232 90.2884 165.08 90.5335C164.931 90.7795 164.789 90.9828 164.669 91.1462C164.432 91.4752 164.296 91.6519 164.283 91.643C164.27 91.6337 164.381 91.4392 164.594 91.0969C164.702 90.9269 164.832 90.7178 164.97 90.4664C165.109 90.2169 165.281 89.9399 165.44 89.6166C165.781 88.983 166.14 88.2047 166.493 87.322C166.833 86.4349 167.158 85.4408 167.416 84.3748C167.666 83.3069 167.823 82.2729 167.919 81.328C168.002 80.3819 168.031 79.525 168.012 78.8057C168.016 78.4456 167.987 78.121 167.975 77.8351C167.965 77.5487 167.943 77.3036 167.923 77.1029C167.888 76.7011 167.876 76.4773 167.892 76.4751Z" fill="#263238"/>
<path d="M166.506 64.5675C166.516 64.5795 166.342 64.7176 166.014 64.9591C165.66 65.1532 165.131 65.4378 164.411 65.5798C162.982 65.9053 160.919 65.8374 158.741 65.2566L158.676 65.2393L158.661 65.1731C158.631 65.0404 158.6 64.8974 158.568 64.754C158.334 63.6018 158.279 62.4656 158.421 61.4511C158.55 60.4348 158.902 59.5508 159.354 58.9181C159.79 58.2672 160.323 57.9044 160.671 57.6602C161.051 57.4546 161.262 57.3499 161.269 57.3641C161.276 57.3783 161.079 57.5106 160.721 57.7353C160.395 57.9985 159.892 58.3697 159.489 59.01C159.07 59.6325 158.746 60.4889 158.632 61.4791C158.506 62.4661 158.565 63.5779 158.794 64.7078C158.825 64.8486 158.857 64.9884 158.886 65.1185L158.806 65.0351C160.942 65.6078 162.979 65.7019 164.378 65.4236C165.087 65.305 165.61 65.0502 165.97 64.8837C166.304 64.6696 166.496 64.5555 166.506 64.5675Z" fill="#263238"/>
<path d="M168.325 58.8135C168.331 58.8557 167.675 58.9476 166.657 59.2491C166.148 59.3965 165.554 59.6145 164.913 59.8951C164.276 60.1859 163.594 60.5456 162.916 60.9851C162.242 61.4313 161.64 61.9135 161.119 62.3811C160.606 62.857 160.169 63.3143 159.83 63.7228C159.148 64.5358 158.802 65.1006 158.766 65.0775C158.752 65.069 158.829 64.923 158.981 64.6641C159.129 64.403 159.374 64.0434 159.703 63.6194C160.03 63.1927 160.46 62.7167 160.974 62.2243C161.495 61.7404 162.104 61.2449 162.789 60.7911C163.479 60.344 164.175 59.9839 164.827 59.6993C165.483 59.4249 166.092 59.2198 166.613 59.0906C167.134 58.9583 167.561 58.8766 167.86 58.845C168.158 58.81 168.322 58.7975 168.325 58.8135Z" fill="#263238"/>
<path d="M160.913 65.655C160.921 65.6567 160.915 65.7025 160.896 65.7886C160.882 65.8761 160.841 65.9995 160.778 66.1553C160.649 66.4644 160.377 66.888 159.899 67.2658C159.424 67.6308 158.723 67.9513 157.904 67.91C157.084 67.8821 156.234 67.3861 155.706 66.6158C155.178 65.8454 155.022 64.874 155.292 64.0987C155.55 63.3195 156.102 62.7814 156.614 62.4702C157.138 62.1616 157.632 62.0603 157.966 62.0523C158.134 62.0497 158.264 62.0559 158.351 62.0741C158.438 62.0874 158.483 62.0985 158.482 62.1061C158.479 62.13 158.297 62.1047 157.973 62.142C157.652 62.1771 157.187 62.2988 156.7 62.6091C156.224 62.9217 155.72 63.4425 155.495 64.1636C155.258 64.8771 155.407 65.7669 155.897 66.4852C156.39 67.2014 157.166 67.661 157.917 67.6974C158.67 67.7475 159.338 67.4656 159.802 67.1348C160.267 66.7929 160.548 66.4035 160.697 66.1163C160.848 65.8281 160.89 65.6483 160.913 65.655Z" fill="#263238"/>
<path d="M155.53 65.7662C155.509 65.7884 155.376 65.5247 155.586 65.1784C155.685 65.0154 155.872 64.8481 156.114 64.7668C156.353 64.6798 156.631 64.6642 156.907 64.6838C158.015 64.7624 158.821 65.1944 158.79 65.2454C158.766 65.3098 157.949 64.9879 156.891 64.9147C156.367 64.8614 155.913 64.9995 155.721 65.2721C155.515 65.53 155.567 65.7631 155.53 65.7662Z" fill="#263238"/>
<path d="M152.801 50.7918C152.845 50.8117 152.311 51.4404 152.124 52.6907C152.021 53.3092 152.008 54.0587 152.018 54.8943C152.029 55.7277 152.066 56.6459 152.255 57.5823C152.676 59.4471 153.439 61.0517 154.151 62.0773C154.512 62.5942 154.83 62.9951 155.055 63.2659C155.28 63.5372 155.42 63.6726 155.41 63.6855C155.383 63.7188 154.778 63.1962 154.019 62.1728C153.256 61.1454 152.461 59.5381 152.029 57.6285C151.835 56.6672 151.804 55.7344 151.806 54.8952C151.807 54.0574 151.837 53.2924 151.963 52.6623C152.081 52.0305 152.289 51.5443 152.47 51.2362C152.652 50.9272 152.792 50.7847 152.801 50.7918Z" fill="#263238"/>
<path d="M155.102 56.0589C155.126 56.0415 155.376 56.3217 155.726 56.8177C156.077 57.3127 156.519 58.0307 156.906 58.8752C157.294 59.7201 157.546 60.5255 157.686 61.116C157.826 61.7074 157.867 62.0813 157.839 62.087C157.767 62.1039 157.465 60.6347 156.696 58.9715C155.935 57.3065 155.04 56.1028 155.102 56.0589Z" fill="#263238"/>
<path d="M154.351 58.8257C154.397 58.7862 155.145 59.5428 156.125 60.421C157.101 61.3032 157.883 62.0367 157.838 62.0878C157.798 62.1326 156.95 61.4795 155.969 60.5919C154.983 59.7079 154.299 58.8683 154.351 58.8257Z" fill="#263238"/>
<path d="M165.971 69.2424C165.973 69.245 165.951 69.2664 165.907 69.305C165.844 69.3583 165.78 69.4129 165.711 69.4715C165.542 69.6167 165.284 69.8107 164.954 70.0345C164.295 70.4834 163.318 71.0162 162.159 71.3989C160.998 71.7781 159.895 71.9281 159.099 71.9574C158.7 71.973 158.377 71.9699 158.155 71.9534C158.065 71.9472 157.981 71.941 157.899 71.9352C157.84 71.9299 157.81 71.9259 157.81 71.9228C157.81 71.9197 157.841 71.9175 157.9 71.9166C157.981 71.917 158.066 71.917 158.156 71.9175C158.378 71.9228 158.7 71.9162 159.095 71.8922C159.887 71.8464 160.978 71.687 162.13 71.311C163.28 70.9314 164.254 70.4123 164.918 69.9799C165.251 69.7645 165.514 69.5794 165.69 69.4431C165.762 69.3898 165.83 69.3392 165.896 69.2908C165.943 69.257 165.969 69.2402 165.971 69.2424Z" fill="#FAFAFA"/>
<path d="M168.586 74.6154C168.588 74.6181 168.566 74.6394 168.522 74.6776C168.459 74.73 168.393 74.7842 168.324 74.8419C168.153 74.9853 167.893 75.178 167.563 75.4022C166.903 75.8511 165.932 76.3932 164.783 76.8088C163.633 77.2217 162.54 77.4237 161.745 77.4992C161.347 77.5378 161.024 77.5552 160.801 77.5538C160.711 77.5534 160.626 77.5534 160.544 77.5529C160.486 77.5516 160.455 77.5494 160.455 77.5463C160.455 77.5432 160.485 77.5392 160.544 77.5343C160.626 77.529 160.71 77.5236 160.8 77.5174C161.022 77.5077 161.343 77.4806 161.737 77.4339C162.526 77.342 163.609 77.1311 164.751 76.7213C165.891 76.3084 166.86 75.7796 167.526 75.3471C167.86 75.1314 168.124 74.9471 168.301 74.813C168.374 74.7602 168.443 74.7105 168.509 74.6625C168.558 74.6296 168.584 74.6132 168.586 74.6154Z" fill="#FAFAFA"/>
<path d="M167.86 82.4532C167.864 82.4585 167.797 82.5074 167.672 82.5917C167.548 82.6774 167.362 82.7902 167.126 82.9194C166.654 83.1782 165.969 83.4806 165.173 83.6897C164.376 83.8971 163.63 83.9695 163.092 83.9743C162.823 83.9775 162.605 83.9703 162.455 83.9561C162.305 83.9437 162.223 83.9339 162.224 83.9273C162.224 83.9211 162.307 83.9188 162.457 83.9202C162.607 83.9233 162.823 83.9206 163.09 83.9091C163.624 83.8873 164.361 83.8056 165.15 83.6001C165.938 83.3927 166.62 83.1037 167.096 82.8612C167.335 82.7405 167.525 82.637 167.654 82.5611C167.783 82.4865 167.857 82.4474 167.86 82.4532Z" fill="#FAFAFA"/>
<path d="M169.366 81.254C169.371 81.2793 169.103 81.3522 168.767 81.4165C168.431 81.4814 168.154 81.5133 168.149 81.4885C168.145 81.4636 168.413 81.3908 168.749 81.326C169.085 81.2611 169.362 81.2292 169.366 81.254Z" fill="#FAFAFA"/>
<path d="M164.961 90.4695C164.965 90.4931 164.51 90.5628 163.948 90.5206C163.386 90.4806 162.947 90.3452 162.953 90.3226C162.959 90.2959 163.402 90.3892 163.955 90.4283C164.507 90.4704 164.958 90.4425 164.961 90.4695Z" fill="#FAFAFA"/>
<path d="M156.535 67.2515C156.547 67.2737 156.282 67.4438 155.943 67.6307C155.604 67.8181 155.319 67.9517 155.306 67.9291C155.294 67.9064 155.559 67.7368 155.898 67.5495C156.237 67.3625 156.522 67.2289 156.535 67.2515Z" fill="#FAFAFA"/>
<path d="M154.33 62.5912C154.341 62.6196 153.69 62.8145 153.021 63.2949C152.347 63.7691 151.949 64.3192 151.926 64.2993C151.917 64.293 152.004 64.1479 152.181 63.9387C152.356 63.7296 152.627 63.4623 152.968 63.2195C153.309 62.9775 153.651 62.8096 153.906 62.7128C154.161 62.6156 154.327 62.5805 154.33 62.5912Z" fill="#FAFAFA"/>
<path d="M158.329 67.7528C158.299 67.7484 158.453 67.1481 158.353 66.4071C158.261 65.6647 157.96 65.1235 157.988 65.1115C157.997 65.1062 158.084 65.2332 158.186 65.4605C158.287 65.6869 158.395 66.0177 158.444 66.3951C158.492 66.7729 158.473 67.1197 158.432 67.3648C158.392 67.6103 158.34 67.7555 158.329 67.7528Z" fill="#FAFAFA"/>
<path d="M172.067 53.272C172.067 53.272 171.911 53.4727 171.58 53.7901C171.251 54.108 170.736 54.532 170.045 54.972C169.352 55.4116 168.482 55.8569 167.491 56.2921C166.502 56.7303 165.395 57.1632 164.272 57.7018C163.152 58.2421 162.128 58.8588 161.328 59.5799C160.527 60.2987 159.951 61.0992 159.598 61.831C159.247 62.5658 159.108 63.2202 159.071 63.6731C159.031 64.1273 159.064 64.3804 159.049 64.3809C159.049 64.3809 159.04 64.3182 159.033 64.1979C159.021 64.0776 159.024 63.8996 159.035 63.6704C159.062 63.2136 159.191 62.5494 159.539 61.803C159.888 61.0597 160.464 60.2463 161.27 59.5164C162.076 58.7838 163.107 58.1609 164.232 57.6183C165.359 57.0775 166.468 56.6473 167.457 56.2139C168.447 55.7837 169.316 55.3468 170.01 54.9165C170.702 54.4863 171.22 54.0725 171.556 53.7639C171.723 53.609 171.851 53.4864 171.934 53.399C172.019 53.3137 172.067 53.272 172.067 53.272Z" fill="#FAFAFA"/>
<path d="M170.866 58.5416C170.869 58.5434 170.849 58.578 170.807 58.6424C170.751 58.7281 170.69 58.8195 170.623 58.9212C170.463 59.1636 170.214 59.5028 169.889 59.9078C169.241 60.719 168.249 61.7703 166.996 62.7458C165.739 63.7186 164.475 64.4188 163.528 64.845C163.055 65.0595 162.665 65.2171 162.39 65.3117C162.275 65.3516 162.171 65.3881 162.074 65.4214C162.002 65.4453 161.963 65.4569 161.962 65.4538C161.962 65.4507 161.998 65.4338 162.068 65.404C162.163 65.3654 162.265 65.3241 162.377 65.2779C162.647 65.1736 163.032 65.0071 163.5 64.786C164.436 64.346 165.688 63.6405 166.938 62.673C168.185 61.7024 169.179 60.6643 169.838 59.8665C170.168 59.4682 170.425 59.1361 170.593 58.9003C170.665 58.8026 170.731 58.7143 170.792 58.6321C170.838 58.5709 170.864 58.5398 170.866 58.5416Z" fill="#FAFAFA"/>
<path d="M152.334 52.3027C152.334 52.3027 152.881 52.5114 153.679 53.0154C154.477 53.5157 155.502 54.3469 156.401 55.4764C157.296 56.6095 157.871 57.7986 158.175 58.6892C158.483 59.5812 158.562 60.162 158.562 60.162C158.558 60.1624 158.547 60.1278 158.528 60.0612C158.503 59.9702 158.478 59.8738 158.449 59.769C158.387 59.5142 158.275 59.1505 158.114 58.711C157.795 57.831 157.215 56.6579 156.328 55.5337C155.437 54.4135 154.427 53.5815 153.643 53.07C153.252 52.8129 152.924 52.6202 152.69 52.5016C152.594 52.4501 152.507 52.4031 152.424 52.3582C152.363 52.3245 152.332 52.3054 152.334 52.3027Z" fill="#FAFAFA"/>
<path d="M130.066 68.9985C130.24 71.3517 128.686 73.4541 127.12 75.2194C125.554 76.9848 123.812 78.8247 123.473 81.1601C122.874 85.2991 126.926 89.1415 126.09 93.2392C125.642 95.4352 123.844 97.1992 123.524 99.4179C123.214 101.563 124.364 103.663 125.789 105.297C127.214 106.93 128.865 106.691 130.125 108.455C131.453 110.313 133.591 112.219 135.595 113.316C140.136 115.803 145.586 112.205 147.777 111.559" fill="#263238"/>
<path d="M164.408 78.6432C166.502 77.7321 166.666 70.2303 161.414 69.3641C159.307 69.0164 157.552 67.9886 155.781 66.7964C154.213 65.741 153.748 63.0619 152.42 61.7162C149.164 58.4146 144.079 57.0462 139.605 58.2667C135.131 59.4873 131.446 63.2484 130.317 67.7461C129.554 70.7858 130.075 74.3791 132.471 76.3993C135.252 78.7436 139.374 78.2228 142.937 77.4937C146.5 76.7647 150.533 76.0449 153.508 78.1375C155.302 79.3994 156.331 81.452 157.427 83.3514C158.524 85.2513 159.9 87.1907 161.974 87.9046C161.974 87.9046 163.553 91.6156 162.264 94.1988C160.975 96.782 163.78 92.3766 163.78 92.3766C163.78 92.3766 168.894 83.2839 164.408 78.6432Z" fill="#263238"/>
<path d="M137.806 131.293C137.777 126.395 137.808 112.643 137.806 112.668C137.806 112.668 130.027 111.359 128.437 101.202C127.646 96.1501 127.918 87.8713 128.359 81.1043C128.757 75.0135 132.809 67.5485 138.878 68.2039L157.82 73.0364C159.664 73.2353 161.048 74.8119 161.008 76.6661L159.855 123.709L137.806 131.293Z" fill="#FFBE9D"/>
<path d="M131.584 86.9067C131.558 87.5945 132.119 88.1832 132.837 88.2232C133.553 88.2631 134.156 87.7397 134.182 87.0519C134.207 86.3646 133.647 85.7745 132.931 85.7346C132.213 85.6946 131.61 86.2194 131.584 86.9067Z" fill="#263238"/>
<path d="M130.146 85.4148C130.307 85.5849 131.295 84.8571 132.697 84.8638C134.097 84.8505 135.123 85.5738 135.276 85.4024C135.351 85.3269 135.187 85.0196 134.74 84.6924C134.3 84.367 133.548 84.0495 132.675 84.0513C131.803 84.0539 131.068 84.3741 130.645 84.7017C130.213 85.0321 130.067 85.3389 130.146 85.4148Z" fill="#263238"/>
<path d="M143.92 87.6482C144.081 87.8183 145.07 87.0905 146.471 87.0972C147.87 87.0839 148.898 87.8072 149.05 87.6358C149.125 87.5598 148.963 87.2535 148.514 86.9263C148.074 86.6004 147.323 86.2829 146.45 86.2847C145.577 86.2878 144.842 86.6075 144.419 86.9351C143.988 87.265 143.841 87.5718 143.92 87.6482Z" fill="#263238"/>
<path d="M138.811 96.088C138.818 96.0081 137.947 95.8558 136.536 95.672C136.178 95.6342 135.84 95.5623 135.78 95.3181C135.696 95.0592 135.847 94.6738 136.021 94.2578C136.359 93.3925 136.713 92.4858 137.085 91.5357C138.563 87.6595 139.634 84.4721 139.477 84.4139C139.321 84.3557 137.995 87.4504 136.518 91.3265C136.162 92.2825 135.821 93.1936 135.498 94.0656C135.361 94.4718 135.127 94.9327 135.309 95.4695C135.405 95.7372 135.667 95.9317 135.896 95.9939C136.126 96.0645 136.327 96.0689 136.504 96.0795C137.924 96.159 138.806 96.1675 138.811 96.088Z" fill="#263238"/>
<path d="M137.806 112.668C137.806 112.668 144.636 113.123 151.413 109.07C151.298 109.095 147.668 116.129 137.938 115.066L137.806 112.668Z" fill="#EB996E"/>
<path d="M139.216 100.133C139.049 99.2705 140.063 98.9907 140.809 98.5272C141.554 98.0637 141.983 97.4474 142.682 97.9793C143.081 98.283 143.366 98.7195 143.546 99.1879C143.667 99.5036 143.743 99.8468 143.686 100.18C143.617 100.585 143.359 100.934 143.061 101.217C142.64 101.616 142.113 101.917 141.54 102.013C140.968 102.108 140.349 101.985 139.893 101.625C139.437 101.266 139.168 100.661 139.265 100.089" fill="#EB996E"/>
<path d="M142.933 97.0661C142.705 97.0523 142.699 98.5734 141.395 99.6501C140.093 100.73 138.472 100.556 138.459 100.769C138.438 100.864 138.82 101.065 139.504 101.085C140.175 101.109 141.156 100.896 141.954 100.237C142.75 99.5769 143.093 98.6942 143.147 98.0704C143.206 97.4346 143.037 97.0576 142.933 97.0661Z" fill="#263238"/>
<path d="M143.712 84.5171C143.849 84.8981 145.249 84.7209 146.892 84.9225C148.54 85.0912 149.865 85.5756 150.084 85.2342C150.181 85.0708 149.951 84.712 149.416 84.3422C148.885 83.9728 148.038 83.6207 147.051 83.5088C146.064 83.3987 145.161 83.5532 144.561 83.7956C143.957 84.0372 143.653 84.336 143.712 84.5171Z" fill="#263238"/>
<path d="M130.341 80.5678C130.587 80.8865 131.553 80.5584 132.714 80.5451C133.874 80.4914 134.857 80.7636 135.085 80.4314C135.184 80.2698 135.03 79.951 134.601 79.6487C134.178 79.3476 133.471 79.1008 132.673 79.123C131.876 79.1465 131.184 79.4338 130.78 79.7588C130.369 80.0847 130.233 80.4119 130.341 80.5678Z" fill="#263238"/>
<path d="M162.118 107.005C159.325 107.568 159.076 106.147 156.99 104.208C154.904 102.268 153.826 99.2976 154.184 96.4715C154.5 93.9776 155.844 91.4405 154.98 89.0798C153.836 85.9589 149.462 84.999 148.301 81.8848C147.626 80.075 148.232 77.9576 147.467 76.1838C146.748 74.5157 144.993 73.5553 143.285 72.9377C141.577 72.3201 139.745 71.8939 138.311 70.779C136.877 69.6641 135.983 67.5604 136.908 65.9976C144.483 66.9051 151.949 68.7193 159.096 71.3886C160.753 72.0075 162.494 72.7512 163.474 74.224C164.51 75.7824 164.461 77.7964 164.374 79.6661C163.948 88.7836 163.523 97.9007 163.097 107.018" fill="#263238"/>
<path d="M168.588 103.598C168.595 103.602 168.632 103.559 168.699 103.472C168.762 103.38 168.875 103.256 168.98 103.065C169.209 102.697 169.484 102.104 169.649 101.29C169.811 100.479 169.826 99.4289 169.486 98.2914C169.168 97.156 168.378 95.9368 167.123 95.1132C165.918 94.2638 164.35 93.672 163.353 92.3204C162.856 91.6607 162.645 90.8037 162.801 89.9362C162.937 89.065 163.336 88.2108 163.685 87.3015C164.462 85.482 164.469 83.2091 163.554 81.2391C163.093 80.2596 162.409 79.3463 161.493 78.6794C160.584 77.9917 159.474 77.6374 158.379 77.3883C157.279 77.1374 156.182 76.9918 155.164 76.6845C154.148 76.3808 153.177 75.9257 152.471 75.2118C151.748 74.5067 151.441 73.5308 151.304 72.5478C151.165 71.5657 151.091 70.5467 150.825 69.5956C150.329 67.6913 149.361 66.0041 148.085 64.792C146.809 63.5723 145.247 62.8721 143.771 62.6519C142.29 62.421 140.895 62.6954 139.846 63.246C138.785 63.7859 138.049 64.5345 137.575 65.2116C137.103 65.8976 136.883 66.5143 136.781 66.9347C136.676 67.3565 136.682 67.5879 136.682 67.5879C136.748 67.6154 136.762 66.635 137.716 65.3133C138.197 64.6712 138.928 63.9666 139.957 63.4693C140.974 62.9623 142.306 62.7238 143.722 62.9632C145.131 63.1932 146.622 63.8822 147.828 65.0584C149.038 66.2297 149.958 67.8574 150.427 69.6991C150.678 70.6191 150.743 71.5887 150.882 72.6113C151.014 73.6165 151.352 74.7309 152.159 75.519C152.942 76.3129 153.98 76.7915 155.035 77.1103C156.102 77.4327 157.203 77.5774 158.279 77.8238C159.35 78.0672 160.394 78.4055 161.23 79.0377C162.079 79.6531 162.72 80.5038 163.157 81.4242C164.021 83.2859 164.032 85.4083 163.299 87.1563C162.964 88.0505 162.556 88.9278 162.412 89.878C162.243 90.8228 162.498 91.828 163.052 92.5393C164.16 93.9961 165.775 94.5631 166.944 95.3752C168.16 96.1526 168.913 97.2777 169.246 98.3677C169.596 99.4533 169.609 100.47 169.476 101.261C169.199 102.866 168.521 103.569 168.588 103.598Z" fill="#455A64"/>
<path d="M155.376 93.5083C153.077 98.7999 152.651 104.883 154.19 110.443C154.65 112.104 155.284 113.827 154.892 115.505C154.467 117.322 152.948 118.636 151.839 120.137C149.932 122.721 149.188 126.132 149.848 129.276C150.507 132.419 152.559 135.244 155.344 136.843C155.637 135.173 157.191 134.035 158.723 133.309C160.255 132.583 161.948 132.044 163.116 130.816C164.285 129.588 164.615 127.336 163.257 126.321C167.166 125.3 169.381 120.657 168.558 116.702C167.736 112.746 164.519 109.621 160.86 107.908" fill="#263238"/>
<path d="M159.545 132.938C158.845 133.321 158.167 133.664 158.081 134.456C157.98 135.386 158.872 137.019 159.192 137.897C159.819 139.616 159.347 141.683 158.036 142.96C156.724 144.236 154.646 144.653 152.944 143.98C154.195 144.076 155.256 142.856 155.367 141.606C155.479 140.357 154.873 139.151 154.127 138.142C153.381 137.133 152.478 136.236 151.846 135.152C150.559 132.947 148.647 126.946 150.119 123.584" fill="#263238"/>
<path d="M163.098 126.476C163.094 126.469 163.176 126.399 163.338 126.273C163.501 126.149 163.737 125.959 164.035 125.709C164.627 125.206 165.467 124.446 166.317 123.349C167.163 122.257 168.028 120.81 168.48 119.034C168.924 117.274 168.957 115.172 168.194 113.204C167.814 112.223 167.248 111.354 166.587 110.609C165.934 109.857 165.222 109.202 164.554 108.566C163.886 107.93 163.255 107.312 162.732 106.67C162.208 106.027 161.812 105.356 161.538 104.706C160.969 103.407 160.947 102.203 161.146 101.442C161.247 101.06 161.374 100.779 161.478 100.601C161.584 100.424 161.643 100.333 161.65 100.338C161.68 100.352 161.409 100.709 161.234 101.463C161.067 102.212 161.113 103.378 161.688 104.64C161.965 105.272 162.361 105.924 162.88 106.548C163.4 107.174 164.029 107.782 164.701 108.412C165.371 109.043 166.091 109.698 166.759 110.461C167.432 111.215 168.02 112.112 168.41 113.121C169.194 115.145 169.151 117.294 168.687 119.088C168.214 120.898 167.319 122.359 166.447 123.451C165.569 124.548 164.705 125.296 164.093 125.78C163.784 126.021 163.538 126.199 163.366 126.312C163.195 126.425 163.103 126.482 163.098 126.476Z" fill="#455A64"/>
<path d="M35.4949 179.504C36.6173 180.911 38.5887 180.297 39.4603 179.341C40.3318 178.385 40.6422 177.059 40.9215 175.796C41.559 172.909 42.1944 169.882 41.4059 167.033C41.1701 166.181 40.7931 165.34 40.1462 164.738C39.4993 164.136 38.5425 163.814 37.7038 164.093C36.7115 164.423 36.1462 165.451 35.752 166.42C34.5931 169.268 34.0803 172.377 34.2632 175.446C34.348 176.88 34.6118 178.372 35.4949 179.504Z" fill="#FC8019"/>
<g opacity="0.2">
<path d="M35.4949 179.504C36.6173 180.911 38.5887 180.297 39.4603 179.341C40.3318 178.385 40.6422 177.059 40.9215 175.796C41.559 172.909 42.1944 169.882 41.4059 167.033C41.1701 166.181 40.7931 165.34 40.1462 164.738C39.4993 164.136 38.5425 163.814 37.7038 164.093C36.7115 164.423 36.1462 165.451 35.752 166.42C34.5931 169.268 34.0803 172.377 34.2632 175.446C34.348 176.88 34.6118 178.372 35.4949 179.504Z" fill="black"/>
</g>
<path d="M39.8222 186.711C41.4517 185.736 43.4283 185.498 45.3176 185.69C46.3325 185.793 47.399 186.027 48.1303 186.739C48.8611 187.451 49.0747 188.77 48.3305 189.468C47.8874 189.884 47.2396 189.983 46.6331 190.014C45.1679 190.089 43.5273 189.934 42.4134 190.888C41.7775 191.433 41.3859 192.296 40.6041 192.593C39.8386 192.884 38.9293 192.479 38.4706 191.801C38.0124 191.122 37.9432 190.243 38.0861 189.436C38.0861 189.437 38.1807 187.694 39.8222 186.711Z" fill="#FC8019"/>
<path d="M32.7987 181.793C33.8337 180.396 33.9238 178.447 33.3218 176.815C32.7197 175.184 31.5062 173.84 30.1378 172.767C28.5337 171.509 26.6817 170.567 24.7197 170.013C23.9476 169.795 23.1373 169.636 22.3452 169.762C21.5526 169.888 20.7756 170.346 20.4484 171.079C19.9645 172.162 20.5718 173.401 21.2072 174.403C22.3265 176.167 23.5853 177.844 24.9674 179.412C26.0792 180.674 27.3397 181.908 28.9448 182.408C30.5499 182.908 32.1736 182.736 32.9364 181.596" fill="#FC8019"/>
<path d="M36.8215 201.7C36.8411 201.7 36.857 201.46 36.8726 201.026C36.8895 200.536 36.9103 199.921 36.9352 199.19C36.972 198.417 37.0267 197.497 37.1772 196.488C37.3272 195.483 37.5923 194.387 37.9511 193.269C38.3254 192.157 38.8031 191.138 39.3839 190.31C39.9602 189.479 40.6524 188.86 41.3161 188.487C41.9773 188.107 42.5802 187.931 42.9993 187.844C43.4229 187.773 43.66 187.724 43.6587 187.706C43.6578 187.687 43.418 187.699 42.9807 187.738C42.5482 187.794 41.9182 187.945 41.2198 188.317C40.5187 188.682 39.7826 189.313 39.1765 190.162C38.5651 191.008 38.0692 192.05 37.6882 193.182C37.3233 194.319 37.064 195.426 36.9245 196.453C36.7856 197.478 36.7514 198.407 36.7394 199.185C36.7301 199.963 36.7478 200.592 36.7647 201.026C36.7825 201.46 36.8024 201.7 36.8215 201.7Z" fill="#263238"/>
<path d="M36.8584 200.289C36.8678 200.288 36.8673 200.18 36.8567 199.977C36.8416 199.744 36.822 199.451 36.7985 199.091C36.7479 198.321 36.6782 197.207 36.6329 195.829C36.5281 193.074 36.5259 189.261 36.7208 185.059C36.9188 180.854 37.2931 177.06 37.6803 174.33C37.7695 173.646 37.8636 173.03 37.9551 172.49C38.0404 171.949 38.1132 171.483 38.1878 171.105C38.2499 170.749 38.3005 170.459 38.3409 170.229C38.3729 170.029 38.3853 169.922 38.376 169.92C38.3667 169.918 38.3361 170.02 38.2863 170.217C38.2326 170.445 38.1651 170.732 38.0821 171.084C37.9911 171.459 37.9027 171.924 37.8028 172.464C37.6967 173.003 37.5888 173.618 37.4871 174.301C37.0494 177.031 36.6431 180.832 36.4446 185.045C36.2493 189.257 36.2826 193.079 36.438 195.838C36.5086 197.218 36.608 198.332 36.6915 199.1C36.7363 199.459 36.7727 199.751 36.8016 199.983C36.8296 200.184 36.8491 200.29 36.8584 200.289Z" fill="#263238"/>
<path d="M36.4144 192.941C36.4335 192.94 36.4096 192.611 36.3496 192.015C36.2781 191.422 36.1418 190.566 35.9078 189.523C35.6641 188.482 35.3368 187.249 34.8613 185.917C34.4044 184.578 33.8019 183.14 33.0596 181.686C31.6015 178.756 29.7234 176.404 28.1281 174.975C27.7511 174.592 27.3408 174.325 27.0096 174.059C26.8387 173.932 26.6868 173.805 26.5341 173.705C26.3809 173.613 26.2384 173.528 26.1061 173.448C25.5915 173.142 25.3038 172.981 25.2945 172.998C25.2541 173.061 26.4462 173.665 27.9949 175.118C29.5373 176.568 31.3666 178.906 32.8127 181.811C33.5489 183.253 34.1536 184.678 34.6207 186.002C35.1064 187.321 35.4505 188.54 35.7174 189.569C35.9744 190.6 36.1387 191.445 36.2426 192.031C36.3354 192.618 36.3958 192.943 36.4144 192.941Z" fill="#263238"/>
<path d="M104.157 91.357C103.337 88.4559 99.5674 88.7374 99.5674 88.7374L99.6708 90.755C101.85 90.3789 103.205 92.9332 103.205 92.9332L104.157 91.357Z" fill="#FC8019"/>
<path d="M67.0603 57.6064C65.025 57.8222 64.7817 60.3779 64.7817 60.3779L66.1439 60.5395C66.1417 59.0379 68.0065 58.4239 68.0065 58.4239L67.0603 57.6064Z" fill="#FC8019"/>
<path d="M86.0117 30.5328C87.2536 33.6963 91.4521 32.9606 91.4521 32.9606L91.1111 30.7086C88.7077 31.3728 86.9042 28.6582 86.9042 28.6582L86.0117 30.5328Z" fill="#FC8019"/>
<path d="M38.6658 83.9741C36.6305 84.1899 36.3872 86.7456 36.3872 86.7456L37.7494 86.9072C37.7472 85.4056 39.612 84.7915 39.612 84.7915L38.6658 83.9741Z" fill="#FC8019"/>
<path d="M47.0518 40.6415C47.3475 38.6159 44.9326 37.7466 44.9326 37.7466L44.438 39.0262C45.8934 39.3969 46.0257 41.3554 46.0257 41.3554L47.0518 40.6415Z" fill="#FC8019"/>
<path d="M12.2554 71.7258C11.89 74.9013 16.0965 75.6703 16.0965 75.6703L16.8557 73.5923C14.332 73.3641 13.9675 70.3911 13.9675 70.3911L12.2554 71.7258Z" fill="#FC8019"/>
<path d="M112.234 56.4019C114.278 56.5187 114.931 54.0363 114.931 54.0363L113.614 53.6562C113.372 55.1383 111.433 55.4425 111.433 55.4425L112.234 56.4019Z" fill="#FC8019"/>
</svg>
